<svg version="1.1" id="Layer_1" xmlns="http://www.w3.org/2000/svg" xmlns:xlink="http://www.w3.org/1999/xlink" x="0px" y="0px"
	 width="100%" viewBox="0 0 992 992" enable-background="new 0 0 992 992" xml:space="preserve">
<path fill="#000000" opacity="1.000000" stroke="none" 
	d="
M644.907471,665.027954 
	C610.813293,684.710571 577.117737,704.349731 543.242737,723.674377 
	C520.489014,736.654724 496.587799,740.219482 472.207367,728.869263 
	C458.991241,722.716553 446.488098,715.003052 433.794617,707.763550 
	C412.313599,695.512268 390.935272,683.080933 369.516357,670.720825 
	C341.921326,654.796753 314.338470,638.851624 286.731567,622.948303 
	C270.628296,613.671814 254.323685,604.732361 238.410095,595.142761 
	C221.828262,585.150391 212.306625,569.997620 208.779709,551.113464 
	C207.903275,546.420715 207.696121,541.546692 207.692688,536.755554 
	C207.631500,451.440277 207.507721,366.124512 207.779907,280.810059 
	C207.829193,265.358887 211.403168,250.389191 221.196991,237.837616 
	C228.679016,228.248795 238.874496,221.827286 249.289017,215.832016 
	C266.124146,206.140625 282.960968,196.452042 299.823120,186.807785 
	C302.195099,185.451141 304.443878,183.534958 307.471832,183.965546 
	C308.864319,186.550034 308.279053,189.092789 308.307648,191.533463 
	C308.722260,226.897629 313.225739,261.572144 325.292511,295.034668 
	C333.640045,318.183380 345.913879,339.145355 360.176819,359.067322 
	C375.896454,381.024017 393.832245,401.331757 408.533905,424.038086 
	C424.886230,449.293793 435.675537,476.700317 440.410461,506.482635 
	C443.494873,525.883301 444.979065,545.384521 444.281128,564.998596 
	C443.432220,588.854370 441.149597,612.594116 436.844849,636.091553 
	C436.275360,639.200012 437.239014,642.424561 435.195648,645.083984 
	C437.225433,646.368530 438.277161,645.418457 439.227203,644.559082 
	C454.470490,630.770569 470.106506,617.436462 485.667328,604.009888 
	C505.285187,587.082703 525.393860,570.856384 547.090210,556.646667 
	C575.441284,538.078491 605.689392,523.785156 639.275146,518.036194 
	C664.345825,513.744690 689.029114,508.139069 713.155701,500.198517 
	C738.640625,491.810944 763.100708,480.947205 786.863403,468.502258 
	C789.205505,467.275665 791.470337,465.810638 794.362366,465.332275 
	C795.975830,467.091675 796.340759,469.276398 796.340149,471.598450 
	C796.335510,489.594635 796.861938,507.611206 796.163879,525.580322 
	C795.632080,539.267822 794.831360,553.111755 789.110657,566.007141 
	C781.598755,582.939941 768.125549,593.869507 752.557739,602.812927 
	C732.692505,614.224915 712.916748,625.792664 693.085083,637.263306 
	C677.146606,646.482117 661.182495,655.656494 644.907471,665.027954 
M247.417587,579.111572 
	C261.044067,588.968750 276.174042,596.305725 290.646667,604.732056 
	C316.301270,619.668884 342.193268,634.199158 368.044098,648.796448 
	C371.109375,650.527283 373.832153,653.227905 378.200531,653.352417 
	C377.109497,650.974670 375.520721,649.633667 373.822449,648.380676 
	C341.521210,624.547424 309.169922,600.781433 276.959900,576.825439 
	C269.940552,571.604858 262.621613,566.659302 256.659821,560.146484 
	C245.645828,548.114563 244.894104,532.887451 243.634995,517.814331 
	C242.643204,505.940918 241.614075,494.068787 240.412781,482.215210 
	C238.928299,467.567322 237.182312,452.946045 235.674667,438.300354 
	C234.522293,427.105743 233.627426,415.884796 232.505341,404.686859 
	C230.938324,389.048676 229.291214,373.418396 227.628052,357.790100 
	C226.875275,350.716461 226.001434,343.655701 225.182526,336.589111 
	C224.342621,350.945435 224.212585,365.237823 224.366028,379.527191 
	C224.912857,430.454468 223.236740,481.390198 225.254227,532.316345 
	C225.994049,550.991028 232.813522,566.391418 247.417587,579.111572 
z"/>
<path fill="#000000" opacity="1.000000" stroke="none" 
	d="
M558.801758,352.399353 
	C537.852234,343.284332 519.586853,330.931183 503.272278,315.434296 
	C478.363922,291.774445 461.152588,263.463959 451.036865,230.794937 
	C445.724518,213.638519 442.805481,196.103500 442.502045,178.004959 
	C442.108124,154.510925 445.043579,131.672943 452.620544,109.437897 
	C453.637543,106.453407 454.758453,103.504379 455.780762,100.521622 
	C456.625122,98.058113 458.108643,95.962463 460.264374,94.675957 
	C470.459625,88.591599 481.284180,84.345360 493.165253,82.581413 
	C514.182922,79.460968 532.106201,87.220078 549.577454,97.410500 
	C572.926575,111.029259 596.433105,124.377975 619.852844,137.875931 
	C641.976440,150.626831 664.081421,163.409943 686.183105,176.198776 
	C708.580139,189.158493 730.990479,202.095490 753.341431,215.134201 
	C766.054443,222.550461 777.896423,230.977875 785.330566,244.239456 
	C790.254395,253.022919 793.469055,262.333466 794.372681,272.405579 
	C794.608887,275.038635 794.954834,277.665833 795.357239,280.279266 
	C796.584351,288.249542 793.791931,294.554138 788.518555,300.600281 
	C772.984009,318.411316 755.103271,333.116028 734.518127,344.782410 
	C714.780640,355.968323 693.725647,363.257538 671.509521,366.961426 
	C651.962219,370.220367 632.278564,370.386444 612.526489,367.595612 
	C594.001160,364.978027 576.191345,360.238129 558.801758,352.399353 
z"/>
<path fill="#000000" opacity="1.000000" stroke="none" 
	d="
M475.348694,822.000122 
	C475.348633,834.487183 474.834045,846.502747 475.497681,858.452942 
	C476.118713,869.635254 464.283295,880.502380 455.624756,882.293579 
	C445.178192,884.454773 435.247192,882.176697 425.311707,879.379822 
	C422.653381,878.631470 421.427216,877.118103 421.646118,874.338745 
	C421.878845,871.383484 421.204407,868.364502 422.162323,865.504822 
	C424.171204,864.099121 425.683472,865.584961 427.340820,866.125732 
	C434.694641,868.525391 441.975067,871.574707 449.976257,869.549377 
	C455.181000,868.231812 460.127991,862.838562 460.617035,858.176575 
	C461.145325,853.140137 459.671173,851.402771 454.771362,852.547974 
	C447.959503,854.139954 441.477020,852.929626 435.315674,850.574341 
	C419.734222,844.618042 412.086151,829.584045 413.987427,814.021118 
	C415.296448,803.306396 419.623230,794.272339 429.749115,789.024536 
	C438.306274,784.589722 447.514221,785.233826 456.606415,786.048279 
	C461.172333,786.457275 465.630341,788.035095 470.147003,789.040039 
	C473.917755,789.879089 475.598267,791.864319 475.441467,796.031311 
	C475.122467,804.510071 475.347565,813.009277 475.348694,822.000122 
M460.658508,804.853027 
	C461.192200,801.214905 459.739471,799.457275 455.968994,798.911682 
	C447.790527,797.728210 439.449219,797.274475 434.042053,804.515991 
	C428.285278,812.225708 427.280060,821.412598 432.640594,829.794800 
	C437.825897,837.902954 445.489044,841.924072 455.606506,839.647339 
	C459.002228,838.883179 460.818451,837.616455 460.725647,833.737854 
	C460.502777,824.422974 460.657471,815.098938 460.658508,804.853027 
z"/>
<path fill="#000000" opacity="1.000000" stroke="none" 
	d="
M207.647247,830.996094 
	C207.644592,811.695312 207.745865,792.892456 207.553787,774.092590 
	C207.514603,770.259399 208.782852,768.559998 212.419724,767.424500 
	C221.864853,764.475464 231.340790,762.127563 241.229370,764.438049 
	C260.019653,768.828552 267.410950,788.020142 256.615753,804.015198 
	C256.254364,804.550659 255.993759,805.154114 255.443710,806.176697 
	C262.126465,811.719849 263.234192,819.175171 263.567596,827.511780 
	C264.002808,838.394897 252.066040,850.616516 241.323318,852.248901 
	C231.335175,853.766724 221.621567,852.169617 212.077057,849.055542 
	C208.964050,848.039795 207.373871,846.447693 207.597000,842.972168 
	C207.841675,839.161072 207.649399,835.321960 207.647247,830.996094 
M231.499908,813.382751 
	C230.505142,813.382385 229.496796,813.488464 228.517914,813.363586 
	C223.815720,812.763733 221.893433,814.597656 222.257370,819.485107 
	C222.625702,824.431824 222.493256,829.432739 222.293488,834.398376 
	C222.179031,837.243408 223.301819,839.008667 225.949097,839.320923 
	C229.668793,839.759705 233.423553,840.590820 237.197800,839.581970 
	C242.998001,838.031372 246.699448,834.098511 248.328888,828.594849 
	C249.827957,823.531494 247.938919,819.244141 243.758759,815.874146 
	C240.328629,813.108887 236.389755,813.374207 231.499908,813.382751 
M222.338806,787.602051 
	C222.338837,788.266174 222.325104,788.930664 222.340958,789.594421 
	C222.642365,802.209839 219.953476,800.607544 233.886856,800.606140 
	C239.892670,800.605530 244.671783,796.645630 246.303833,790.905762 
	C247.326645,787.308533 244.075073,781.178589 239.729019,778.421631 
	C234.712494,775.239197 229.442719,775.856689 224.498093,778.092712 
	C220.823502,779.754456 222.798920,783.704529 222.338806,787.602051 
z"/>
<path fill="#000000" opacity="1.000000" stroke="none" 
	d="
M593.007874,815.371094 
	C578.335205,815.369080 578.335327,815.369080 578.338257,829.376709 
	C578.339539,835.372681 578.205933,841.372803 578.392273,847.363037 
	C578.501709,850.882080 577.501160,852.496033 573.633911,852.398621 
	C562.054016,852.106689 563.716614,853.382019 563.676086,842.599487 
	C563.590332,819.781860 563.642212,796.963562 563.653198,774.145569 
	C563.656311,767.675293 563.680969,767.673950 570.341370,767.650208 
	C571.673828,767.645508 573.012695,767.740906 574.337402,767.641052 
	C577.415466,767.408813 578.392578,768.900452 578.360657,771.817627 
	C578.265808,780.477295 578.480347,789.141968 578.285156,797.798218 
	C578.201904,801.489624 579.441528,802.794800 583.168213,802.707703 
	C591.990723,802.501282 600.825745,802.481934 609.646973,802.715759 
	C613.726318,802.823853 614.797852,801.145264 614.709778,797.380676 
	C614.518982,789.224060 614.784363,781.056885 614.604492,772.899780 
	C614.523071,769.205872 615.458862,767.468140 619.594238,767.577026 
	C632.395325,767.914429 630.226807,766.298401 630.295898,778.067993 
	C630.429871,800.885193 630.236328,823.704712 630.436707,846.520996 
	C630.476746,851.079834 629.135498,852.616882 624.506653,852.446655 
	C613.116638,852.027527 614.806030,853.427612 614.680359,842.478394 
	C614.594360,834.984314 614.539734,827.486267 614.696899,819.994690 
	C614.769775,816.518921 613.417175,815.218079 609.993713,815.318848 
	C604.502075,815.480530 599.002319,815.367126 593.007874,815.371094 
z"/>
<path fill="#000000" opacity="1.000000" stroke="none" 
	d="
M505.725586,850.774780 
	C482.187347,842.624268 480.290924,805.449951 496.015930,792.722595 
	C499.994873,789.502197 504.251038,787.017395 509.279053,786.283264 
	C517.207825,785.125732 525.155457,784.766479 532.832275,787.834045 
	C545.002930,792.697327 549.816040,802.886108 551.144348,814.816772 
	C552.367859,825.806091 550.816406,836.465637 542.236877,844.752686 
	C537.124939,849.690430 531.017761,852.464172 523.858826,852.315308 
	C517.916260,852.191711 511.854858,853.326599 505.725586,850.774780 
M523.706665,839.500000 
	C525.934875,838.808655 527.993286,837.963562 529.767761,836.253845 
	C538.938477,827.417419 537.630493,808.121887 527.264587,800.744690 
	C521.848572,796.890198 511.158203,797.699341 506.802063,802.293396 
	C501.110779,808.295349 499.695526,820.434082 503.537079,829.121948 
	C507.306122,837.645813 513.853027,840.857056 523.706665,839.500000 
z"/>
<path fill="#000000" opacity="1.000000" stroke="none" 
	d="
M331.010925,840.810913 
	C319.989563,854.375977 305.809113,854.970520 291.026398,850.738525 
	C282.670990,848.346497 276.957245,841.848999 273.953461,833.670715 
	C270.666107,824.720459 270.548889,815.378784 272.972046,806.198853 
	C275.884521,795.165100 283.295746,788.545593 294.483765,786.529541 
	C307.453827,784.192505 319.666931,784.998413 329.189270,795.909668 
	C332.831940,800.083740 335.179169,805.042480 335.773834,810.202087 
	C336.969269,820.574097 337.813538,831.180115 331.010925,840.810913 
M299.926666,839.550781 
	C312.522797,841.454468 317.232941,836.229919 319.509766,829.654236 
	C321.621796,823.554565 321.718933,817.315063 320.051758,811.138367 
	C317.516876,801.746887 310.114502,797.094177 300.357727,798.484619 
	C292.910431,799.545898 287.481934,806.660034 287.349884,815.555420 
	C287.320221,817.553345 287.289246,819.553894 287.355377,821.550049 
	C287.632446,829.913147 291.000549,836.248413 299.926666,839.550781 
z"/>
<path fill="#000000" opacity="1.000000" stroke="none" 
	d="
M744.434937,795.474365 
	C755.098022,782.065979 779.832092,782.679382 789.242920,794.092102 
	C793.682068,799.475525 795.967163,805.562622 795.214111,812.485901 
	C794.359558,820.342590 787.924866,825.137512 778.283752,825.323669 
	C771.128052,825.461914 763.967041,825.297058 756.809692,825.379700 
	C752.049255,825.434631 751.544312,826.435364 753.834167,830.721191 
	C757.190735,837.003601 763.538513,839.878906 770.665039,839.864990 
	C777.599060,839.851379 783.944458,837.279785 790.782043,836.368164 
	C791.788391,840.138184 791.299377,843.782104 791.213989,847.396484 
	C791.178894,848.880920 790.319580,849.956421 788.833496,850.202332 
	C774.949951,852.499084 760.944519,856.005493 748.130920,846.505127 
	C741.474487,841.569763 738.091125,834.625061 737.102844,826.709290 
	C735.720276,815.635193 736.180664,804.760193 744.434937,795.474365 
M770.677124,798.591003 
	C760.468689,798.001526 753.096313,803.596313 753.037903,812.500671 
	C760.773132,812.500671 768.528381,812.736145 776.257935,812.393005 
	C779.694214,812.240356 781.020752,809.854675 779.542725,806.397461 
	C777.944397,802.658691 774.985474,800.431702 770.677124,798.591003 
z"/>
<path fill="#000000" opacity="1.000000" stroke="none" 
	d="
M399.684601,798.578491 
	C402.503113,803.289185 403.427521,808.072449 403.380676,813.174194 
	C403.276764,824.490479 403.238464,835.809937 403.403534,847.124817 
	C403.458008,850.856140 402.472900,852.522949 398.382935,852.427673 
	C386.920685,852.160645 388.800110,853.055176 388.681854,842.863525 
	C388.577606,833.877502 388.688477,824.889221 388.656281,815.902100 
	C388.615631,804.565613 382.408142,799.470886 371.324219,801.622925 
	C362.599030,803.317017 362.351318,803.611938 362.345367,812.654480 
	C362.337799,824.138184 362.249146,835.623047 362.399780,847.104797 
	C362.447876,850.769348 361.601715,852.552307 357.426575,852.431641 
	C346.090118,852.104065 347.738953,853.257080 347.672607,842.933350 
	C347.581696,828.787292 347.775269,814.638489 347.568268,800.494934 
	C347.511993,796.650513 348.836975,794.607239 352.494476,793.765564 
	C360.537842,791.914307 368.204254,788.740967 376.713287,788.521729 
	C386.027466,788.281738 393.723846,790.714539 399.684601,798.578491 
z"/>
<path fill="#000000" opacity="1.000000" stroke="none" 
	d="
M727.437256,804.275574 
	C721.644897,819.149231 715.861328,833.617004 710.300171,848.169678 
	C708.981934,851.619263 706.798462,852.762634 703.418945,852.359985 
	C699.585876,851.903442 695.094727,854.001831 692.812378,848.433105 
	C685.774353,831.261658 678.419250,814.220337 671.231384,797.109924 
	C670.609924,795.630615 669.752686,794.114746 670.381836,792.160889 
	C674.586487,791.178223 678.903442,791.711792 683.182190,791.743652 
	C685.882690,791.763733 686.479614,794.010559 687.343323,796.044067 
	C691.749451,806.417664 696.229248,816.760132 700.736389,827.090271 
	C701.040283,827.786682 701.782043,828.291992 702.714661,829.321716 
	C706.828552,819.078674 710.643250,809.237183 714.728394,799.509277 
	C718.502441,790.522095 716.315857,791.775452 727.001038,791.663330 
	C728.464539,791.647949 729.930298,791.842224 731.560181,791.950378 
	C731.400452,796.578308 728.999329,800.085999 727.437256,804.275574 
z"/>
<path fill="#000000" opacity="1.000000" stroke="none" 
	d="
M648.269653,852.003540 
	C646.176270,850.415344 646.699829,848.459045 646.694946,846.698547 
	C646.649414,830.207092 646.802612,813.713623 646.572327,797.225220 
	C646.510559,792.802551 647.928101,791.060791 652.282654,791.629272 
	C653.592896,791.800293 654.958496,791.779724 656.274536,791.631714 
	C660.223694,791.187683 661.448486,792.916260 661.410583,796.793640 
	C661.249390,813.283630 661.177551,829.778748 661.446655,846.265991 
	C661.525879,851.115845 660.004822,852.995667 655.210632,852.370728 
	C653.076050,852.092407 650.889648,852.211975 648.269653,852.003540 
z"/>
<path fill="#000000" opacity="1.000000" stroke="none" 
	d="
M660.566650,761.448242 
	C661.052856,763.755615 661.313293,765.721741 661.328125,767.689636 
	C661.385986,775.379333 661.355713,775.455505 653.455811,775.311523 
	C651.286621,775.272034 647.996521,776.472900 647.214111,773.905579 
	C646.030090,770.020935 646.171326,765.744202 647.245850,761.704041 
	C647.513000,760.699585 648.887024,760.710999 649.866577,760.722534 
	C653.322815,760.763245 656.802002,760.256714 660.566650,761.448242 
z"/>
</svg>