<svg version="1.1" id="Layer_1" xmlns="http://www.w3.org/2000/svg" xmlns:xlink="http://www.w3.org/1999/xlink" x="0px" y="0px"
	 width="100%" viewBox="0 0 900 322" enable-background="new 0 0 900 322" xml:space="preserve">
<path fill="#FFFFFF" opacity="1.000000" stroke="none" 
	d="
M460.000000,323.000000 
	C307.026917,323.000000 154.053818,323.000000 1.040368,323.000000 
	C1.040368,215.712463 1.040368,108.424919 1.040368,1.068686 
	C300.901428,1.068686 600.802917,1.068686 900.852173,1.068686 
	C900.852173,108.215714 900.852173,215.431686 900.852173,323.000000 
	C760.975281,323.000000 620.950317,323.000000 480.259216,322.662567 
	C480.893921,319.663696 482.194763,317.002258 483.561340,314.206329 
	C516.374512,310.443756 544.630249,296.937347 568.130920,273.445374 
	C569.333557,272.243195 571.874451,271.840607 573.747009,271.937836 
	C583.737122,272.456787 590.631287,263.162476 587.255798,253.805634 
	C586.657715,252.147675 586.873596,249.608322 587.762817,248.090775 
	C598.808411,229.239700 605.306763,209.011169 607.092407,187.218445 
	C607.210754,185.773758 608.848877,183.943008 610.258118,183.206924 
	C615.214783,180.617981 617.825684,176.597076 617.790833,171.201202 
	C617.755371,165.710068 614.888855,161.541290 609.682983,159.740906 
	C606.846130,158.759842 605.954041,157.273849 605.509766,154.533539 
	C602.790710,137.762741 597.024414,122.076416 588.586670,107.317101 
	C587.759766,105.870674 587.943909,103.296951 588.616455,101.633675 
	C592.369080,92.353157 585.044495,81.911301 575.169556,83.257729 
	C571.907410,83.702522 570.095825,82.901543 567.944458,80.738747 
	C545.562378,58.238159 518.604553,44.890167 487.101074,40.898434 
	C484.058014,40.512848 482.576080,39.253517 481.378571,36.443195 
	C479.236176,31.415415 475.026794,28.801502 469.520020,28.792545 
	C463.942322,28.783474 459.800201,31.546289 457.956299,36.708900 
	C456.838196,39.839390 454.964905,40.684811 452.129272,40.880238 
	C450.473511,40.994350 448.823700,41.265320 447.185089,41.546673 
	C417.332428,46.672359 391.919342,60.201275 370.686279,81.769325 
	C369.552246,82.921234 367.189606,83.822304 365.697571,83.491859 
	C360.182220,82.270370 355.712402,83.730522 352.313293,87.985001 
	C348.789520,92.395454 348.541199,97.266029 350.728333,102.561813 
	C351.445648,104.298691 351.297424,107.062698 350.377747,108.702255 
	C341.303223,124.880356 335.575439,142.110199 333.030151,160.474197 
	C332.805725,162.093628 331.153961,164.106964 329.633850,164.849258 
	C324.039337,167.581131 320.737061,171.975357 320.787811,177.594650 
	C320.837036,183.051010 323.903229,187.506561 329.773651,189.483765 
	C332.336670,190.347000 332.915222,191.615540 333.214508,194.019028 
	C335.526154,212.582596 341.269440,230.029266 350.824036,246.146606 
	C352.230347,248.518875 352.462555,250.308350 350.966980,252.865082 
	C348.194061,257.605438 348.650909,262.578247 352.065552,266.895630 
	C355.449219,271.173828 359.939850,272.582031 365.434662,271.516815 
	C367.136322,271.186890 369.733856,271.799530 370.910492,272.984375 
	C393.666534,295.898560 420.973328,309.536377 452.968262,313.864044 
	C454.297058,314.043793 456.129791,314.496887 456.706757,315.444366 
	C458.122498,317.769257 458.941162,320.457764 460.000000,323.000000 
z"/>
<path fill="#9C08FF" opacity="1.000000" stroke="none" 
	d="
M460.468384,323.000000 
	C458.941162,320.457764 458.122498,317.769257 456.706757,315.444366 
	C456.129791,314.496887 454.297058,314.043793 452.968262,313.864044 
	C420.973328,309.536377 393.666534,295.898560 370.910492,272.984375 
	C369.733856,271.799530 367.136322,271.186890 365.434662,271.516815 
	C359.939850,272.582031 355.449219,271.173828 352.065552,266.895630 
	C348.650909,262.578247 348.194061,257.605438 350.966980,252.865082 
	C352.462555,250.308350 352.230347,248.518875 350.824036,246.146606 
	C341.269440,230.029266 335.526154,212.582596 333.214508,194.019028 
	C332.915222,191.615540 332.336670,190.347000 329.773651,189.483765 
	C323.903229,187.506561 320.837036,183.051010 320.787811,177.594650 
	C320.737061,171.975357 324.039337,167.581131 329.633850,164.849258 
	C331.153961,164.106964 332.805725,162.093628 333.030151,160.474197 
	C335.575439,142.110199 341.303223,124.880356 350.377747,108.702255 
	C351.297424,107.062698 351.445648,104.298691 350.728333,102.561813 
	C348.541199,97.266029 348.789520,92.395454 352.313293,87.985001 
	C355.712402,83.730522 360.182220,82.270370 365.697571,83.491859 
	C367.189606,83.822304 369.552246,82.921234 370.686279,81.769325 
	C391.919342,60.201275 417.332428,46.672359 447.185089,41.546673 
	C448.823700,41.265320 450.473511,40.994350 452.129272,40.880238 
	C454.964905,40.684811 456.838196,39.839390 457.956299,36.708900 
	C459.800201,31.546289 463.942322,28.783474 469.520020,28.792545 
	C475.026794,28.801502 479.236176,31.415415 481.378571,36.443195 
	C482.576080,39.253517 484.058014,40.512848 487.101074,40.898434 
	C518.604553,44.890167 545.562378,58.238159 567.944458,80.738747 
	C570.095825,82.901543 571.907410,83.702522 575.169556,83.257729 
	C585.044495,81.911301 592.369080,92.353157 588.616455,101.633675 
	C587.943909,103.296951 587.759766,105.870674 588.586670,107.317101 
	C597.024414,122.076416 602.790710,137.762741 605.509766,154.533539 
	C605.954041,157.273849 606.846130,158.759842 609.682983,159.740906 
	C614.888855,161.541290 617.755371,165.710068 617.790833,171.201202 
	C617.825684,176.597076 615.214783,180.617981 610.258118,183.206924 
	C608.848877,183.943008 607.210754,185.773758 607.092407,187.218445 
	C605.306763,209.011169 598.808411,229.239700 587.762817,248.090775 
	C586.873596,249.608322 586.657715,252.147675 587.255798,253.805634 
	C590.631287,263.162476 583.737122,272.456787 573.747009,271.937836 
	C571.874451,271.840607 569.333557,272.243195 568.130920,273.445374 
	C544.630249,296.937347 516.374512,310.443756 483.561340,314.206329 
	C482.194763,317.002258 480.893921,319.663696 479.796570,322.662567 
	C473.645599,323.000000 467.291199,323.000000 460.468384,323.000000 
M583.150635,109.713959 
	C581.346924,109.503120 579.526917,109.019562 577.742249,109.126648 
	C567.745667,109.726494 560.676270,100.713295 564.647156,91.591057 
	C566.260925,87.883667 565.464111,86.038017 562.932739,83.578781 
	C541.288879,62.551579 515.486145,50.195019 485.608856,46.386772 
	C484.160583,46.202164 481.929779,47.366154 481.009247,48.605007 
	C474.788513,56.976738 464.345062,56.979992 458.357666,48.574524 
	C457.523407,47.403313 455.524658,46.179508 454.237244,46.342335 
	C423.237152,50.263062 396.727386,63.361713 374.954987,85.818420 
	C374.033264,86.769150 373.588379,89.085182 374.057892,90.339813 
	C378.048523,101.003250 371.935211,109.421692 360.410736,109.152252 
	C358.837402,109.115471 356.493103,110.094261 355.750549,111.343025 
	C346.616089,126.704544 340.963959,143.312012 339.046570,161.094955 
	C338.865540,162.773941 339.919830,165.213486 341.228790,166.322021 
	C348.676605,172.629410 348.768036,181.448196 341.477142,187.804062 
	C340.066101,189.034134 338.871613,191.612717 339.063232,193.410904 
	C340.976807,211.368744 346.723602,228.126068 356.044952,243.571686 
	C356.881409,244.957764 359.750885,245.721085 361.685577,245.738647 
	C371.534546,245.828018 377.904541,254.930389 374.258636,264.052551 
	C373.905182,264.936859 373.518036,265.807678 373.065552,266.875916 
	C395.491913,290.260254 422.320801,304.319977 454.367096,307.984558 
	C455.979645,308.168976 458.250488,306.764008 459.479584,305.424469 
	C465.322113,299.056824 474.691864,298.806183 479.948395,305.528473 
	C481.803436,307.900818 483.537750,308.408997 486.229340,308.066803 
	C500.387177,306.266968 513.892639,302.288788 526.739990,296.104980 
	C541.269043,289.111725 554.096130,279.794983 565.340271,267.930817 
	C561.319580,262.050049 560.764465,256.234375 565.109619,250.639572 
	C569.420105,245.089417 575.217651,244.986954 581.540588,247.069748 
	C593.047119,228.452393 599.785034,208.509628 601.040161,186.825775 
	C601.119507,185.454102 599.453247,183.493286 598.081848,182.606232 
	C590.141846,177.470459 589.251404,166.403229 596.966064,161.175125 
	C600.204651,158.980362 600.227234,156.847656 599.640625,153.724594 
	C596.755920,138.366898 591.520142,123.896332 583.150635,109.713959 
z"/>
<path fill="#FEFDFF" opacity="1.000000" stroke="none" 
	d="
M583.389343,110.056099 
	C591.520142,123.896332 596.755920,138.366898 599.640625,153.724594 
	C600.227234,156.847656 600.204651,158.980362 596.966064,161.175125 
	C589.251404,166.403229 590.141846,177.470459 598.081848,182.606232 
	C599.453247,183.493286 601.119507,185.454102 601.040161,186.825775 
	C599.785034,208.509628 593.047119,228.452393 581.540588,247.069748 
	C575.217651,244.986954 569.420105,245.089417 565.109619,250.639572 
	C560.764465,256.234375 561.319580,262.050049 565.340271,267.930817 
	C554.096130,279.794983 541.269043,289.111725 526.739990,296.104980 
	C513.892639,302.288788 500.387177,306.266968 486.229340,308.066803 
	C483.537750,308.408997 481.803436,307.900818 479.948395,305.528473 
	C474.691864,298.806183 465.322113,299.056824 459.479584,305.424469 
	C458.250488,306.764008 455.979645,308.168976 454.367096,307.984558 
	C422.320801,304.319977 395.491913,290.260254 373.065552,266.875916 
	C373.518036,265.807678 373.905182,264.936859 374.258636,264.052551 
	C377.904541,254.930389 371.534546,245.828018 361.685577,245.738647 
	C359.750885,245.721085 356.881409,244.957764 356.044952,243.571686 
	C346.723602,228.126068 340.976807,211.368744 339.063232,193.410904 
	C338.871613,191.612717 340.066101,189.034134 341.477142,187.804062 
	C348.768036,181.448196 348.676605,172.629410 341.228790,166.322021 
	C339.919830,165.213486 338.865540,162.773941 339.046570,161.094955 
	C340.963959,143.312012 346.616089,126.704544 355.750549,111.343025 
	C356.493103,110.094261 358.837402,109.115471 360.410736,109.152252 
	C371.935211,109.421692 378.048523,101.003250 374.057892,90.339813 
	C373.588379,89.085182 374.033264,86.769150 374.954987,85.818420 
	C396.727386,63.361713 423.237152,50.263062 454.237244,46.342335 
	C455.524658,46.179508 457.523407,47.403313 458.357666,48.574524 
	C464.345062,56.979992 474.788513,56.976738 481.009247,48.605007 
	C481.929779,47.366154 484.160583,46.202164 485.608856,46.386772 
	C515.486145,50.195019 541.288879,62.551579 562.932739,83.578781 
	C565.464111,86.038017 566.260925,87.883667 564.647156,91.591057 
	C560.676270,100.713295 567.745667,109.726494 577.742249,109.126648 
	C579.526917,109.019562 581.346924,109.503120 583.389343,110.056099 
M407.549774,165.990524 
	C405.145752,153.176208 397.775024,146.995865 384.818176,146.936493 
	C382.490692,146.925827 380.147980,147.103760 377.839020,146.896622 
	C373.826843,146.536682 372.604614,148.400528 372.665588,152.174072 
	C372.816010,161.481613 372.702576,170.793259 372.713745,180.103241 
	C372.728516,192.405365 371.729645,190.891312 383.785889,190.913361 
	C399.404419,190.941940 407.872345,182.352905 407.549774,165.990524 
M557.965759,189.815338 
	C559.364746,188.949387 560.763794,188.083450 561.591003,187.571426 
	C563.330139,188.817566 564.740417,189.828094 566.150696,190.838623 
	C566.992920,189.230087 568.455139,187.659576 568.556641,186.005585 
	C568.820496,181.705551 568.894409,177.312592 568.307556,173.058304 
	C567.037964,163.854630 558.874573,158.351959 549.749756,160.123276 
	C541.013977,161.819092 535.706055,170.916306 538.079346,180.125214 
	C540.275940,188.648911 548.062317,192.703018 557.965759,189.815338 
M477.825500,187.929184 
	C478.909149,188.889328 479.992798,189.849472 481.076447,190.809616 
	C481.872131,189.683472 483.333893,188.567703 483.351593,187.429459 
	C483.441864,181.628159 483.576843,175.771027 482.889679,170.029968 
	C482.191772,164.198792 477.420380,160.109497 471.552307,160.047562 
	C468.034943,160.010437 464.505859,161.081192 460.526215,161.728104 
	C459.625763,161.416397 457.614868,160.025589 456.599701,160.552643 
	C455.447296,161.150955 454.668121,163.451492 454.625610,165.036148 
	C454.429626,172.341614 454.402130,179.661087 454.683258,186.961319 
	C454.734772,188.299469 456.497559,189.571732 457.470459,190.874405 
	C458.421356,189.564789 460.067200,188.318115 460.192566,186.933746 
	C460.565735,182.812897 460.312622,178.637634 460.357300,174.484192 
	C460.424896,168.197510 463.171204,165.103638 468.693085,165.019730 
	C474.113037,164.937363 477.412720,168.103027 477.721863,174.079163 
	C477.944763,178.388199 477.784790,182.717026 477.825500,187.929184 
M433.528229,185.338272 
	C425.554840,186.858551 421.640503,183.948273 421.304108,176.060669 
	C421.133972,172.071014 421.488098,168.047379 421.120636,164.084030 
	C420.991150,162.686981 419.419281,161.423630 418.505981,160.099243 
	C417.538696,161.399582 415.814392,162.657944 415.739532,164.007767 
	C415.463806,168.981110 415.460327,174.006958 415.862518,178.971893 
	C416.494446,186.772415 421.786957,191.442123 429.567444,190.973373 
	C432.587799,190.791412 435.540192,189.481018 437.882324,188.855835 
	C439.621338,189.572906 441.371155,190.940796 442.320007,190.516693 
	C443.424316,190.023132 444.401367,187.976028 444.438873,186.576477 
	C444.639618,179.088425 444.669006,171.587082 444.400726,164.103134 
	C444.351868,162.740540 442.649017,161.437225 441.709717,160.106552 
	C440.741882,161.536804 439.080963,162.901932 438.939270,164.409805 
	C438.551514,168.536575 438.738800,172.724731 438.821228,176.886139 
	C438.893646,180.541428 437.696289,183.394806 433.528229,185.338272 
M526.929443,168.345169 
	C524.989685,172.579559 523.049988,176.813950 520.772583,181.785416 
	C517.186707,174.685242 514.245239,168.530457 510.927368,162.585724 
	C510.304749,161.470200 508.178131,161.194092 506.745575,160.530609 
	C506.572235,161.988342 505.823639,163.697784 506.331116,164.857620 
	C507.994019,168.657913 509.760468,172.505905 512.129456,175.885284 
	C517.430786,183.447662 519.188904,190.877090 513.456055,199.074722 
	C512.776550,200.046371 513.950806,202.314514 514.265747,203.981705 
	C515.591370,203.084229 517.536011,202.486664 518.140198,201.239655 
	C521.546997,194.208023 524.642212,187.025040 527.822754,179.884338 
	C530.056396,174.869492 532.396118,169.893463 534.365356,164.775787 
	C534.810913,163.617844 533.917053,161.944519 533.639709,160.508438 
	C532.239502,161.213287 530.473755,161.604980 529.532776,162.703278 
	C528.391235,164.035660 527.946045,165.964600 526.929443,168.345169 
M493.362091,180.399155 
	C493.363800,182.386063 492.996674,184.468307 493.478119,186.331223 
	C493.901428,187.969147 495.274689,189.361557 496.228363,190.862411 
	C497.255157,189.296814 499.095123,187.768265 499.168488,186.159195 
	C499.492371,179.054199 499.489685,171.917816 499.168945,164.812500 
	C499.096069,163.197769 497.283386,161.661575 496.271545,160.089218 
	C495.302216,161.733994 493.634857,163.322556 493.496979,165.034286 
	C493.112762,169.805084 493.362854,174.626968 493.362091,180.399155 
M497.834595,148.002228 
	C496.181366,148.859970 494.313812,149.490524 493.010956,150.719650 
	C492.640198,151.069397 493.590637,153.851868 494.510681,154.278915 
	C495.686707,154.824753 498.638855,154.371841 498.740540,153.899979 
	C499.119507,152.141571 498.645294,150.199249 497.834595,148.002228 
z"/>
<path fill="#9E0DFF" opacity="1.000000" stroke="none" 
	d="
M407.604736,166.411743 
	C407.872345,182.352905 399.404419,190.941940 383.785889,190.913361 
	C371.729645,190.891312 372.728516,192.405365 372.713745,180.103241 
	C372.702576,170.793259 372.816010,161.481613 372.665588,152.174072 
	C372.604614,148.400528 373.826843,146.536682 377.839020,146.896622 
	C380.147980,147.103760 382.490692,146.925827 384.818176,146.936493 
	C397.775024,146.995865 405.145752,153.176208 407.604736,166.411743 
M400.941193,175.072098 
	C405.038605,159.690125 394.696869,149.139450 379.098083,152.768600 
	C379.098083,163.633713 379.098083,174.491257 379.098083,185.295990 
	C390.734894,186.727783 396.195251,184.277130 400.941193,175.072098 
z"/>
<path fill="#9E0EFF" opacity="1.000000" stroke="none" 
	d="
M557.595886,189.954788 
	C548.062317,192.703018 540.275940,188.648911 538.079346,180.125214 
	C535.706055,170.916306 541.013977,161.819092 549.749756,160.123276 
	C558.874573,158.351959 567.037964,163.854630 568.307556,173.058304 
	C568.894409,177.312592 568.820496,181.705551 568.556641,186.005585 
	C568.455139,187.659576 566.992920,189.230087 566.150696,190.838623 
	C564.740417,189.828094 563.330139,188.817566 561.591003,187.571426 
	C560.763794,188.083450 559.364746,188.949387 557.595886,189.954788 
M544.046204,170.898682 
	C542.133179,175.948395 542.890076,180.444016 547.173767,183.914185 
	C550.473633,186.587402 554.262695,186.770645 557.906067,184.686249 
	C561.943604,182.376358 563.405823,178.567780 562.906006,174.081696 
	C562.421936,169.736282 560.087097,166.517563 555.824707,165.354156 
	C550.919006,164.015182 547.040161,165.860291 544.046204,170.898682 
z"/>
<path fill="#9C07FF" opacity="1.000000" stroke="none" 
	d="
M477.810516,187.483109 
	C477.784790,182.717026 477.944763,178.388199 477.721863,174.079163 
	C477.412720,168.103027 474.113037,164.937363 468.693085,165.019730 
	C463.171204,165.103638 460.424896,168.197510 460.357300,174.484192 
	C460.312622,178.637634 460.565735,182.812897 460.192566,186.933746 
	C460.067200,188.318115 458.421356,189.564789 457.470459,190.874390 
	C456.497559,189.571732 454.734772,188.299469 454.683258,186.961319 
	C454.402130,179.661087 454.429626,172.341614 454.625610,165.036148 
	C454.668121,163.451492 455.447296,161.150955 456.599701,160.552643 
	C457.614868,160.025589 459.625763,161.416397 460.526215,161.728104 
	C464.505859,161.081192 468.034943,160.010437 471.552307,160.047562 
	C477.420380,160.109497 482.191772,164.198792 482.889679,170.029968 
	C483.576843,175.771027 483.441864,181.628159 483.351593,187.429459 
	C483.333893,188.567703 481.872131,189.683472 481.076447,190.809616 
	C479.992798,189.849472 478.909149,188.889328 477.810516,187.483109 
z"/>
<path fill="#9B07FF" opacity="1.000000" stroke="none" 
	d="
M433.895782,185.192719 
	C437.696289,183.394806 438.893646,180.541428 438.821228,176.886139 
	C438.738800,172.724731 438.551514,168.536575 438.939270,164.409805 
	C439.080963,162.901932 440.741882,161.536804 441.709717,160.106552 
	C442.649017,161.437225 444.351868,162.740540 444.400726,164.103134 
	C444.669006,171.587082 444.639618,179.088425 444.438873,186.576477 
	C444.401367,187.976028 443.424316,190.023132 442.320007,190.516693 
	C441.371155,190.940796 439.621338,189.572906 437.882324,188.855835 
	C435.540192,189.481018 432.587799,190.791412 429.567444,190.973373 
	C421.786957,191.442123 416.494446,186.772415 415.862518,178.971893 
	C415.460327,174.006958 415.463806,168.981110 415.739532,164.007767 
	C415.814392,162.657944 417.538696,161.399582 418.505981,160.099243 
	C419.419281,161.423630 420.991150,162.686981 421.120636,164.084030 
	C421.488098,168.047379 421.133972,172.071014 421.304108,176.060669 
	C421.640503,183.948273 425.554840,186.858551 433.895782,185.192719 
z"/>
<path fill="#9F0FFF" opacity="1.000000" stroke="none" 
	d="
M527.064514,167.990295 
	C527.946045,165.964600 528.391235,164.035660 529.532776,162.703278 
	C530.473755,161.604980 532.239502,161.213287 533.639709,160.508438 
	C533.917053,161.944519 534.810913,163.617844 534.365356,164.775787 
	C532.396118,169.893463 530.056396,174.869492 527.822754,179.884338 
	C524.642212,187.025040 521.546997,194.208023 518.140198,201.239655 
	C517.536011,202.486664 515.591370,203.084229 514.265747,203.981689 
	C513.950806,202.314514 512.776550,200.046371 513.456055,199.074722 
	C519.188904,190.877090 517.430786,183.447662 512.129456,175.885284 
	C509.760468,172.505905 507.994019,168.657913 506.331116,164.857620 
	C505.823639,163.697784 506.572235,161.988342 506.745575,160.530609 
	C508.178131,161.194092 510.304749,161.470200 510.927368,162.585724 
	C514.245239,168.530457 517.186707,174.685242 520.772583,181.785416 
	C523.049988,176.813950 524.989685,172.579559 527.064514,167.990295 
z"/>
<path fill="#A116FF" opacity="1.000000" stroke="none" 
	d="
M493.362305,179.913910 
	C493.362854,174.626968 493.112762,169.805084 493.496979,165.034286 
	C493.634857,163.322556 495.302216,161.733994 496.271545,160.089233 
	C497.283386,161.661575 499.096069,163.197769 499.168945,164.812500 
	C499.489685,171.917816 499.492371,179.054199 499.168488,186.159195 
	C499.095123,187.768265 497.255157,189.296814 496.228363,190.862411 
	C495.274689,189.361557 493.901428,187.969147 493.478119,186.331223 
	C492.996674,184.468307 493.363800,182.386063 493.362305,179.913910 
z"/>
<path fill="#A013FF" opacity="1.000000" stroke="none" 
	d="
M498.162964,148.164093 
	C498.645294,150.199249 499.119507,152.141571 498.740540,153.899979 
	C498.638855,154.371841 495.686707,154.824753 494.510681,154.278915 
	C493.590637,153.851868 492.640198,151.069397 493.010956,150.719650 
	C494.313812,149.490524 496.181366,148.859970 498.162964,148.164093 
z"/>
<path fill="#FDFAFF" opacity="1.000000" stroke="none" 
	d="
M400.817749,175.445984 
	C396.195251,184.277130 390.734894,186.727783 379.098083,185.295990 
	C379.098083,174.491257 379.098083,163.633713 379.098083,152.768600 
	C394.696869,149.139450 405.038605,159.690125 400.817749,175.445984 
z"/>
<path fill="#FCF8FF" opacity="1.000000" stroke="none" 
	d="
M544.205383,170.543488 
	C547.040161,165.860291 550.919006,164.015182 555.824707,165.354156 
	C560.087097,166.517563 562.421936,169.736282 562.906006,174.081696 
	C563.405823,178.567780 561.943604,182.376358 557.906067,184.686249 
	C554.262695,186.770645 550.473633,186.587402 547.173767,183.914185 
	C542.890076,180.444016 542.133179,175.948395 544.205383,170.543488 
z"/>
</svg>