<svg version="1.1" id="Layer_1" xmlns="http://www.w3.org/2000/svg" xmlns:xlink="http://www.w3.org/1999/xlink" x="0px" y="0px"
	 width="100%" viewBox="0 0 816 608" enable-background="new 0 0 816 608" xml:space="preserve">
<path fill="#000000" opacity="1.000000" stroke="none" 
	d="
M505.049896,467.156097 
	C489.344330,474.798096 473.293152,480.109924 456.303864,482.325500 
	C452.213989,482.858856 448.953644,484.054535 447.795258,488.542877 
	C446.805939,492.376282 444.172394,493.773529 440.258209,493.366333 
	C437.785645,493.109161 435.242157,493.122253 432.767670,493.376282 
	C426.692902,493.999939 421.659393,493.210449 419.446655,486.312134 
	C418.449036,483.201996 415.086700,482.837921 412.344666,482.439575 
	C387.182220,478.783691 364.114105,469.883057 343.374115,455.115112 
	C336.445251,450.181366 329.804779,444.862885 323.855164,438.771851 
	C321.063629,435.913940 317.990936,434.868042 314.017822,435.084351 
	C301.143311,435.785278 293.661865,425.687683 298.299286,413.856323 
	C299.642517,410.429474 299.460022,407.617340 297.602478,404.456451 
	C287.346466,387.003967 281.384094,368.070160 278.667816,348.075867 
	C278.199585,344.629120 276.763672,342.013062 273.368866,340.910797 
	C262.766388,337.468292 261.075745,320.879852 271.056122,315.000793 
	C276.604401,311.732544 278.588776,307.049683 279.481873,301.194092 
	C282.142883,283.746918 287.968323,267.341797 296.350220,251.848587 
	C298.451294,247.964935 299.020111,244.325851 297.588898,239.947906 
	C294.087372,229.237061 301.481598,219.477020 312.772980,219.777603 
	C317.048462,219.891403 320.388092,218.923859 323.531036,215.830353 
	C348.693604,191.063889 378.817780,176.309006 413.842407,171.683029 
	C417.250702,171.232880 419.278870,169.301682 420.539978,166.407761 
	C423.036926,160.677917 427.649139,157.966034 433.568237,157.980820 
	C439.526062,157.995682 444.627380,160.145920 447.348450,166.111816 
	C448.899536,169.512512 451.467072,171.281082 455.418854,171.848679 
	C489.567993,176.753555 519.331421,190.782150 544.112671,215.012192 
	C546.725769,217.567184 549.349915,219.792450 553.557251,219.818954 
	C566.354309,219.899551 572.455078,227.270676 570.024658,240.004562 
	C569.205811,244.294662 569.820129,247.805939 571.792419,251.445282 
	C579.945312,266.489227 585.585266,282.417084 588.484802,299.302124 
	C589.142517,303.132111 591.089844,305.738220 594.829102,307.559967 
	C604.720398,312.378998 606.062805,326.036774 597.077332,332.285858 
	C592.314209,335.598480 590.678772,339.372070 590.040833,345.012238 
	C587.640381,366.235077 581.149414,386.284851 570.477295,404.846619 
	C568.412048,408.438629 567.882324,411.949951 568.589661,415.837891 
	C570.522217,426.460205 564.609131,434.707825 554.079834,435.188782 
	C549.527527,435.396729 546.114319,436.950012 543.020203,439.990662 
	C531.878296,450.940033 519.155457,459.700073 505.049896,467.156097 
M571.607239,267.826080 
	C570.010620,264.530609 568.061646,261.354645 566.894592,257.913513 
	C564.806519,251.756180 560.339600,249.887009 554.378662,249.356506 
	C543.647034,248.401443 538.484619,240.836456 541.718750,230.433319 
	C543.214233,225.622665 541.776367,222.548676 538.473572,219.434784 
	C515.911682,198.163162 489.315765,185.028885 458.870270,179.374252 
	C452.787689,178.244568 448.242065,179.289154 443.758392,183.971298 
	C438.108856,189.870956 428.935699,189.676361 423.649933,183.746536 
	C419.881622,179.519119 416.121460,177.572952 410.626801,179.326752 
	C408.902924,179.876968 407.035400,179.964249 405.245239,180.321609 
	C375.500244,186.259445 349.879883,199.859329 328.614777,221.562775 
	C326.280334,223.945343 325.191589,226.269440 325.920074,229.990005 
	C327.874664,239.972137 325.867950,248.519302 311.983093,249.544800 
	C307.551361,249.872116 304.603485,252.041840 302.365540,256.275116 
	C294.988647,270.229401 289.553894,284.821747 286.851593,300.343384 
	C285.984314,305.324860 284.056366,310.499481 288.819824,315.282227 
	C296.749207,323.243713 296.538849,330.532684 288.928955,338.941193 
	C286.441376,341.689789 285.511139,344.575378 286.009888,348.462982 
	C288.329346,366.541931 294.191254,383.341797 303.129974,399.169189 
	C305.005066,402.489319 307.260956,404.307343 311.229858,404.798401 
	C324.000671,406.378326 328.757721,413.619049 325.498566,426.158478 
	C324.914307,428.406433 325.271210,429.893524 326.909393,431.469879 
	C333.037537,437.366455 339.324432,443.071869 346.217468,448.068665 
	C365.843475,462.295654 387.552765,471.338654 411.608582,474.914398 
	C415.765656,475.532318 418.855011,475.295502 422.166107,472.617340 
	C431.354706,465.185089 437.377777,465.338562 446.459381,473.198364 
	C449.179382,475.552429 452.000977,475.988159 455.239288,475.483002 
	C472.826569,472.739624 489.490601,467.176270 505.146515,458.733215 
	C519.015015,451.254089 531.343933,441.738098 542.226074,430.062469 
	C541.729248,429.160431 541.318665,428.463440 540.953064,427.743683 
	C537.977783,421.886200 538.006775,416.126404 542.074036,410.834045 
	C545.825439,405.952667 550.731995,403.690887 556.995117,405.472046 
	C560.120300,406.360809 561.821899,404.829071 563.375488,402.206451 
	C573.438538,385.219299 579.661560,366.887268 582.488831,347.424164 
	C583.368347,341.370026 583.395264,335.746521 577.407532,330.928925 
	C570.202759,325.132111 570.897644,315.340424 578.046814,309.159241 
	C581.454834,306.212646 582.183655,303.043823 581.290283,298.967743 
	C579.008118,288.554504 576.184998,278.315338 571.607239,267.826080 
z"/>
<path fill="#000000" opacity="1.000000" stroke="none" 
	d="
M353.524048,338.716888 
	C345.360596,343.488892 336.720917,343.548431 328.042786,343.205750 
	C325.127228,343.090637 323.708313,341.444061 323.491302,338.384308 
	C322.560516,325.260437 323.026306,312.134460 323.175873,299.006622 
	C323.230072,294.250458 325.282837,292.047028 330.263245,292.567627 
	C333.213684,292.876038 336.242096,292.354004 339.217560,292.522003 
	C352.068481,293.247650 358.878479,298.466705 362.672394,310.311462 
	C365.726654,319.847015 362.016876,331.676178 353.524048,338.716888 
M349.158356,302.238007 
	C345.690094,299.563477 341.471863,299.026520 337.390472,298.746948 
	C333.875092,298.506104 331.096893,299.652405 331.274414,304.443604 
	C331.606567,313.407654 331.524658,322.397430 331.284058,331.367645 
	C331.175049,335.431183 333.023163,336.558044 336.622833,336.676300 
	C344.738068,336.942932 351.995758,332.403534 355.187012,324.835785 
	C358.361481,317.307800 356.330322,309.046417 349.158356,302.238007 
z"/>
<path fill="#000000" opacity="1.000000" stroke="none" 
	d="
M531.223022,342.599792 
	C520.011108,344.142792 512.437805,338.363556 510.893066,327.494659 
	C509.442932,317.291443 516.723816,308.086365 527.210693,306.864624 
	C536.720886,305.756653 544.917969,312.523590 546.455444,322.316620 
	C547.263672,327.464325 547.705505,332.565308 546.784180,337.673279 
	C545.984863,342.104980 544.121216,343.126801 540.418701,340.927338 
	C536.785583,338.769043 534.702332,342.982269 531.223022,342.599792 
M525.764099,314.207123 
	C525.169983,314.505219 524.553955,314.766815 523.985107,315.107086 
	C518.362244,318.470367 516.449585,324.770020 519.268250,330.598633 
	C521.649780,335.523254 527.294556,337.902832 532.232605,336.063812 
	C538.004395,333.914307 540.906677,328.190918 539.425537,321.879150 
	C538.101013,316.234802 532.839417,313.003632 525.764099,314.207123 
z"/>
<path fill="#000000" opacity="1.000000" stroke="none" 
	d="
M405.576080,337.244934 
	C405.253723,341.613373 403.225311,343.106110 399.490875,341.812408 
	C396.357330,340.726807 393.601196,342.217499 390.735504,342.826324 
	C380.713226,344.955536 373.331360,339.284973 372.598663,329.030029 
	C372.255066,324.221100 371.635254,319.445770 372.003662,314.603943 
	C372.214905,311.827728 372.662842,308.357697 375.638916,308.377350 
	C379.058533,308.399994 379.319366,312.012695 379.337250,314.939972 
	C379.357635,318.268555 379.341980,321.597717 379.394806,324.925751 
	C379.513580,332.409943 382.422363,335.835266 388.633423,335.862915 
	C395.482269,335.893341 398.599915,332.387360 398.653259,324.572845 
	C398.675964,321.244324 398.715790,317.914948 398.665283,314.587189 
	C398.624573,311.904968 399.521851,309.760773 401.807678,308.134460 
	C405.430359,309.125519 405.698853,312.135864 405.747681,314.861664 
	C405.878754,322.174835 405.705414,329.493439 405.576080,337.244934 
z"/>
<path fill="#000000" opacity="1.000000" stroke="none" 
	d="
M447.002777,342.321106 
	C443.534637,341.109222 442.638702,338.639374 442.682404,335.541473 
	C442.736450,331.709808 442.769348,327.873413 442.642609,324.044647 
	C442.435974,317.803192 438.372742,313.670105 432.724640,313.783447 
	C427.665497,313.884979 424.526215,317.378967 424.187927,323.514709 
	C423.940613,328.000031 424.039886,332.508118 423.684540,336.982239 
	C423.500702,339.297363 422.685577,342.214050 419.886383,341.987946 
	C417.254456,341.775330 416.688446,339.007294 416.688080,336.530975 
	C416.687042,329.032471 416.596924,321.532532 416.716400,314.035950 
	C416.804901,308.481781 417.702332,307.805267 423.191986,308.577087 
	C426.598969,309.056152 429.778412,307.793884 433.052399,307.340546 
	C442.026062,306.097992 448.500122,311.350403 449.437531,320.413696 
	C449.970001,325.561859 450.298706,330.683289 450.255188,335.847748 
	C450.233215,338.455200 449.874298,340.845825 447.002777,342.321106 
z"/>
<path fill="#000000" opacity="1.000000" stroke="none" 
	d="
M506.059509,308.403625 
	C508.494995,310.305481 508.378784,312.420990 507.326477,314.776062 
	C501.635406,327.512756 495.980896,340.265778 490.340912,353.025177 
	C489.712891,354.445953 488.840302,355.598694 487.516083,356.402893 
	C485.053741,357.898193 483.761810,357.032684 483.511902,354.331787 
	C483.355652,352.643158 483.707916,351.022888 484.577972,349.538391 
	C488.845703,342.256805 487.665771,335.269653 483.491608,328.407318 
	C480.817078,324.010345 477.991669,319.699066 476.031372,314.896118 
	C475.104218,312.624512 474.472046,310.494751 477.139954,307.800568 
	C485.828735,312.453918 486.289856,322.873352 492.161346,329.943176 
	C495.333984,324.955750 497.380615,319.588531 499.559875,314.308777 
	C500.774994,311.364929 502.440582,309.097168 506.059509,308.403625 
z"/>
<path fill="#000000" opacity="1.000000" stroke="none" 
	d="
M460.668152,321.058960 
	C460.925629,316.114716 459.460907,311.138245 464.311157,308.007019 
	C469.967438,312.635620 470.088837,336.679138 464.189423,342.585846 
	C457.960846,336.312561 461.725616,328.469208 460.668152,321.058960 
z"/>
<path fill="#000000" opacity="1.000000" stroke="none" 
	d="
M460.605957,298.823364 
	C460.558472,294.948669 463.232361,294.269440 465.665253,294.633636 
	C468.068359,294.993378 467.485992,297.576721 467.164093,299.238770 
	C466.611877,302.089539 463.972931,302.031067 460.605957,298.823364 
z"/>
</svg>