<svg xmlns="http://www.w3.org/2000/svg" xmlns:xlink="http://www.w3.org/1999/xlink" width="40" zoomAndPan="magnify" viewBox="0 0 30 30.000001" height="40" preserveAspectRatio="xMidYMid meet" version="1.0"><defs><clipPath id="7e5a5f3a64"><path d="M 8.304688 5 L 21.367188 5 L 21.367188 24.496094 L 8.304688 24.496094 Z M 8.304688 5 " clip-rule="nonzero"/></clipPath></defs><g clip-path="url(#7e5a5f3a64)"><path fill="#0c6980" d="M 19.636719 10.757812 C 18.097656 9.9375 16.46875 9.28125 14.902344 8.503906 C 13.714844 7.875 12.542969 7.203125 11.277344 6.761719 C 10.769531 6.539062 9.910156 6.390625 10.175781 5.613281 C 10.507812 4.898438 11.183594 5.390625 11.683594 5.570312 C 12.945312 6.019531 14.128906 6.644531 15.296875 7.300781 C 16.785156 8.011719 18.285156 8.707031 19.78125 9.398438 C 19.945312 9.476562 20.097656 9.566406 20.242188 9.664062 C 20.9375 10.078125 20.34375 11.175781 19.636719 10.757812 Z M 9.121094 15.691406 C 8.601562 15.703125 8.3125 14.984375 8.695312 14.609375 C 9.007812 14.285156 9.492188 14.484375 9.886719 14.441406 C 10.714844 14.445312 11.539062 14.429688 12.363281 14.40625 C 14.855469 14.402344 17.359375 14.238281 19.816406 14.09375 C 20.398438 14.261719 20.335938 15.140625 19.757812 15.261719 C 19.160156 15.40625 18.519531 15.394531 17.914062 15.449219 C 14.992188 15.660156 12.054688 15.703125 9.121094 15.691406 Z M 11.667969 23.882812 C 11.496094 23.59375 11.597656 23.1875 11.878906 23.015625 C 12.203125 22.800781 12.515625 22.558594 12.863281 22.375 C 13.765625 21.773438 14.699219 21.214844 15.625 20.652344 C 16.578125 20.050781 17.542969 19.46875 18.507812 18.886719 C 19.035156 18.5625 19.550781 18.210938 20.074219 17.871094 C 20.292969 17.746094 20.5 17.5625 20.753906 17.523438 C 21.074219 17.464844 21.355469 17.832031 21.222656 18.148438 C 21.152344 18.34375 20.980469 18.464844 20.832031 18.589844 C 19.582031 19.582031 18.199219 20.371094 16.863281 21.230469 C 15.820312 21.917969 14.734375 22.527344 13.714844 23.25 C 13.515625 23.40625 13.195312 23.609375 13.015625 23.730469 C 12.597656 24.050781 12.074219 24.496094 11.667969 23.882812 Z M 11.667969 23.882812 " fill-opacity="1" fill-rule="nonzero"/></g></svg>