<svg version="1.1" id="Layer_1" xmlns="http://www.w3.org/2000/svg" xmlns:xlink="http://www.w3.org/1999/xlink" x="0px" y="0px"
	 width="100%" viewBox="0 0 720 704" enable-background="new 0 0 720 704" xml:space="preserve">
<path fill="#000000" opacity="1.000000" stroke="none" 
	d="
M437.999725,433.304718 
	C393.854156,433.310852 350.208557,433.320374 306.562958,433.321106 
	C299.546143,433.321228 299.630310,433.303223 299.633606,426.226501 
	C299.659821,369.920563 299.649292,313.614624 299.656433,257.308685 
	C299.657379,249.750427 299.673767,249.813751 307.390442,249.827271 
	C335.376801,249.876297 363.363281,249.860855 391.349640,249.911407 
	C398.811279,249.924896 398.958252,250.071335 396.540955,257.172760 
	C395.015106,261.655457 395.233337,266.614227 387.343262,266.732758 
	C366.193329,267.050385 345.045807,266.795258 323.899750,267.028046 
	C317.205322,267.101746 317.022736,267.098419 317.000732,273.576843 
	C316.942993,290.568207 317.066711,307.560577 316.919861,324.550842 
	C316.886230,328.439880 318.184540,329.819580 322.118286,329.778229 
	C336.609497,329.625916 351.103607,329.719574 365.596466,329.776154 
	C372.646118,329.803711 373.067596,330.451996 370.961060,337.350098 
	C370.669312,338.305450 370.198700,339.225098 370.038971,340.198730 
	C369.249512,345.010040 366.574799,346.557007 361.673737,346.433502 
	C348.688477,346.106232 335.686737,346.480835 322.696899,346.260559 
	C318.259918,346.185333 316.891174,347.859406 316.917938,352.100555 
	C317.042999,371.923309 317.023865,391.747681 316.902893,411.570557 
	C316.879120,415.465149 318.291992,416.744934 322.192810,416.732178 
	C364.336060,416.594757 406.479919,416.646454 448.623108,416.505890 
	C452.512390,416.492920 454.892487,417.265167 455.672241,421.537994 
	C456.346863,425.234680 458.433411,428.631195 458.485718,433.305176 
	C451.720062,433.305176 445.109894,433.305176 437.999725,433.304718 
z"/>
<path fill="#000000" opacity="1.000000" stroke="none" 
	d="
M447.944214,385.986786 
	C446.854095,383.244080 444.781342,383.313171 442.760132,383.312592 
	C422.096558,383.306763 401.432739,383.360626 380.769714,383.255310 
	C377.281006,383.237518 375.679504,384.853149 374.711639,387.924225 
	C372.559662,394.752502 370.113922,401.490234 368.057343,408.345703 
	C366.992645,411.894745 365.222900,413.733917 361.317444,413.316010 
	C357.891113,412.949402 354.377960,413.704681 350.271210,412.693726 
	C351.593445,408.236908 352.764069,403.994476 354.107727,399.807556 
	C369.667694,351.320984 385.277283,302.850281 400.779144,254.345169 
	C401.794098,251.169403 403.289581,249.804184 406.758606,249.774261 
	C420.817413,249.652985 420.866486,249.533218 425.348450,262.959412 
	C443.584747,317.587982 461.793304,372.225769 479.976898,426.871887 
	C480.540222,428.564819 481.459167,430.257294 480.795105,432.836487 
	C475.490479,433.857574 469.906311,433.568909 464.399689,432.992371 
	C462.118927,432.753601 462.100006,429.970001 461.511292,428.152771 
	C457.000763,414.229950 452.563782,400.283264 447.944214,385.986786 
M424.620087,310.777679 
	C420.601868,297.850769 416.583649,284.923828 412.158875,270.688934 
	C411.114655,273.219574 410.544189,274.360992 410.162567,275.562347 
	C401.102722,304.081451 392.059967,332.605957 383.023254,361.132385 
	C381.527008,365.855621 382.057037,366.639435 387.187073,366.654297 
	C404.001434,366.703033 420.816040,366.680328 437.630524,366.658295 
	C438.747345,366.656830 439.988953,366.954987 441.081787,365.674133 
	C441.041656,365.242798 441.090576,364.575806 440.907990,363.979706 
	C435.554382,346.500458 430.177704,329.028229 424.620087,310.777679 
z"/>
<path fill="#000000" opacity="1.000000" stroke="none" 
	d="
M236.669708,343.999939 
	C236.668488,314.526093 236.661697,285.552246 236.670959,256.578430 
	C236.673111,249.825241 236.698196,249.825256 243.213287,249.883606 
	C254.149231,249.981552 254.144409,249.981552 254.143784,260.948059 
	C254.140991,310.569885 254.140518,360.191681 254.141006,409.813507 
	C254.141068,416.636505 254.145706,416.666046 261.008484,416.672791 
	C270.999298,416.682678 280.993073,416.777527 290.979614,416.561523 
	C294.907257,416.476593 296.261719,417.901001 296.185883,421.775421 
	C295.922943,435.205078 297.727417,433.269470 284.953583,433.329620 
	C270.633484,433.397034 256.311340,433.233185 241.993439,433.423218 
	C237.832321,433.478424 236.584885,432.006622 236.605026,427.924164 
	C236.742203,400.116669 236.672745,372.308136 236.669708,343.999939 
z"/>
<path fill="#000000" opacity="1.000000" stroke="none" 
	d="
M268.096924,457.159393 
	C268.096252,462.278687 268.096252,466.921570 268.096252,471.447083 
	C266.408600,472.877441 264.829468,472.457672 262.726654,471.828217 
	C262.726654,466.147827 262.703522,460.355591 262.737915,454.563690 
	C262.751862,452.211945 262.581879,450.102448 259.408875,450.251343 
	C256.778046,450.374847 254.255585,449.963470 253.790939,454.050293 
	C253.130112,459.862762 253.889221,465.697266 253.126205,471.579315 
	C249.407440,473.365967 246.903458,472.284698 244.758102,468.923645 
	C241.453003,463.745636 237.841919,458.762939 233.778976,452.851013 
	C232.992203,458.824677 233.290375,463.823517 233.483337,468.819763 
	C233.537491,470.221893 234.275497,472.126892 231.859116,472.179138 
	C229.664246,472.226654 229.787827,470.378601 229.779404,468.909515 
	C229.745010,462.913147 229.742020,456.916046 229.805740,450.920044 
	C229.822693,449.325470 229.498886,447.324036 231.774658,446.900879 
	C233.927963,446.500519 235.969193,446.429871 237.502258,448.709930 
	C241.114548,454.082306 244.926575,459.320343 249.157791,465.321869 
	C250.405914,460.226257 250.166550,455.855225 249.914185,451.535034 
	C249.723724,448.274475 250.404694,446.736145 254.199066,446.754028 
	C275.002808,446.852173 295.807800,446.647919 316.612305,446.661011 
	C321.317017,446.663971 324.509674,453.132599 321.159851,458.161377 
	C318.009155,462.891144 319.636780,465.984741 321.815155,469.709442 
	C322.244873,470.444214 322.523163,471.218964 321.840881,472.274689 
	C318.897064,473.090271 316.727844,472.407959 315.302002,469.159576 
	C314.248322,466.759125 313.589996,464.007843 311.452606,462.241821 
	C309.602509,460.713318 307.264191,461.170410 305.205475,461.582794 
	C302.994415,462.025726 303.580597,464.253235 303.472748,465.774597 
	C303.335449,467.711121 303.624695,469.677887 303.753601,472.068359 
	C294.818634,472.068359 286.144165,472.068359 276.860229,472.068359 
	C276.860229,464.885529 276.860229,457.812775 276.860229,450.842865 
	C268.545563,449.578613 268.277130,449.773773 268.096924,457.159393 
M293.426422,461.356812 
	C290.770996,461.370728 288.114136,461.335480 285.460541,461.412323 
	C282.793884,461.489563 282.298706,463.281372 282.290588,465.520447 
	C282.282318,467.805756 283.334045,468.891022 285.594116,468.886810 
	C289.677338,468.879211 293.760559,468.884613 297.663361,468.884613 
	C301.577728,453.839661 298.691650,449.400330 286.138153,450.260712 
	C285.807098,450.283417 285.474518,450.293671 285.142670,450.294189 
	C282.595886,450.298157 282.261993,451.960297 282.274261,453.993256 
	C282.286682,456.053314 282.698425,457.606537 285.255341,457.571869 
	C288.240631,457.531342 291.227631,457.628082 294.214020,457.649872 
	C295.276337,457.657654 296.276367,457.825317 296.500458,459.059143 
	C296.830231,460.875000 295.761658,461.413086 293.426422,461.356812 
M309.497314,457.745880 
	C310.325256,457.735840 311.153839,457.699951 311.981018,457.720612 
	C314.600891,457.785980 316.609344,457.146515 316.609100,453.963806 
	C316.608856,450.708191 314.432007,450.276672 311.904999,450.263306 
	C310.911377,450.258057 309.916351,450.216980 308.924408,450.255432 
	C306.335876,450.355774 303.442963,449.747375 303.301056,453.928375 
	C303.157318,458.161896 305.949738,457.738220 309.497314,457.745880 
z"/>
<path fill="#000000" opacity="1.000000" stroke="none" 
	d="
M468.021423,470.048492 
	C467.959625,463.719604 467.834839,457.390472 467.858490,451.061920 
	C467.873962,446.926208 467.970428,446.926575 473.319366,447.130951 
	C473.319366,452.490448 473.568970,457.924164 473.242035,463.323029 
	C472.970245,467.811707 474.752930,469.455292 479.025391,468.935211 
	C479.846588,468.835236 480.698364,468.832733 481.520935,468.922943 
	C486.238770,469.440491 488.238647,467.512787 487.777069,462.656433 
	C487.447449,459.188934 488.056549,455.620056 487.610870,452.178741 
	C487.009857,447.537842 488.949158,446.511871 493.160828,446.661194 
	C500.800964,446.932068 508.460327,446.851654 516.106323,446.680634 
	C519.434875,446.606232 519.874329,448.305389 519.954346,451.017273 
	C520.126953,456.873688 525.926147,460.072357 531.073730,457.321655 
	C532.275452,456.679535 532.602234,455.645508 532.639343,454.427612 
	C532.684937,452.929260 532.701294,451.430023 532.731628,449.931183 
	C532.764282,448.318878 533.031433,446.938843 535.107300,446.834717 
	C537.262329,446.726593 538.136047,447.805511 538.144409,449.818665 
	C538.172119,456.481720 538.353577,463.149170 538.166321,469.806213 
	C538.050903,473.907379 535.158020,472.081787 533.136169,471.980316 
	C531.618225,468.539551 534.366821,464.485626 531.455933,461.816559 
	C529.900574,460.390350 527.275024,461.245941 525.127380,461.200500 
	C516.133423,461.010162 521.850403,468.446991 519.288086,472.133545 
	C517.946899,472.925781 516.237366,472.336761 514.060425,472.024841 
	C514.060425,466.186676 513.941528,460.571198 514.104370,454.963898 
	C514.204468,451.515839 512.771484,450.238281 509.399017,450.163116 
	C505.901825,450.085144 505.211823,451.845856 505.273773,454.821198 
	C505.391266,460.461548 505.307800,466.106049 505.307800,471.663330 
	C503.571930,472.893982 502.005829,472.327301 500.287811,472.076477 
	C499.314117,467.624176 499.850006,463.294586 499.803955,459.007965 
	C499.715729,450.797913 499.788635,450.797119 491.290466,449.851135 
	C491.290466,455.316498 491.327240,460.727173 491.280182,466.137146 
	C491.232697,471.593719 490.213928,472.518890 484.826202,472.435150 
	C481.163116,472.378235 477.497101,472.361572 473.835022,472.443054 
	C471.744690,472.489563 469.830719,472.309204 468.255249,470.225525 
	C468.004303,470.015778 468.021393,470.048492 468.021423,470.048492 
z"/>
<path fill="#000000" opacity="1.000000" stroke="none" 
	d="
M171.478058,467.103882 
	C174.342667,470.664459 174.478485,467.642120 174.503632,466.014465 
	C174.580658,461.026489 174.649521,456.006287 174.172409,451.051483 
	C173.745453,446.617706 175.643982,446.285034 179.308228,447.278046 
	C179.308228,453.064514 179.438675,458.698395 179.260330,464.322449 
	C179.149582,467.815277 180.575394,469.177002 183.978882,468.981323 
	C186.803268,468.818970 189.641586,468.894348 192.473801,468.875732 
	C193.669632,468.867859 194.958893,468.879150 195.140503,470.440338 
	C195.319382,471.977905 194.208282,472.509613 192.935318,472.511322 
	C185.112976,472.521851 177.290283,472.503937 169.468307,472.431183 
	C167.571609,472.413544 167.033585,470.775085 166.644669,469.366821 
	C165.652863,465.775360 163.247131,464.845947 159.821152,465.129608 
	C156.297333,465.421326 152.148483,464.113861 150.691940,469.022949 
	C149.891800,471.719635 148.264801,472.580505 145.494888,472.461060 
	C141.007858,472.267578 136.500259,472.366760 132.008194,472.530396 
	C128.112335,472.672363 125.894409,470.953339 125.766396,467.095245 
	C125.600754,462.102722 125.627205,457.098022 125.757797,452.103424 
	C125.850319,448.565002 127.622917,446.577667 131.436340,446.697906 
	C135.098267,446.813477 138.767609,446.676788 142.431595,446.752441 
	C143.994522,446.784729 145.966446,446.432037 146.028687,449.359161 
	C142.875061,451.119537 139.363129,450.086212 136.049316,450.151886 
	C132.727737,450.217743 130.971512,451.282349 131.272293,454.813080 
	C131.356827,455.805206 131.277039,456.811279 131.273102,457.810974 
	C131.225601,469.871460 131.811417,470.348694 143.964127,468.787567 
	C145.771088,468.555450 147.081726,468.031189 147.892624,466.278870 
	C150.409439,460.840210 153.122406,455.489746 155.526276,450.002991 
	C156.194855,448.476959 156.110718,446.755890 158.439331,446.710205 
	C160.511887,446.669586 161.931030,447.384735 162.839752,449.278870 
	C165.648392,455.133240 168.507797,460.963287 171.478058,467.103882 
M158.589157,454.185944 
	C156.325516,455.911194 155.772873,458.444855 154.969666,461.247284 
	C157.674255,461.708862 159.986694,462.231903 162.594482,460.530853 
	C161.372635,458.331116 160.258698,456.325684 158.589157,454.185944 
z"/>
<path fill="#000000" opacity="1.000000" stroke="none" 
	d="
M634.351318,464.406311 
	C634.339050,467.269135 634.339050,469.731171 634.339050,472.145660 
	C629.955200,473.310028 628.268555,471.780060 628.848022,467.757263 
	C629.856079,460.758850 625.056396,456.361603 621.429077,451.543365 
	C619.876648,449.481293 617.081787,449.959076 614.877380,450.561768 
	C612.554321,451.196777 613.149841,453.515808 613.117493,455.252075 
	C613.040100,459.406738 612.971008,463.570129 613.153931,467.718750 
	C613.351074,472.189972 611.625977,473.457764 607.623108,471.736603 
	C607.623108,466.277527 607.505920,460.989075 607.664124,455.708893 
	C607.770569,452.154419 606.994141,449.806671 602.760071,450.206055 
	C601.530762,450.322021 599.715027,450.592834 599.651855,448.688782 
	C599.578674,446.483521 601.549438,446.748444 602.964417,446.736847 
	C609.448364,446.683624 615.933411,446.750275 622.417175,446.687683 
	C624.441223,446.668152 625.783569,447.323334 626.862061,449.154785 
	C628.447327,451.847015 630.382874,454.332916 632.150879,456.880310 
	C637.359192,454.940430 636.446167,445.885223 644.614563,447.014587 
	C641.058960,453.145233 636.121338,457.645447 634.351318,464.406311 
z"/>
<path fill="#000000" opacity="1.000000" stroke="none" 
	d="
M366.721344,446.723267 
	C372.002594,447.716492 374.956482,454.022308 371.477753,458.726044 
	C368.215149,463.137573 370.137909,465.812195 372.037781,469.195068 
	C372.423523,469.881897 372.676208,470.643402 373.082825,471.584839 
	C369.537048,473.289642 367.266083,472.694702 365.834076,469.110168 
	C364.973358,466.955780 363.882599,464.862305 362.649109,462.895844 
	C361.221161,460.619446 358.831329,461.239288 356.731171,461.495758 
	C354.267578,461.796661 354.225006,463.800903 354.198944,465.679688 
	C354.169312,467.815765 354.192108,469.952576 354.192108,472.036072 
	C352.340607,472.845856 350.749664,472.616211 348.852234,472.126068 
	C348.852234,463.888367 348.852234,455.653015 348.852234,446.717712 
	C354.709747,446.717712 360.481720,446.717712 366.721344,446.723267 
M363.026154,450.270538 
	C361.047791,450.286011 359.069305,450.293274 357.091064,450.319000 
	C354.597809,450.351410 354.214142,451.994934 354.216644,454.014008 
	C354.219147,456.033966 354.611664,457.680878 357.101501,457.701630 
	C358.914673,457.716766 360.729279,457.726166 362.541260,457.672028 
	C364.374268,457.617279 366.377106,457.653229 366.614502,455.129791 
	C366.820282,452.943054 366.969879,450.667725 363.026154,450.270538 
z"/>
<path fill="#000000" opacity="1.000000" stroke="none" 
	d="
M583.112671,468.699463 
	C581.314453,465.683716 581.244141,461.687866 576.832031,461.347443 
	C573.396912,461.082397 570.809998,461.485657 571.422974,465.990631 
	C571.683899,467.908569 571.466553,469.891602 571.466553,471.883667 
	C569.842224,472.728760 568.252380,472.507355 565.986328,471.845917 
	C565.986328,464.408752 565.943115,456.825684 566.012695,449.243683 
	C566.033386,446.983582 567.804077,446.740234 569.562561,446.722778 
	C574.714905,446.671600 579.867859,446.576904 585.019653,446.619019 
	C587.756775,446.641418 589.524414,448.010437 589.272156,450.936401 
	C588.971191,454.426880 590.673462,458.309906 587.278015,461.254333 
	C585.963440,462.394226 586.891785,463.726349 587.399109,464.911438 
	C588.365417,467.168671 589.402283,469.395691 590.466797,471.761749 
	C586.873535,473.484833 584.596924,472.490662 583.112671,468.699463 
M574.963806,450.274933 
	C571.614563,450.177307 571.278076,452.328522 571.388245,454.936981 
	C571.515564,457.952515 573.676147,457.724060 575.680298,457.740814 
	C577.345581,457.754761 579.012695,457.624634 580.676941,457.658691 
	C583.436768,457.715240 584.552612,456.285126 584.626099,453.665131 
	C584.701843,450.966309 583.154602,450.207153 580.826782,450.231110 
	C579.160706,450.248260 577.494507,450.246063 574.963806,450.274933 
z"/>
<path fill="#000000" opacity="1.000000" stroke="none" 
	d="
M561.292969,471.861145 
	C555.733765,472.136597 550.587952,472.276886 545.441406,472.314392 
	C542.032104,472.339172 540.132568,470.577911 540.087341,467.135498 
	C540.021729,462.149780 539.972900,457.159546 540.115417,452.176880 
	C540.216492,448.645386 542.084473,446.670380 545.808289,446.711365 
	C550.130554,446.758911 554.453735,446.742035 558.776489,446.739502 
	C561.193909,446.738098 563.403076,447.685699 563.693848,450.080475 
	C564.473267,456.499786 564.700439,462.981750 563.501221,469.394073 
	C563.343140,470.239166 562.325562,470.923523 561.292969,471.861145 
M545.409058,458.744537 
	C545.455994,461.066071 545.530823,463.387512 545.539856,465.709198 
	C545.545532,467.177368 545.929688,468.569305 547.532532,468.661652 
	C550.498840,468.832581 554.065369,469.725128 556.341125,468.453918 
	C561.280518,465.694824 557.916260,460.389160 558.561523,456.246918 
	C558.875000,454.234558 559.572083,451.445435 556.381165,450.389191 
	C549.265991,448.033966 545.529114,450.587158 545.409058,458.744537 
z"/>
<path fill="#000000" opacity="1.000000" stroke="none" 
	d="
M100.030647,469.033966 
	C100.049370,463.704651 99.966591,458.372406 100.118561,453.046906 
	C100.242722,448.696106 102.262047,446.306152 107.041550,446.650391 
	C110.853493,446.924927 114.700325,446.759308 118.530914,446.718170 
	C122.272964,446.678009 124.097061,448.665070 124.208344,452.207336 
	C124.365204,457.200256 124.413567,462.200836 124.332138,467.195251 
	C124.290405,469.754333 123.039085,471.999542 120.321846,472.133575 
	C114.843399,472.403717 109.342491,472.258545 103.851501,472.210907 
	C102.127266,472.195953 101.331100,470.775818 100.232704,469.275360 
	C99.999413,469.001129 100.030647,469.033966 100.030647,469.033966 
M108.089165,468.785645 
	C120.919647,469.229767 118.501945,469.211243 118.741486,458.798859 
	C118.768265,457.634796 118.811111,456.463898 118.720528,455.306030 
	C118.574318,453.437378 119.410873,450.695587 116.579880,450.486908 
	C113.059212,450.227295 109.140121,448.901398 106.048126,451.562775 
	C104.184700,453.166687 105.403816,466.152649 108.089165,468.785645 
z"/>
<path fill="#000000" opacity="1.000000" stroke="none" 
	d="
M385.592773,447.014404 
	C392.277832,447.066345 398.654327,445.725403 404.964172,447.710114 
	C404.044037,450.994324 401.873505,450.088196 400.240814,450.189270 
	C397.919617,450.332916 395.581909,450.185364 393.252472,450.227570 
	C390.902130,450.270142 388.299377,450.065216 388.396637,453.611359 
	C388.484344,456.809784 390.862885,456.654205 393.055206,456.683319 
	C395.551514,456.716431 398.048676,456.718933 400.545135,456.696899 
	C403.821808,456.667999 405.547821,458.140411 405.358002,461.541504 
	C405.339508,461.872742 405.366302,462.207123 405.381897,462.539581 
	C405.839264,472.278748 405.839203,472.256561 396.211853,472.377014 
	C393.223297,472.414398 390.232605,472.749969 387.250916,472.665680 
	C385.899353,472.627502 383.821442,472.674774 383.843689,470.595154 
	C383.867767,468.338043 385.904083,468.913605 387.283997,468.879456 
	C390.277924,468.805328 393.274811,468.843842 396.270508,468.849762 
	C398.671875,468.854462 400.035553,467.854279 399.962708,465.269562 
	C399.893890,462.828217 398.641235,461.589508 396.267212,461.477905 
	C394.439758,461.391937 392.607056,461.381104 390.777039,461.392670 
	C383.816040,461.436554 382.611023,460.281494 382.746643,453.399384 
	C382.792725,451.062134 382.993134,448.705475 385.592773,447.014404 
z"/>
<path fill="#000000" opacity="1.000000" stroke="none" 
	d="
M324.954712,472.131195 
	C322.771790,470.155426 323.833313,467.919281 323.820465,465.838196 
	C323.782776,459.706635 323.807037,453.574677 323.807037,446.808685 
	C330.564087,446.808685 337.165436,446.805664 343.766785,446.817841 
	C344.091217,446.818420 344.477478,446.862061 344.730469,447.036865 
	C349.509460,450.339508 346.773163,455.234833 347.176056,459.407227 
	C347.459747,462.345276 345.105011,463.264679 342.465088,463.271759 
	C339.633087,463.279388 336.794312,463.418915 333.970795,463.269287 
	C330.565247,463.088776 328.962891,464.459198 329.262573,467.928772 
	C329.507355,470.763123 329.128723,473.087402 324.954712,472.131195 
M329.255798,456.269501 
	C330.352692,459.611053 334.219666,460.849731 339.385681,459.639191 
	C342.574280,458.891998 342.267181,456.604797 342.122375,454.190979 
	C341.766815,448.264343 337.238251,450.732819 334.250793,450.261353 
	C330.290009,449.636292 328.770721,451.628723 329.255798,456.269501 
z"/>
<path fill="#000000" opacity="1.000000" stroke="none" 
	d="
M416.208679,446.718384 
	C419.495117,446.732025 422.318604,446.720032 425.141022,446.769440 
	C426.566742,446.794373 427.971741,447.160980 427.785431,448.949982 
	C427.630402,450.438446 426.307465,450.475037 425.088806,450.444855 
	C422.268036,450.374908 419.446167,450.348541 416.625336,450.281494 
	C414.034180,450.219910 413.171600,451.589417 413.179016,454.026337 
	C413.186340,456.438049 413.983185,457.825226 416.606995,457.781586 
	C419.262848,457.737366 421.921326,457.768311 424.576996,457.833923 
	C425.784698,457.863739 426.994446,458.123596 426.981079,459.707825 
	C426.967499,461.319031 425.809570,461.455017 424.551239,461.427765 
	C421.895355,461.370209 419.237885,461.375092 416.582825,461.295532 
	C413.924866,461.215912 413.175385,462.710052 413.160095,465.070374 
	C413.144714,467.448151 413.955627,468.826385 416.559967,468.924713 
	C420.175293,469.061249 423.833771,468.416870 427.429749,469.330353 
	C426.748322,472.745819 420.209991,473.603485 407.843811,471.945343 
	C407.843811,463.787872 407.843811,455.585724 407.843811,447.132385 
	C410.507568,446.250977 413.161346,446.892426 416.208679,446.718384 
z"/>
<path fill="#000000" opacity="1.000000" stroke="none" 
	d="
M467.993439,470.001465 
	C466.014282,473.317657 462.254639,473.745972 461.202332,470.483032 
	C459.720337,465.887726 456.931030,465.055908 452.574951,465.046967 
	C448.264771,465.038086 445.659790,466.368561 444.298798,470.462860 
	C443.553345,472.705414 441.746338,472.727051 439.522003,471.825012 
	C442.684235,463.494690 448.135803,456.171570 450.168427,446.998169 
	C453.454742,445.910065 455.842865,446.848877 457.621338,450.606567 
	C460.671021,457.050262 464.192749,463.270538 467.768860,469.816528 
	C468.021393,470.048492 468.004303,470.015778 467.993439,470.001465 
M451.355042,455.463501 
	C450.655060,457.229584 449.163849,458.774292 449.859772,461.338715 
	C451.949554,461.613831 454.067108,462.219971 457.048126,460.315338 
	C454.126190,459.097168 456.402802,454.302765 451.355042,455.463501 
z"/>
<path fill="#000000" opacity="1.000000" stroke="none" 
	d="
M208.699829,459.005463 
	C208.690704,446.720001 208.690704,446.721344 220.516144,446.727722 
	C222.344833,446.728729 224.173508,446.710144 226.002197,446.702362 
	C227.937485,446.694122 228.762100,447.551025 228.150391,449.754028 
	C224.832062,450.729584 221.343918,450.128571 217.925522,450.196686 
	C215.083267,450.253296 214.152237,451.520142 214.183228,454.191193 
	C214.212814,456.738617 215.343964,457.624786 217.810074,457.807587 
	C221.214005,458.059937 224.923096,456.847351 228.607300,459.263275 
	C225.350403,462.593567 221.867142,460.908356 218.811050,461.229401 
	C216.257141,461.497681 214.182816,461.721985 214.218338,465.030579 
	C214.243591,467.380493 214.880142,468.927185 217.557343,468.882294 
	C220.381760,468.834930 223.207947,468.869751 226.031342,468.794006 
	C227.272064,468.760742 228.486923,468.706116 228.613464,470.323242 
	C228.725006,471.748444 227.863403,472.494568 226.486862,472.484070 
	C221.501266,472.446167 216.516037,472.357788 211.530701,472.286591 
	C209.330231,472.255188 208.761581,470.847076 208.750854,468.976593 
	C208.732742,465.818054 208.717865,462.659515 208.699829,459.005463 
z"/>
<path fill="#000000" opacity="1.000000" stroke="none" 
	d="
M99.983414,468.985077 
	C100.369087,471.586151 99.249763,472.547882 96.626022,472.453522 
	C92.155098,472.292694 87.667709,472.207153 83.201790,472.410187 
	C79.592957,472.574249 78.621498,470.912964 78.705780,467.644775 
	C78.846748,462.177673 78.708115,456.703918 78.729591,451.233124 
	C78.748627,446.386047 78.774117,446.386139 84.295464,447.363678 
	C84.295464,453.041687 84.407745,458.803375 84.251701,464.557770 
	C84.163651,467.804657 85.507156,469.061462 88.660225,468.945251 
	C92.136230,468.817139 95.619865,468.895874 99.565414,468.959229 
	C100.030647,469.033966 99.999413,469.001129 99.983414,468.985077 
z"/>
<path fill="#000000" opacity="1.000000" stroke="none" 
	d="
M596.912048,472.142029 
	C594.312195,472.421173 592.329102,472.688232 592.462036,469.154602 
	C592.730347,462.020721 592.541992,454.869690 592.541992,447.572296 
	C594.794739,446.586304 597.568298,445.700348 597.715576,448.769836 
	C598.085754,456.484772 598.998779,464.276245 596.912048,472.142029 
z"/>
<path fill="#000000" opacity="1.000000" stroke="none" 
	d="
M378.598114,446.650513 
	C379.904999,446.885284 380.348541,447.488861 380.348480,448.441895 
	C380.348114,456.238647 380.348267,464.035431 380.348267,471.893402 
	C376.600708,472.979584 374.609314,472.448242 374.739624,468.226807 
	C374.919434,462.401642 374.820374,456.565613 374.738586,450.735657 
	C374.703552,448.238159 375.181641,446.395660 378.598114,446.650513 
z"/>
</svg>