<svg version="1.1" id="Layer_1" xmlns="http://www.w3.org/2000/svg" xmlns:xlink="http://www.w3.org/1999/xlink" x="0px" y="0px"
	 width="100%" viewBox="0 0 1200 1200" enable-background="new 0 0 1200 1200" xml:space="preserve">
<path fill="#EAFF00" opacity="1.000000" stroke="none" 
	d="
M728.000000,1201.000000 
	C485.333344,1201.000000 243.166672,1201.000000 1.000000,1201.000000 
	C1.000000,801.000000 1.000000,401.000000 1.000000,1.000000 
	C401.000000,1.000000 801.000000,1.000000 1201.000000,1.000000 
	C1201.000000,401.000000 1201.000000,801.000000 1201.000000,1201.000000 
	C1043.500000,1201.000000 886.000000,1201.000000 728.000000,1201.000000 
M845.017761,248.978943 
	C845.017761,248.978943 844.998169,248.972198 844.739746,248.481522 
	C844.233337,248.324478 843.726868,248.167435 843.093811,247.797897 
	C843.093811,247.797897 842.849731,247.838013 842.535645,247.288956 
	C839.176392,245.391724 835.817200,243.494507 832.418152,241.540298 
	C832.418152,241.540298 832.350220,241.525711 831.885681,241.059372 
	C822.935425,236.052841 813.985107,231.046310 805.008240,225.962158 
	C805.008240,225.962158 804.929565,225.985474 804.581848,225.414764 
	C799.177124,222.459229 793.772339,219.503708 787.993103,216.941345 
	C788.121521,216.814148 788.249939,216.686966 787.982422,216.070679 
	C786.695740,215.427261 785.408997,214.783844 783.782532,213.793533 
	C783.782532,213.793533 783.308533,213.687958 782.959900,213.147675 
	C781.000671,212.117386 779.041443,211.087097 777.037537,209.910767 
	C777.037537,209.910767 776.889221,209.947067 776.568176,209.371643 
	C774.166870,208.119568 771.765503,206.867493 769.123413,205.897629 
	C769.123413,205.897629 769.337280,205.594543 768.914429,205.086777 
	C767.090698,204.127945 765.267029,203.169113 763.398132,202.186539 
	C761.886902,204.704391 760.574768,206.805237 759.345032,208.953293 
	C751.548401,222.572769 743.770020,236.202621 735.822388,249.881775 
	C735.822388,249.881775 735.856506,250.049850 735.289490,250.365326 
	C727.520874,263.862823 719.752258,277.360321 711.849487,290.910004 
	C711.849487,290.910004 711.886719,291.049072 711.336670,291.394897 
	C709.593323,294.563507 707.849915,297.732086 705.898926,301.009491 
	C705.898926,301.009491 705.953491,301.237488 705.402588,301.560211 
	C702.941650,305.999725 700.480713,310.439240 697.864868,314.931061 
	C697.864868,314.931061 697.904053,315.089813 697.423584,315.311707 
	C697.279968,315.804962 697.136353,316.298187 696.812134,316.831360 
	C696.812134,316.831360 696.827209,317.015686 696.238403,317.293732 
	C688.712830,330.412872 681.187317,343.532013 673.609985,356.677277 
	C673.609985,356.677277 673.590515,356.731964 673.075562,357.141693 
	C667.394226,367.080475 661.712891,377.019226 655.957764,386.976440 
	C655.957764,386.976440 655.971924,387.051117 655.393250,387.388123 
	C651.109436,394.777954 646.825623,402.167816 642.239624,410.079010 
	C652.259338,415.689545 661.879822,421.076599 671.536499,426.506256 
	C671.536499,426.506256 671.586304,426.531525 672.025269,427.024750 
	C680.966919,432.014191 689.908569,437.003632 698.924744,442.169800 
	C698.924744,442.169800 699.107239,442.111053 699.406738,442.683197 
	C702.847473,444.531433 706.288147,446.379700 709.763000,448.300995 
	C709.763000,448.300995 709.843567,448.300568 710.205750,448.841553 
	C714.443542,451.182465 718.681274,453.523376 723.262268,456.167206 
	C723.262268,456.167206 723.714661,456.236633 724.008606,456.768127 
	C724.568970,457.002869 725.129395,457.237610 725.760437,457.322327 
	C725.760437,457.322327 725.631409,457.426483 726.083374,457.912689 
	C729.923157,460.019104 733.762878,462.125519 737.693115,464.423553 
	C737.693115,464.423553 737.899902,464.377045 738.260742,464.878937 
	C740.603821,466.166931 742.946899,467.454926 745.507202,468.862305 
	C746.509155,466.897797 747.229614,465.485229 748.086365,464.026154 
	C748.086365,464.026154 748.047424,463.887512 748.586548,463.534180 
	C749.877441,461.200012 751.168274,458.865875 752.537537,456.483276 
	C752.537537,456.483276 752.552612,456.392395 752.986816,455.907654 
	C754.398682,453.325378 755.810608,450.743134 757.034607,448.031830 
	C757.034607,448.031830 757.204346,448.183929 757.763000,447.808319 
	C759.133667,445.237579 760.504395,442.666870 762.186523,439.785583 
	C762.186523,439.785583 762.279602,439.355713 762.862488,439.008698 
	C766.295959,433.145630 769.781311,427.312256 773.151733,421.413177 
	C779.469849,410.354919 785.721436,399.258667 792.169250,388.152039 
	C792.169250,388.152039 792.163696,387.981476 792.761841,387.719604 
	C797.965881,378.620697 803.169922,369.521790 808.471924,360.380219 
	C808.471924,360.380219 808.483276,360.273926 808.935486,359.810577 
	C816.089905,347.349365 823.244263,334.888153 830.410950,322.378754 
	C830.410950,322.378754 830.457703,322.361877 830.952576,321.932220 
	C832.756348,318.736084 834.560059,315.539917 836.325195,312.269073 
	C836.325195,312.269073 836.407654,312.285522 836.913208,311.861053 
	C840.624512,305.272888 844.335815,298.684753 848.094055,292.074615 
	C848.094055,292.074615 848.087463,292.023163 848.619019,291.725800 
	C849.063232,290.836212 849.507446,289.946594 850.068359,289.016388 
	C850.068359,289.016388 850.033569,288.897797 850.578003,288.524811 
	C853.178772,283.858093 855.779602,279.191406 858.525024,274.479095 
	C858.525024,274.479095 858.543274,274.328461 858.993713,273.882599 
	C860.158752,271.764771 861.323730,269.646912 862.532104,267.483490 
	C862.532104,267.483490 862.546936,267.422302 863.009766,266.977661 
	C864.142883,265.054474 865.276001,263.131256 866.621826,260.847015 
	C859.490173,256.948242 852.890625,253.340347 846.262695,249.689606 
	C846.262695,249.689606 846.213379,249.675354 845.981140,249.231674 
	C845.665466,249.151794 845.349792,249.071930 845.017761,248.978943 
M348.225861,287.338623 
	C348.471741,287.577484 348.717590,287.816345 349.171783,288.283417 
	C349.171783,288.283417 349.185150,288.592102 349.180969,289.368347 
	C353.157379,295.891449 357.133759,302.414520 361.023743,308.964539 
	C361.023743,308.964539 361.081421,308.894775 361.096100,309.659973 
	C362.207397,311.226868 363.318665,312.793793 364.631042,314.427551 
	C364.631042,314.427551 364.651978,314.638397 364.451050,315.291199 
	C365.308105,316.542175 366.165192,317.793121 367.238586,319.203125 
	C367.238586,319.203125 367.273987,319.469269 367.307983,320.078247 
	C367.576996,320.371948 367.846008,320.665680 368.039307,320.964111 
	C368.039307,320.964111 368.077576,320.898651 368.030365,321.684479 
	C368.591797,324.850952 368.775848,328.265167 373.130066,329.303528 
	C373.130066,329.303528 373.181061,329.612701 373.098389,330.440704 
	C376.859192,336.489807 380.619995,342.538879 384.452759,348.625336 
	C384.452759,348.625336 384.467834,348.705017 384.402740,349.221375 
	C384.610809,349.487946 384.818848,349.754517 385.241150,350.206818 
	C385.241150,350.206818 385.261047,350.489685 385.181030,351.276245 
	C388.813019,357.170166 392.445007,363.064087 396.006134,368.990631 
	C396.006134,368.990631 396.055328,368.930054 396.009308,369.633484 
	C397.011566,371.091370 398.013824,372.549255 398.989624,374.001038 
	C398.989624,374.001038 399.002533,373.977020 398.952179,374.724548 
	C401.259888,382.831329 406.760529,389.142822 411.039276,396.138947 
	C411.237091,396.462433 411.902893,396.499725 412.280151,396.788910 
	C412.280151,396.788910 412.395477,396.713135 412.242645,397.458832 
	C413.497803,399.309967 414.752960,401.161102 415.989868,403.004150 
	C415.989868,403.004150 415.994446,402.984680 415.950409,403.728302 
	C417.312897,405.810822 418.675385,407.893341 419.994873,409.991638 
	C419.994873,409.991638 420.028595,409.958954 419.992218,410.727509 
	C422.954498,415.511780 425.916779,420.296021 428.961884,425.087463 
	C428.961884,425.087463 428.899780,425.142761 428.858093,425.903229 
	C433.642090,434.691742 438.410156,443.489105 443.256805,452.242920 
	C443.500580,452.683197 444.424164,452.747101 444.996429,452.996979 
	C444.996429,452.996979 445.021454,452.969666 444.944580,453.741486 
	C447.321259,457.481873 449.697937,461.222260 452.005920,464.988129 
	C452.005920,464.988129 452.050110,464.929718 451.996796,465.698822 
	C453.985840,468.805054 455.974884,471.911285 458.004364,475.006439 
	C458.004364,475.006439 457.972961,475.035522 457.905975,475.744995 
	C458.081818,481.720215 462.118225,485.317535 465.996765,488.987549 
	C465.996765,488.987549 466.038727,488.944702 465.974274,489.720001 
	C469.320709,495.148560 472.667114,500.577118 475.991241,506.000458 
	C475.991241,506.000458 476.001251,505.979736 475.954926,506.724487 
	C477.315948,508.811310 478.677002,510.898132 479.997009,512.999023 
	C479.997009,512.999023 480.022064,512.963501 479.993378,513.732361 
	C483.324341,519.159363 486.655273,524.586304 490.000000,530.000000 
	C490.000000,530.000000 489.985291,530.010559 489.939270,530.757568 
	C493.965515,538.319153 497.853058,545.959778 502.090179,553.401306 
	C503.662231,556.162231 506.054260,558.456299 508.005341,560.990112 
	C508.005341,560.990112 508.047943,560.931763 508.002899,561.704224 
	C510.820251,566.239075 513.637573,570.773865 516.686707,575.408752 
	C516.686707,575.408752 516.696106,575.660950 516.427734,576.353699 
	C517.073181,577.107971 517.718628,577.862244 518.421875,578.639648 
	C518.421875,578.639648 518.448547,578.695862 518.267395,579.427612 
	C519.520996,581.302612 520.774597,583.177612 522.289551,585.251953 
	C522.289551,585.251953 522.383850,585.566833 522.232544,586.335938 
	C524.492371,589.921265 526.752197,593.506592 529.206604,597.265564 
	C529.206604,597.265564 529.199829,597.526306 529.080505,598.364197 
	C528.408813,601.265747 527.737122,604.167297 527.008667,607.015686 
	C527.008667,607.015686 527.084595,607.032043 526.470337,607.333496 
	C523.026062,612.670166 519.456726,617.932190 516.200562,623.381226 
	C514.937805,625.494385 514.383301,628.030701 513.470032,630.405151 
	C513.470032,630.405151 513.448059,630.447327 512.786377,630.601562 
	C509.477966,635.884583 506.012634,641.077820 502.918762,646.483704 
	C501.001129,649.834412 499.647491,653.507874 498.000000,657.000000 
	C498.000000,657.000000 498.044098,657.033325 497.352783,657.146484 
	C496.361969,659.202576 495.371185,661.258667 494.313965,663.302795 
	C494.313965,663.302795 494.326202,663.369202 493.623596,663.331177 
	C492.548370,664.306213 491.134003,665.088135 490.451385,666.286804 
	C484.835968,676.146545 479.432404,686.126892 473.817535,695.987000 
	C465.884827,709.917419 457.799011,723.760742 449.864868,737.690430 
	C449.083954,739.061401 448.904388,740.775024 448.420471,742.397461 
	C448.420471,742.397461 448.353180,742.424316 447.691467,742.533569 
	C444.110687,749.002808 440.529877,755.472107 437.005524,761.976013 
	C437.005524,761.976013 436.944183,761.958801 436.244629,762.046204 
	C435.528870,762.654358 434.576874,763.125732 434.133514,763.891541 
	C429.096985,772.590698 424.032349,781.276794 419.195892,790.087524 
	C415.963135,795.976868 413.084564,802.060730 409.997772,808.011963 
	C409.997772,808.011963 410.061798,808.032349 409.392578,808.180359 
	C407.910522,811.102661 406.428467,814.024902 405.001740,816.994080 
	C405.001740,816.994080 404.943726,816.954773 404.208801,817.027832 
	C399.946106,818.234436 400.870605,822.099182 399.998322,825.023560 
	C399.998322,825.023560 400.092255,825.062744 399.568726,825.378113 
	C399.385681,825.932251 399.202637,826.486328 398.992493,827.003113 
	C398.992493,827.003113 399.038544,827.004333 398.421173,827.312378 
	C397.630310,828.897583 396.839447,830.482727 395.997192,832.019836 
	C395.997192,832.019836 396.065216,832.037659 395.414185,832.211792 
	C392.462616,836.756653 389.304718,841.183960 386.626129,845.884399 
	C384.562500,849.505676 383.101227,853.470215 381.189362,857.143555 
	C381.189362,857.143555 381.339752,857.316772 380.673950,857.465210 
	C378.556305,861.471680 376.438660,865.478149 374.244049,869.769409 
	C374.244049,869.769409 374.001099,869.936646 373.347382,870.123718 
	C369.977112,876.245239 366.606842,882.366760 363.214081,888.747681 
	C363.214081,888.747681 363.008087,888.906982 362.319458,889.096863 
	C361.308868,891.155518 360.298279,893.214233 359.044556,895.072083 
	C359.044556,895.072083 359.306152,895.248108 358.645264,895.448425 
	C357.113464,898.322205 355.581665,901.196045 354.000671,904.018555 
	C354.000671,904.018555 354.069611,904.035767 353.408325,904.208313 
	C350.824371,908.094788 348.025757,911.859802 345.733795,915.911499 
	C344.267029,918.504333 343.548523,921.520508 342.470795,924.428772 
	C342.470795,924.428772 342.392426,924.462341 341.708374,924.534729 
	C341.152740,925.710571 340.597107,926.886475 339.996826,928.016418 
	C339.996826,928.016418 340.059326,928.029907 339.398438,928.233765 
	C339.012665,929.229736 338.626862,930.225647 338.000641,931.004883 
	C338.000641,931.004883 338.245575,931.215942 337.599915,931.434509 
	C336.684937,932.585632 335.657684,933.665588 334.875031,934.900513 
	C331.909119,939.580322 332.416077,941.179382 337.265259,943.805298 
	C340.007324,945.290161 342.536621,947.182434 345.321350,948.571228 
	C350.250977,951.029724 355.302338,953.244324 360.387421,955.577271 
	C360.387421,955.577271 360.422455,955.656006 360.526672,956.331970 
	C362.782440,957.403320 365.038239,958.474670 367.357758,959.563232 
	C367.357758,959.563232 367.391052,959.620300 367.493134,960.294861 
	C375.949188,965.380676 384.392365,970.488342 392.888000,975.507263 
	C393.504608,975.871460 394.502441,975.590576 395.128296,975.854309 
	C395.128296,975.854309 395.352386,975.636292 395.467896,976.307068 
	C401.746094,980.153442 407.948547,984.132141 414.335571,987.788391 
	C417.364441,989.522339 420.745667,990.640686 424.000000,992.000000 
	C424.000000,992.000000 423.968292,992.038757 424.117584,992.698120 
	C425.387787,993.740540 426.580963,994.898376 427.940887,995.806396 
	C436.193298,1001.316467 437.289062,1000.860168 442.136017,992.009888 
	C446.191254,984.605347 450.849121,977.532410 454.978943,970.166260 
	C456.968536,966.617554 458.356445,962.731567 460.007111,959.005920 
	C460.007111,959.005920 460.005310,959.018921 460.660309,958.842407 
	C461.064575,957.858643 461.468872,956.874939 461.993408,956.002441 
	C461.993408,956.002441 461.868073,955.894287 462.553772,955.760681 
	C463.683350,953.482300 464.812958,951.203979 465.995300,948.980225 
	C465.995300,948.980225 465.921753,948.961792 466.581635,948.800720 
	C470.225067,943.085815 474.042755,937.471985 477.440399,931.614441 
	C479.213715,928.557251 480.247650,925.071289 481.618988,921.659973 
	C481.618988,921.659973 481.730408,921.618347 482.413696,921.640930 
	C483.115082,920.995605 484.020477,920.471558 484.487061,919.686707 
	C490.738007,909.171387 497.082062,898.706421 503.071075,888.042542 
	C506.354523,882.196045 509.013062,875.998474 512.000610,869.996826 
	C512.000610,869.996826 511.945465,869.973572 512.570129,869.708984 
	C516.387329,862.808960 520.204529,855.908997 524.002441,849.005493 
	C524.002441,849.005493 524.016907,849.022156 524.703003,848.895874 
	C526.112122,846.240845 527.521301,843.585754 528.983215,841.000000 
	C528.983215,841.000000 528.922302,840.930847 529.624207,840.936890 
	C530.528442,840.444519 531.848389,840.177429 532.259827,839.418091 
	C533.554993,837.027710 534.430664,834.414856 535.610901,831.956360 
	C538.344971,826.261108 541.162537,820.605835 543.990479,814.987976 
	C543.990479,814.987976 543.921753,814.978088 544.430908,814.645874 
	C544.625671,814.097900 544.820435,813.549927 545.002441,813.002563 
	C545.002441,813.002563 545.008606,813.015381 545.625122,812.710571 
	C547.748230,808.813843 549.871338,804.917114 551.987244,800.992249 
	C551.987244,800.992249 552.015564,800.987061 552.681702,800.883606 
	C558.238037,791.933105 563.958923,783.079590 569.310303,774.008179 
	C576.465637,761.878662 583.252136,749.532043 590.349121,737.367432 
	C597.770020,724.647461 605.401733,712.050537 612.834534,699.337402 
	C613.411072,698.351196 613.145874,696.872803 613.313293,695.366577 
	C613.313293,695.366577 613.555298,695.271729 614.223389,695.431091 
	C619.428833,687.138000 625.253418,679.158447 629.658081,670.459839 
	C633.715698,662.446655 634.876221,660.839600 643.818054,660.840881 
	C715.237366,660.851379 786.656738,660.860779 858.076050,660.867615 
	C913.346985,660.872864 968.617981,660.894714 1023.888733,660.804504 
	C1026.195801,660.800720 1028.500977,659.734253 1030.973511,658.204773 
	C1031.012939,620.748962 1031.062744,583.293213 1031.044678,545.837402 
	C1031.044067,544.636230 1030.347046,543.435364 1029.876221,542.236511 
	C1029.876221,542.236511 1029.850464,542.141418 1029.723999,541.375977 
	C1027.856323,540.982178 1025.988647,540.244507 1024.120850,540.243713 
	C897.030518,540.189209 769.940247,540.182861 642.849915,540.243286 
	C638.782837,540.245239 634.943970,540.177307 631.955261,537.053467 
	C631.955261,537.053467 631.897034,537.133606 631.900024,536.383118 
	C629.815430,533.103760 627.730896,529.824402 625.454590,526.468567 
	C625.454590,526.468567 625.422119,526.264648 625.491455,525.779541 
	C625.417542,525.421814 625.205872,525.189392 624.933411,525.031372 
	C624.933411,525.031372 624.904907,525.118958 624.927429,524.397034 
	C623.941406,522.940308 622.955322,521.483521 622.000000,520.000000 
	C622.000000,520.000000 621.970703,520.030334 622.026001,519.271240 
	C620.654480,517.197205 619.282959,515.123108 617.987915,513.015381 
	C617.987915,513.015381 617.937317,513.081909 617.981445,512.302917 
	C617.422852,510.594421 617.138733,508.727814 616.260376,507.203583 
	C611.232361,498.478699 606.193604,489.754456 600.895142,481.192963 
	C597.472839,475.663086 593.599792,470.412140 589.995483,465.009430 
	C589.995483,465.009430 589.951477,465.066254 590.000854,464.300476 
	C588.638916,462.223785 587.276917,460.147095 585.997559,458.012634 
	C585.997559,458.012634 585.915222,458.063385 585.981262,457.339905 
	C584.972778,455.899933 583.964294,454.459961 583.004333,453.007599 
	C583.004333,453.007599 582.967529,453.042053 583.030518,452.279602 
	C580.684265,448.517426 578.338013,444.755280 576.007874,440.999512 
	C576.007874,440.999512 576.001953,441.016144 576.057190,440.244751 
	C573.926147,436.928162 571.795105,433.611572 570.000000,430.003662 
	C570.000000,430.003662 569.661743,430.291748 569.815552,429.557159 
	C568.545776,427.699158 567.276001,425.841187 566.004395,423.995667 
	C566.004395,423.995667 566.014954,423.999146 566.045227,423.248688 
	C563.348328,418.845551 560.651428,414.442383 558.000000,410.002441 
	C558.000000,410.002441 557.952942,410.034119 558.021790,409.265442 
	C554.648926,403.818359 551.276062,398.371307 547.678894,392.747131 
	C547.678894,392.747131 547.629028,392.465698 547.724976,391.714203 
	C544.642334,385.791931 541.680237,379.801880 538.408020,373.986267 
	C537.343323,372.094055 535.468567,370.657654 534.008118,369.010742 
	C534.008118,369.010742 533.977844,369.042603 534.047058,368.278320 
	C532.675537,366.201904 531.304016,364.125519 529.997559,361.998779 
	C529.997559,361.998779 529.937134,362.052765 530.014343,361.305664 
	C528.994080,359.843384 527.973816,358.381134 526.753540,356.773560 
	C526.753540,356.773560 526.745605,356.526489 526.855591,355.723145 
	C524.571045,352.151947 522.286438,348.580750 519.995605,345.002411 
	C519.995605,345.002411 519.994690,344.993225 520.066528,344.226166 
	C516.287354,336.676605 512.562134,329.098755 508.639191,321.624664 
	C508.277008,320.934601 506.655731,320.905426 505.434143,320.508026 
	C505.434143,320.508026 505.427795,320.313263 505.662262,319.578583 
	C501.118134,312.041107 496.573975,304.503632 492.001007,296.994537 
	C492.001007,296.994537 492.035217,296.976532 492.064209,296.232849 
	C490.565430,294.007629 489.066650,291.782410 487.406525,289.481934 
	C487.406525,289.481934 487.415527,289.304108 487.668762,288.573700 
	C485.088287,284.399719 482.507782,280.225708 479.998138,275.999725 
	C479.998138,275.999725 479.934021,276.059265 479.989777,275.305084 
	C479.183716,274.377502 478.377625,273.449890 477.435181,272.459381 
	C477.435181,272.459381 477.434265,272.309174 477.669617,271.566376 
	C476.320496,269.512604 474.971405,267.458862 473.545319,265.377716 
	C473.545319,265.377716 473.519440,265.300262 473.707581,264.548584 
	C470.493652,259.355164 467.279694,254.161758 463.998993,248.983109 
	C463.998993,248.983109 464.048370,248.935806 464.088409,248.171082 
	C461.730896,244.410339 459.373352,240.649612 456.814636,236.682037 
	C456.814636,236.682037 456.792969,236.394302 456.734802,235.817215 
	C456.464874,235.551376 456.194946,235.285522 455.991577,235.013931 
	C455.991577,235.013931 455.952057,235.067795 455.983459,234.320084 
	C454.630310,232.226212 453.277161,230.132355 451.995361,228.013489 
	C451.995361,228.013489 451.945404,228.070236 452.016785,227.377197 
	C451.350708,226.573929 450.684662,225.770660 449.573395,224.571487 
	C449.274170,223.841034 448.974945,223.110565 448.756744,221.635254 
	C445.750580,216.839355 442.744446,212.043442 439.915192,207.082428 
	C439.915192,207.082428 439.716156,207.220078 439.835236,206.470001 
	C438.927887,205.298248 438.020569,204.126495 437.027985,202.925385 
	C437.027985,202.925385 437.062103,202.841934 436.954041,202.244843 
	C436.225922,202.089371 435.326019,201.578003 434.796356,201.833679 
	C429.646301,204.319962 424.501373,206.831573 419.495697,209.591141 
	C418.361542,210.216385 417.772095,211.829727 416.744812,213.207916 
	C416.744812,213.207916 416.458527,213.244003 415.672729,213.126068 
	C412.458801,215.115417 409.244843,217.104767 406.029175,219.018402 
	C406.029175,219.018402 406.082855,219.071808 405.346222,219.005997 
	C403.701752,220.135941 402.057281,221.265884 400.381073,222.437088 
	C400.381073,222.437088 400.333069,222.457214 399.575867,222.267319 
	C397.566254,223.648148 395.556641,225.028976 393.476349,226.580414 
	C393.476349,226.580414 393.291748,226.575623 392.561310,226.334137 
	C386.050201,230.238647 379.539062,234.143158 373.001984,237.998978 
	C373.001984,237.998978 373.039673,238.039932 372.268463,237.960663 
	C370.889832,238.457092 369.434296,238.806122 368.147034,239.477692 
	C364.344269,241.461731 360.489868,243.387390 356.877136,245.684296 
	C352.802582,248.274872 348.968933,251.244461 345.001221,253.999802 
	C345.001221,253.999802 345.040619,254.041855 344.290497,253.992615 
	C340.949554,256.097046 337.608612,258.201477 334.103851,260.850464 
	C334.023560,261.218933 333.943268,261.587402 333.631378,262.210388 
	C333.827911,262.407196 334.024475,262.604034 334.001221,262.998779 
	C334.001221,262.998779 334.223694,262.803986 334.141907,263.582977 
	C336.888275,267.916351 339.634674,272.249725 342.426880,276.612823 
	C342.426880,276.612823 342.449005,276.662720 342.306366,277.387695 
	C343.547546,279.253998 344.788727,281.120270 345.996216,282.997162 
	C345.996216,282.997162 346.019409,282.969727 345.975525,283.665588 
	C346.716095,284.734222 347.456665,285.802826 348.089386,286.910797 
	C348.089386,286.910797 348.159607,286.819916 348.225861,287.338623 
M168.902985,545.719727 
	C168.935760,583.288269 168.968536,620.856750 169.283875,659.081665 
	C171.228638,659.667175 173.171280,660.754456 175.118454,660.762695 
	C202.580521,660.878052 230.043335,660.799438 257.505737,660.861206 
	C308.088745,660.974915 358.671600,661.162048 409.254608,661.216248 
	C410.291687,661.217346 411.330078,659.972290 412.953552,658.801758 
	C413.240173,657.368286 413.775482,655.935120 413.777100,654.501282 
	C413.817993,618.539062 413.816803,582.576843 413.782410,546.614563 
	C413.777008,540.984863 412.909851,540.171082 406.881622,540.169495 
	C329.462830,540.149048 252.044037,540.146057 174.625305,540.222107 
	C172.984207,540.223694 171.344086,541.215454 169.401993,542.306580 
	C169.248337,543.121704 169.094666,543.936768 168.902985,545.719727 
M778.843567,789.625610 
	C767.739685,770.567871 756.635742,751.510132 745.290405,732.038025 
	C710.698181,751.836670 676.589294,771.358704 642.261414,791.006104 
	C682.847351,860.656860 723.080872,929.702881 763.420349,998.930664 
	C797.998840,979.140625 832.134338,959.604126 866.471191,939.952332 
	C837.151550,889.682495 808.163269,839.980774 778.843567,789.625610 
z"/>
<path fill="#020122" opacity="1.000000" stroke="none" 
	d="
M373.181061,329.612701 
	C373.181061,329.612701 373.130066,329.303528 372.965942,328.849304 
	C371.227081,325.896301 369.652344,323.397461 368.077576,320.898651 
	C368.077576,320.898651 368.039307,320.964111 368.050171,320.655518 
	C367.798676,320.054382 367.536346,319.761841 367.273987,319.469269 
	C367.273987,319.469269 367.238586,319.203125 367.119141,318.796692 
	C366.217133,317.139648 365.434570,315.889038 364.651978,314.638397 
	C364.651978,314.638397 364.631042,314.427551 364.438721,314.085449 
	C363.191376,312.127136 362.136414,310.510956 361.081421,308.894775 
	C361.081421,308.894775 361.023743,308.964539 361.021759,308.592468 
	C357.074921,301.677612 353.130035,295.134857 349.185150,288.592102 
	C349.185150,288.592102 349.171783,288.283417 349.085266,287.888672 
	C348.719055,287.269226 348.439331,287.044586 348.159607,286.819916 
	C348.159607,286.819916 348.089386,286.910797 348.121979,286.557709 
	C347.442871,285.126312 346.731140,284.048004 346.019409,282.969727 
	C346.019409,282.969727 345.996216,282.997162 345.985291,282.648132 
	C344.799255,280.420319 343.624146,278.541534 342.449005,276.662720 
	C342.449005,276.662720 342.426880,276.612823 342.326233,276.255981 
	C339.558289,271.534058 336.890991,267.169006 334.223694,262.803986 
	C334.223694,262.803986 334.001221,262.998779 334.095978,262.657104 
	C334.190735,262.315460 333.863007,261.955872 333.863007,261.955872 
	C333.943268,261.587402 334.023560,261.218933 334.529266,260.513641 
	C338.316650,258.131836 341.678650,256.086853 345.040619,254.041855 
	C345.040619,254.041855 345.001221,253.999802 345.376862,254.004059 
	C354.848206,248.685532 363.943939,243.362732 373.039673,238.039917 
	C373.039673,238.039932 373.001984,237.998978 373.376190,238.004181 
	C380.264191,234.198120 386.777954,230.386871 393.291748,226.575623 
	C393.291748,226.575623 393.476349,226.580414 393.840820,226.428284 
	C396.247894,225.003189 398.290466,223.730194 400.333069,222.457214 
	C400.333069,222.457214 400.381073,222.437088 400.727478,222.357849 
	C402.743561,221.209686 404.413208,220.140747 406.082855,219.071808 
	C406.082855,219.071808 406.029175,219.018402 406.392395,219.030243 
	C409.989929,217.109406 413.224213,215.176697 416.458527,213.244003 
	C416.458527,213.244003 416.744812,213.207916 417.198975,213.062500 
	C424.122803,209.558716 430.592438,206.200333 437.062103,202.841934 
	C437.062103,202.841934 437.027985,202.925385 437.099335,203.260986 
	C438.019165,204.804428 438.867676,206.012253 439.716156,207.220078 
	C439.716156,207.220078 439.915192,207.082428 439.883789,207.513641 
	C442.793457,212.756622 445.734589,217.568375 448.675720,222.380112 
	C448.974945,223.110565 449.274170,223.841034 449.823364,225.087891 
	C450.697357,226.426270 451.321381,227.248260 451.945404,228.070236 
	C451.945404,228.070236 451.995361,228.013489 451.987061,228.376709 
	C453.303192,230.849213 454.627625,232.958496 455.952087,235.067780 
	C455.952057,235.067795 455.991577,235.013931 455.978760,235.312897 
	C456.241638,235.872681 456.517303,236.133484 456.792969,236.394287 
	C456.792969,236.394302 456.814636,236.682037 456.934875,237.151917 
	C459.386169,241.393127 461.717255,245.164474 464.048340,248.935822 
	C464.048370,248.935806 463.998993,248.983109 464.073486,249.328156 
	C467.271790,254.882233 470.395599,260.091248 473.519440,265.300262 
	C473.519440,265.300262 473.545319,265.377716 473.633057,265.727417 
	C474.958618,268.154449 476.196442,270.231812 477.434265,272.309174 
	C477.434265,272.309174 477.435181,272.459381 477.583191,272.793274 
	C478.465454,274.104553 479.199738,275.081909 479.934021,276.059265 
	C479.934021,276.059265 479.998138,275.999725 479.994324,276.384644 
	C482.465515,280.947723 484.940521,285.125916 487.415527,289.304108 
	C487.415527,289.304108 487.406525,289.481934 487.573730,289.847260 
	C489.172363,292.467224 490.603790,294.721893 492.035217,296.976562 
	C492.035217,296.976532 492.001007,296.994537 492.062683,297.334229 
	C496.558838,305.220337 500.993317,312.766785 505.427795,320.313263 
	C505.427795,320.313263 505.434143,320.508026 505.634644,320.857056 
	C510.555023,329.135101 515.274841,337.064178 519.994690,344.993225 
	C519.994690,344.993225 519.995605,345.002411 520.016602,345.360870 
	C522.273621,349.321716 524.509583,352.924103 526.745605,356.526489 
	C526.745605,356.526489 526.753540,356.773560 526.872803,357.194397 
	C527.973755,359.094421 528.955444,360.573608 529.937134,362.052765 
	C529.937134,362.052765 529.997559,361.998779 529.992798,362.372559 
	C531.317932,364.845093 532.647888,366.943848 533.977844,369.042603 
	C533.977844,369.042603 534.008118,369.010742 534.000305,369.371399 
	C538.537964,377.309937 543.083496,384.887817 547.629028,392.465698 
	C547.629028,392.465698 547.678894,392.747131 547.819092,393.204926 
	C551.290466,399.119843 554.621704,404.576996 557.952942,410.034119 
	C557.952942,410.034119 558.000000,410.002441 558.009888,410.378601 
	C560.684875,415.169556 563.349915,419.584351 566.014954,423.999146 
	C566.014954,423.999146 566.004395,423.995667 566.031128,424.334534 
	C567.259155,426.546143 568.460449,428.418945 569.661743,430.291748 
	C569.661743,430.291748 570.000000,430.003662 569.893677,430.499756 
	C571.858826,434.335938 573.930420,437.676025 576.001953,441.016144 
	C576.001953,441.016144 576.007874,440.999512 576.000000,441.358093 
	C578.317200,445.491791 580.642395,449.266937 582.967529,453.042053 
	C582.967529,453.042053 583.004333,453.007599 582.993774,453.353638 
	C583.960571,455.154236 584.937927,456.608826 585.915222,458.063385 
	C585.915222,458.063385 585.997559,458.012634 585.987061,458.390442 
	C587.301514,460.867584 588.626526,462.966919 589.951477,465.066254 
	C589.951477,465.066254 589.995483,465.009430 590.004028,465.379303 
	C591.402100,468.192505 592.754517,470.657806 594.187195,473.075562 
	C602.093140,486.417389 610.018555,499.747681 617.937317,513.081909 
	C617.937317,513.081909 617.987915,513.015381 617.988159,513.380005 
	C619.315796,515.839905 620.643250,517.935120 621.970703,520.030334 
	C621.970703,520.030334 622.000000,520.000000 622.003418,520.351196 
	C622.972900,522.174622 623.938904,523.646790 624.904907,525.118958 
	C624.904907,525.118958 624.933411,525.031372 624.890381,525.294800 
	C624.903564,525.903992 625.095154,526.139404 625.422119,526.264648 
	C625.422119,526.264648 625.454590,526.468567 625.616028,526.835571 
	C627.817322,530.512878 629.857178,533.823242 631.897034,537.133606 
	C631.897034,537.133606 631.955261,537.053467 631.979492,537.437134 
	C633.098389,541.714539 635.994934,541.893860 639.431885,541.892151 
	C765.411926,541.828186 891.392029,541.837219 1017.372070,541.854248 
	C1021.531555,541.854797 1025.691040,542.041504 1029.850464,542.141418 
	C1029.850464,542.141418 1029.876221,542.236511 1029.878174,542.677246 
	C1029.884888,547.781433 1029.887695,552.444946 1029.895020,557.108398 
	C1029.948364,590.749329 1030.002686,624.390320 1029.809082,658.395264 
	C1026.911987,658.887146 1024.262329,659.126282 1021.612732,659.126709 
	C918.487793,659.143799 815.362793,659.139221 712.237854,659.137329 
	C687.747742,659.136841 663.257446,659.092712 638.768005,659.221008 
	C636.885925,659.230835 634.073303,659.890564 633.278931,661.205872 
	C626.496521,672.435608 620.080811,683.886841 613.555298,695.271729 
	C613.555298,695.271729 613.313293,695.366577 613.061401,695.715881 
	C601.944519,714.670105 591.033264,733.248291 580.228455,751.888123 
	C570.762207,768.218506 561.415222,784.618103 552.015625,800.987061 
	C552.015564,800.987061 551.987244,800.992249 551.697083,801.170654 
	C549.274170,805.237793 547.141418,809.126587 545.008606,813.015381 
	C545.008606,813.015381 545.002441,813.002563 544.755737,813.165771 
	C544.313293,813.878662 544.117554,814.428406 543.921753,814.978088 
	C543.921753,814.978088 543.990479,814.987976 543.675842,815.132935 
	C538.548218,823.828857 533.735229,832.379822 528.922241,840.930847 
	C528.922302,840.930847 528.983215,841.000000 528.642578,841.090332 
	C526.873596,843.794495 525.445251,846.408325 524.016907,849.022156 
	C524.016907,849.022156 524.002441,849.005493 523.747803,849.216064 
	C519.643860,856.275635 515.794678,863.124573 511.945465,869.973572 
	C511.945465,869.973572 512.000610,869.996826 511.682129,870.141602 
	C501.485901,887.397034 491.608154,904.507690 481.730408,921.618347 
	C481.730408,921.618347 481.618988,921.659973 481.356232,921.906250 
	C476.036224,931.088989 470.979004,940.025391 465.921753,948.961792 
	C465.921753,948.961792 465.995300,948.980225 465.674805,949.120117 
	C464.192200,951.471497 463.030151,953.682861 461.868073,955.894287 
	C461.868073,955.894287 461.993408,956.002441 461.639008,956.071655 
	C460.858185,957.100220 460.431732,958.059570 460.005310,959.018921 
	C460.005310,959.018921 460.007111,959.005920 459.728638,959.190918 
	C451.849640,972.359741 444.249084,985.343628 436.529602,998.530640 
	C432.123688,996.253601 428.045990,994.146179 423.968292,992.038757 
	C423.968292,992.038757 424.000000,992.000000 423.760437,991.768494 
	C414.131409,986.236755 404.741913,980.936523 395.352386,975.636292 
	C395.352386,975.636292 395.128296,975.854309 395.033081,975.461182 
	C385.755615,969.918762 376.573334,964.769531 367.391052,959.620300 
	C367.391052,959.620300 367.357758,959.563232 367.113159,959.305237 
	C364.719818,957.916870 362.571136,956.786438 360.422455,955.656006 
	C360.422455,955.656006 360.387421,955.577271 360.149170,955.308838 
	C351.220428,950.057373 342.529907,945.074402 333.889954,940.120422 
	C335.515289,936.797668 336.880432,934.006775 338.245575,931.215942 
	C338.245575,931.215942 338.000641,931.004883 338.407074,930.966675 
	C339.228760,929.962341 339.644043,928.996094 340.059326,928.029907 
	C340.059326,928.029907 339.996826,928.016418 340.296265,927.885254 
	C341.194641,926.656799 341.793518,925.559570 342.392395,924.462341 
	C342.392426,924.462341 342.470795,924.428772 342.728760,924.169434 
	C346.681030,917.285339 350.375305,910.660522 354.069580,904.035767 
	C354.069611,904.035767 354.000671,904.018555 354.313904,903.868347 
	C356.186829,900.894775 357.746490,898.071411 359.306152,895.248108 
	C359.306152,895.248108 359.044556,895.072083 359.454041,895.007751 
	C360.911743,892.931274 361.959930,890.919128 363.008118,888.906982 
	C363.008087,888.906982 363.214081,888.747681 363.513916,888.419617 
	C367.209503,882.039917 370.605286,875.988281 374.001099,869.936646 
	C374.001099,869.936646 374.244049,869.769409 374.568115,869.437012 
	C377.041382,865.175354 379.190552,861.246033 381.339752,857.316772 
	C381.339752,857.316772 381.189362,857.143555 381.563812,857.042847 
	C386.647247,848.640686 391.356232,840.339172 396.065247,832.037659 
	C396.065216,832.037659 395.997192,832.019836 396.304626,831.867188 
	C397.420898,830.144531 398.229706,828.574402 399.038544,827.004333 
	C399.038544,827.004333 398.992493,827.003113 399.269531,826.870911 
	C399.728485,826.180054 399.910370,825.621399 400.092224,825.062744 
	C400.092255,825.062744 399.998322,825.023560 400.325958,824.879028 
	C402.083649,822.141235 403.513702,819.548035 404.943726,816.954773 
	C404.943726,816.954773 405.001740,816.994080 405.211426,816.733398 
	C406.967987,813.659241 408.514893,810.845764 410.061829,808.032349 
	C410.061798,808.032349 409.997772,808.011963 410.306732,807.852844 
	C419.391846,792.448730 428.168030,777.203796 436.944183,761.958801 
	C436.944183,761.958801 437.005524,761.976013 437.215088,761.724365 
	C441.067474,755.123230 444.710327,748.773804 448.353180,742.424316 
	C448.353180,742.424316 448.420471,742.397461 448.698242,742.170349 
	C456.813263,728.518799 464.701141,715.123596 472.473053,701.661438 
	C479.820801,688.933960 487.046692,676.136108 494.326202,663.369202 
	C494.326202,663.369202 494.313965,663.302795 494.628235,663.140991 
	C495.976410,660.997253 497.010254,659.015320 498.044098,657.033325 
	C498.044098,657.033325 498.000000,657.000000 498.314026,656.849121 
	C503.568054,647.947998 508.508057,639.197632 513.448059,630.447327 
	C513.448059,630.447327 513.470032,630.405151 513.767639,630.215454 
	C518.405029,622.361206 522.744812,614.696594 527.084595,607.032043 
	C527.084595,607.032043 527.008667,607.015686 527.337402,606.872437 
	C528.642273,603.739075 533.564087,601.406433 529.199829,597.526306 
	C529.199829,597.526306 529.206604,597.265564 529.090454,596.811035 
	C526.777527,592.760010 524.580688,589.163391 522.383850,585.566833 
	C522.383850,585.566833 522.289551,585.251953 522.136902,584.805054 
	C520.805725,582.470703 519.627136,580.583313 518.448547,578.695862 
	C518.448547,578.695862 518.421875,578.639648 518.361206,578.338501 
	C517.765686,577.245239 517.230896,576.453125 516.696106,575.660950 
	C516.696106,575.660950 516.686707,575.408752 516.461792,575.038086 
	C513.507202,570.088867 510.777588,565.510315 508.047943,560.931763 
	C508.047943,560.931763 508.005341,560.990112 507.985657,560.622559 
	C501.972443,550.173584 495.978851,540.092041 489.985291,530.010559 
	C489.985291,530.010559 490.000000,530.000000 489.962769,529.651245 
	C486.624359,523.856201 483.323212,518.409851 480.022064,512.963501 
	C480.022064,512.963501 479.997009,512.999023 479.978210,512.644409 
	C478.640045,510.186401 477.320648,508.083069 476.001251,505.979736 
	C476.001251,505.979736 475.991241,506.000458 475.974121,505.646851 
	C472.650909,499.843719 469.344818,494.394196 466.038727,488.944702 
	C466.038727,488.944702 465.996765,488.987549 466.001556,488.623108 
	C463.328552,483.850952 460.650757,479.443237 457.972961,475.035522 
	C457.972961,475.035522 458.004364,475.006439 457.942169,474.660889 
	C455.936676,471.186768 453.993408,468.058258 452.050110,464.929718 
	C452.050110,464.929718 452.005920,464.988129 452.004974,464.618530 
	C449.676514,460.489166 447.348999,456.729431 445.021454,452.969666 
	C445.021454,452.969666 444.996429,452.996979 444.991028,452.632263 
	C439.623688,443.225922 434.261749,434.184326 428.899780,425.142761 
	C428.899780,425.142761 428.961884,425.087463 428.888428,424.730530 
	C425.886169,419.568726 422.957367,414.763855 420.028595,409.958954 
	C420.028595,409.958954 419.994873,409.991638 419.984985,409.635651 
	C418.648224,407.181335 417.321350,405.083008 415.994446,402.984680 
	C415.994446,402.984680 415.989868,403.004150 415.966919,402.666992 
	C414.761169,400.457611 413.578308,398.585388 412.395477,396.713135 
	C412.395477,396.713135 412.280151,396.788910 412.238953,396.383392 
	C407.799316,388.644257 403.400909,381.310638 399.002533,373.977020 
	C399.002533,373.977020 398.989624,374.001038 398.993042,373.662415 
	C398.016083,371.859222 397.035706,370.394653 396.055328,368.930054 
	C396.055328,368.930054 396.006134,368.990631 395.995575,368.618958 
	C392.410370,362.328064 388.835693,356.408875 385.261047,350.489685 
	C385.261047,350.489685 385.241150,350.206818 385.154083,349.854065 
	C384.867279,349.235870 384.667572,348.970428 384.467834,348.705017 
	C384.467834,348.705017 384.452759,348.625336 384.325073,348.267700 
	C380.525238,341.810944 376.853149,335.711823 373.181061,329.612701 
z"/>
<path fill="#020122" opacity="1.000000" stroke="none" 
	d="
M779.009277,789.952271 
	C808.163269,839.980774 837.151550,889.682495 866.471191,939.952332 
	C832.134338,959.604126 797.998840,979.140625 763.420349,998.930664 
	C723.080872,929.702881 682.847351,860.656860 642.261414,791.006104 
	C676.589294,771.358704 710.698181,751.836670 745.290405,732.038025 
	C756.635742,751.510132 767.739685,770.567871 779.009277,789.952271 
z"/>
<path fill="#020122" opacity="1.000000" stroke="none" 
	d="
M783.308533,213.687958 
	C783.308533,213.687958 783.782532,213.793533 784.004028,214.298615 
	C785.609741,215.389069 786.994080,215.974442 788.378357,216.559814 
	C788.249939,216.686966 788.121521,216.814148 788.222595,217.102676 
	C792.773621,222.383514 798.296814,225.232605 804.929565,225.985474 
	C804.929565,225.985474 805.008240,225.962158 805.087463,226.341309 
	C806.748169,229.929825 808.812866,232.286148 812.818237,232.572800 
	C814.252075,232.675400 815.505676,234.361191 816.979553,235.011444 
	C822.070251,237.257324 827.221802,239.365250 832.350220,241.525696 
	C832.350220,241.525711 832.418152,241.540298 832.371338,241.934692 
	C835.832947,244.165390 839.341370,246.001694 842.849731,247.838013 
	C842.849731,247.838013 843.093811,247.797897 843.295410,248.134171 
	C843.997437,248.637695 844.497803,248.804962 844.998169,248.972198 
	C844.998169,248.972198 845.017761,248.978943 845.164368,249.186584 
	C845.565735,249.635620 845.866577,249.729340 846.213379,249.675354 
	C846.213379,249.675354 846.262695,249.689606 846.356323,250.045334 
	C848.249512,251.976883 849.801758,254.278732 851.895142,254.991791 
	C858.065002,257.093353 862.641541,260.138702 862.546936,267.422302 
	C862.546936,267.422302 862.532104,267.483490 862.145630,267.439148 
	C859.137939,268.987488 857.435486,271.006256 858.543274,274.328461 
	C858.543274,274.328461 858.525024,274.479095 858.111816,274.436981 
	C855.143616,279.229187 852.588623,284.063507 850.033569,288.897827 
	C850.033569,288.897797 850.068359,289.016388 849.683960,289.101410 
	C848.895508,290.132019 848.491516,291.077576 848.087463,292.023163 
	C848.087463,292.023163 848.094055,292.074615 847.736694,292.136292 
	C843.696594,297.762512 839.949524,303.286652 836.404114,308.937347 
	C835.901978,309.737640 836.382141,311.154205 836.407654,312.285522 
	C836.407654,312.285522 836.325195,312.269073 836.004883,312.353760 
	C833.550415,315.539856 828.921265,317.327118 830.457703,322.361877 
	C830.457703,322.361877 830.410950,322.378754 830.053589,322.355957 
	C829.112854,322.836426 828.354553,323.233032 827.972351,323.859161 
	C823.018188,331.975494 817.928589,340.018799 813.289062,348.313171 
	C811.208679,352.032440 810.056580,356.270996 808.483276,360.273926 
	C808.483276,360.273926 808.471924,360.380219 808.078613,360.420959 
	C805.610046,363.337769 803.202454,366.034119 801.529724,369.127838 
	C798.194153,375.296936 795.262268,381.684265 792.163696,387.981445 
	C792.163696,387.981476 792.169250,388.152039 791.753662,388.185883 
	C790.366211,389.310272 789.187378,390.277802 788.454895,391.510559 
	C781.733276,402.822418 774.954895,414.104553 768.490601,425.563232 
	C766.023315,429.936768 764.327148,434.745361 762.279602,439.355713 
	C762.279602,439.355713 762.186523,439.785583 761.691040,439.968018 
	C759.865173,442.828278 758.534790,445.506104 757.204346,448.183929 
	C757.204346,448.183929 757.034607,448.031830 756.786743,448.189880 
	C755.210083,451.029388 753.881348,453.710876 752.552612,456.392395 
	C752.552612,456.392395 752.537537,456.483276 752.137207,456.435699 
	C748.220520,457.763000 747.786194,460.654144 748.047424,463.887512 
	C748.047424,463.887512 748.086365,464.026154 747.684570,464.102539 
	C744.230591,467.815216 741.005127,463.247955 737.899902,464.377045 
	C737.899902,464.377045 737.693115,464.423553 737.677856,463.986267 
	C733.652222,461.508179 729.641785,459.467316 725.631409,457.426453 
	C725.631409,457.426483 725.760437,457.322327 725.610840,457.089325 
	C724.879028,456.649780 724.296814,456.443207 723.714661,456.236633 
	C723.714661,456.236633 723.262268,456.167206 723.035645,455.692841 
	C718.487183,452.912506 714.165405,450.606537 709.843567,448.300568 
	C709.843567,448.300568 709.763000,448.300995 709.673340,447.933594 
	C706.091553,445.747803 702.599426,443.929413 699.107239,442.111053 
	C699.107239,442.111053 698.924744,442.169800 698.855103,441.750977 
	C697.990906,440.534607 697.311951,439.553162 696.383057,438.969482 
	C690.623291,435.350311 684.907959,431.638000 678.956726,428.357910 
	C676.814941,427.177490 674.060913,427.108002 671.586304,426.531525 
	C671.586304,426.531525 671.536499,426.506256 671.572876,426.124939 
	C670.389282,423.742737 669.169312,421.741852 668.547791,420.722565 
	C660.262573,420.575562 655.463684,414.529572 648.848267,411.763214 
	C649.842712,411.124542 650.574585,410.654541 651.320190,410.175690 
	C647.144409,406.028015 647.370483,403.601135 650.703735,398.583710 
	C653.013306,395.107208 654.253723,390.920471 655.971924,387.051117 
	C655.971924,387.051117 655.957764,386.976440 656.337463,386.902893 
	C658.463440,385.990326 660.209717,385.151306 661.811523,384.381714 
	C661.976929,382.767578 661.699341,380.882538 662.399902,379.489380 
	C664.615295,375.083954 667.354004,370.942383 669.583313,366.543182 
	C671.174927,363.402405 672.272461,360.011322 673.590454,356.731934 
	C673.590515,356.731964 673.609985,356.677277 673.969421,356.612793 
	C680.904907,349.723450 684.906860,341.297485 689.013733,332.937134 
	C691.620300,327.630981 694.222839,322.322906 696.827209,317.015686 
	C696.827209,317.015686 696.812134,316.831360 697.124512,316.679016 
	C697.592590,316.047699 697.748291,315.568756 697.904053,315.089813 
	C697.904053,315.089813 697.864868,314.931061 698.285583,314.888794 
	C705.348511,312.560913 703.863647,305.947388 705.953491,301.237488 
	C705.953491,301.237488 705.898926,301.009491 706.330322,300.908356 
	C710.551086,298.647491 712.882874,295.722229 711.886719,291.049072 
	C711.886719,291.049072 711.849487,290.910004 712.253418,290.845825 
	C713.533264,290.041901 714.696960,289.469666 715.239868,288.536255 
	C720.122192,280.142700 725.005676,271.745880 729.654114,263.221985 
	C731.973694,258.968719 733.804565,254.449036 735.856506,250.049850 
	C735.856506,250.049850 735.822388,249.881775 736.241394,249.821564 
	C738.591492,248.345505 740.602417,247.022156 742.409363,245.462570 
	C743.023621,244.932419 743.142883,243.813751 743.455750,242.952209 
	C744.563110,239.903122 745.248352,236.616058 746.832275,233.840851 
	C751.337097,225.948318 757.523315,219.031967 760.514282,210.253769 
	C761.994080,205.910645 765.137756,204.764160 769.337280,205.594543 
	C769.337280,205.594543 769.123413,205.897629 769.218750,206.121094 
	C771.839172,207.545395 774.364197,208.746231 776.889221,209.947067 
	C776.889221,209.947067 777.037537,209.910767 777.118286,210.326889 
	C779.235474,211.724670 781.272034,212.706314 783.308533,213.687958 
z"/>
<path fill="#BDD224" opacity="1.000000" stroke="none" 
	d="
M613.889404,695.351440 
	C620.080811,683.886841 626.496521,672.435608 633.278931,661.205872 
	C634.073303,659.890564 636.885925,659.230835 638.768005,659.221008 
	C663.257446,659.092712 687.747742,659.136841 712.237854,659.137329 
	C815.362793,659.139221 918.487793,659.143799 1021.612732,659.126709 
	C1024.262329,659.126282 1026.911987,658.887146 1029.936523,658.584106 
	C1030.422852,658.695557 1030.588135,658.946899 1030.807007,659.162903 
	C1028.500977,659.734253 1026.195801,660.800720 1023.888733,660.804504 
	C968.617981,660.894714 913.346985,660.872864 858.076050,660.867615 
	C786.656738,660.860779 715.237366,660.851379 643.818054,660.840881 
	C634.876221,660.839600 633.715698,662.446655 629.658081,670.459839 
	C625.253418,679.158447 619.428833,687.138000 613.889404,695.351440 
z"/>
<path fill="#BAC532" opacity="1.000000" stroke="none" 
	d="
M1029.787231,541.758667 
	C1025.691040,542.041504 1021.531555,541.854797 1017.372070,541.854248 
	C891.392029,541.837219 765.411926,541.828186 639.431885,541.892151 
	C635.994934,541.893860 633.098389,541.714539 631.932983,537.454102 
	C634.943970,540.177307 638.782837,540.245239 642.849915,540.243286 
	C769.940247,540.182861 897.030518,540.189209 1024.120850,540.243713 
	C1025.988647,540.244507 1027.856323,540.982178 1029.787231,541.758667 
z"/>
<path fill="#B9CA2D" opacity="1.000000" stroke="none" 
	d="
M169.703522,541.745361 
	C171.344086,541.215454 172.984207,540.223694 174.625305,540.222107 
	C252.044037,540.146057 329.462830,540.149048 406.881622,540.169495 
	C412.909851,540.171082 413.777008,540.984863 413.782410,546.614563 
	C413.816803,582.576843 413.817993,618.539062 413.777100,654.501282 
	C413.775482,655.935120 413.240173,657.368286 412.567078,658.977417 
	C412.180603,659.153076 411.994934,658.995483 412.017548,658.527588 
	C412.040161,619.461487 412.040161,580.863220 412.040161,541.882263 
	C409.988342,541.882263 408.523987,541.882324 407.059631,541.882324 
	C329.742615,541.881714 252.425613,541.879578 175.108597,541.890747 
	C173.451294,541.890991 171.794037,542.044678 170.028473,542.031372 
	C169.920212,541.935974 169.703522,541.745361 169.703522,541.745361 
z"/>
<path fill="#B9CA2D" opacity="1.000000" stroke="none" 
	d="
M412.274231,659.230835 
	C411.330078,659.972290 410.291687,661.217346 409.254608,661.216248 
	C358.671600,661.162048 308.088745,660.974915 257.505737,660.861206 
	C230.043335,660.799438 202.580521,660.878052 175.118454,660.762695 
	C173.171280,660.754456 171.228638,659.667175 169.370224,658.667114 
	C169.456573,658.252625 169.903137,658.064148 170.130524,658.443726 
	C171.993484,658.973938 173.629013,659.255798 175.264618,659.256226 
	C251.521973,659.276062 327.779327,659.274231 404.036682,659.258179 
	C406.689453,659.257629 409.342194,659.086914 411.994934,658.995483 
	C411.994934,658.995483 412.180603,659.153076 412.274231,659.230835 
z"/>
<path fill="#BDD224" opacity="1.000000" stroke="none" 
	d="
M552.348633,800.935303 
	C561.415222,784.618103 570.762207,768.218506 580.228455,751.888123 
	C591.033264,733.248291 601.944519,714.670105 613.040771,695.844177 
	C613.145874,696.872803 613.411072,698.351196 612.834534,699.337402 
	C605.401733,712.050537 597.770020,724.647461 590.349121,737.367432 
	C583.252136,749.532043 576.465637,761.878662 569.310303,774.008179 
	C563.958923,783.079590 558.238037,791.933105 552.348633,800.935303 
z"/>
<path fill="#BDD224" opacity="1.000000" stroke="none" 
	d="
M493.974915,663.350220 
	C487.046692,676.136108 479.820801,688.933960 472.473053,701.661438 
	C464.701141,715.123596 456.813263,728.518799 448.710876,742.136414 
	C448.904388,740.775024 449.083954,739.061401 449.864868,737.690430 
	C457.799011,723.760742 465.884827,709.917419 473.817535,695.987000 
	C479.432404,686.126892 484.835968,676.146545 490.451385,666.286804 
	C491.134003,665.088135 492.548370,664.306213 493.974915,663.350220 
z"/>
<path fill="#151408" opacity="1.000000" stroke="none" 
	d="
M655.682617,387.219604 
	C654.253723,390.920471 653.013306,395.107208 650.703735,398.583710 
	C647.370483,403.601135 647.144409,406.028015 651.320190,410.175690 
	C650.574585,410.654541 649.842712,411.124542 648.848267,411.763214 
	C655.463684,414.529572 660.262573,420.575562 668.547791,420.722565 
	C669.169312,421.741852 670.389282,423.742737 671.554810,426.103638 
	C661.879822,421.076599 652.259338,415.689545 642.239624,410.079010 
	C646.825623,402.167816 651.109436,394.777954 655.682617,387.219604 
z"/>
<path fill="#151408" opacity="1.000000" stroke="none" 
	d="
M769.125854,205.340668 
	C765.137756,204.764160 761.994080,205.910645 760.514282,210.253769 
	C757.523315,219.031967 751.337097,225.948318 746.832275,233.840851 
	C745.248352,236.616058 744.563110,239.903122 743.455750,242.952209 
	C743.142883,243.813751 743.023621,244.932419 742.409363,245.462570 
	C740.602417,247.022156 738.591492,248.345505 736.322998,249.795212 
	C743.770020,236.202621 751.548401,222.572769 759.345032,208.953293 
	C760.574768,206.805237 761.886902,204.704391 763.398132,202.186539 
	C765.267029,203.169113 767.090698,204.127945 769.125854,205.340668 
z"/>
<path fill="#151408" opacity="1.000000" stroke="none" 
	d="
M762.571045,439.182190 
	C764.327148,434.745361 766.023315,429.936768 768.490601,425.563232 
	C774.954895,414.104553 781.733276,402.822418 788.454895,391.510559 
	C789.187378,390.277802 790.366211,389.310272 791.669434,388.198975 
	C785.721436,399.258667 779.469849,410.354919 773.151733,421.413177 
	C769.781311,427.312256 766.295959,433.145630 762.571045,439.182190 
z"/>
<path fill="#BDD224" opacity="1.000000" stroke="none" 
	d="
M424.042938,992.368408 
	C428.045990,994.146179 432.123688,996.253601 436.529602,998.530640 
	C444.249084,985.343628 451.849640,972.359741 459.733490,959.187134 
	C458.356445,962.731567 456.968536,966.617554 454.978943,970.166260 
	C450.849121,977.532410 446.191254,984.605347 442.136017,992.009888 
	C437.289062,1000.860168 436.193298,1001.316467 427.940887,995.806396 
	C426.580963,994.898376 425.387787,993.740540 424.042938,992.368408 
z"/>
<path fill="#BDD224" opacity="1.000000" stroke="none" 
	d="
M482.072052,921.629639 
	C491.608154,904.507690 501.485901,887.397034 511.658508,870.122803 
	C509.013062,875.998474 506.354523,882.196045 503.071075,888.042542 
	C497.082062,898.706421 490.738007,909.171387 484.487061,919.686707 
	C484.020477,920.471558 483.115082,920.995605 482.072052,921.629639 
z"/>
<path fill="#E2EE53" opacity="1.000000" stroke="none" 
	d="
M1030.890259,658.683838 
	C1030.588135,658.946899 1030.422852,658.695557 1030.184082,658.220093 
	C1030.002686,624.390320 1029.948364,590.749329 1029.895020,557.108398 
	C1029.887695,552.444946 1029.884888,547.781433 1029.927246,542.676147 
	C1030.347046,543.435364 1031.044067,544.636230 1031.044678,545.837402 
	C1031.062744,583.293213 1031.012939,620.748962 1030.890259,658.683838 
z"/>
<path fill="#E8F76B" opacity="1.000000" stroke="none" 
	d="
M169.903137,658.064148 
	C169.903137,658.064148 169.456573,658.252625 169.228943,658.338989 
	C168.968536,620.856750 168.935760,583.288269 169.150955,545.290344 
	C169.398926,544.860962 169.857986,544.955627 169.915924,545.427368 
	C169.950287,583.287476 169.926712,620.675781 169.903137,658.064148 
z"/>
<path fill="#BDD224" opacity="1.000000" stroke="none" 
	d="
M617.959351,512.692383 
	C610.018555,499.747681 602.093140,486.417389 594.187195,473.075562 
	C592.754517,470.657806 591.402100,468.192505 589.970703,465.392700 
	C593.599792,470.412140 597.472839,475.663086 600.895142,481.192963 
	C606.193604,489.754456 611.232361,498.478699 616.260376,507.203583 
	C617.138733,508.727814 617.422852,510.594421 617.959351,512.692383 
z"/>
<path fill="#BDD224" opacity="1.000000" stroke="none" 
	d="
M436.594421,762.002502 
	C428.168030,777.203796 419.391846,792.448730 410.331573,807.875610 
	C413.084564,802.060730 415.963135,795.976868 419.195892,790.087524 
	C424.032349,781.276794 429.096985,772.590698 434.133514,763.891541 
	C434.576874,763.125732 435.528870,762.654358 436.594421,762.002502 
z"/>
<path fill="#151408" opacity="1.000000" stroke="none" 
	d="
M696.532837,317.154724 
	C694.222839,322.322906 691.620300,327.630981 689.013733,332.937134 
	C684.906860,341.297485 680.904907,349.723450 673.995361,356.599731 
	C681.187317,343.532013 688.712830,330.412872 696.532837,317.154724 
z"/>
<path fill="#151408" opacity="1.000000" stroke="none" 
	d="
M808.709351,360.042236 
	C810.056580,356.270996 811.208679,352.032440 813.289062,348.313171 
	C817.928589,340.018799 823.018188,331.975494 827.972351,323.859161 
	C828.354553,323.233032 829.112854,322.836426 830.047485,322.380035 
	C823.244263,334.888153 816.089905,347.349365 808.709351,360.042236 
z"/>
<path fill="#151408" opacity="1.000000" stroke="none" 
	d="
M735.572998,250.207581 
	C733.804565,254.449036 731.973694,258.968719 729.654114,263.221985 
	C725.005676,271.745880 720.122192,280.142700 715.239868,288.536255 
	C714.696960,289.469666 713.533264,290.041901 712.320557,290.819702 
	C719.752258,277.360321 727.520874,263.862823 735.572998,250.207581 
z"/>
<path fill="#BDD224" opacity="1.000000" stroke="none" 
	d="
M337.922729,931.325195 
	C336.880432,934.006775 335.515289,936.797668 333.889954,940.120422 
	C342.529907,945.074402 351.220428,950.057373 360.106812,955.300659 
	C355.302338,953.244324 350.250977,951.029724 345.321350,948.571228 
	C342.536621,947.182434 340.007324,945.290161 337.265259,943.805298 
	C332.416077,941.179382 331.909119,939.580322 334.875031,934.900513 
	C335.657684,933.665588 336.684937,932.585632 337.922729,931.325195 
z"/>
<path fill="#151408" opacity="1.000000" stroke="none" 
	d="
M673.333008,356.936829 
	C672.272461,360.011322 671.174927,363.402405 669.583313,366.543182 
	C667.354004,370.942383 664.615295,375.083954 662.399902,379.489380 
	C661.699341,380.882538 661.976929,382.767578 661.811523,384.381714 
	C660.209717,385.151306 658.463440,385.990326 656.374390,386.893677 
	C661.712891,377.019226 667.394226,367.080475 673.333008,356.936829 
z"/>
<path fill="#151408" opacity="1.000000" stroke="none" 
	d="
M832.117920,241.292542 
	C827.221802,239.365250 822.070251,237.257324 816.979553,235.011444 
	C815.505676,234.361191 814.252075,232.675400 812.818237,232.572800 
	C808.812866,232.286148 806.748169,229.929825 805.100769,226.380127 
	C813.985107,231.046310 822.935425,236.052841 832.117920,241.292542 
z"/>
<path fill="#BDD224" opacity="1.000000" stroke="none" 
	d="
M489.962280,530.384033 
	C495.978851,540.092041 501.972443,550.173584 508.019165,560.609131 
	C506.054260,558.456299 503.662231,556.162231 502.090179,553.401306 
	C497.853058,545.959778 493.965515,538.319153 489.962280,530.384033 
z"/>
<path fill="#BDD224" opacity="1.000000" stroke="none" 
	d="
M372.654053,238.000290 
	C363.943939,243.362732 354.848206,248.685532 345.391510,254.028778 
	C348.968933,251.244461 352.802582,248.274872 356.877136,245.684296 
	C360.489868,243.387390 364.344269,241.461731 368.147034,239.477692 
	C369.434296,238.806122 370.889832,238.457092 372.654053,238.000290 
z"/>
<path fill="#151408" opacity="1.000000" stroke="none" 
	d="
M862.778320,267.199982 
	C862.641541,260.138702 858.065002,257.093353 851.895142,254.991791 
	C849.801758,254.278732 848.249512,251.976883 846.370544,250.066772 
	C852.890625,253.340347 859.490173,256.948242 866.621826,260.847015 
	C865.276001,263.131256 864.142883,265.054474 862.778320,267.199982 
z"/>
<path fill="#BDD224" opacity="1.000000" stroke="none" 
	d="
M529.273193,840.933838 
	C533.735229,832.379822 538.548218,823.828857 543.653687,815.106140 
	C541.162537,820.605835 538.344971,826.261108 535.610901,831.956360 
	C534.430664,834.414856 533.554993,837.027710 532.259827,839.418091 
	C531.848389,840.177429 530.528442,840.444519 529.273193,840.933838 
z"/>
<path fill="#BDD224" opacity="1.000000" stroke="none" 
	d="
M367.442078,959.957581 
	C376.573334,964.769531 385.755615,969.918762 395.130432,975.338867 
	C394.502441,975.590576 393.504608,975.871460 392.888000,975.507263 
	C384.392365,970.488342 375.949188,965.380676 367.442078,959.957581 
z"/>
<path fill="#BDD224" opacity="1.000000" stroke="none" 
	d="
M395.410156,975.971680 
	C404.741913,980.936523 414.131409,986.236755 423.744080,991.787476 
	C420.745667,990.640686 417.364441,989.522339 414.335571,987.788391 
	C407.948547,984.132141 401.746094,980.153442 395.410156,975.971680 
z"/>
<path fill="#151408" opacity="1.000000" stroke="none" 
	d="
M671.805786,426.778137 
	C674.060913,427.108002 676.814941,427.177490 678.956726,428.357910 
	C684.907959,431.638000 690.623291,435.350311 696.383057,438.969482 
	C697.311951,439.553162 697.990906,440.534607 698.817810,441.662628 
	C689.908569,437.003632 680.966919,432.014191 671.805786,426.778137 
z"/>
<path fill="#BDD224" opacity="1.000000" stroke="none" 
	d="
M466.251709,948.881226 
	C470.979004,940.025391 476.036224,931.088989 481.354492,921.965759 
	C480.247650,925.071289 479.213715,928.557251 477.440399,931.614441 
	C474.042755,937.471985 470.225067,943.085815 466.251709,948.881226 
z"/>
<path fill="#151408" opacity="1.000000" stroke="none" 
	d="
M792.462769,387.850525 
	C795.262268,381.684265 798.194153,375.296936 801.529724,369.127838 
	C803.202454,366.034119 805.610046,363.337769 808.029663,360.442261 
	C803.169922,369.521790 797.965881,378.620697 792.462769,387.850525 
z"/>
<path fill="#BDD224" opacity="1.000000" stroke="none" 
	d="
M428.878967,425.523010 
	C434.261749,434.184326 439.623688,443.225922 445.008423,452.626892 
	C444.424164,452.747101 443.500580,452.683197 443.256805,452.242920 
	C438.410156,443.489105 433.642090,434.691742 428.878967,425.523010 
z"/>
<path fill="#BDD224" opacity="1.000000" stroke="none" 
	d="
M520.030640,344.609680 
	C515.274841,337.064178 510.555023,329.135101 505.727142,320.887695 
	C506.655731,320.905426 508.277008,320.934601 508.639191,321.624664 
	C512.562134,329.098755 516.287354,336.676605 520.030640,344.609680 
z"/>
<path fill="#BDD224" opacity="1.000000" stroke="none" 
	d="
M513.117188,630.524414 
	C508.508057,639.197632 503.568054,647.947998 498.334351,656.867432 
	C499.647491,653.507874 501.001129,649.834412 502.918762,646.483704 
	C506.012634,641.077820 509.477966,635.884583 513.117188,630.524414 
z"/>
<path fill="#BDD224" opacity="1.000000" stroke="none" 
	d="
M395.739716,832.124756 
	C391.356232,840.339172 386.647247,848.640686 381.655212,857.112183 
	C383.101227,853.470215 384.562500,849.505676 386.626129,845.884399 
	C389.304718,841.183960 392.462616,836.756653 395.739716,832.124756 
z"/>
<path fill="#BDD224" opacity="1.000000" stroke="none" 
	d="
M547.677002,392.089966 
	C543.083496,384.887817 538.537964,377.309937 533.978394,369.372375 
	C535.468567,370.657654 537.343323,372.094055 538.408020,373.986267 
	C541.680237,379.801880 544.642334,385.791931 547.677002,392.089966 
z"/>
<path fill="#BDD224" opacity="1.000000" stroke="none" 
	d="
M505.545044,319.945923 
	C500.993317,312.766785 496.558838,305.220337 492.077087,297.320007 
	C496.573975,304.503632 501.118134,312.041107 505.545044,319.945923 
z"/>
<path fill="#BDD224" opacity="1.000000" stroke="none" 
	d="
M526.777466,607.182739 
	C522.744812,614.696594 518.405029,622.361206 513.785767,630.199951 
	C514.383301,628.030701 514.937805,625.494385 516.200562,623.381226 
	C519.456726,617.932190 523.026062,612.670166 526.777466,607.182739 
z"/>
<path fill="#BDD224" opacity="1.000000" stroke="none" 
	d="
M398.977356,374.350769 
	C403.400909,381.310638 407.799316,388.644257 412.274231,396.324097 
	C411.902893,396.499725 411.237091,396.462433 411.039276,396.138947 
	C406.760529,389.142822 401.259888,382.831329 398.977356,374.350769 
z"/>
<path fill="#BDD224" opacity="1.000000" stroke="none" 
	d="
M353.738953,904.122070 
	C350.375305,910.660522 346.681030,917.285339 342.740662,924.128540 
	C343.548523,921.520508 344.267029,918.504333 345.733795,915.911499 
	C348.025757,911.859802 350.824371,908.094788 353.738953,904.122070 
z"/>
<path fill="#151408" opacity="1.000000" stroke="none" 
	d="
M836.660400,312.073303 
	C836.382141,311.154205 835.901978,309.737640 836.404114,308.937347 
	C839.949524,303.286652 843.696594,297.762512 847.713257,292.147308 
	C844.335815,298.684753 840.624512,305.272888 836.660400,312.073303 
z"/>
<path fill="#BDD224" opacity="1.000000" stroke="none" 
	d="
M392.926514,226.454880 
	C386.777954,230.386871 380.264191,234.198120 373.389160,238.028519 
	C379.539062,234.143158 386.050201,230.238647 392.926514,226.454880 
z"/>
<path fill="#BDD224" opacity="1.000000" stroke="none" 
	d="
M349.183044,288.980225 
	C353.130035,295.134857 357.074921,301.677612 361.064972,308.579010 
	C357.133759,302.414520 353.157379,295.891449 349.183044,288.980225 
z"/>
<path fill="#BDD224" opacity="1.000000" stroke="none" 
	d="
M512.257812,869.841309 
	C515.794678,863.124573 519.643860,856.275635 523.757446,849.217834 
	C520.204529,855.908997 516.387329,862.808960 512.257812,869.841309 
z"/>
<path fill="#BDD224" opacity="1.000000" stroke="none" 
	d="
M437.008057,202.543396 
	C430.592438,206.200333 424.122803,209.558716 417.292542,212.952667 
	C417.772095,211.829727 418.361542,210.216385 419.495697,209.591141 
	C424.501373,206.831573 429.646301,204.319962 434.796356,201.833679 
	C435.326019,201.578003 436.225922,202.089371 437.008057,202.543396 
z"/>
<path fill="#BDD224" opacity="1.000000" stroke="none" 
	d="
M448.022339,742.478943 
	C444.710327,748.773804 441.067474,755.123230 437.186859,761.707031 
	C440.529877,755.472107 444.110687,749.002808 448.022339,742.478943 
z"/>
<path fill="#BDD224" opacity="1.000000" stroke="none" 
	d="
M373.139709,330.026703 
	C376.853149,335.711823 380.525238,341.810944 384.289062,348.249023 
	C380.619995,342.538879 376.859192,336.489807 373.139709,330.026703 
z"/>
<path fill="#151408" opacity="1.000000" stroke="none" 
	d="
M804.755737,225.700119 
	C798.296814,225.232605 792.773621,222.383514 788.409851,216.906097 
	C793.772339,219.503708 799.177124,222.459229 804.755737,225.700119 
z"/>
<path fill="#BDD224" opacity="1.000000" stroke="none" 
	d="
M373.674225,870.030151 
	C370.605286,875.988281 367.209503,882.039917 363.525146,888.289917 
	C366.606842,882.366760 369.977112,876.245239 373.674225,870.030151 
z"/>
<path fill="#BDD224" opacity="1.000000" stroke="none" 
	d="
M385.221039,350.882965 
	C388.835693,356.408875 392.410370,362.328064 396.031006,368.602631 
	C392.445007,363.064087 388.813019,357.170166 385.221039,350.882965 
z"/>
<path fill="#BDD224" opacity="1.000000" stroke="none" 
	d="
M466.006500,489.332336 
	C469.344818,494.394196 472.650909,499.843719 475.985260,505.649445 
	C472.667114,500.577118 469.320709,495.148560 466.006500,489.332336 
z"/>
<path fill="#BDD224" opacity="1.000000" stroke="none" 
	d="
M473.613525,264.924438 
	C470.395599,260.091248 467.271790,254.882233 464.106842,249.320786 
	C467.279694,254.161758 470.493652,259.355164 473.613525,264.924438 
z"/>
<path fill="#BDD224" opacity="1.000000" stroke="none" 
	d="
M480.007721,513.347900 
	C483.323212,518.409851 486.624359,523.856201 489.955872,529.657959 
	C486.655273,524.586304 483.324341,519.159363 480.007721,513.347900 
z"/>
<path fill="#BDD224" opacity="1.000000" stroke="none" 
	d="
M557.987366,409.649780 
	C554.621704,404.576996 551.290466,399.119843 547.931213,393.293488 
	C551.276062,398.371307 554.648926,403.818359 557.987366,409.649780 
z"/>
<path fill="#151408" opacity="1.000000" stroke="none" 
	d="
M705.678040,301.398865 
	C703.863647,305.947388 705.348511,312.560913 698.363037,314.862640 
	C700.480713,310.439240 702.941650,305.999725 705.678040,301.398865 
z"/>
<path fill="#BDD224" opacity="1.000000" stroke="none" 
	d="
M448.716248,222.007690 
	C445.734589,217.568375 442.793457,212.756622 439.795349,207.596207 
	C442.744446,212.043442 445.750580,216.839355 448.716248,222.007690 
z"/>
<path fill="#BDD224" opacity="1.000000" stroke="none" 
	d="
M457.939453,475.390259 
	C460.650757,479.443237 463.328552,483.850952 466.030945,488.617279 
	C462.118225,485.317535 458.081818,481.720215 457.939453,475.390259 
z"/>
<path fill="#BDD224" opacity="1.000000" stroke="none" 
	d="
M420.010406,410.343231 
	C422.957367,414.763855 425.886169,419.568726 428.846985,424.726959 
	C425.916779,420.296021 422.954498,415.511780 420.010406,410.343231 
z"/>
<path fill="#BDD224" opacity="1.000000" stroke="none" 
	d="
M508.025421,561.317993 
	C510.777588,565.510315 513.507202,570.088867 516.345947,574.988037 
	C513.637573,570.773865 510.820251,566.239075 508.025421,561.317993 
z"/>
<path fill="#BDD224" opacity="1.000000" stroke="none" 
	d="
M487.542145,288.938904 
	C484.940521,285.125916 482.465515,280.947723 479.958893,276.410645 
	C482.507782,280.225708 485.088287,284.399719 487.542145,288.938904 
z"/>
<path fill="#151408" opacity="1.000000" stroke="none" 
	d="
M850.305786,288.711304 
	C852.588623,284.063507 855.143616,279.229187 858.039490,274.459778 
	C855.779602,279.191406 853.178772,283.858093 850.305786,288.711304 
z"/>
<path fill="#BDD224" opacity="1.000000" stroke="none" 
	d="
M334.182800,263.193481 
	C336.890991,267.169006 339.558289,271.534058 342.303314,276.241089 
	C339.634674,272.249725 336.888275,267.916351 334.182800,263.193481 
z"/>
<path fill="#151408" opacity="1.000000" stroke="none" 
	d="
M710.024658,448.571045 
	C714.165405,450.606537 718.487183,452.912506 722.864014,455.541382 
	C718.681274,453.523376 714.443542,451.182465 710.024658,448.571045 
z"/>
<path fill="#BDD224" opacity="1.000000" stroke="none" 
	d="
M566.030090,423.623901 
	C563.349915,419.584351 560.684875,415.169556 557.987183,410.396973 
	C560.651428,414.442383 563.348328,418.845551 566.030090,423.623901 
z"/>
<path fill="#BDD224" opacity="1.000000" stroke="none" 
	d="
M444.983032,453.355591 
	C447.348999,456.729431 449.676514,460.489166 452.039307,464.605804 
	C449.697937,461.222260 447.321259,457.481873 444.983032,453.355591 
z"/>
<path fill="#151408" opacity="1.000000" stroke="none" 
	d="
M725.857422,457.669556 
	C729.641785,459.467316 733.652222,461.508179 737.632629,463.890442 
	C733.762878,462.125519 729.923157,460.019104 725.857422,457.669556 
z"/>
<path fill="#BDD224" opacity="1.000000" stroke="none" 
	d="
M464.068359,248.553452 
	C461.717255,245.164474 459.386169,241.393127 457.035461,237.255325 
	C459.373352,240.649612 461.730896,244.410339 464.068359,248.553452 
z"/>
<path fill="#BDD224" opacity="1.000000" stroke="none" 
	d="
M582.999023,452.660828 
	C580.642395,449.266937 578.317200,445.491791 575.991882,441.354889 
	C578.338013,444.755280 580.684265,448.517426 582.999023,452.660828 
z"/>
<path fill="#151408" opacity="1.000000" stroke="none" 
	d="
M711.611694,291.221985 
	C712.882874,295.722229 710.551086,298.647491 706.434082,300.853943 
	C707.849915,297.732086 709.593323,294.563507 711.611694,291.221985 
z"/>
<path fill="#BDD224" opacity="1.000000" stroke="none" 
	d="
M526.800598,356.124817 
	C524.509583,352.924103 522.273621,349.321716 520.019775,345.364441 
	C522.286438,348.580750 524.571045,352.151947 526.800598,356.124817 
z"/>
<path fill="#BDD224" opacity="1.000000" stroke="none" 
	d="
M381.006836,857.390991 
	C379.190552,861.246033 377.041382,865.175354 374.606628,869.294678 
	C376.438660,865.478149 378.556305,861.471680 381.006836,857.390991 
z"/>
<path fill="#BDD224" opacity="1.000000" stroke="none" 
	d="
M576.029541,440.630432 
	C573.930420,437.676025 571.858826,434.335938 569.725708,430.645416 
	C571.795105,433.611572 573.926147,436.928162 576.029541,440.630432 
z"/>
<path fill="#151408" opacity="1.000000" stroke="none" 
	d="
M842.692688,247.563477 
	C839.341370,246.001694 835.832947,244.165390 832.391235,241.963181 
	C835.817200,243.494507 839.176392,245.391724 842.692688,247.563477 
z"/>
<path fill="#151408" opacity="1.000000" stroke="none" 
	d="
M738.080322,464.627991 
	C741.005127,463.247955 744.230591,467.815216 747.616455,464.125824 
	C747.229614,465.485229 746.509155,466.897797 745.507202,468.862305 
	C742.946899,467.454926 740.603821,466.166931 738.080322,464.627991 
z"/>
<path fill="#151408" opacity="1.000000" stroke="none" 
	d="
M699.256958,442.397125 
	C702.599426,443.929413 706.091553,445.747803 709.656311,447.897034 
	C706.288147,446.379700 702.847473,444.531433 699.256958,442.397125 
z"/>
<path fill="#BDD224" opacity="1.000000" stroke="none" 
	d="
M522.308228,585.951416 
	C524.580688,589.163391 526.777527,592.760010 528.993164,596.724243 
	C526.752197,593.506592 524.492371,589.921265 522.308228,585.951416 
z"/>
<path fill="#BDD224" opacity="1.000000" stroke="none" 
	d="
M545.316895,812.862976 
	C547.141418,809.126587 549.274170,805.237793 551.700684,801.184692 
	C549.871338,804.917114 547.748230,808.813843 545.316895,812.862976 
z"/>
<path fill="#151408" opacity="1.000000" stroke="none" 
	d="
M830.705139,322.147034 
	C828.921265,317.327118 833.550415,315.539856 836.024170,312.391083 
	C834.560059,315.539917 832.756348,318.736084 830.705139,322.147034 
z"/>
<path fill="#BDD224" opacity="1.000000" stroke="none" 
	d="
M344.665558,254.017242 
	C341.678650,256.086853 338.316650,258.131836 334.611206,260.241364 
	C337.608612,258.201477 340.949554,256.097046 344.665558,254.017242 
z"/>
<path fill="#BDD224" opacity="1.000000" stroke="none" 
	d="
M452.023438,465.314270 
	C453.993408,468.058258 455.936676,471.186768 457.921936,474.666443 
	C455.974884,471.911285 453.985840,468.805054 452.023438,465.314270 
z"/>
<path fill="#BDD224" opacity="1.000000" stroke="none" 
	d="
M416.065613,213.185028 
	C413.224213,215.176697 409.989929,217.109406 406.393250,219.068100 
	C409.244843,217.104767 412.458801,215.115417 416.065613,213.185028 
z"/>
<path fill="#BAC532" opacity="1.000000" stroke="none" 
	d="
M631.898560,536.758362 
	C629.857178,533.823242 627.817322,530.512878 625.711914,526.873779 
	C627.730896,529.824402 629.815430,533.103760 631.898560,536.758362 
z"/>
<path fill="#BDD224" opacity="1.000000" stroke="none" 
	d="
M404.576294,816.991333 
	C403.513702,819.548035 402.083649,822.141235 400.366760,824.909729 
	C400.870605,822.099182 399.946106,818.234436 404.576294,816.991333 
z"/>
<path fill="#BDD224" opacity="1.000000" stroke="none" 
	d="
M529.140137,597.945251 
	C533.564087,601.406433 528.642273,603.739075 527.365845,606.899048 
	C527.737122,604.167297 528.408813,601.265747 529.140137,597.945251 
z"/>
<path fill="#BDD224" opacity="1.000000" stroke="none" 
	d="
M368.053955,321.291565 
	C369.652344,323.397461 371.227081,325.896301 372.848816,328.745270 
	C368.775848,328.265167 368.591797,324.850952 368.053955,321.291565 
z"/>
<path fill="#151408" opacity="1.000000" stroke="none" 
	d="
M748.317017,463.710846 
	C747.786194,460.654144 748.220520,457.763000 752.098022,456.459900 
	C751.168274,458.865875 749.877441,461.200012 748.317017,463.710846 
z"/>
<path fill="#BDD224" opacity="1.000000" stroke="none" 
	d="
M409.727203,808.106323 
	C408.514893,810.845764 406.967987,813.659241 405.183716,816.709961 
	C406.428467,814.024902 407.910522,811.102661 409.727203,808.106323 
z"/>
<path fill="#BDD224" opacity="1.000000" stroke="none" 
	d="
M358.975708,895.348267 
	C357.746490,898.071411 356.186829,900.894775 354.338501,903.893982 
	C355.581665,901.196045 357.113464,898.322205 358.975708,895.348267 
z"/>
<path fill="#151408" opacity="1.000000" stroke="none" 
	d="
M752.769714,456.150024 
	C753.881348,453.710876 755.210083,451.029388 756.880676,448.254395 
	C755.810608,450.743134 754.398682,453.325378 752.769714,456.150024 
z"/>
<path fill="#151408" opacity="1.000000" stroke="none" 
	d="
M858.768494,274.105530 
	C857.435486,271.006256 859.137939,268.987488 862.123962,267.461975 
	C861.323730,269.646912 860.158752,271.764771 858.768494,274.105530 
z"/>
<path fill="#151408" opacity="1.000000" stroke="none" 
	d="
M757.483643,447.996124 
	C758.534790,445.506104 759.865173,442.828278 761.535400,440.123291 
	C760.504395,442.666870 759.133667,445.237579 757.483643,447.996124 
z"/>
<path fill="#BDD224" opacity="1.000000" stroke="none" 
	d="
M524.359985,848.958984 
	C525.445251,846.408325 526.873596,843.794495 528.616211,841.055664 
	C527.521301,843.585754 526.112122,846.240845 524.359985,848.958984 
z"/>
<path fill="#151408" opacity="1.000000" stroke="none" 
	d="
M776.728699,209.659363 
	C774.364197,208.746231 771.839172,207.545395 769.339172,205.979980 
	C771.765503,206.867493 774.166870,208.119568 776.728699,209.659363 
z"/>
<path fill="#BDD224" opacity="1.000000" stroke="none" 
	d="
M399.954468,222.362259 
	C398.290466,223.730194 396.247894,225.003189 393.876160,226.342987 
	C395.556641,225.028976 397.566254,223.648148 399.954468,222.362259 
z"/>
<path fill="#BDD224" opacity="1.000000" stroke="none" 
	d="
M621.998352,519.650757 
	C620.643250,517.935120 619.315796,515.839905 617.949951,513.396851 
	C619.282959,515.123108 620.654480,517.197205 621.998352,519.650757 
z"/>
<path fill="#BDD224" opacity="1.000000" stroke="none" 
	d="
M477.551941,271.937775 
	C476.196442,270.231812 474.958618,268.154449 473.671539,265.741089 
	C474.971405,267.458862 476.320496,269.512604 477.551941,271.937775 
z"/>
<path fill="#BDD224" opacity="1.000000" stroke="none" 
	d="
M492.049683,296.604706 
	C490.603790,294.721893 489.172363,292.467224 487.654419,289.884888 
	C489.066650,291.782410 490.565430,294.007629 492.049683,296.604706 
z"/>
<path fill="#BDD224" opacity="1.000000" stroke="none" 
	d="
M534.012451,368.660461 
	C532.647888,366.943848 531.317932,364.845093 529.960266,362.397705 
	C531.304016,364.125519 532.675537,366.201904 534.012451,368.660461 
z"/>
<path fill="#151408" opacity="1.000000" stroke="none" 
	d="
M783.134216,213.417816 
	C781.272034,212.706314 779.235474,211.724670 777.140625,210.399902 
	C779.041443,211.087097 781.000671,212.117386 783.134216,213.417816 
z"/>
<path fill="#BDD224" opacity="1.000000" stroke="none" 
	d="
M589.976196,464.683350 
	C588.626526,462.966919 587.301514,460.867584 585.945740,458.419342 
	C587.276917,460.147095 588.638916,462.223785 589.976196,464.683350 
z"/>
<path fill="#BDD224" opacity="1.000000" stroke="none" 
	d="
M455.967773,234.693939 
	C454.627625,232.958496 453.303192,230.849213 451.951385,228.389191 
	C453.277161,230.132355 454.630310,232.226212 455.967773,234.693939 
z"/>
<path fill="#BDD224" opacity="1.000000" stroke="none" 
	d="
M462.210938,955.827515 
	C463.030151,953.682861 464.192200,951.471497 465.648407,949.092896 
	C464.812958,951.203979 463.683350,953.482300 462.210938,955.827515 
z"/>
<path fill="#BDD224" opacity="1.000000" stroke="none" 
	d="
M497.698425,657.089905 
	C497.010254,659.015320 495.976410,660.997253 494.661469,663.147034 
	C495.371185,661.258667 496.361969,659.202576 497.698425,657.089905 
z"/>
<path fill="#BDD224" opacity="1.000000" stroke="none" 
	d="
M569.738647,429.924438 
	C568.460449,428.418945 567.259155,426.546143 566.032043,424.328308 
	C567.276001,425.841187 568.545776,427.699158 569.738647,429.924438 
z"/>
<path fill="#BDD224" opacity="1.000000" stroke="none" 
	d="
M415.972412,403.356506 
	C417.321350,405.083008 418.648224,407.181335 420.006470,409.627747 
	C418.675385,407.893341 417.312897,405.810822 415.972412,403.356506 
z"/>
<path fill="#BDD224" opacity="1.000000" stroke="none" 
	d="
M362.663788,889.001953 
	C361.959930,890.919128 360.911743,892.931274 359.575623,895.108154 
	C360.298279,893.214233 361.308868,891.155518 362.663788,889.001953 
z"/>
<path fill="#BDD224" opacity="1.000000" stroke="none" 
	d="
M360.474548,955.994019 
	C362.571136,956.786438 364.719818,957.916870 367.081268,959.296631 
	C365.038239,958.474670 362.782440,957.403320 360.474548,955.994019 
z"/>
<path fill="#BDD224" opacity="1.000000" stroke="none" 
	d="
M475.978088,506.352112 
	C477.320648,508.083069 478.640045,510.186401 479.998749,512.637329 
	C478.677002,510.898132 477.315948,508.811310 475.978088,506.352112 
z"/>
<path fill="#BDD224" opacity="1.000000" stroke="none" 
	d="
M342.377686,277.025208 
	C343.624146,278.541534 344.799255,280.420319 346.002136,282.642853 
	C344.788727,281.120270 343.547546,279.253998 342.377686,277.025208 
z"/>
<path fill="#BDD224" opacity="1.000000" stroke="none" 
	d="
M518.357971,579.061768 
	C519.627136,580.583313 520.805725,582.470703 522.006226,584.705383 
	C520.774597,583.177612 519.520996,581.302612 518.357971,579.061768 
z"/>
<path fill="#BDD224" opacity="1.000000" stroke="none" 
	d="
M412.319061,397.085999 
	C413.578308,398.585388 414.761169,400.457611 415.976074,402.671051 
	C414.752960,401.161102 413.497803,399.309967 412.319061,397.085999 
z"/>
<path fill="#BDD224" opacity="1.000000" stroke="none" 
	d="
M529.975708,361.679199 
	C528.955444,360.573608 527.973755,359.094421 526.972778,357.267090 
	C527.973816,358.381134 528.994080,359.843384 529.975708,361.679199 
z"/>
<path fill="#BDD224" opacity="1.000000" stroke="none" 
	d="
M361.088745,309.277374 
	C362.136414,310.510956 363.191376,312.127136 364.338135,314.052002 
	C363.318665,312.793793 362.207397,311.226868 361.088745,309.277374 
z"/>
<path fill="#BDD224" opacity="1.000000" stroke="none" 
	d="
M405.714539,219.038910 
	C404.413208,220.140747 402.743561,221.209686 400.743347,222.337219 
	C402.057281,221.265884 403.701752,220.135941 405.714539,219.038910 
z"/>
<path fill="#BDD224" opacity="1.000000" stroke="none" 
	d="
M439.775696,206.845032 
	C438.867676,206.012253 438.019165,204.804428 437.141968,203.275665 
	C438.020569,204.126495 438.927887,205.298248 439.775696,206.845032 
z"/>
<path fill="#BDD224" opacity="1.000000" stroke="none" 
	d="
M585.948242,457.701660 
	C584.937927,456.608826 583.960571,455.154236 582.969604,453.359833 
	C583.964294,454.459961 584.972778,455.899933 585.948242,457.701660 
z"/>
<path fill="#151408" opacity="1.000000" stroke="none" 
	d="
M788.180420,216.315247 
	C786.994080,215.974442 785.609741,215.389069 784.173889,214.472076 
	C785.408997,214.783844 786.695740,215.427261 788.180420,216.315247 
z"/>
<path fill="#BDD224" opacity="1.000000" stroke="none" 
	d="
M396.032318,369.281769 
	C397.035706,370.394653 398.016083,371.859222 399.006287,373.665497 
	C398.013824,372.549255 397.011566,371.091370 396.032318,369.281769 
z"/>
<path fill="#BDD224" opacity="1.000000" stroke="none" 
	d="
M398.729858,827.158325 
	C398.229706,828.574402 397.420898,830.144531 396.330322,831.891235 
	C396.839447,830.482727 397.630310,828.897583 398.729858,827.158325 
z"/>
<path fill="#BDD224" opacity="1.000000" stroke="none" 
	d="
M624.916138,524.757996 
	C623.938904,523.646790 622.972900,522.174622 621.988098,520.364624 
	C622.955322,521.483521 623.941406,522.940308 624.916138,524.757996 
z"/>
<path fill="#BDD224" opacity="1.000000" stroke="none" 
	d="
M479.961914,275.682190 
	C479.199738,275.081909 478.465454,274.104553 477.651367,272.824738 
	C478.377625,273.449890 479.183716,274.377502 479.961914,275.682190 
z"/>
<path fill="#BDD224" opacity="1.000000" stroke="none" 
	d="
M364.551514,314.964783 
	C365.434570,315.889038 366.217133,317.139648 367.010986,318.717194 
	C366.165192,317.793121 365.308105,316.542175 364.551514,314.964783 
z"/>
<path fill="#BDD224" opacity="1.000000" stroke="none" 
	d="
M342.050385,924.498535 
	C341.793518,925.559570 341.194641,926.656799 340.318604,927.908203 
	C340.597107,926.886475 341.152740,925.710571 342.050385,924.498535 
z"/>
<path fill="#BDD224" opacity="1.000000" stroke="none" 
	d="
M339.728882,928.131836 
	C339.644043,928.996094 339.228760,929.962341 338.527283,931.075073 
	C338.626862,930.225647 339.012665,929.229736 339.728882,928.131836 
z"/>
<path fill="#BDD224" opacity="1.000000" stroke="none" 
	d="
M345.997467,283.317657 
	C346.731140,284.048004 347.442871,285.126312 348.175903,286.538025 
	C347.456665,285.802826 346.716095,284.734222 345.997467,283.317657 
z"/>
<path fill="#BDD224" opacity="1.000000" stroke="none" 
	d="
M516.561890,576.007324 
	C517.230896,576.453125 517.765686,577.245239 518.332275,578.326904 
	C517.718628,577.862244 517.073181,577.107971 516.561890,576.007324 
z"/>
<path fill="#151408" opacity="1.000000" stroke="none" 
	d="
M848.353271,291.874481 
	C848.491516,291.077576 848.895508,290.132019 849.625610,289.121704 
	C849.507446,289.946594 849.063232,290.836212 848.353271,291.874481 
z"/>
<path fill="#BDD224" opacity="1.000000" stroke="none" 
	d="
M451.981079,227.723724 
	C451.321381,227.248260 450.697357,226.426270 450.045959,225.285828 
	C450.684662,225.770660 451.350708,226.573929 451.981079,227.723724 
z"/>
<path fill="#BDD224" opacity="1.000000" stroke="none" 
	d="
M460.332794,958.930664 
	C460.431732,958.059570 460.858185,957.100220 461.578888,956.015991 
	C461.468872,956.874939 461.064575,957.858643 460.332794,958.930664 
z"/>
<path fill="#B9CA2D" opacity="1.000000" stroke="none" 
	d="
M169.858002,544.955627 
	C169.857986,544.955627 169.398926,544.860962 169.169952,544.806396 
	C169.094666,543.936768 169.248337,543.121704 169.552765,542.026001 
	C169.703522,541.745361 169.920212,541.935974 170.025955,542.389526 
	C170.040466,543.547241 169.949234,544.251465 169.858002,544.955627 
z"/>
<path fill="#BDD224" opacity="1.000000" stroke="none" 
	d="
M399.830475,825.220459 
	C399.910370,825.621399 399.728485,826.180054 399.283081,826.889587 
	C399.202637,826.486328 399.385681,825.932251 399.830475,825.220459 
z"/>
<path fill="#151408" opacity="1.000000" stroke="none" 
	d="
M723.861633,456.502380 
	C724.296814,456.443207 724.879028,456.649780 725.575439,457.164368 
	C725.129395,457.237610 724.568970,457.002869 723.861633,456.502380 
z"/>
<path fill="#151408" opacity="1.000000" stroke="none" 
	d="
M844.868958,248.726868 
	C844.497803,248.804962 843.997437,248.637695 843.358765,248.240417 
	C843.726868,248.167435 844.233337,248.324478 844.868958,248.726868 
z"/>
<path fill="#151408" opacity="1.000000" stroke="none" 
	d="
M697.663818,315.200745 
	C697.748291,315.568756 697.592590,316.047699 697.214783,316.659058 
	C697.136353,316.298187 697.279968,315.804962 697.663818,315.200745 
z"/>
<path fill="#BDD224" opacity="1.000000" stroke="none" 
	d="
M544.176331,814.812012 
	C544.117554,814.428406 544.313293,813.878662 544.762085,813.165405 
	C544.820435,813.549927 544.625671,814.097900 544.176331,814.812012 
z"/>
<path fill="#BDD224" opacity="1.000000" stroke="none" 
	d="
M348.192749,287.079285 
	C348.439331,287.044586 348.719055,287.269226 348.981140,287.774536 
	C348.717590,287.816345 348.471741,287.577484 348.192749,287.079285 
z"/>
<path fill="#151408" opacity="1.000000" stroke="none" 
	d="
M846.097290,249.453522 
	C845.866577,249.729340 845.565735,249.635620 845.172546,249.193130 
	C845.349792,249.071930 845.665466,249.151794 846.097290,249.453522 
z"/>
<path fill="#BAC532" opacity="1.000000" stroke="none" 
	d="
M625.456787,526.022095 
	C625.095154,526.139404 624.903564,525.903992 624.851929,525.320190 
	C625.205872,525.189392 625.417542,525.421814 625.456787,526.022095 
z"/>
<path fill="#BDD224" opacity="1.000000" stroke="none" 
	d="
M333.747192,262.083130 
	C333.863007,261.955872 334.190735,262.315460 334.205872,262.558167 
	C334.024475,262.604034 333.827911,262.407196 333.747192,262.083130 
z"/>
<path fill="#BDD224" opacity="1.000000" stroke="none" 
	d="
M456.763885,236.105743 
	C456.517303,236.133484 456.241638,235.872681 455.945496,235.315765 
	C456.194946,235.285522 456.464874,235.551376 456.763885,236.105743 
z"/>
<path fill="#BDD224" opacity="1.000000" stroke="none" 
	d="
M367.290985,319.773743 
	C367.536346,319.761841 367.798676,320.054382 368.088013,320.653198 
	C367.846008,320.665680 367.576996,320.371948 367.290985,319.773743 
z"/>
<path fill="#BDD224" opacity="1.000000" stroke="none" 
	d="
M384.435303,348.963196 
	C384.667572,348.970428 384.867279,349.235870 385.046967,349.761169 
	C384.818848,349.754517 384.610809,349.487946 384.435303,348.963196 
z"/>
<path fill="#040604" opacity="1.000000" stroke="none" 
	d="
M169.915924,545.427368 
	C169.949234,544.251465 170.040466,543.547241 170.134216,542.484924 
	C171.794037,542.044678 173.451294,541.890991 175.108597,541.890747 
	C252.425613,541.879578 329.742615,541.881714 407.059631,541.882324 
	C408.523987,541.882324 409.988342,541.882263 412.040161,541.882263 
	C412.040161,580.863220 412.040161,619.461487 412.017548,658.527588 
	C409.342194,659.086914 406.689453,659.257629 404.036682,659.258179 
	C327.779327,659.274231 251.521973,659.276062 175.264618,659.256226 
	C173.629013,659.255798 171.993484,658.973938 170.130524,658.443726 
	C169.926712,620.675781 169.950287,583.287476 169.915924,545.427368 
M381.500000,543.995117 
	C313.854126,543.995300 246.208237,543.993530 178.562363,543.998596 
	C172.023270,543.999084 172.011642,544.018616 172.010681,550.629456 
	C172.005737,584.285767 172.105865,617.942688 171.899200,651.597717 
	C171.868576,656.584961 173.137192,658.140625 178.294678,658.104431 
	C211.282898,657.872437 244.273529,657.984070 277.263367,657.983643 
	C321.137726,657.983093 365.012085,657.983521 408.796356,657.983521 
	C409.989777,619.557251 407.280365,581.737000 410.544952,543.995117 
	C400.789398,543.995117 391.644684,543.995117 381.500000,543.995117 
z"/>
<path fill="#010023" opacity="1.000000" stroke="none" 
	d="
M382.000000,543.995117 
	C391.644684,543.995117 400.789398,543.995117 410.544952,543.995117 
	C407.280365,581.737000 409.989777,619.557251 408.796356,657.983521 
	C365.012085,657.983521 321.137726,657.983093 277.263367,657.983643 
	C244.273529,657.984070 211.282898,657.872437 178.294678,658.104431 
	C173.137192,658.140625 171.868576,656.584961 171.899200,651.597717 
	C172.105865,617.942688 172.005737,584.285767 172.010681,550.629456 
	C172.011642,544.018616 172.023270,543.999084 178.562363,543.998596 
	C246.208237,543.993530 313.854126,543.995300 382.000000,543.995117 
z"/>
</svg>