<svg version="1.1" id="Layer_1" xmlns="http://www.w3.org/2000/svg" xmlns:xlink="http://www.w3.org/1999/xlink" x="0px" y="0px"
	 width="100%" viewBox="0 0 512 512" enable-background="new 0 0 512 512" xml:space="preserve">
<path fill="#FFFFFF" opacity="1.000000" stroke="none" 
	d="
M285.000000,513.000000 
	C190.023056,513.000000 95.546112,513.000000 1.034582,513.000000 
	C1.034582,342.398041 1.034582,171.796051 1.034582,1.097036 
	C171.560287,1.097036 342.120667,1.097036 512.840515,1.097036 
	C512.840515,171.666550 512.840515,342.333252 512.840515,513.000000 
	C437.129364,513.000000 361.314667,513.000000 285.000000,513.000000 
M195.141006,412.356354 
	C236.509750,427.433380 278.467926,428.861176 319.147369,412.125916 
	C376.965668,388.339783 411.959656,344.892242 421.112091,282.358490 
	C426.349579,246.573303 422.136200,211.675537 405.068024,179.397598 
	C364.596069,102.860397 282.247192,74.598503 204.017273,98.720993 
	C142.244080,117.769012 77.192345,184.529449 93.609947,286.148987 
	C103.386856,346.664825 138.853256,387.683502 195.141006,412.356354 
z"/>
<path fill="#BD1832" opacity="1.000000" stroke="none" 
	d="
M194.776443,412.224854 
	C138.853256,387.683502 103.386856,346.664825 93.609947,286.148987 
	C77.192345,184.529449 142.244080,117.769012 204.017273,98.720993 
	C282.247192,74.598503 364.596069,102.860397 405.068024,179.397598 
	C422.136200,211.675537 426.349579,246.573303 421.112091,282.358490 
	C411.959656,344.892242 376.965668,388.339783 319.147369,412.125916 
	C278.467926,428.861176 236.509750,427.433380 194.776443,412.224854 
M295.883423,168.534698 
	C270.716156,156.506912 245.353699,156.548035 219.218826,167.509354 
	C216.745224,168.960236 214.271606,170.411133 211.106766,171.964844 
	C209.533234,172.877396 207.883301,173.680634 206.397507,174.718765 
	C180.635971,192.718353 167.370941,217.700546 165.490753,248.821259 
	C163.275299,285.491241 174.502014,316.427917 205.219376,338.454102 
	C216.403168,346.473541 228.773148,352.089783 243.431213,353.489410 
	C252.617233,353.512512 261.803253,353.535614 271.967468,353.433838 
	C288.778992,351.201874 303.569244,344.459778 316.376892,333.389069 
	C337.584991,315.057129 347.129517,291.272888 348.513702,263.809326 
	C350.351990,227.335693 338.327820,197.141571 307.927490,175.458786 
	C306.221283,174.241852 304.156769,173.527267 301.951447,171.972656 
	C300.021820,171.015198 298.092224,170.057755 295.883423,168.534698 
z"/>
<path fill="#FEFDFD" opacity="1.000000" stroke="none" 
	d="
M302.259033,172.578888 
	C304.156769,173.527267 306.221283,174.241852 307.927490,175.458786 
	C338.327820,197.141571 350.351990,227.335693 348.513702,263.809326 
	C347.129517,291.272888 337.584991,315.057129 316.376892,333.389069 
	C303.569244,344.459778 288.778992,351.201874 271.464722,353.229523 
	C270.848145,352.677856 270.734314,352.330505 270.729248,351.527710 
	C270.849243,341.138184 270.951569,331.202606 270.786469,321.271484 
	C270.757233,319.512939 269.613586,317.772858 269.011169,315.783203 
	C269.178131,315.243896 269.246246,314.929993 269.626312,314.522156 
	C270.090149,312.953979 270.169830,311.464081 270.393066,309.617371 
	C270.441345,308.511658 270.346039,307.762665 270.391235,306.577332 
	C270.450165,303.092407 270.368622,300.043884 270.444519,296.685272 
	C270.546417,295.921661 270.490845,295.468140 270.580353,294.694275 
	C270.679810,293.913116 270.634247,293.452240 270.707886,292.602173 
	C270.812775,291.132050 270.798431,290.051117 270.888275,288.565613 
	C270.969238,286.773621 270.946045,285.386230 271.044128,283.601196 
	C271.342865,280.471100 271.520355,277.738678 271.819641,274.619019 
	C271.939392,273.154236 271.937286,272.076630 272.036438,270.763062 
	C272.095367,270.361176 272.053131,270.195282 272.132080,269.893524 
	C272.274933,269.637024 272.334076,269.508453 272.310425,269.397522 
	C272.261658,269.168915 272.168671,268.949738 272.247498,268.423523 
	C272.434326,267.450104 272.467560,266.779907 272.637207,265.818451 
	C272.786011,264.676178 272.798401,263.825165 272.926910,262.578217 
	C276.038940,246.121628 279.034851,230.060959 282.143494,213.887054 
	C282.256287,213.773819 282.140717,213.475845 282.398376,213.197693 
	C283.426483,210.281647 284.196960,207.643753 285.091156,204.894043 
	C285.214874,204.782242 285.143951,204.456345 285.405518,204.192856 
	C286.435272,201.619476 287.203491,199.309601 288.095398,196.912781 
	C288.219055,196.825821 288.159546,196.529358 288.427185,196.288300 
	C289.173584,194.715057 289.652374,193.382874 290.086914,192.049591 
	C290.042633,192.048477 290.091156,192.122559 290.350647,191.919006 
	C290.879486,190.885147 291.148895,190.054855 291.351410,189.200455 
	C291.284546,189.176346 291.339233,189.307510 291.588562,189.108292 
	C292.081451,188.321899 292.325043,187.734726 292.737183,187.033966 
	C293.086975,186.688126 293.137177,186.430344 293.315796,185.972488 
	C293.811615,185.227890 294.048004,184.657867 294.496643,183.984344 
	C294.862213,183.444763 295.015564,183.008667 295.432739,182.394012 
	C295.822937,181.819473 295.949341,181.423492 296.039246,181.023865 
	C296.002777,181.020203 296.050201,181.076157 296.308258,180.905060 
	C297.016144,179.821762 297.466003,178.909561 298.138977,177.847946 
	C298.613434,177.238617 298.864746,176.778687 299.376465,176.193817 
	C299.804504,175.731537 299.972107,175.394211 300.106140,175.052322 
	C300.072571,175.047760 300.106995,175.106216 300.409363,174.960815 
	C301.227478,174.069916 301.743256,173.324402 302.259033,172.578888 
z"/>
<path fill="#FEFDFD" opacity="1.000000" stroke="none" 
	d="
M242.833344,352.995178 
	C228.773148,352.089783 216.403168,346.473541 205.219376,338.454102 
	C174.502014,316.427917 163.275299,285.491241 165.490753,248.821259 
	C167.370941,217.700546 180.635971,192.718353 206.397507,174.718765 
	C207.883301,173.680634 209.533234,172.877396 211.616898,172.235443 
	C213.538147,174.554947 215.031418,176.552551 216.347641,178.660690 
	C228.930618,198.814194 234.320770,221.404785 237.920380,244.447433 
	C240.120605,258.531982 241.118942,272.804291 242.542023,287.389282 
	C242.562424,309.522614 242.697876,331.258911 242.833344,352.995178 
z"/>
<path fill="#F6FBF8" opacity="1.000000" stroke="none" 
	d="
M219.817932,167.304443 
	C245.353699,156.548035 270.716156,156.506912 295.796936,168.996552 
	C295.500275,169.777664 295.290070,170.096939 295.087524,170.433273 
	C295.095154,170.450333 295.037292,170.489044 294.737122,170.631668 
	C294.220978,171.149216 294.004944,171.524124 293.849152,171.905411 
	C293.909363,171.911774 293.882477,171.793686 293.616882,171.886383 
	C293.178162,172.300491 293.005035,172.621902 292.541443,173.054321 
	C291.501465,173.477951 290.751953,173.790573 289.597900,173.987961 
	C288.106537,174.017075 287.019653,174.161438 285.932770,174.305801 
	C285.935638,174.727966 285.938507,175.150131 285.941345,175.572296 
	C287.255463,175.803375 288.569550,176.034470 289.714539,176.540710 
	C287.051117,179.944427 284.556793,183.072983 282.152100,186.089111 
	C282.261139,186.476807 282.568970,187.571213 282.631958,188.880051 
	C282.198151,189.708786 282.009186,190.323059 281.867706,190.932892 
	C281.915192,190.928452 281.873322,190.842743 281.619751,191.020844 
	C281.212006,191.788361 281.057861,192.377762 280.944031,192.968643 
	C280.984375,192.970108 280.934753,192.906464 280.692505,193.080139 
	C280.226288,193.803513 280.002289,194.353195 279.834106,194.912735 
	C279.889923,194.922577 279.867920,194.811356 279.475037,194.848373 
	C274.484009,194.348770 274.484009,194.348770 273.671143,197.000809 
	C275.063232,197.231400 276.450989,197.461273 278.089447,197.732666 
	C277.219910,200.646866 276.437286,203.269791 275.396820,206.094482 
	C274.296722,209.195602 273.545166,212.125870 272.571686,214.980469 
	C272.124756,216.291016 271.242249,217.453003 270.557251,218.682343 
	C269.612061,217.757721 268.666870,216.833084 267.392914,215.586838 
	C266.827393,217.254120 266.326569,218.730560 265.744568,220.446411 
	C267.643097,220.816315 269.164398,221.112732 270.255280,221.325272 
	C269.195679,227.750519 268.183746,233.886703 267.047241,240.276505 
	C266.748657,241.064011 266.574677,241.597900 266.341370,242.223984 
	C266.282074,242.316162 266.169800,242.504425 265.919189,242.654083 
	C264.273529,241.931946 262.878448,241.060150 261.223511,240.025940 
	C261.223511,241.749664 261.223511,243.304062 261.223511,244.124100 
	C263.131561,245.252686 264.610291,246.127365 265.979309,247.242432 
	C265.901550,247.656097 265.933594,247.829346 265.795959,248.308777 
	C265.647064,249.511383 265.667877,250.407837 265.425476,251.588058 
	C265.050659,252.898087 264.938995,253.924347 264.877350,254.944580 
	C264.927368,254.938568 264.887054,254.846222 264.504486,254.962601 
	C262.913727,254.249451 261.705505,253.419922 260.061890,252.291473 
	C259.747955,253.774841 259.405609,255.392426 259.039215,257.123718 
	C261.018616,257.456909 262.434113,257.695190 264.309601,258.010925 
	C263.810913,261.477203 263.349701,264.683075 262.888458,267.888947 
	C262.411896,267.901947 261.935303,267.914978 261.458710,267.928009 
	C260.695435,266.821594 259.932129,265.715179 259.168854,264.608734 
	C258.747009,264.745483 258.325134,264.882263 257.903290,265.019012 
	C258.272125,266.702393 258.640961,268.385773 259.229584,270.319855 
	C260.548370,270.727509 261.647400,270.884430 262.803986,271.459106 
	C262.812103,273.558594 262.762634,275.240265 262.549072,277.066711 
	C262.318909,277.500305 262.199097,277.764832 261.686768,278.004364 
	C260.670532,277.990448 259.993134,277.977203 259.148132,277.652954 
	C258.315521,277.186707 257.650574,277.031464 257.010345,276.518860 
	C256.671692,275.117920 256.308289,274.074402 255.543396,272.906494 
	C253.546265,272.596100 251.950653,272.410095 250.194962,272.205414 
	C249.986084,268.764923 249.800446,265.707092 249.614807,262.649292 
	C250.560501,261.931976 251.506210,261.214661 252.451904,260.497345 
	C252.938477,262.323975 253.425034,264.150604 253.911591,265.977234 
	C254.279907,265.785156 254.648224,265.593079 255.016541,265.401001 
	C254.888000,263.756561 254.759460,262.112122 254.630737,260.465302 
	C252.506592,260.232788 250.911484,260.058167 249.161957,259.866638 
	C248.748840,256.522369 248.371399,253.466904 247.793228,248.786560 
	C250.378479,250.856750 251.758194,251.961578 253.774719,253.576340 
	C253.485245,251.339355 253.286026,249.799744 253.077789,248.190414 
	C251.176071,247.996185 249.565231,247.831650 247.680481,247.639160 
	C247.155701,244.469437 246.652313,241.428909 245.881256,236.771652 
	C248.479370,238.697601 249.899841,239.750580 252.113892,241.391830 
	C251.666855,239.070480 251.358673,237.470184 251.077438,236.009796 
	C245.047913,235.500732 244.337326,234.553284 243.296478,225.687607 
	C245.318466,226.435501 247.027649,227.067703 248.736832,227.699905 
	C248.961502,227.313843 249.186172,226.927795 249.410843,226.541748 
	C247.539215,225.360916 245.667587,224.180084 242.902740,222.435715 
	C242.283630,220.623978 241.235474,217.556763 240.138428,214.346436 
	C241.811630,214.346436 243.431854,214.346436 245.052078,214.346436 
	C243.320267,212.335342 240.650909,211.616150 239.397507,209.876678 
	C237.888687,207.782700 237.583420,204.821487 236.523712,201.505341 
	C238.525620,202.468887 240.041428,203.198456 241.597015,203.947189 
	C242.231842,198.323334 237.963562,200.203613 235.529846,199.668671 
	C234.234177,196.491287 232.999191,193.462723 231.775070,190.460785 
	C233.213882,190.234070 234.503128,190.030914 235.792374,189.827774 
	C228.282150,190.410492 229.641266,182.811630 225.725525,179.962234 
	C227.439011,179.352509 228.591843,178.942291 229.090393,178.764893 
	C227.427109,177.868942 225.376724,177.191727 223.913910,175.866135 
	C222.167740,174.283752 220.924683,172.146210 219.476181,170.265366 
	C220.762573,169.988449 221.913177,169.740753 224.525040,169.178513 
	C222.020264,168.181274 220.919098,167.742859 219.817932,167.304443 
z"/>
<path fill="#14753C" opacity="1.000000" stroke="none" 
	d="
M219.518372,167.406891 
	C220.919098,167.742859 222.020264,168.181274 224.525040,169.178513 
	C221.913177,169.740753 220.762573,169.988449 219.476181,170.265366 
	C220.924683,172.146210 222.167740,174.283752 223.913910,175.866135 
	C225.376724,177.191727 227.427109,177.868942 229.090393,178.764893 
	C228.591843,178.942291 227.439011,179.352509 225.725525,179.962234 
	C229.641266,182.811630 228.282150,190.410492 235.792374,189.827774 
	C234.503128,190.030914 233.213882,190.234070 231.775070,190.460785 
	C232.999191,193.462723 234.234177,196.491287 235.529846,199.668671 
	C237.963562,200.203613 242.231842,198.323334 241.597015,203.947189 
	C240.041428,203.198456 238.525620,202.468887 236.523712,201.505341 
	C237.583420,204.821487 237.888687,207.782700 239.397507,209.876678 
	C240.650909,211.616150 243.320267,212.335342 245.052078,214.346436 
	C243.431854,214.346436 241.811630,214.346436 240.138428,214.346436 
	C241.235474,217.556763 242.283630,220.623978 242.902740,222.435715 
	C245.667587,224.180084 247.539215,225.360916 249.410843,226.541748 
	C249.186172,226.927795 248.961502,227.313843 248.736832,227.699905 
	C247.027649,227.067703 245.318466,226.435501 243.296478,225.687607 
	C244.337326,234.553284 245.047913,235.500732 251.077438,236.009796 
	C251.358673,237.470184 251.666855,239.070480 252.113892,241.391830 
	C249.899841,239.750580 248.479370,238.697601 245.881256,236.771652 
	C246.652313,241.428909 247.155701,244.469437 247.680481,247.639160 
	C249.565231,247.831650 251.176071,247.996185 253.077789,248.190414 
	C253.286026,249.799744 253.485245,251.339355 253.774719,253.576340 
	C251.758194,251.961578 250.378479,250.856750 247.793228,248.786560 
	C248.371399,253.466904 248.748840,256.522369 249.161957,259.866638 
	C250.911484,260.058167 252.506592,260.232788 254.630737,260.465302 
	C254.759460,262.112122 254.888000,263.756561 255.016541,265.401001 
	C254.648224,265.593079 254.279907,265.785156 253.911591,265.977234 
	C253.425034,264.150604 252.938477,262.323975 252.451904,260.497345 
	C251.506210,261.214661 250.560501,261.931976 249.614807,262.649292 
	C249.800446,265.707092 249.986084,268.764923 250.194962,272.205414 
	C251.950653,272.410095 253.546265,272.596100 255.544098,273.316589 
	C255.876938,275.168030 255.807556,276.485016 255.724716,278.057312 
	C254.009247,276.633270 252.836136,275.659454 251.187744,274.291107 
	C251.187744,278.552856 251.187744,281.636993 251.187744,284.779083 
	C252.896484,284.945679 254.194168,285.072174 255.462952,285.195892 
	C255.914429,286.684998 256.328766,288.051544 256.488220,289.611145 
	C256.071625,289.942993 255.909866,290.081787 255.432663,290.029419 
	C254.196213,288.808685 253.275192,287.779083 252.354187,286.749512 
	C251.782608,287.148895 251.211029,287.548309 250.639450,287.947693 
	C253.210648,290.762787 247.497681,297.257050 255.844635,297.762024 
	C255.585007,298.595642 255.316055,299.178406 254.599747,299.684082 
	C249.840057,302.394043 252.212936,305.972748 252.990738,309.703003 
	C251.995132,311.035553 251.005890,312.028473 250.007065,313.009949 
	C249.997467,312.998444 249.973434,312.979858 249.979645,312.676331 
	C249.625992,311.960968 249.111877,311.135742 248.930862,311.203278 
	C247.586685,311.704865 246.308655,312.383698 244.709763,312.714630 
	C244.269821,305.554901 244.206528,298.684387 243.933823,291.822174 
	C243.869278,290.197876 243.101425,288.601471 242.657074,286.992249 
	C241.118942,272.804291 240.120605,258.531982 237.920380,244.447433 
	C234.320770,221.404785 228.930618,198.814194 216.347641,178.660690 
	C215.031418,176.552551 213.538147,174.554947 211.962524,172.184021 
	C214.271606,170.411133 216.745224,168.960236 219.518372,167.406891 
z"/>
<path fill="#216E3C" opacity="1.000000" stroke="none" 
	d="
M242.542023,287.389282 
	C243.101425,288.601471 243.869278,290.197876 243.933823,291.822174 
	C244.206528,298.684387 244.269821,305.554901 244.748276,313.076111 
	C245.253906,314.688751 245.617172,315.660004 245.558151,316.604828 
	C244.834229,328.189667 244.048492,339.770630 243.236816,351.983154 
	C253.310425,351.983154 261.965454,351.983154 270.620483,351.983154 
	C270.734314,352.330505 270.848145,352.677856 270.975647,353.291962 
	C261.803253,353.535614 252.617233,353.512512 243.132278,353.242310 
	C242.697876,331.258911 242.562424,309.522614 242.542023,287.389282 
z"/>
<path fill="#14763D" opacity="1.000000" stroke="none" 
	d="
M295.079865,170.416214 
	C295.290070,170.096939 295.500275,169.777664 295.936523,169.279343 
	C298.092224,170.057755 300.021820,171.015198 302.105225,172.275772 
	C301.743256,173.324402 301.227478,174.069916 300.361115,174.519196 
	C298.366974,172.954056 296.723419,171.685135 295.079865,170.416214 
z"/>
<path fill="#0E7638" opacity="1.000000" stroke="none" 
	d="
M295.087524,170.433273 
	C296.723419,171.685135 298.366974,172.954056 300.058777,174.664581 
	C300.106995,175.106216 300.072571,175.047760 299.842682,175.175125 
	C299.447205,175.641235 299.281616,175.979996 299.116058,176.318756 
	C298.864746,176.778687 298.613434,177.238617 297.796448,177.907806 
	C296.837219,179.103439 296.443726,180.089798 296.050232,181.076157 
	C296.050201,181.076157 296.002777,181.020203 295.774994,181.201538 
	C295.421112,181.779449 295.295013,182.176010 295.168915,182.572586 
	C295.015564,183.008667 294.862213,183.444763 294.191040,184.110840 
	C293.467590,184.942902 293.261993,185.544983 293.056366,186.147064 
	C293.137177,186.430344 293.086975,186.688126 292.382385,187.129150 
	C291.685760,187.994461 291.512512,188.650986 291.339233,189.307510 
	C291.339233,189.307510 291.284546,189.176346 291.001099,189.295654 
	C290.508789,190.317490 290.299988,191.220016 290.091156,192.122559 
	C290.091156,192.122559 290.042633,192.048477 289.734131,192.197784 
	C289.003601,193.741165 288.581573,195.135254 288.159546,196.529358 
	C288.159546,196.529358 288.219055,196.825821 287.729767,196.980927 
	C286.541626,199.576157 285.842804,202.016251 285.143982,204.456345 
	C285.143951,204.456345 285.214874,204.782242 284.769714,205.066620 
	C283.596588,208.059280 282.868652,210.767563 282.140747,213.475845 
	C282.140717,213.475845 282.256287,213.773819 281.766235,213.961334 
	C280.737457,215.943390 280.059204,217.709183 279.682556,219.537109 
	C277.096039,232.090363 274.498230,244.642502 272.112305,257.234467 
	C271.770416,259.038788 272.550140,261.055634 272.810791,262.974121 
	C272.798401,263.825165 272.786011,264.676178 272.270752,265.960938 
	C271.512573,267.929749 271.257294,269.464874 271.000488,271.397400 
	C270.992859,272.851685 270.986786,273.908630 270.697388,275.255646 
	C270.276031,278.363831 270.138031,281.181915 269.999573,284.376373 
	C270.260803,286.158569 270.522430,287.564362 270.784088,288.970184 
	C270.798431,290.051117 270.812775,291.132050 270.375458,292.604858 
	C269.082886,293.201813 268.241974,293.406860 267.401062,293.611908 
	C267.406494,293.884094 267.411896,294.156281 267.417328,294.428467 
	C268.423309,294.623840 269.429321,294.819214 270.435303,295.014587 
	C270.490845,295.468140 270.546417,295.921661 270.158875,296.825195 
	C268.678253,300.588135 264.613159,304.067413 270.250763,307.013702 
	C270.346039,307.762665 270.441345,308.511658 270.053589,309.629150 
	C268.709259,310.762268 267.847931,311.526825 266.725830,312.164276 
	C266.312256,311.918579 266.159485,311.799988 265.960144,311.373322 
	C265.222534,309.370056 264.745422,307.294250 261.877930,308.917450 
	C261.399536,308.913055 261.209106,308.949615 261.010254,309.010437 
	C261.001831,309.034698 261.051636,309.047150 261.066254,308.723083 
	C261.037079,307.968964 260.993256,307.538849 261.061615,306.834137 
	C261.167938,305.713654 261.162079,304.867798 261.104980,303.766357 
	C261.092133,303.341309 261.130524,303.171814 261.526733,302.945496 
	C265.571442,300.296356 264.126770,297.641693 262.038574,294.566986 
	C262.082245,289.440216 262.067932,284.724976 262.105957,279.674683 
	C262.114044,278.894745 262.069824,278.449890 262.025604,278.005035 
	C262.199097,277.764832 262.318909,277.500305 262.899841,276.851257 
	C264.779816,272.601288 262.550781,267.489197 267.433380,264.734497 
	C267.763062,264.548492 267.666321,263.226624 267.454193,262.528320 
	C266.669769,259.945953 265.753662,257.403595 264.887054,254.846222 
	C264.887054,254.846222 264.927368,254.938568 265.206360,254.708649 
	C265.553131,253.420578 265.620941,252.362442 265.688721,251.304291 
	C265.667877,250.407837 265.647064,249.511383 266.021820,248.203217 
	C266.699951,247.592392 266.893738,247.328140 266.997742,246.533356 
	C266.721069,244.880096 266.445435,243.692261 266.169800,242.504425 
	C266.169800,242.504425 266.282074,242.316162 266.618835,242.381958 
	C267.027679,241.639465 267.099762,240.831177 267.171814,240.022903 
	C268.183746,233.886703 269.195679,227.750519 270.255280,221.325272 
	C269.164398,221.112732 267.643097,220.816315 265.744568,220.446411 
	C266.326569,218.730560 266.827393,217.254120 267.392914,215.586838 
	C268.666870,216.833084 269.612061,217.757721 270.557251,218.682343 
	C271.242249,217.453003 272.124756,216.291016 272.571686,214.980469 
	C273.545166,212.125870 274.296722,209.195602 275.758545,205.998230 
	C277.541412,202.070587 278.704651,198.440964 279.867920,194.811356 
	C279.867920,194.811356 279.889923,194.922577 280.130249,194.790573 
	C280.558624,194.074539 280.746704,193.490494 280.934753,192.906464 
	C280.934753,192.906464 280.984375,192.970108 281.217346,192.804749 
	C281.591339,192.040512 281.732330,191.441620 281.873322,190.842743 
	C281.873322,190.842743 281.915192,190.928452 282.167542,190.765259 
	C282.572205,189.956573 282.724487,189.311081 282.876770,188.665604 
	C282.568970,187.571213 282.261139,186.476807 282.152100,186.089111 
	C284.556793,183.072983 287.051117,179.944427 289.748749,176.181366 
	C289.968842,175.065659 289.985626,174.584427 290.002411,174.103210 
	C290.751953,173.790573 291.501465,173.477951 292.800842,172.952454 
	C293.527924,172.424286 293.705200,172.108994 293.882507,171.793701 
	C293.882477,171.793686 293.909363,171.911774 294.158569,171.778442 
	C294.617645,171.259750 294.827454,170.874405 295.037292,170.489044 
	C295.037292,170.489044 295.095154,170.450333 295.087524,170.433273 
z"/>
<path fill="#14763D" opacity="1.000000" stroke="none" 
	d="
M270.729248,351.527710 
	C261.965454,351.983154 253.310425,351.983154 243.236816,351.983154 
	C244.048492,339.770630 244.834229,328.189667 245.558151,316.604828 
	C245.617172,315.660004 245.253906,314.688751 245.048355,313.368347 
	C246.308655,312.383698 247.586685,311.704865 248.930862,311.203278 
	C249.111877,311.135742 249.625992,311.960968 249.845734,312.739563 
	C249.809280,313.077972 249.912964,313.049683 250.016663,313.021423 
	C251.005890,312.028473 251.995132,311.035553 253.422409,309.548767 
	C256.257507,309.052338 258.654572,309.049744 261.051636,309.047150 
	C261.051636,309.047150 261.001831,309.034698 260.949707,309.328308 
	C261.272583,309.752045 261.647552,309.882202 262.006866,310.009399 
	C261.991211,310.006470 261.987762,309.974792 261.953033,310.286438 
	C262.284485,310.730682 262.650696,310.863281 263.007812,310.998596 
	C262.998779,311.001312 263.001678,310.982727 263.071472,311.338013 
	C263.754272,311.788391 264.367249,311.883514 264.993774,311.979126 
	C265.007324,311.979614 265.033417,311.985260 264.831604,312.292236 
	C266.081360,313.740875 267.532959,314.882568 268.984558,316.024261 
	C269.613586,317.772858 270.757233,319.512939 270.786469,321.271484 
	C270.951569,331.202606 270.849243,341.138184 270.729248,351.527710 
M255.524094,337.047546 
	C256.939972,336.959137 258.355835,336.870728 259.747803,336.783783 
	C259.747803,331.035919 259.747803,325.679047 259.747803,320.273254 
	C257.686005,320.273254 255.948578,320.273254 253.365234,320.273254 
	C253.781921,326.014374 254.178040,331.471863 255.524094,337.047546 
M261.312439,343.979584 
	C259.825836,342.043701 255.426453,342.499664 253.867355,344.448517 
	C256.022736,344.448517 258.415833,344.448517 261.312439,343.979584 
M262.528900,347.751312 
	C262.399780,348.146912 262.249298,348.537811 262.159760,348.942169 
	C262.141937,349.022583 262.357605,349.154694 262.465607,349.262970 
	C262.594635,348.867126 262.723633,348.471283 262.528900,347.751312 
z"/>
<path fill="#14763D" opacity="1.000000" stroke="none" 
	d="
M272.926910,262.578217 
	C272.550140,261.055634 271.770416,259.038788 272.112305,257.234467 
	C274.498230,244.642502 277.096039,232.090363 279.682556,219.537109 
	C280.059204,217.709183 280.737457,215.943390 281.653442,214.074585 
	C279.034851,230.060959 276.038940,246.121628 272.926910,262.578217 
z"/>
<path fill="#11753A" opacity="1.000000" stroke="none" 
	d="
M270.391235,306.577332 
	C264.613159,304.067413 268.678253,300.588135 270.001434,297.135254 
	C270.368622,300.043884 270.450165,303.092407 270.391235,306.577332 
z"/>
<path fill="#11753A" opacity="1.000000" stroke="none" 
	d="
M266.986633,312.291412 
	C267.847931,311.526825 268.709259,310.762268 269.910034,309.985901 
	C270.169830,311.464081 270.090149,312.953979 269.473694,314.228455 
	C268.286835,313.439117 267.636719,312.865265 266.986633,312.291412 
z"/>
<path fill="#14763D" opacity="1.000000" stroke="none" 
	d="
M282.398376,213.197693 
	C282.868652,210.767563 283.596588,208.059280 284.645996,205.178436 
	C284.196960,207.643753 283.426483,210.281647 282.398376,213.197693 
z"/>
<path fill="#11753A" opacity="1.000000" stroke="none" 
	d="
M270.000000,284.000000 
	C270.138031,281.181915 270.276031,278.363831 270.876556,275.272217 
	C271.339050,274.998688 271.697876,275.006226 271.697876,275.006226 
	C271.520355,277.738678 271.342865,280.471100 270.813416,283.601196 
	C270.461426,283.998810 270.000000,284.000000 270.000000,284.000000 
z"/>
<path fill="#14763D" opacity="1.000000" stroke="none" 
	d="
M285.405518,204.192856 
	C285.842804,202.016251 286.541626,199.576157 287.606079,197.067886 
	C287.203491,199.309601 286.435272,201.619476 285.405518,204.192856 
z"/>
<path fill="#87C7A0" opacity="1.000000" stroke="none" 
	d="
M266.725830,312.164276 
	C267.636719,312.865265 268.286835,313.439117 269.089539,314.306702 
	C269.246246,314.929993 269.178131,315.243896 269.011169,315.783203 
	C267.532959,314.882568 266.081360,313.740875 265.060364,312.169922 
	C265.662903,311.720917 265.834778,311.701141 266.006683,311.681396 
	C266.159485,311.799988 266.312256,311.918579 266.725830,312.164276 
z"/>
<path fill="#11753A" opacity="1.000000" stroke="none" 
	d="
M270.580353,294.694275 
	C269.429321,294.819214 268.423309,294.623840 267.417328,294.428467 
	C267.411896,294.156281 267.406494,293.884094 267.401062,293.611908 
	C268.241974,293.406860 269.082886,293.201813 270.256226,292.994080 
	C270.634247,293.452240 270.679810,293.913116 270.580353,294.694275 
z"/>
<path fill="#14763D" opacity="1.000000" stroke="none" 
	d="
M288.427185,196.288300 
	C288.581573,195.135254 289.003601,193.741165 289.778412,192.198883 
	C289.652374,193.382874 289.173584,194.715057 288.427185,196.288300 
z"/>
<path fill="#11753A" opacity="1.000000" stroke="none" 
	d="
M271.002014,271.000000 
	C271.257294,269.464874 271.512573,267.929749 272.134338,266.252136 
	C272.467560,266.779907 272.434326,267.450104 272.214233,268.749023 
	C272.021851,269.594971 272.016357,269.812195 272.010864,270.029419 
	C272.053131,270.195282 272.095367,270.361176 271.803131,270.763184 
	C271.468628,270.999329 271.002014,271.000000 271.002014,271.000000 
z"/>
<path fill="#14763D" opacity="1.000000" stroke="none" 
	d="
M269.999573,284.376373 
	C270.000000,284.000000 270.461426,283.998810 270.692139,283.998810 
	C270.946045,285.386230 270.969238,286.773621 270.888275,288.565613 
	C270.522430,287.564362 270.260803,286.158569 269.999573,284.376373 
z"/>
<path fill="#14763D" opacity="1.000000" stroke="none" 
	d="
M296.308289,180.905060 
	C296.443726,180.089798 296.837219,179.103439 297.573303,178.057205 
	C297.466003,178.909561 297.016144,179.821762 296.308289,180.905060 
z"/>
<path fill="#14763D" opacity="1.000000" stroke="none" 
	d="
M271.000488,271.397400 
	C271.002014,271.000000 271.468628,270.999329 271.701904,270.999176 
	C271.937286,272.076630 271.939392,273.154236 271.819672,274.619019 
	C271.697876,275.006226 271.339050,274.998688 271.159851,274.982117 
	C270.986786,273.908630 270.992859,272.851685 271.000488,271.397400 
z"/>
<path fill="#14763D" opacity="1.000000" stroke="none" 
	d="
M290.350647,191.919006 
	C290.299988,191.220016 290.508789,190.317490 291.067932,189.319763 
	C291.148895,190.054855 290.879486,190.885147 290.350647,191.919006 
z"/>
<path fill="#14763D" opacity="1.000000" stroke="none" 
	d="
M293.315796,185.972488 
	C293.261993,185.544983 293.467590,184.942902 293.978790,184.214325 
	C294.048004,184.657867 293.811615,185.227890 293.315796,185.972488 
z"/>
<path fill="#14763D" opacity="1.000000" stroke="none" 
	d="
M291.588562,189.108292 
	C291.512512,188.650986 291.685760,187.994461 292.213837,187.242737 
	C292.325043,187.734726 292.081451,188.321899 291.588562,189.108292 
z"/>
<path fill="#14763D" opacity="1.000000" stroke="none" 
	d="
M272.132080,269.893524 
	C272.016357,269.812195 272.021851,269.594971 272.060638,269.052216 
	C272.168671,268.949738 272.261658,269.168915 272.310425,269.397522 
	C272.334076,269.508453 272.274933,269.637024 272.132080,269.893524 
z"/>
<path fill="#14763D" opacity="1.000000" stroke="none" 
	d="
M295.432739,182.394012 
	C295.295013,182.176010 295.421112,181.779449 295.811462,181.205200 
	C295.949341,181.423492 295.822937,181.819473 295.432739,182.394012 
z"/>
<path fill="#14763D" opacity="1.000000" stroke="none" 
	d="
M299.376465,176.193817 
	C299.281616,175.979996 299.447205,175.641235 299.876251,175.179688 
	C299.972107,175.394211 299.804504,175.731537 299.376465,176.193817 
z"/>
<path fill="#DEF6E8" opacity="1.000000" stroke="none" 
	d="
M256.743073,289.418091 
	C256.328766,288.051544 255.914429,286.684998 255.462952,285.195892 
	C254.194168,285.072174 252.896484,284.945679 251.187744,284.779083 
	C251.187744,281.636993 251.187744,278.552856 251.187744,274.291107 
	C252.836136,275.659454 254.009247,276.633270 255.724716,278.057312 
	C255.807556,276.485016 255.876938,275.168030 255.945618,273.440979 
	C256.308289,274.074402 256.671692,275.117920 257.007019,276.965149 
	C256.978973,279.049194 256.978973,280.329559 256.978973,281.733185 
	C258.796448,282.085968 260.312988,282.380341 262.695831,282.842834 
	C261.712799,286.125580 260.834747,289.057770 259.956696,291.989929 
	C258.885498,291.132660 257.814270,290.275360 256.743073,289.418091 
z"/>
<path fill="#11753A" opacity="1.000000" stroke="none" 
	d="
M264.504486,254.962601 
	C265.753662,257.403595 266.669769,259.945953 267.454193,262.528320 
	C267.666321,263.226624 267.763062,264.548492 267.433380,264.734497 
	C262.550781,267.489197 264.779816,272.601288 263.063904,276.706482 
	C262.762634,275.240265 262.812103,273.558594 262.772736,271.082336 
	C261.459198,270.214905 260.234497,270.142029 259.009796,270.069153 
	C258.640961,268.385773 258.272125,266.702393 257.903290,265.019012 
	C258.325134,264.882263 258.747009,264.745483 259.168854,264.608734 
	C259.932129,265.715179 260.695435,266.821594 261.458710,267.928009 
	C261.935303,267.914978 262.411896,267.901947 262.888458,267.888947 
	C263.349701,264.683075 263.810913,261.477203 264.309601,258.010925 
	C262.434113,257.695190 261.018616,257.456909 259.039215,257.123718 
	C259.405609,255.392426 259.747955,253.774841 260.061890,252.291473 
	C261.705505,253.419922 262.913727,254.249451 264.504486,254.962601 
z"/>
<path fill="#14753C" opacity="1.000000" stroke="none" 
	d="
M256.488220,289.611145 
	C257.814270,290.275360 258.885498,291.132660 259.956696,291.989929 
	C260.834747,289.057770 261.712799,286.125580 262.695831,282.842834 
	C260.312988,282.380341 258.796448,282.085968 256.978973,281.733185 
	C256.978973,280.329559 256.978973,279.049194 256.982300,277.322510 
	C257.650574,277.031464 258.315521,277.186707 259.048401,278.021057 
	C260.095367,279.136719 261.074493,279.573242 262.053650,280.009735 
	C262.067932,284.724976 262.082245,289.440216 261.760620,294.585327 
	C261.239258,295.028259 261.053833,295.041321 260.478058,295.022644 
	C256.221863,295.601624 255.926727,292.964111 255.748108,290.220581 
	C255.909866,290.081787 256.071625,289.942993 256.488220,289.611145 
z"/>
<path fill="#14763D" opacity="1.000000" stroke="none" 
	d="
M279.475037,194.848373 
	C278.704651,198.440964 277.541412,202.070587 276.016418,205.796448 
	C276.437286,203.269791 277.219910,200.646866 278.089447,197.732666 
	C276.450989,197.461273 275.063232,197.231400 273.671143,197.000809 
	C274.484009,194.348770 274.484009,194.348770 279.475037,194.848373 
z"/>
<path fill="#14763D" opacity="1.000000" stroke="none" 
	d="
M265.919189,242.654083 
	C266.445435,243.692261 266.721069,244.880096 266.770325,246.534515 
	C266.543945,247.001114 266.089050,247.002045 266.089050,247.002045 
	C264.610291,246.127365 263.131561,245.252686 261.223511,244.124100 
	C261.223511,243.304062 261.223511,241.749664 261.223511,240.025940 
	C262.878448,241.060150 264.273529,241.931946 265.919189,242.654083 
z"/>
<path fill="#14763D" opacity="1.000000" stroke="none" 
	d="
M289.597900,173.987961 
	C289.985626,174.584427 289.968842,175.065659 289.917847,175.906219 
	C288.569550,176.034470 287.255463,175.803375 285.941345,175.572296 
	C285.938507,175.150131 285.935638,174.727966 285.932770,174.305801 
	C287.019653,174.161438 288.106537,174.017075 289.597900,173.987961 
z"/>
<path fill="#DEF6E8" opacity="1.000000" stroke="none" 
	d="
M262.105957,279.674683 
	C261.074493,279.573242 260.095367,279.136719 259.216003,278.332092 
	C259.993134,277.977203 260.670532,277.990448 261.686768,278.004364 
	C262.069824,278.449890 262.114044,278.894745 262.105957,279.674683 
z"/>
<path fill="#DEF6E8" opacity="1.000000" stroke="none" 
	d="
M259.229584,270.319855 
	C260.234497,270.142029 261.459198,270.214905 262.715149,270.664551 
	C261.647400,270.884430 260.548370,270.727509 259.229584,270.319855 
z"/>
<path fill="#14763D" opacity="1.000000" stroke="none" 
	d="
M265.425507,251.588058 
	C265.620941,252.362442 265.553131,253.420578 265.156342,254.714661 
	C264.938995,253.924347 265.050659,252.898087 265.425507,251.588058 
z"/>
<path fill="#14763D" opacity="1.000000" stroke="none" 
	d="
M267.047241,240.276505 
	C267.099762,240.831177 267.027679,241.639465 266.678131,242.289764 
	C266.574677,241.597900 266.748657,241.064011 267.047241,240.276505 
z"/>
<path fill="#14763D" opacity="1.000000" stroke="none" 
	d="
M282.631958,188.880051 
	C282.724487,189.311081 282.572205,189.956573 282.120056,190.769699 
	C282.009186,190.323059 282.198151,189.708786 282.631958,188.880051 
z"/>
<path fill="#14763D" opacity="1.000000" stroke="none" 
	d="
M281.619751,191.020844 
	C281.732330,191.441620 281.591339,192.040512 281.177032,192.803284 
	C281.057861,192.377762 281.212006,191.788361 281.619751,191.020844 
z"/>
<path fill="#14763D" opacity="1.000000" stroke="none" 
	d="
M280.692505,193.080139 
	C280.746704,193.490494 280.558624,194.074539 280.074402,194.780731 
	C280.002289,194.353195 280.226288,193.803513 280.692505,193.080139 
z"/>
<path fill="#14763D" opacity="1.000000" stroke="none" 
	d="
M294.737122,170.631668 
	C294.827454,170.874405 294.617645,171.259750 294.098389,171.772079 
	C294.004944,171.524124 294.220978,171.149216 294.737122,170.631668 
z"/>
<path fill="#11753A" opacity="1.000000" stroke="none" 
	d="
M265.979309,247.242447 
	C266.089050,247.002045 266.543945,247.001114 266.771362,246.999939 
	C266.893738,247.328140 266.699951,247.592392 266.191528,247.897064 
	C265.933594,247.829346 265.901550,247.656097 265.979309,247.242447 
z"/>
<path fill="#14763D" opacity="1.000000" stroke="none" 
	d="
M293.616913,171.886383 
	C293.705200,172.108994 293.527924,172.424286 293.091248,172.841461 
	C293.005035,172.621902 293.178162,172.300491 293.616913,171.886383 
z"/>
<path fill="#DEF6E8" opacity="1.000000" stroke="none" 
	d="
M255.432663,290.029419 
	C255.926727,292.964111 256.221863,295.601624 260.537628,295.460083 
	C261.048035,298.286957 261.108490,300.644653 261.168945,303.002319 
	C261.130524,303.171814 261.092133,303.341309 260.842499,304.120514 
	C259.124939,305.058502 257.618652,305.386749 256.036530,305.960754 
	C256.322144,306.429016 256.683533,306.651489 257.433319,306.923431 
	C258.864288,307.018188 259.906860,307.063477 260.949463,307.108765 
	C260.993256,307.538849 261.037079,307.968964 261.066254,308.723083 
	C258.654572,309.049744 256.257507,309.052338 253.428787,309.209106 
	C252.212936,305.972748 249.840057,302.394043 254.651520,300.118896 
	C255.667542,302.087189 256.184448,303.543549 256.701385,304.999878 
	C257.294800,304.791656 257.888214,304.583466 258.481598,304.375275 
	C257.599518,302.087219 256.717407,299.799194 255.835312,297.511169 
	C247.497681,297.257050 253.210648,290.762787 250.639450,287.947693 
	C251.211029,287.548309 251.782608,287.148895 252.354187,286.749512 
	C253.275192,287.779083 254.196213,288.808685 255.432663,290.029419 
z"/>
<path fill="#50916C" opacity="1.000000" stroke="none" 
	d="
M255.844635,297.762024 
	C256.717407,299.799194 257.599518,302.087219 258.481598,304.375275 
	C257.888214,304.583466 257.294800,304.791656 256.701385,304.999878 
	C256.184448,303.543549 255.667542,302.087189 255.098877,300.196045 
	C255.316055,299.178406 255.585007,298.595642 255.844635,297.762024 
z"/>
<path fill="#11753A" opacity="1.000000" stroke="none" 
	d="
M261.526733,302.945496 
	C261.108490,300.644653 261.048035,298.286957 260.928009,295.491852 
	C261.053833,295.041321 261.239258,295.028259 261.702606,294.996826 
	C264.126770,297.641693 265.571442,300.296356 261.526733,302.945496 
z"/>
<path fill="#11753A" opacity="1.000000" stroke="none" 
	d="
M261.061646,306.834167 
	C259.906860,307.063477 258.864288,307.018188 257.231964,306.608093 
	C256.465607,306.067200 256.288971,305.891113 256.112335,305.714996 
	C257.618652,305.386749 259.124939,305.058502 260.893738,304.376099 
	C261.162079,304.867798 261.167938,305.713654 261.061646,306.834167 
z"/>
<path fill="#11753A" opacity="1.000000" stroke="none" 
	d="
M265.960144,311.373322 
	C265.834778,311.701141 265.662903,311.720917 265.262207,311.862976 
	C265.033417,311.985260 265.007324,311.979614 264.933258,311.635681 
	C264.240021,311.188721 263.620850,311.085724 263.001678,310.982727 
	C263.001678,310.982727 262.998779,311.001312 263.082642,310.675720 
	C262.773560,310.224976 262.380676,310.099884 261.987762,309.974792 
	C261.987762,309.974792 261.991211,310.006470 262.091003,309.752502 
	C262.182465,309.318512 262.174164,309.138458 262.165863,308.958405 
	C264.745422,307.294250 265.222534,309.370056 265.960144,311.373322 
z"/>
<path fill="#87C7A0" opacity="1.000000" stroke="none" 
	d="
M261.877930,308.917450 
	C262.174164,309.138458 262.182465,309.318512 262.106628,309.755432 
	C261.647552,309.882202 261.272583,309.752045 260.958130,309.304047 
	C261.209106,308.949615 261.399536,308.913055 261.877930,308.917450 
z"/>
<path fill="#F6FBF8" opacity="1.000000" stroke="none" 
	d="
M255.049118,336.988464 
	C254.178040,331.471863 253.781921,326.014374 253.365234,320.273254 
	C255.948578,320.273254 257.686005,320.273254 259.747803,320.273254 
	C259.747803,325.679047 259.747803,331.035919 259.747803,336.783783 
	C258.355835,336.870728 256.939972,336.959137 255.049118,336.988464 
z"/>
<path fill="#216E3C" opacity="1.000000" stroke="none" 
	d="
M261.060669,344.214050 
	C258.415833,344.448517 256.022736,344.448517 253.867355,344.448517 
	C255.426453,342.499664 259.825836,342.043701 261.060669,344.214050 
z"/>
<path fill="#216E3C" opacity="1.000000" stroke="none" 
	d="
M262.690765,347.913391 
	C262.723633,348.471283 262.594635,348.867126 262.465607,349.262970 
	C262.357605,349.154694 262.141937,349.022583 262.159760,348.942169 
	C262.249298,348.537811 262.399780,348.146912 262.690765,347.913391 
z"/>
<path fill="#87C7A0" opacity="1.000000" stroke="none" 
	d="
M263.071472,311.338013 
	C263.620850,311.085724 264.240021,311.188721 264.919739,311.635162 
	C264.367249,311.883514 263.754272,311.788391 263.071472,311.338013 
z"/>
<path fill="#87C7A0" opacity="1.000000" stroke="none" 
	d="
M261.953033,310.286438 
	C262.380676,310.099884 262.773560,310.224976 263.091675,310.672974 
	C262.650696,310.863281 262.284485,310.730682 261.953033,310.286438 
z"/>
<path fill="#14753C" opacity="1.000000" stroke="none" 
	d="
M250.007050,313.009918 
	C249.912964,313.049683 249.809280,313.077972 249.839523,313.043091 
	C249.973434,312.979858 249.997467,312.998444 250.007050,313.009918 
z"/>
<path fill="#50916C" opacity="1.000000" stroke="none" 
	d="
M256.036530,305.960754 
	C256.288971,305.891113 256.465607,306.067200 256.843597,306.558624 
	C256.683533,306.651489 256.322144,306.429016 256.036530,305.960754 
z"/>
</svg>