<svg xmlns="http://www.w3.org/2000/svg" xmlns:xlink="http://www.w3.org/1999/xlink" width="320" zoomAndPan="magnify" viewBox="0 0 240 74.999997" height="100" preserveAspectRatio="xMidYMid meet" version="1.0"><defs><g/></defs><g fill="#004aad" fill-opacity="0.4"><g transform="translate(10.97853, 47.552802)"><g><path d="M 19.019531 -15.570312 C 24.59375 -18.003906 30.125 -24.550781 29.328125 -30.921875 C 29.105469 -33.042969 27.558594 -35.609375 25.082031 -35.210938 C 23.753906 -34.988281 22.472656 -33.574219 21.542969 -32.691406 C 20.347656 -31.496094 19.199219 -30.210938 18.136719 -28.886719 C 15.925781 -26.1875 13.890625 -23.269531 12.03125 -20.304688 C 11.191406 -18.886719 10.394531 -17.429688 9.644531 -15.96875 C 9.199219 -15.171875 8.804688 -14.375 8.449219 -13.535156 C 8.140625 -12.871094 7.519531 -11.988281 7.429688 -11.234375 C 7.5625 -12.03125 8.40625 -13.316406 8.804688 -14.109375 C 9.332031 -15.21875 9.910156 -16.324219 10.484375 -17.429688 C 11.722656 -19.597656 13.050781 -21.71875 14.464844 -23.753906 C 10.703125 -18.226562 7.519531 -12.121094 5.617188 -5.660156 L 5.792969 -7.34375 C 5.792969 -7.476562 6.015625 -9.597656 5.972656 -9.554688 C 5.882812 -9.464844 5.839844 -9.378906 5.792969 -9.289062 C 6.015625 -10.703125 6.589844 -12.296875 6.988281 -13.710938 C 7.476562 -15.480469 7.828125 -17.25 8.316406 -19.019531 C 8.847656 -20.878906 9.511719 -22.648438 10.261719 -24.417969 C 10.484375 -24.816406 12.5625 -29.328125 12.785156 -29.460938 C 12.472656 -29.328125 10.660156 -25.566406 10.21875 -24.640625 C 11.28125 -27.117188 12.519531 -29.503906 14.109375 -31.671875 C 13.976562 -31.449219 13.800781 -31.140625 13.84375 -31.140625 C 13.976562 -31.097656 15.128906 -32.601562 15.039062 -32.644531 C 14.953125 -32.644531 14.863281 -32.601562 14.820312 -32.558594 C 15.085938 -32.867188 15.347656 -32.953125 15.347656 -33.484375 C 15.304688 -34.195312 14.640625 -35.167969 13.976562 -35.433594 C 12.519531 -35.964844 11.546875 -34.0625 10.75 -33.441406 C 9.464844 -32.378906 8.890625 -30.921875 8.09375 -29.460938 C 7.917969 -29.0625 5.792969 -24.375 5.925781 -24.328125 L 5.617188 -23.355469 C 5.574219 -23.398438 5.75 -23.664062 5.660156 -23.710938 C 5.21875 -23.796875 4.113281 -19.863281 4.023438 -19.550781 C 3.894531 -18.667969 3.671875 -17.871094 3.40625 -16.984375 C 3.273438 -16.542969 3.097656 -16.058594 3.007812 -15.570312 C 2.964844 -15.527344 2.832031 -14.375 3.007812 -14.820312 C 3.007812 -14.6875 2.964844 -14.597656 2.964844 -14.507812 C 2.917969 -14.554688 2.917969 -14.597656 2.917969 -14.640625 C 2.785156 -14.597656 2.652344 -13.226562 2.609375 -13.050781 C 2.34375 -12.339844 2.078125 -11.679688 1.902344 -10.925781 C 1.460938 -9.113281 1.371094 -7.210938 1.28125 -5.351562 C 1.238281 -3.804688 0.882812 -1.679688 1.546875 -0.222656 C 2.125 1.195312 3.9375 2.125 5.175781 0.796875 L 5.308594 1.0625 C 5.617188 -0.707031 5.972656 -2.433594 6.503906 -4.15625 C 7.5625 -7.519531 9.023438 -10.617188 10.394531 -13.84375 C 10.835938 -14.90625 11.679688 -15.746094 12.296875 -16.765625 C 13.316406 -18.488281 14.332031 -20.171875 15.4375 -21.851562 C 17.339844 -24.816406 19.507812 -27.78125 22.027344 -30.257812 C 22.515625 -30.742188 23.445312 -31.894531 24.242188 -31.671875 C 25.433594 -31.363281 24.859375 -28.664062 24.285156 -27.335938 L 24.242188 -27.203125 L 24.195312 -27.160156 L 24.195312 -27.117188 C 23.84375 -26.144531 23.355469 -25.214844 22.871094 -24.285156 C 22.871094 -24.328125 23.222656 -25.125 23.222656 -25.125 C 23.003906 -25.167969 21.585938 -22.738281 21.367188 -22.425781 C 20.480469 -21.234375 19.550781 -20.082031 18.488281 -19.066406 C 17.515625 -18.09375 16.457031 -17.25 15.347656 -16.457031 C 14.6875 -16.058594 13.757812 -15.835938 13.183594 -15.394531 C 11.898438 -14.375 15.128906 -12.296875 16.277344 -12.605469 C 17.25 -12.871094 17.960938 -13.449219 19.066406 -13.316406 C 19.597656 -13.226562 20.082031 -13.050781 20.480469 -12.652344 C 20.523438 -12.652344 21.054688 -12.03125 21.1875 -11.8125 L 21.1875 -11.945312 C 21.410156 -11.457031 21.5 -10.96875 21.542969 -10.484375 C 21.5 -10.703125 21.320312 -11.015625 21.277344 -11.324219 C 21.277344 -10.835938 21.453125 -9.996094 21.542969 -9.953125 C 21.808594 -9.6875 21.277344 -7.917969 21.011719 -7.34375 C 20.480469 -6.191406 19.683594 -5.132812 18.84375 -4.15625 C 17.03125 -2.125 14.820312 -0.488281 12.472656 0.929688 C 9.996094 2.433594 7.296875 3.714844 4.46875 4.554688 C 3.273438 4.953125 2.035156 5.132812 0.753906 5.351562 C 0.222656 5.441406 -0.265625 5.398438 0.175781 5.925781 C 0.621094 6.546875 2.519531 6.722656 3.230469 6.8125 C 4.554688 7.078125 5.882812 6.988281 7.253906 6.722656 C 9.464844 6.28125 11.765625 5.484375 13.800781 4.554688 C 18.667969 2.390625 23.488281 -1.28125 25.167969 -6.503906 C 25.65625 -8.007812 25.964844 -9.777344 25.65625 -11.324219 C 24.992188 -14.464844 21.984375 -15.835938 19.019531 -15.570312 Z M 20.96875 -4.511719 C 20.65625 -3.671875 19.90625 -2.785156 19.242188 -2.210938 C 18.621094 -1.679688 17.960938 -1.414062 17.429688 -1.015625 L 18.933594 -2.609375 C 20.039062 -3.894531 20.878906 -5.085938 21.632812 -6.636719 L 21.851562 -7.167969 C 21.761719 -6.414062 21.277344 -5.21875 20.96875 -4.511719 Z M 26.453125 -23.355469 C 26.894531 -24.109375 27.558594 -25.082031 28 -26.054688 C 27.558594 -24.59375 27.027344 -23.398438 25.921875 -22.160156 C 25.523438 -21.761719 25.167969 -21.320312 24.773438 -20.878906 C 25.390625 -21.675781 25.964844 -22.472656 26.453125 -23.355469 Z M 3.183594 -9.644531 C 2.917969 -9.023438 2.785156 -8.050781 2.832031 -7.386719 C 2.742188 -8.359375 2.875 -9.6875 3.140625 -10.617188 C 3.273438 -11.015625 3.582031 -11.5 3.804688 -11.945312 C 3.804688 -11.722656 3.804688 -11.457031 3.761719 -11.191406 C 3.671875 -10.617188 3.40625 -10.128906 3.183594 -9.644531 Z M 9.421875 -22.691406 C 9.421875 -22.78125 9.464844 -22.871094 9.511719 -22.957031 Z M 17.914062 -28.398438 L 17.605469 -28.089844 Z M 10.128906 -24.460938 C 10.128906 -24.507812 10.175781 -24.59375 10.21875 -24.640625 Z M 10.128906 -24.460938 "/></g></g></g><g fill="#004aad" fill-opacity="0.4"><g transform="translate(39.416226, 47.552802)"><g><path d="M 18.136719 -10.75 C 17.871094 -11.898438 16.808594 -10.351562 16.589844 -10.085938 L 14.15625 -6.8125 L 11.765625 -3.671875 L 10.484375 -2.035156 C 10.351562 -1.859375 9.378906 -0.621094 9.464844 -0.621094 C 9.554688 -0.707031 9.6875 -0.707031 9.820312 -0.839844 C 9.15625 -0.132812 6.722656 2.078125 6.28125 1.546875 C 5.925781 1.105469 6.902344 -0.753906 7.035156 -1.195312 C 7.519531 -2.476562 7.960938 -3.804688 8.492188 -5.042969 C 9.066406 -6.324219 9.730469 -7.609375 10.261719 -8.890625 C 10.792969 -10.261719 9.996094 -10.75 8.714844 -11.058594 C 8.140625 -11.191406 7.429688 -11.191406 6.769531 -11.28125 C 6.769531 -11.234375 6.8125 -11.234375 6.8125 -11.234375 C 7.386719 -11.148438 8.226562 -11.101562 8.933594 -10.882812 C 7.875 -11.191406 6.546875 -11.058594 5.707031 -11.28125 C 5.132812 -11.414062 4.777344 -11.414062 4.867188 -12.074219 C 4.953125 -12.960938 5.882812 -13.890625 6.191406 -14.730469 C 6.191406 -14.6875 5.882812 -13.890625 5.925781 -13.890625 C 6.148438 -13.800781 6.503906 -15.039062 6.503906 -15.21875 C 6.457031 -15.4375 5.925781 -16.101562 5.882812 -15.835938 L 5.972656 -15.703125 C 3.847656 -17.164062 1.328125 -14.15625 1.769531 -11.988281 C 1.859375 -11.679688 2.035156 -11.5 2.167969 -11.148438 C 2.257812 -10.882812 2.167969 -10.570312 2.433594 -10.21875 C 3.363281 -9.066406 5.042969 -9.023438 6.371094 -9.289062 C 6.148438 -8.980469 3.804688 -4.023438 3.9375 -3.980469 L 3.628906 -2.875 C 3.582031 -2.917969 3.761719 -3.273438 3.671875 -3.273438 C 3.363281 -3.316406 2.742188 -0.753906 2.699219 -0.53125 C 2.519531 0.53125 2.566406 1.460938 3.007812 2.433594 C 3.273438 3.050781 3.582031 3.582031 4.15625 3.9375 C 4.6875 4.289062 5.351562 4.46875 5.972656 4.335938 C 6.191406 4.246094 7.035156 3.671875 6.8125 3.714844 L 7.121094 3.582031 C 7.078125 3.628906 7.035156 3.671875 7.035156 3.714844 C 7.167969 3.761719 9.199219 2.125 9.464844 1.945312 C 10.882812 0.753906 12.03125 -0.707031 13.09375 -2.167969 C 14.15625 -3.671875 15.261719 -5.175781 16.277344 -6.679688 C 16.765625 -7.386719 17.207031 -8.09375 17.5625 -8.847656 C 17.828125 -9.378906 18.269531 -10.128906 18.136719 -10.75 Z M 4.910156 -5.441406 C 5.21875 -6.238281 5.574219 -6.988281 5.972656 -7.742188 C 6.058594 -7.875 6.679688 -9.464844 6.988281 -9.554688 C 6.769531 -9.421875 5.839844 -7.253906 5.617188 -6.855469 L 4.777344 -4.910156 C 4.335938 -3.847656 3.847656 -2.742188 3.539062 -1.59375 C 3.847656 -2.917969 4.378906 -4.203125 4.910156 -5.441406 Z M 3.847656 3.050781 C 4.113281 3.40625 4.46875 3.761719 4.953125 3.9375 C 4.554688 3.804688 4.203125 3.582031 3.9375 3.316406 C 3.980469 3.316406 3.980469 3.363281 3.980469 3.40625 C 3.714844 3.050781 3.363281 2.300781 3.316406 2.167969 C 3.183594 1.636719 3.140625 1.015625 3.183594 0.488281 C 3.183594 0.0429688 3.230469 -0.308594 3.316406 -0.707031 L 3.316406 -0.664062 C 3.230469 -0.0898438 3.183594 0.488281 3.230469 1.105469 L 3.230469 1.328125 C 3.183594 1.28125 3.183594 1.238281 3.183594 1.238281 C 3.183594 1.238281 3.183594 1.28125 3.230469 1.371094 L 3.230469 1.414062 L 3.40625 2.34375 L 3.273438 1.769531 C 3.363281 2.035156 3.582031 2.519531 3.804688 3.007812 L 3.761719 2.964844 C 3.761719 3.007812 3.804688 3.050781 3.847656 3.097656 Z M 5.085938 -11.546875 C 5.308594 -11.367188 5.707031 -11.324219 6.105469 -11.28125 C 5.75 -11.324219 5.441406 -11.414062 5.21875 -11.589844 C 5.21875 -11.589844 4.953125 -11.8125 4.910156 -11.898438 C 4.910156 -11.8125 5 -11.589844 5.085938 -11.546875 Z M 9.730469 -8.09375 L 8.804688 -6.148438 L 9.730469 -8.140625 Z M 3.363281 -0.839844 C 3.363281 -0.796875 3.316406 -0.753906 3.316406 -0.707031 L 3.316406 -0.753906 C 3.316406 -0.796875 3.363281 -0.796875 3.363281 -0.839844 Z M 9.777344 -8.226562 L 9.777344 -8.183594 L 9.730469 -8.183594 Z M 9.777344 -8.226562 L 9.777344 -8.183594 L 9.730469 -8.183594 Z M 3.40625 -1.414062 C 3.40625 -1.460938 3.449219 -1.503906 3.449219 -1.59375 C 3.449219 -1.503906 3.40625 -1.460938 3.40625 -1.414062 Z M 3.582031 2.652344 C 3.582031 2.652344 3.628906 2.699219 3.628906 2.742188 C 3.628906 2.699219 3.582031 2.699219 3.582031 2.652344 Z M 4.953125 -11.988281 C 4.910156 -11.988281 4.910156 -11.945312 4.910156 -11.945312 Z M 4.953125 -11.988281 "/></g></g></g><g fill="#004aad" fill-opacity="0.4"><g transform="translate(54.320586, 47.552802)"><g><path d="M 11.589844 -10.882812 C 11.5 -11.457031 10.882812 -11.28125 10.570312 -11.058594 C 10.175781 -10.792969 7.960938 -7.875 8.140625 -7.652344 C 8.273438 -7.652344 8.359375 -7.652344 8.449219 -7.742188 C 7.828125 -6.988281 6.679688 -6.148438 5.839844 -5.484375 C 5.351562 -5.085938 4.15625 -3.980469 3.449219 -4.335938 C 1.945312 -5.085938 5 -10.394531 4.867188 -10.441406 C 4.734375 -10.484375 3.628906 -8.007812 3.40625 -7.429688 C 3.9375 -8.980469 4.644531 -10.527344 5.484375 -11.898438 C 5.441406 -11.765625 5.308594 -11.546875 5.398438 -11.546875 C 5.484375 -11.5 6.148438 -12.429688 6.015625 -12.519531 C 5.972656 -12.519531 5.882812 -12.519531 5.839844 -12.472656 C 5.972656 -12.605469 6.191406 -12.652344 6.191406 -12.917969 C 6.191406 -13.359375 5.175781 -13.800781 4.820312 -13.933594 C 3.980469 -14.289062 3.140625 -14.375 2.476562 -13.933594 C 1.59375 -13.402344 1.414062 -12.339844 1.0625 -11.414062 C 0.972656 -11.148438 0.132812 -8.007812 0.308594 -7.960938 C 0.398438 -8.007812 0.398438 -8.050781 0.441406 -8.140625 L 0.308594 -7.34375 C 0.265625 -7.34375 0.355469 -7.5625 0.265625 -7.5625 C -0.0898438 -7.5625 0 -5.972656 0.0429688 -5.75 C 0.222656 -4.953125 0.839844 -4.378906 1.328125 -3.714844 C 1.59375 -3.316406 1.859375 -2.917969 2.257812 -2.652344 C 2.785156 -2.257812 2.433594 -2.652344 2.785156 -2.476562 L 2.699219 -2.476562 C 2.652344 -2.210938 4.335938 -1.769531 4.6875 -1.8125 C 6.238281 -2.167969 7.34375 -4.070312 8.226562 -5.265625 C 9.066406 -6.324219 9.777344 -7.386719 10.527344 -8.492188 C 10.96875 -9.066406 11.765625 -10.042969 11.589844 -10.882812 Z M 3.847656 -16.457031 C 3.9375 -16.324219 3.804688 -16.144531 4.113281 -15.96875 C 4.421875 -15.835938 4.601562 -16.011719 4.867188 -16.101562 C 5.398438 -16.324219 5.792969 -16.898438 6.191406 -17.25 C 6.324219 -17.339844 6.058594 -17.296875 6.058594 -17.296875 C 6.636719 -17.828125 6.148438 -17.207031 6.679688 -17.515625 C 7.210938 -17.871094 7.296875 -18.445312 7.742188 -18.933594 C 7.210938 -18.710938 6.8125 -18.402344 6.457031 -17.960938 C 6.015625 -17.382812 5.707031 -17.117188 5.21875 -16.808594 C 5.75 -17.207031 6.015625 -17.605469 6.457031 -18.3125 C 6.589844 -18.445312 6.722656 -18.535156 6.902344 -18.621094 C 6.769531 -18.753906 6.769531 -18.886719 6.945312 -19.019531 C 7.078125 -19.242188 7.34375 -19.332031 7.476562 -19.550781 C 7.695312 -19.863281 7.652344 -20.257812 7.917969 -20.570312 C 8.140625 -20.746094 8.449219 -20.878906 8.625 -21.054688 C 9.023438 -21.410156 9.464844 -22.074219 9.289062 -22.648438 C 9.113281 -23.179688 8.671875 -23.84375 8.183594 -24.152344 C 7.609375 -24.460938 6.8125 -24.59375 6.191406 -24.328125 C 6.058594 -24.285156 5.53125 -24.152344 5.707031 -23.976562 C 5.75 -23.886719 5.792969 -23.886719 5.882812 -23.886719 C 5.484375 -23.578125 4.820312 -23.046875 5.75 -22.691406 C 5.660156 -22.605469 5.75 -22.207031 5.75 -22.160156 C 5.707031 -21.851562 5.085938 -20.214844 4.6875 -19.417969 L 5.21875 -20.214844 C 4.910156 -19.550781 4.554688 -18.933594 4.15625 -18.402344 C 4.421875 -18.976562 3.894531 -18.3125 3.894531 -18.179688 C 3.40625 -18.402344 3.539062 -17.03125 3.582031 -16.898438 C 3.582031 -16.855469 3.847656 -16.457031 3.847656 -16.457031 Z M 3.007812 -5.925781 L 3.007812 -5.882812 L 2.917969 -5.617188 L 3.007812 -5.972656 C 3.050781 -6.015625 3.050781 -6.015625 3.007812 -5.925781 Z M 4.46875 -19.066406 C 4.46875 -19.066406 4.554688 -19.152344 4.644531 -19.332031 Z M 4.023438 -18.226562 C 4.023438 -18.179688 4.023438 -18.179688 3.980469 -18.136719 C 3.980469 -18.136719 3.980469 -18.179688 3.9375 -18.179688 C 3.980469 -18.179688 3.980469 -18.179688 4.023438 -18.226562 Z M 4.023438 -18.226562 "/></g></g></g><g fill="#004aad" fill-opacity="0.4"><g transform="translate(62.679407, 47.552802)"><g><path d="M 22.515625 -10.660156 C 22.472656 -11.632812 21.675781 -10.792969 21.410156 -10.441406 C 20.835938 -9.597656 20.304688 -8.714844 19.773438 -7.875 C 18.578125 -6.058594 17.382812 -4.246094 16.011719 -2.519531 C 11.457031 3.097656 14.640625 -6.902344 14.289062 -6.8125 C 14.109375 -6.769531 13.976562 -6.105469 13.933594 -5.972656 C 14.289062 -7.5625 14.953125 -9.464844 15.792969 -11.015625 C 16.277344 -11.988281 16.855469 -12.785156 15.96875 -13.84375 C 14.332031 -15.835938 12.429688 -14.023438 11.367188 -12.652344 C 10.925781 -14.332031 10.042969 -16.808594 7.875 -16.808594 C 6.902344 -16.808594 6.324219 -16.324219 5.660156 -15.746094 C 5.265625 -15.480469 4.953125 -15.4375 4.601562 -15.128906 C 4.023438 -14.730469 3.628906 -14.109375 3.230469 -13.582031 C 1.726562 -11.367188 0.664062 -8.582031 0.175781 -6.015625 C -0.0429688 -4.777344 -0.132812 -3.40625 0.222656 -2.167969 C 0.441406 -1.460938 1.238281 0.132812 2.257812 0 C 2.300781 0 2.210938 -0.0429688 2.078125 -0.132812 C 2.699219 0.0429688 3.40625 -0.0429688 3.9375 -0.398438 C 3.980469 -0.308594 3.449219 -0.0898438 3.449219 -0.0898438 C 3.9375 0.664062 7.5625 -3.714844 7.828125 -4.113281 C 8.40625 -4.910156 8.804688 -5.75 9.332031 -6.589844 C 9.730469 -7.210938 10.351562 -8.007812 10.792969 -8.671875 C 10.75 -8.359375 10.75 -7.960938 10.75 -7.960938 C 9.953125 -5.441406 9.199219 -2.699219 10.261719 -0.0898438 C 10.75 1.238281 11.945312 2.476562 13.449219 2.210938 C 14.773438 1.992188 15.878906 0.707031 16.675781 -0.308594 C 17.648438 -1.460938 18.488281 -2.742188 19.332031 -4.070312 C 20.039062 -5.265625 20.703125 -6.457031 21.277344 -7.785156 C 21.632812 -8.625 22.605469 -9.644531 22.515625 -10.660156 Z M 9.820312 -10.351562 C 9.597656 -10.042969 9.378906 -9.730469 9.199219 -9.421875 L 8.050781 -7.785156 C 7.296875 -6.679688 6.503906 -5.617188 5.660156 -4.601562 C 5.441406 -4.289062 4.378906 -2.917969 3.9375 -3.050781 C 3.273438 -3.273438 3.980469 -5.574219 4.070312 -5.925781 C 4.203125 -6.546875 6.546875 -13.359375 7.167969 -13.492188 C 6.371094 -13.535156 3.804688 -5.53125 3.671875 -4.867188 C 4.023438 -7.035156 4.820312 -9.15625 5.707031 -11.148438 C 6.191406 -12.164062 7.296875 -14.863281 8.757812 -14.863281 C 9.554688 -14.863281 9.730469 -13.226562 9.863281 -12.695312 C 9.820312 -12.785156 9.421875 -14.066406 9.378906 -14.023438 C 9.15625 -13.84375 10.042969 -11.414062 10.042969 -11.058594 C 10.042969 -10.703125 10.042969 -10.703125 9.820312 -10.351562 Z M 10.835938 -8.183594 C 10.835938 -8.183594 10.96875 -8.804688 11.015625 -8.933594 L 11.234375 -9.246094 Z M 10.175781 -10.925781 L 10.175781 -11.367188 C 10.308594 -11.191406 10.308594 -11.058594 10.175781 -10.925781 Z M 10.175781 -10.925781 "/></g></g></g><g fill="#004aad" fill-opacity="0.4"><g transform="translate(81.962197, 47.552802)"><g><path d="M 18.3125 -10.527344 C 18.09375 -11.589844 17.472656 -10.882812 17.207031 -10.484375 C 16.589844 -9.730469 15.613281 -9.023438 14.863281 -8.316406 C 13.84375 -7.429688 12.828125 -6.503906 11.765625 -5.660156 C 11.234375 -5.21875 10.570312 -4.601562 9.910156 -4.378906 C 9.820312 -4.335938 9.511719 -4.289062 9.511719 -4.246094 L 9.464844 -4.289062 C 9.464844 -4.289062 9.421875 -5 9.464844 -5.042969 C 9.511719 -5.617188 9.6875 -6.191406 9.863281 -6.722656 C 9.910156 -6.8125 10.394531 -8.316406 10.308594 -8.316406 L 10.085938 -8.050781 C 10.351562 -8.582031 10.703125 -9.113281 11.015625 -9.6875 C 10.308594 -9.023438 9.820312 -8.273438 9.464844 -7.34375 C 9.289062 -6.902344 8.804688 -6.105469 8.714844 -5.441406 C 8.804688 -6.414062 9.464844 -7.695312 9.777344 -8.273438 C 10.21875 -9.199219 10.703125 -10.261719 11.28125 -11.148438 C 12.339844 -12.738281 14.640625 -14.199219 13.933594 -16.410156 C 13.316406 -18.488281 11.679688 -18.535156 10.394531 -17.339844 C 9.777344 -16.765625 4.511719 -10.042969 4.644531 -9.953125 C 4.644531 -9.953125 5.085938 -10.484375 5.660156 -11.234375 L 3.050781 -7.429688 C 3.007812 -7.429688 3.496094 -8.183594 3.449219 -8.226562 C 3.40625 -8.273438 3.097656 -7.960938 3.050781 -7.785156 C 3.140625 -8.714844 3.449219 -9.644531 3.539062 -10.570312 C 3.582031 -10.925781 3.539062 -11.191406 3.628906 -11.546875 C 3.804688 -12.121094 3.980469 -12.738281 4.246094 -13.226562 C 4.421875 -13.582031 4.777344 -13.890625 4.867188 -14.242188 C 5.042969 -14.820312 5 -15.039062 5.398438 -15.527344 C 5.75 -15.96875 6.28125 -16.410156 6.589844 -16.808594 C 7.34375 -17.914062 6.058594 -18.667969 5.351562 -18.800781 C 4.777344 -18.886719 4.203125 -18.933594 3.671875 -18.621094 C 3.097656 -18.269531 3.230469 -17.960938 3.097656 -17.472656 C 2.964844 -16.855469 2.519531 -16.144531 2.300781 -15.570312 C 1.945312 -14.640625 1.636719 -13.710938 1.328125 -12.785156 C 0.972656 -11.855469 0.621094 -10.96875 0.355469 -10.042969 C 0.132812 -9.289062 0.175781 -8.582031 0.0898438 -7.875 C 0 -7.078125 -0.132812 -6.546875 0.265625 -5.839844 C 0.707031 -5.085938 1.902344 -3.9375 2.699219 -4.910156 L 2.875 -4.554688 C 3.628906 -6.191406 4.777344 -7.652344 5.707031 -9.246094 C 6.105469 -9.953125 6.8125 -10.441406 7.386719 -11.191406 C 8.183594 -12.253906 8.890625 -13.316406 9.777344 -14.332031 C 9.644531 -14.109375 9.066406 -13.09375 9.113281 -13.050781 C 9.199219 -13.09375 9.246094 -13.183594 9.332031 -13.269531 L 8.714844 -12.03125 C 8.671875 -12.074219 8.890625 -12.386719 8.804688 -12.386719 C 8.492188 -12.472656 7.5625 -9.996094 7.476562 -9.777344 C 7.167969 -8.804688 7.121094 -7.917969 7.035156 -6.902344 C 6.988281 -6.414062 6.902344 -5.925781 6.902344 -5.441406 C 6.902344 -4.953125 6.945312 -4.46875 7.167969 -3.980469 C 7.296875 -3.714844 7.476562 -3.363281 7.695312 -3.140625 C 7.742188 -3.140625 8.226562 -2.699219 8.007812 -3.050781 L 8.273438 -2.785156 L 8.140625 -2.875 C 8.09375 -2.652344 9.730469 -1.769531 9.996094 -1.679688 C 11.234375 -1.28125 12.5625 -2.699219 13.359375 -3.539062 C 14.421875 -4.6875 15.304688 -6.015625 16.277344 -7.253906 C 16.808594 -7.960938 18.488281 -9.464844 18.3125 -10.527344 Z M 18.3125 -10.527344 "/></g></g></g><g fill="#004aad" fill-opacity="0.4"><g transform="translate(97.04346, 47.552802)"><g/></g></g><g fill="#004aad" fill-opacity="0.4"><g transform="translate(109.426905, 47.552802)"><g><path d="M 28.175781 1.503906 C 27.515625 2.34375 26.1875 3.316406 25.035156 3.449219 C 24.59375 3.496094 24.152344 3.363281 23.710938 3.230469 C 23.53125 3.140625 21.894531 2.390625 21.894531 2.476562 L 22.117188 2.742188 C 21.320312 2.210938 20.390625 1.195312 19.640625 0.441406 C 18.535156 -0.664062 17.382812 -1.679688 16.234375 -2.742188 C 15.878906 -3.183594 12.695312 -6.988281 11.28125 -8.847656 C 11.722656 -8.09375 12.429688 -7.121094 12.785156 -6.589844 C 11.589844 -8.050781 10.617188 -9.597656 9.644531 -11.191406 C 11.988281 -12.339844 14.289062 -13.933594 16.191406 -15.660156 C 16.855469 -16.277344 17.339844 -16.984375 18.046875 -17.5625 C 19.066406 -18.445312 19.996094 -19.464844 21.011719 -20.347656 C 21.5 -20.789062 22.117188 -21.277344 22.515625 -21.808594 C 22.914062 -22.339844 23.089844 -22.824219 23.578125 -23.3125 C 24.550781 -24.328125 25.347656 -25.347656 26.230469 -26.363281 C 27.46875 -27.824219 28.441406 -29.238281 28.132812 -31.140625 L 28.132812 -31.230469 C 27.957031 -32.070312 27.203125 -33.839844 26.277344 -34.0625 C 25.613281 -34.195312 25.746094 -33.664062 25.613281 -33.21875 C 24.859375 -30.609375 22.648438 -28.132812 20.96875 -26.011719 C 19.152344 -23.796875 17.074219 -22.027344 15.171875 -19.949219 C 13.269531 -18.003906 11.28125 -16.324219 9.113281 -14.640625 C 9.464844 -16.011719 10.261719 -17.296875 10.527344 -18.667969 C 10.617188 -19.417969 10.75 -20.039062 11.058594 -20.746094 L 11.855469 -22.738281 C 12.296875 -24.019531 12.738281 -25.257812 13.226562 -26.496094 C 13.535156 -27.382812 14.023438 -28.308594 14.289062 -29.238281 C 14.421875 -29.769531 14.332031 -30.078125 14.507812 -30.523438 C 15.039062 -31.761719 16.367188 -32.734375 14.820312 -33.796875 C 14.066406 -34.371094 12.386719 -34.855469 11.8125 -33.839844 C 11.8125 -33.796875 11.855469 -33.707031 11.898438 -33.664062 L 11.589844 -32.910156 C 11.28125 -32.292969 11.015625 -31.671875 10.835938 -31.097656 C 9.597656 -28.132812 8.625 -25.125 7.609375 -22.160156 C 6.546875 -18.800781 5.308594 -15.480469 4.335938 -12.121094 C 4.023438 -10.792969 3.847656 -9.511719 3.363281 -8.226562 C 2.785156 -6.589844 2.300781 -4.953125 1.902344 -3.273438 C 1.414062 -1.371094 0.574219 0.707031 1.902344 2.476562 C 2.34375 3.140625 3.761719 4.820312 4.378906 3.671875 C 4.6875 3.140625 4.644531 2.210938 4.777344 1.636719 L 5.308594 -0.664062 C 5.75 -2.519531 6.191406 -4.378906 6.769531 -6.28125 C 7.210938 -7.5625 7.253906 -8.847656 7.652344 -10.128906 L 8.449219 -8.582031 C 8.625 -8.492188 8.757812 -8.359375 8.804688 -8.183594 C 8.671875 -8.140625 8.625 -8.007812 8.671875 -7.875 C 8.890625 -7.035156 9.511719 -6.238281 9.953125 -5.53125 C 10.21875 -5.132812 12.828125 -0.972656 12.917969 -1.105469 L 12.917969 -1.195312 L 13.492188 -0.488281 C 13.402344 -0.398438 13.269531 -0.664062 13.226562 -0.621094 C 12.917969 -0.308594 14.996094 2.125 15.21875 2.300781 C 15.746094 2.785156 16.234375 3.273438 16.722656 3.847656 C 16.941406 4.15625 17.207031 4.46875 17.5625 4.734375 C 17.648438 4.777344 18.226562 5.132812 18.09375 5 C 18.136719 5 18.226562 5.042969 18.3125 5.132812 C 18.226562 5.085938 18.179688 5.085938 18.136719 5.085938 C 18.136719 5.265625 20.480469 6.988281 20.65625 7.121094 C 21.453125 7.5625 22.339844 7.785156 23.3125 7.609375 C 25.789062 7.167969 27.558594 4.820312 28.796875 2.875 C 29.0625 2.433594 29.195312 2.078125 29.152344 1.546875 C 28.972656 0.355469 28.574219 1.015625 28.175781 1.503906 Z M 5.972656 -13.09375 C 5.925781 -13.050781 5.925781 -13.003906 5.925781 -12.960938 C 5.484375 -11.148438 5.132812 -9.289062 4.601562 -7.429688 C 4.15625 -6.015625 3.582031 -4.644531 3.183594 -3.273438 C 4.023438 -6.855469 5.175781 -10.484375 6.191406 -14.066406 Z M 14.242188 -4.820312 L 14.996094 -3.894531 C 14.640625 -4.289062 14.242188 -4.6875 13.933594 -5.132812 Z M 10.792969 -9.421875 L 10.570312 -9.820312 C 10.570312 -9.777344 10.660156 -9.644531 10.792969 -9.421875 Z M 11.015625 -9.113281 L 10.835938 -9.332031 Z M 11.015625 -9.113281 "/></g></g></g><g fill="#004aad" fill-opacity="0.4"><g transform="translate(134.768734, 47.552802)"><g><path d="M 16.941406 -10.925781 C 16.941406 -10.882812 16.941406 -10.882812 16.898438 -10.925781 L 16.898438 -10.96875 C 16.191406 -12.164062 15.261719 -10.527344 14.863281 -9.953125 C 14.109375 -8.933594 13.402344 -7.960938 12.605469 -7.035156 C 11.945312 -6.238281 11.234375 -5.441406 10.703125 -4.601562 C 10.703125 -4.511719 10.617188 -4.289062 10.617188 -4.289062 C 10.441406 -4.023438 10.175781 -3.804688 9.953125 -3.539062 C 9.554688 -3.140625 9.15625 -2.699219 8.714844 -2.300781 C 8.050781 -1.679688 4.335938 1.8125 3.847656 -0.441406 C 3.582031 -1.546875 3.9375 -2.917969 4.15625 -3.980469 C 4.289062 -4.554688 4.421875 -5.085938 4.511719 -5.660156 C 4.601562 -6.105469 4.46875 -6.546875 4.6875 -6.988281 C 4.820312 -7.253906 4.867188 -7.210938 5.175781 -7.296875 L 5.925781 -7.5625 C 6.414062 -7.742188 6.902344 -7.917969 7.34375 -8.183594 C 8.007812 -8.582031 8.625 -9.066406 9.199219 -9.554688 C 10.570312 -10.703125 12.03125 -12.074219 12.605469 -13.800781 C 12.917969 -14.773438 12.960938 -15.835938 12.339844 -16.675781 C 11.765625 -17.429688 10.792969 -17.828125 9.910156 -18.003906 C 7.519531 -18.445312 5.707031 -17.074219 4.335938 -15.261719 C 2.652344 -13.183594 1.460938 -10.617188 0.882812 -8.007812 C 0.574219 -6.722656 0.398438 -5.441406 0.175781 -4.113281 C -0.0429688 -2.785156 -0.175781 -1.546875 0.53125 -0.308594 C 0.488281 -0.753906 0.398438 -1.148438 0.398438 -1.546875 C 0.398438 -1.769531 0.488281 -1.992188 0.488281 -2.167969 C 0.488281 -2.257812 0.398438 -2.519531 0.398438 -2.652344 C 0.398438 -3.050781 0.488281 -3.363281 0.574219 -3.761719 C 0.621094 -4.15625 0.574219 -4.554688 0.621094 -4.953125 C 0.664062 -5.398438 0.839844 -5.75 1.015625 -6.148438 C 1.148438 -6.503906 1.195312 -6.8125 1.328125 -7.167969 C 1.460938 -7.476562 1.546875 -7.828125 1.679688 -8.183594 C 1.726562 -8.40625 1.945312 -8.671875 2.078125 -8.933594 C 1.945312 -8.539062 1.679688 -8.183594 1.59375 -7.828125 C 1.460938 -7.296875 1.546875 -6.722656 1.503906 -6.191406 C 1.414062 -5.617188 1.238281 -5.042969 1.148438 -4.421875 C 1.0625 -3.847656 0.796875 -3.316406 0.707031 -2.742188 C 0.621094 -2.210938 0.441406 -1.8125 0.488281 -1.28125 C 0.488281 -0.972656 0.53125 -0.664062 0.574219 -0.398438 C 0.621094 -0.0429688 0.839844 0.175781 1.0625 0.441406 C 1.8125 1.328125 2.832031 2.035156 3.980469 2.34375 C 4.777344 2.566406 5.484375 2.519531 6.238281 2.125 C 7.296875 1.546875 8.226562 0.664062 9.023438 -0.175781 C 9.777344 -1.015625 10.351562 -1.945312 11.015625 -2.832031 C 11.632812 -3.628906 12.386719 -4.378906 13.003906 -5.175781 L 15.394531 -8.273438 L 16.765625 -10.085938 C 16.984375 -10.351562 17.117188 -10.570312 16.941406 -10.925781 Z M 5.972656 -10.441406 C 6.015625 -10.527344 6.015625 -10.570312 6.015625 -10.570312 C 6.679688 -11.988281 7.167969 -13.492188 8.09375 -14.863281 L 8.890625 -15.925781 C 9.066406 -16.144531 9.378906 -16.542969 9.6875 -16.632812 C 10.351562 -16.765625 10.527344 -15.613281 10.484375 -15.171875 L 10.308594 -14.242188 C 10.261719 -13.976562 10.351562 -13.800781 10.308594 -13.582031 C 10.21875 -13.316406 9.996094 -13.183594 9.863281 -12.960938 L 9.113281 -11.988281 C 8.09375 -10.792969 6.8125 -9.777344 5.398438 -9.023438 C 5.617188 -9.511719 5.75 -9.996094 5.972656 -10.441406 Z M 5.972656 -10.441406 "/></g></g></g><g fill="#004aad" fill-opacity="0.4"><g transform="translate(148.523203, 47.552802)"><g><path d="M 17.960938 -23.003906 C 17.914062 -23.621094 17.25 -23.136719 16.898438 -23.136719 C 15.128906 -23.046875 13.359375 -23.046875 11.632812 -22.957031 C 11.632812 -23.003906 11.722656 -23.179688 11.855469 -23.445312 C 11.679688 -23.136719 11.546875 -22.957031 11.414062 -22.957031 C 12.738281 -25.65625 14.15625 -28.355469 15.835938 -30.832031 C 15.792969 -30.742188 15.128906 -29.636719 15.171875 -29.636719 C 15.304688 -29.59375 16.941406 -31.847656 16.984375 -32.160156 C 16.984375 -32.335938 16.589844 -31.894531 16.589844 -31.9375 C 16.855469 -32.203125 17.296875 -32.425781 17.429688 -32.777344 C 17.738281 -33.664062 16.808594 -34.0625 16.144531 -34.195312 C 14.773438 -34.460938 13.226562 -34.28125 12.339844 -33.132812 C 11.5 -32.113281 10.882812 -30.921875 10.351562 -29.726562 C 10.085938 -29.195312 9.730469 -29.0625 9.378906 -28.574219 C 8.847656 -27.824219 8.492188 -26.9375 8.09375 -26.097656 C 7.742188 -25.347656 7.386719 -24.550781 7.078125 -23.753906 C 6.902344 -23.355469 6.902344 -23.046875 6.503906 -22.914062 C 6.105469 -22.738281 5.351562 -22.871094 4.910156 -22.824219 C 3.183594 -22.605469 1.503906 -22.691406 -0.222656 -22.515625 C -1.105469 -22.472656 -1.992188 -22.472656 -2.832031 -22.160156 C -3.007812 -22.117188 -3.980469 -21.894531 -4.070312 -21.761719 C -4.335938 -21.277344 -3.273438 -21.234375 -3.050781 -21.1875 C -1.371094 -20.96875 0.753906 -20.789062 2.433594 -21.101562 C 3.582031 -21.320312 4.777344 -21.234375 6.015625 -21.320312 C 5.398438 -19.996094 4.910156 -18.578125 4.421875 -17.164062 L 3.894531 -15.613281 C 3.714844 -15.128906 3.140625 -14.199219 3.140625 -13.667969 C 3.140625 -13.582031 3.273438 -13.800781 3.363281 -14.023438 C 3.140625 -13.359375 2.875 -12.695312 2.699219 -12.03125 C 2.699219 -12.074219 2.832031 -12.605469 2.785156 -12.605469 C 2.566406 -12.605469 1.679688 -9.910156 1.59375 -9.6875 C 1.148438 -8.359375 0.664062 -7.035156 0.441406 -5.617188 C 0.175781 -4.203125 -0.175781 -2.832031 -0.488281 -1.460938 C -0.664062 -0.753906 -0.839844 -0.0898438 -0.929688 0.621094 C -1.015625 0.972656 -1.105469 1.371094 -1.105469 1.726562 C -1.105469 1.8125 -1.105469 2.390625 -1.015625 2.210938 L -1.105469 3.097656 L -1.105469 2.433594 C -1.371094 2.742188 -1.105469 4.15625 -1.0625 4.421875 C -0.882812 5.308594 -0.441406 6.105469 0.355469 6.636719 C 1.0625 7.167969 2.167969 7.652344 3.007812 7.253906 C 4.113281 6.722656 5.042969 5.484375 5.75 4.601562 C 7.296875 2.785156 8.714844 0.882812 10.128906 -1.015625 C 11.414062 -2.785156 12.738281 -4.511719 13.84375 -6.371094 C 14.464844 -7.429688 15.660156 -8.40625 16.058594 -9.597656 C 16.277344 -10.175781 16.144531 -10.882812 15.4375 -10.75 C 14.863281 -10.617188 14.066406 -9.066406 13.710938 -8.625 C 12.121094 -6.636719 10.617188 -4.601562 9.023438 -2.609375 L 6.457031 0.53125 C 6.058594 0.972656 5.660156 1.460938 5.21875 1.902344 C 5.042969 2.125 3.9375 3.007812 3.980469 3.273438 C 3.980469 3.363281 4.46875 2.964844 4.644531 2.832031 C 4.421875 3.097656 4.15625 3.316406 3.9375 3.539062 C 3.980469 3.496094 3.050781 4.023438 2.917969 3.9375 C 2.078125 3.582031 2.832031 1.015625 2.964844 0.398438 C 3.761719 -3.183594 4.953125 -6.8125 6.148438 -10.261719 C 6.855469 -12.164062 7.5625 -13.976562 8.359375 -15.835938 C 8.757812 -16.765625 9.15625 -17.738281 9.597656 -18.667969 L 10.21875 -20.347656 L 9.730469 -19.375 C 10.042969 -20.171875 10.484375 -21.367188 10.75 -21.410156 L 10.617188 -21.144531 C 10.703125 -21.277344 10.792969 -21.367188 10.882812 -21.410156 C 11.367188 -21.71875 12.605469 -21.410156 13.183594 -21.410156 C 13.582031 -21.410156 14.066406 -21.367188 14.464844 -21.5 C 14.730469 -21.585938 14.640625 -21.71875 14.953125 -21.808594 C 15.480469 -21.894531 16.144531 -21.542969 16.722656 -21.71875 C 17.25 -21.851562 18.003906 -22.339844 17.960938 -22.957031 Z M 9.554688 -20.4375 C 7.5625 -16.234375 6.058594 -11.722656 4.46875 -7.34375 C 3.714844 -5.351562 3.007812 -3.273438 2.519531 -1.195312 L 2.300781 -0.355469 C 2.609375 -1.945312 2.964844 -3.496094 3.40625 -5.042969 C 4.378906 -8.449219 5.617188 -11.8125 7.078125 -15.039062 C 9.554688 -20.570312 11.765625 -26.496094 15.304688 -31.496094 C 12.917969 -28.089844 11.324219 -24.195312 9.554688 -20.4375 Z M 12.472656 -24.816406 L 13.535156 -26.851562 C 13.316406 -26.804688 12.917969 -25.832031 12.472656 -24.816406 Z M 7.917969 -15.171875 C 7.609375 -14.332031 7.253906 -13.535156 6.902344 -12.738281 C 7.253906 -13.582031 7.5625 -14.464844 7.960938 -15.347656 C 7.917969 -15.261719 7.917969 -15.21875 7.917969 -15.171875 Z M 11.898438 -23.53125 L 12.339844 -24.507812 C 12.207031 -24.152344 12.03125 -23.796875 11.898438 -23.53125 Z M 2.257812 4.335938 C 2.210938 4.335938 2.167969 4.289062 2.125 4.246094 Z M 2.257812 4.335938 "/></g></g></g><g fill="#004aad" fill-opacity="0.4"><g transform="translate(162.100759, 47.552802)"><g><path d="M 16.941406 -10.925781 C 16.941406 -10.882812 16.941406 -10.882812 16.898438 -10.925781 L 16.898438 -10.96875 C 16.191406 -12.164062 15.261719 -10.527344 14.863281 -9.953125 C 14.109375 -8.933594 13.402344 -7.960938 12.605469 -7.035156 C 11.945312 -6.238281 11.234375 -5.441406 10.703125 -4.601562 C 10.703125 -4.511719 10.617188 -4.289062 10.617188 -4.289062 C 10.441406 -4.023438 10.175781 -3.804688 9.953125 -3.539062 C 9.554688 -3.140625 9.15625 -2.699219 8.714844 -2.300781 C 8.050781 -1.679688 4.335938 1.8125 3.847656 -0.441406 C 3.582031 -1.546875 3.9375 -2.917969 4.15625 -3.980469 C 4.289062 -4.554688 4.421875 -5.085938 4.511719 -5.660156 C 4.601562 -6.105469 4.46875 -6.546875 4.6875 -6.988281 C 4.820312 -7.253906 4.867188 -7.210938 5.175781 -7.296875 L 5.925781 -7.5625 C 6.414062 -7.742188 6.902344 -7.917969 7.34375 -8.183594 C 8.007812 -8.582031 8.625 -9.066406 9.199219 -9.554688 C 10.570312 -10.703125 12.03125 -12.074219 12.605469 -13.800781 C 12.917969 -14.773438 12.960938 -15.835938 12.339844 -16.675781 C 11.765625 -17.429688 10.792969 -17.828125 9.910156 -18.003906 C 7.519531 -18.445312 5.707031 -17.074219 4.335938 -15.261719 C 2.652344 -13.183594 1.460938 -10.617188 0.882812 -8.007812 C 0.574219 -6.722656 0.398438 -5.441406 0.175781 -4.113281 C -0.0429688 -2.785156 -0.175781 -1.546875 0.53125 -0.308594 C 0.488281 -0.753906 0.398438 -1.148438 0.398438 -1.546875 C 0.398438 -1.769531 0.488281 -1.992188 0.488281 -2.167969 C 0.488281 -2.257812 0.398438 -2.519531 0.398438 -2.652344 C 0.398438 -3.050781 0.488281 -3.363281 0.574219 -3.761719 C 0.621094 -4.15625 0.574219 -4.554688 0.621094 -4.953125 C 0.664062 -5.398438 0.839844 -5.75 1.015625 -6.148438 C 1.148438 -6.503906 1.195312 -6.8125 1.328125 -7.167969 C 1.460938 -7.476562 1.546875 -7.828125 1.679688 -8.183594 C 1.726562 -8.40625 1.945312 -8.671875 2.078125 -8.933594 C 1.945312 -8.539062 1.679688 -8.183594 1.59375 -7.828125 C 1.460938 -7.296875 1.546875 -6.722656 1.503906 -6.191406 C 1.414062 -5.617188 1.238281 -5.042969 1.148438 -4.421875 C 1.0625 -3.847656 0.796875 -3.316406 0.707031 -2.742188 C 0.621094 -2.210938 0.441406 -1.8125 0.488281 -1.28125 C 0.488281 -0.972656 0.53125 -0.664062 0.574219 -0.398438 C 0.621094 -0.0429688 0.839844 0.175781 1.0625 0.441406 C 1.8125 1.328125 2.832031 2.035156 3.980469 2.34375 C 4.777344 2.566406 5.484375 2.519531 6.238281 2.125 C 7.296875 1.546875 8.226562 0.664062 9.023438 -0.175781 C 9.777344 -1.015625 10.351562 -1.945312 11.015625 -2.832031 C 11.632812 -3.628906 12.386719 -4.378906 13.003906 -5.175781 L 15.394531 -8.273438 L 16.765625 -10.085938 C 16.984375 -10.351562 17.117188 -10.570312 16.941406 -10.925781 Z M 5.972656 -10.441406 C 6.015625 -10.527344 6.015625 -10.570312 6.015625 -10.570312 C 6.679688 -11.988281 7.167969 -13.492188 8.09375 -14.863281 L 8.890625 -15.925781 C 9.066406 -16.144531 9.378906 -16.542969 9.6875 -16.632812 C 10.351562 -16.765625 10.527344 -15.613281 10.484375 -15.171875 L 10.308594 -14.242188 C 10.261719 -13.976562 10.351562 -13.800781 10.308594 -13.582031 C 10.21875 -13.316406 9.996094 -13.183594 9.863281 -12.960938 L 9.113281 -11.988281 C 8.09375 -10.792969 6.8125 -9.777344 5.398438 -9.023438 C 5.617188 -9.511719 5.75 -9.996094 5.972656 -10.441406 Z M 5.972656 -10.441406 "/></g></g></g><g fill="#004aad" fill-opacity="0.4"><g transform="translate(175.855228, 47.552802)"><g><path d="M 17.695312 -11.28125 C 17.074219 -10.617188 16.675781 -9.511719 16.191406 -8.714844 C 15.4375 -7.429688 14.6875 -6.191406 13.890625 -4.953125 C 12.386719 -2.566406 10.882812 -0.132812 9.066406 2.035156 C 8.316406 2.964844 6.722656 5.21875 5.21875 5.042969 C 4.113281 4.867188 4.113281 2.964844 4.113281 2.125 C 4.113281 1.414062 4.15625 0.707031 4.246094 0.0429688 C 4.289062 -0.355469 4.644531 -1.679688 4.421875 -2.035156 L 4.070312 -0.707031 C 4.113281 -1.238281 4.203125 -1.8125 4.335938 -2.34375 C 4.289062 -2.433594 4.6875 -3.671875 4.777344 -4.070312 C 5 -4.953125 5.21875 -5.839844 5.484375 -6.722656 C 5.707031 -7.609375 5.925781 -8.449219 6.191406 -9.289062 C 6.414062 -10.085938 6.722656 -10.484375 7.210938 -11.101562 C 9.199219 -13.582031 11.015625 -16.277344 12.695312 -18.976562 C 13.316406 -19.996094 13.710938 -20.878906 14.464844 -21.71875 C 15.570312 -22.871094 16.324219 -24.59375 17.03125 -26.011719 C 18.226562 -28.308594 19.816406 -31.496094 19.550781 -34.195312 L 19.550781 -34.414062 L 19.507812 -34.460938 C 19.242188 -36.183594 17.648438 -38.21875 15.703125 -37.601562 C 14.6875 -37.289062 13.933594 -36.226562 13.316406 -35.476562 L 12.296875 -34.105469 C 12.074219 -33.839844 11.765625 -33.175781 11.546875 -32.824219 L 11.589844 -32.867188 L 10.175781 -30.433594 L 10.527344 -31.1875 C 10.308594 -31.230469 9.332031 -29.328125 9.199219 -29.105469 C 8.714844 -28.265625 8.273438 -27.425781 7.875 -26.585938 C 6.988281 -24.816406 6.105469 -23.003906 5.53125 -21.101562 C 4.910156 -19.199219 4.203125 -17.339844 3.539062 -15.4375 C 3.183594 -14.421875 2.832031 -13.359375 2.519531 -12.339844 C 2.257812 -11.5 1.636719 -10.128906 1.769531 -9.246094 L 1.902344 -9.246094 C 1.769531 -8.933594 1.679688 -8.625 1.59375 -8.316406 C 1.636719 -8.582031 1.636719 -8.890625 1.679688 -8.980469 C 1.460938 -8.671875 1.503906 -7.609375 1.460938 -7.519531 C 0.882812 -5.132812 0.222656 -2.742188 0.0429688 -0.265625 C -0.0898438 2.078125 -0.0898438 5.175781 1.769531 6.902344 C 3.847656 8.804688 6.238281 7.519531 7.960938 5.882812 C 9.996094 3.894531 11.722656 1.546875 13.316406 -0.753906 C 14.773438 -2.875 15.925781 -5.132812 17.25 -7.253906 C 17.78125 -8.140625 18.359375 -9.023438 18.621094 -9.996094 C 18.800781 -10.703125 18.710938 -12.339844 17.695312 -11.28125 Z M 12.164062 -27.117188 C 13.050781 -29.238281 13.933594 -31.40625 15.171875 -33.398438 C 15.480469 -33.882812 17.472656 -36.539062 17.382812 -34.195312 L 17.382812 -34.148438 C 17.296875 -31.671875 15.703125 -29.0625 14.640625 -26.9375 L 12.785156 -23.488281 C 12.164062 -22.425781 11.101562 -21.101562 10.75 -19.949219 C 11.015625 -20.65625 11.8125 -21.675781 12.207031 -22.339844 C 12.871094 -23.445312 13.449219 -24.550781 14.066406 -25.65625 C 15.085938 -27.601562 16.191406 -29.636719 16.941406 -31.761719 C 14.953125 -25.832031 11.234375 -20.304688 7.960938 -15.039062 C 9.246094 -18.933594 10.527344 -23.179688 12.164062 -27.117188 Z M 10.75 -30.210938 C 11.191406 -31.054688 11.988281 -31.761719 12.429688 -32.558594 C 11.5 -30.699219 10.351562 -29.019531 9.378906 -27.25 C 9.378906 -27.292969 9.378906 -27.382812 9.421875 -27.425781 C 9.820312 -28.398438 10.261719 -29.285156 10.75 -30.210938 Z M 2.390625 -7.34375 C 2.34375 -7.253906 2.34375 -7.210938 2.34375 -7.210938 C 1.8125 -5.972656 1.769531 -4.289062 1.503906 -2.964844 C 1.460938 -2.652344 1.371094 -2.390625 1.371094 -2.078125 L 1.371094 -2.210938 L 1.238281 -0.796875 C 1.328125 -2.390625 1.503906 -4.023438 1.8125 -5.574219 L 1.8125 -5.53125 C 1.945312 -6.546875 2.167969 -7.476562 2.34375 -7.476562 C 2.433594 -7.519531 2.433594 -7.386719 2.390625 -7.34375 Z M 2.390625 -7.34375 "/></g></g></g><g fill="#004aad" fill-opacity="0.4"><g transform="translate(191.511442, 47.552802)"><g><path d="M 17.5625 -10.394531 C 17.429688 -11.015625 17.074219 -11.101562 16.632812 -10.925781 C 15.792969 -10.527344 14.953125 -9.644531 14.15625 -9.113281 C 12.339844 -7.960938 10.527344 -7.035156 8.582031 -6.058594 C 8.582031 -6.105469 8.539062 -6.191406 8.492188 -6.324219 C 8.539062 -6.105469 8.492188 -6.015625 8.449219 -5.972656 C 8.007812 -7.875 7.5625 -9.777344 7.210938 -11.722656 C 7.386719 -10.882812 7.785156 -9.464844 8.09375 -8.273438 C 7.695312 -10.128906 7.210938 -12.429688 7.253906 -12.429688 C 7.167969 -12.386719 7.167969 -12.296875 7.167969 -12.207031 C 7.078125 -12.738281 6.945312 -13.402344 7.035156 -13.976562 C 7.078125 -14.640625 7.429688 -15.21875 7.652344 -15.835938 C 7.609375 -15.527344 7.519531 -15.128906 7.519531 -15.128906 C 7.785156 -15.085938 7.960938 -16.722656 7.960938 -16.898438 C 7.917969 -17.164062 7.34375 -18.003906 7.34375 -17.78125 C 6.148438 -18.886719 3.804688 -16.457031 3.449219 -15.394531 C 3.183594 -14.6875 3.183594 -13.933594 3.230469 -13.183594 C 3.273438 -12.429688 3.496094 -11.765625 3.714844 -11.058594 C 3.847656 -10.527344 3.671875 -10.175781 3.714844 -9.597656 C 3.804688 -8.714844 4.113281 -7.828125 4.289062 -6.988281 C 4.46875 -6.324219 5.042969 -5 4.910156 -4.378906 C 4.820312 -3.761719 3.496094 -3.230469 2.917969 -2.875 C 2.167969 -2.390625 1.414062 -1.8125 0.664062 -1.238281 C -0.664062 -0.222656 -2.078125 1.0625 -2.609375 2.699219 C -2.699219 2.917969 -3.007812 3.894531 -2.699219 4.070312 C -2.652344 4.113281 -2.519531 3.363281 -2.476562 3.273438 C -3.050781 6.191406 -0.175781 7.609375 2.519531 7.652344 C 5.574219 7.742188 7.695312 5.972656 8.757812 3.230469 C 9.199219 2.035156 9.332031 0.796875 9.289062 -0.441406 C 9.289062 -1.28125 9.199219 -2.078125 9.066406 -2.875 C 8.980469 -3.582031 8.890625 -3.539062 9.378906 -3.9375 C 9.730469 -4.203125 10.261719 -4.378906 10.617188 -4.554688 C 12.03125 -5.308594 13.316406 -6.191406 14.597656 -7.121094 C 15.527344 -7.785156 17.738281 -8.933594 17.5625 -10.351562 Z M -0.308594 4.820312 C -1.460938 4.46875 -0.308594 2.652344 0.0898438 2.078125 C 0.753906 1.195312 1.726562 0.53125 2.609375 -0.0898438 L 3.9375 -0.972656 C 4.070312 -1.0625 4.910156 -1.726562 4.644531 -1.636719 L 5.175781 -1.945312 L 4.867188 -1.679688 C 4.953125 -1.726562 5.085938 -1.769531 5.175781 -1.859375 C 5.21875 -0.796875 5.21875 0.265625 4.910156 1.328125 C 4.867188 1.503906 4.023438 3.273438 3.671875 3.628906 L 3.894531 3.449219 C 3.496094 3.9375 3.050781 4.335938 2.519531 4.644531 C 2.519531 4.601562 2.917969 4.335938 2.875 4.289062 L 1.636719 4.777344 C 1.015625 4.910156 0.308594 5.042969 -0.308594 4.820312 Z M 5.265625 6.105469 C 4.113281 6.589844 3.007812 6.8125 1.8125 6.855469 C 3.980469 6.722656 6.238281 5.660156 7.519531 3.847656 C 7.035156 4.820312 6.414062 5.574219 5.265625 6.105469 Z M 8.492188 -6.457031 C 8.449219 -6.769531 8.359375 -7.210938 8.226562 -7.695312 C 8.316406 -7.210938 8.40625 -6.722656 8.492188 -6.457031 Z M 9.066406 -1.859375 C 9.023438 -1.902344 9.023438 -1.992188 9.023438 -2.078125 C 9.023438 -1.992188 9.066406 -1.902344 9.066406 -1.859375 Z M 9.066406 -1.859375 "/></g></g></g><g fill="#004aad" fill-opacity="0.4"><g transform="translate(205.840863, 47.552802)"><g><path d="M 16.941406 -10.925781 C 16.941406 -10.882812 16.941406 -10.882812 16.898438 -10.925781 L 16.898438 -10.96875 C 16.191406 -12.164062 15.261719 -10.527344 14.863281 -9.953125 C 14.109375 -8.933594 13.402344 -7.960938 12.605469 -7.035156 C 11.945312 -6.238281 11.234375 -5.441406 10.703125 -4.601562 C 10.703125 -4.511719 10.617188 -4.289062 10.617188 -4.289062 C 10.441406 -4.023438 10.175781 -3.804688 9.953125 -3.539062 C 9.554688 -3.140625 9.15625 -2.699219 8.714844 -2.300781 C 8.050781 -1.679688 4.335938 1.8125 3.847656 -0.441406 C 3.582031 -1.546875 3.9375 -2.917969 4.15625 -3.980469 C 4.289062 -4.554688 4.421875 -5.085938 4.511719 -5.660156 C 4.601562 -6.105469 4.46875 -6.546875 4.6875 -6.988281 C 4.820312 -7.253906 4.867188 -7.210938 5.175781 -7.296875 L 5.925781 -7.5625 C 6.414062 -7.742188 6.902344 -7.917969 7.34375 -8.183594 C 8.007812 -8.582031 8.625 -9.066406 9.199219 -9.554688 C 10.570312 -10.703125 12.03125 -12.074219 12.605469 -13.800781 C 12.917969 -14.773438 12.960938 -15.835938 12.339844 -16.675781 C 11.765625 -17.429688 10.792969 -17.828125 9.910156 -18.003906 C 7.519531 -18.445312 5.707031 -17.074219 4.335938 -15.261719 C 2.652344 -13.183594 1.460938 -10.617188 0.882812 -8.007812 C 0.574219 -6.722656 0.398438 -5.441406 0.175781 -4.113281 C -0.0429688 -2.785156 -0.175781 -1.546875 0.53125 -0.308594 C 0.488281 -0.753906 0.398438 -1.148438 0.398438 -1.546875 C 0.398438 -1.769531 0.488281 -1.992188 0.488281 -2.167969 C 0.488281 -2.257812 0.398438 -2.519531 0.398438 -2.652344 C 0.398438 -3.050781 0.488281 -3.363281 0.574219 -3.761719 C 0.621094 -4.15625 0.574219 -4.554688 0.621094 -4.953125 C 0.664062 -5.398438 0.839844 -5.75 1.015625 -6.148438 C 1.148438 -6.503906 1.195312 -6.8125 1.328125 -7.167969 C 1.460938 -7.476562 1.546875 -7.828125 1.679688 -8.183594 C 1.726562 -8.40625 1.945312 -8.671875 2.078125 -8.933594 C 1.945312 -8.539062 1.679688 -8.183594 1.59375 -7.828125 C 1.460938 -7.296875 1.546875 -6.722656 1.503906 -6.191406 C 1.414062 -5.617188 1.238281 -5.042969 1.148438 -4.421875 C 1.0625 -3.847656 0.796875 -3.316406 0.707031 -2.742188 C 0.621094 -2.210938 0.441406 -1.8125 0.488281 -1.28125 C 0.488281 -0.972656 0.53125 -0.664062 0.574219 -0.398438 C 0.621094 -0.0429688 0.839844 0.175781 1.0625 0.441406 C 1.8125 1.328125 2.832031 2.035156 3.980469 2.34375 C 4.777344 2.566406 5.484375 2.519531 6.238281 2.125 C 7.296875 1.546875 8.226562 0.664062 9.023438 -0.175781 C 9.777344 -1.015625 10.351562 -1.945312 11.015625 -2.832031 C 11.632812 -3.628906 12.386719 -4.378906 13.003906 -5.175781 L 15.394531 -8.273438 L 16.765625 -10.085938 C 16.984375 -10.351562 17.117188 -10.570312 16.941406 -10.925781 Z M 5.972656 -10.441406 C 6.015625 -10.527344 6.015625 -10.570312 6.015625 -10.570312 C 6.679688 -11.988281 7.167969 -13.492188 8.09375 -14.863281 L 8.890625 -15.925781 C 9.066406 -16.144531 9.378906 -16.542969 9.6875 -16.632812 C 10.351562 -16.765625 10.527344 -15.613281 10.484375 -15.171875 L 10.308594 -14.242188 C 10.261719 -13.976562 10.351562 -13.800781 10.308594 -13.582031 C 10.21875 -13.316406 9.996094 -13.183594 9.863281 -12.960938 L 9.113281 -11.988281 C 8.09375 -10.792969 6.8125 -9.777344 5.398438 -9.023438 C 5.617188 -9.511719 5.75 -9.996094 5.972656 -10.441406 Z M 5.972656 -10.441406 "/></g></g></g><g fill="#004aad" fill-opacity="0.4"><g transform="translate(219.595333, 47.552802)"><g><path d="M 18.3125 -10.527344 C 18.09375 -11.589844 17.472656 -10.882812 17.207031 -10.484375 C 16.589844 -9.730469 15.613281 -9.023438 14.863281 -8.316406 C 13.84375 -7.429688 12.828125 -6.503906 11.765625 -5.660156 C 11.234375 -5.21875 10.570312 -4.601562 9.910156 -4.378906 C 9.820312 -4.335938 9.511719 -4.289062 9.511719 -4.246094 L 9.464844 -4.289062 C 9.464844 -4.289062 9.421875 -5 9.464844 -5.042969 C 9.511719 -5.617188 9.6875 -6.191406 9.863281 -6.722656 C 9.910156 -6.8125 10.394531 -8.316406 10.308594 -8.316406 L 10.085938 -8.050781 C 10.351562 -8.582031 10.703125 -9.113281 11.015625 -9.6875 C 10.308594 -9.023438 9.820312 -8.273438 9.464844 -7.34375 C 9.289062 -6.902344 8.804688 -6.105469 8.714844 -5.441406 C 8.804688 -6.414062 9.464844 -7.695312 9.777344 -8.273438 C 10.21875 -9.199219 10.703125 -10.261719 11.28125 -11.148438 C 12.339844 -12.738281 14.640625 -14.199219 13.933594 -16.410156 C 13.316406 -18.488281 11.679688 -18.535156 10.394531 -17.339844 C 9.777344 -16.765625 4.511719 -10.042969 4.644531 -9.953125 C 4.644531 -9.953125 5.085938 -10.484375 5.660156 -11.234375 L 3.050781 -7.429688 C 3.007812 -7.429688 3.496094 -8.183594 3.449219 -8.226562 C 3.40625 -8.273438 3.097656 -7.960938 3.050781 -7.785156 C 3.140625 -8.714844 3.449219 -9.644531 3.539062 -10.570312 C 3.582031 -10.925781 3.539062 -11.191406 3.628906 -11.546875 C 3.804688 -12.121094 3.980469 -12.738281 4.246094 -13.226562 C 4.421875 -13.582031 4.777344 -13.890625 4.867188 -14.242188 C 5.042969 -14.820312 5 -15.039062 5.398438 -15.527344 C 5.75 -15.96875 6.28125 -16.410156 6.589844 -16.808594 C 7.34375 -17.914062 6.058594 -18.667969 5.351562 -18.800781 C 4.777344 -18.886719 4.203125 -18.933594 3.671875 -18.621094 C 3.097656 -18.269531 3.230469 -17.960938 3.097656 -17.472656 C 2.964844 -16.855469 2.519531 -16.144531 2.300781 -15.570312 C 1.945312 -14.640625 1.636719 -13.710938 1.328125 -12.785156 C 0.972656 -11.855469 0.621094 -10.96875 0.355469 -10.042969 C 0.132812 -9.289062 0.175781 -8.582031 0.0898438 -7.875 C 0 -7.078125 -0.132812 -6.546875 0.265625 -5.839844 C 0.707031 -5.085938 1.902344 -3.9375 2.699219 -4.910156 L 2.875 -4.554688 C 3.628906 -6.191406 4.777344 -7.652344 5.707031 -9.246094 C 6.105469 -9.953125 6.8125 -10.441406 7.386719 -11.191406 C 8.183594 -12.253906 8.890625 -13.316406 9.777344 -14.332031 C 9.644531 -14.109375 9.066406 -13.09375 9.113281 -13.050781 C 9.199219 -13.09375 9.246094 -13.183594 9.332031 -13.269531 L 8.714844 -12.03125 C 8.671875 -12.074219 8.890625 -12.386719 8.804688 -12.386719 C 8.492188 -12.472656 7.5625 -9.996094 7.476562 -9.777344 C 7.167969 -8.804688 7.121094 -7.917969 7.035156 -6.902344 C 6.988281 -6.414062 6.902344 -5.925781 6.902344 -5.441406 C 6.902344 -4.953125 6.945312 -4.46875 7.167969 -3.980469 C 7.296875 -3.714844 7.476562 -3.363281 7.695312 -3.140625 C 7.742188 -3.140625 8.226562 -2.699219 8.007812 -3.050781 L 8.273438 -2.785156 L 8.140625 -2.875 C 8.09375 -2.652344 9.730469 -1.769531 9.996094 -1.679688 C 11.234375 -1.28125 12.5625 -2.699219 13.359375 -3.539062 C 14.421875 -4.6875 15.304688 -6.015625 16.277344 -7.253906 C 16.808594 -7.960938 18.488281 -9.464844 18.3125 -10.527344 Z M 18.3125 -10.527344 "/></g></g></g><g fill="#000000" fill-opacity="1"><g transform="translate(9.023442, 45.597714)"><g><path d="M 19.019531 -15.570312 C 24.59375 -18.003906 30.125 -24.550781 29.328125 -30.921875 C 29.105469 -33.042969 27.558594 -35.609375 25.082031 -35.210938 C 23.753906 -34.988281 22.472656 -33.574219 21.542969 -32.691406 C 20.347656 -31.496094 19.199219 -30.210938 18.136719 -28.886719 C 15.925781 -26.1875 13.890625 -23.269531 12.03125 -20.304688 C 11.191406 -18.886719 10.394531 -17.429688 9.644531 -15.96875 C 9.199219 -15.171875 8.804688 -14.375 8.449219 -13.535156 C 8.140625 -12.871094 7.519531 -11.988281 7.429688 -11.234375 C 7.5625 -12.03125 8.40625 -13.316406 8.804688 -14.109375 C 9.332031 -15.21875 9.910156 -16.324219 10.484375 -17.429688 C 11.722656 -19.597656 13.050781 -21.71875 14.464844 -23.753906 C 10.703125 -18.226562 7.519531 -12.121094 5.617188 -5.660156 L 5.792969 -7.34375 C 5.792969 -7.476562 6.015625 -9.597656 5.972656 -9.554688 C 5.882812 -9.464844 5.839844 -9.378906 5.792969 -9.289062 C 6.015625 -10.703125 6.589844 -12.296875 6.988281 -13.710938 C 7.476562 -15.480469 7.828125 -17.25 8.316406 -19.019531 C 8.847656 -20.878906 9.511719 -22.648438 10.261719 -24.417969 C 10.484375 -24.816406 12.5625 -29.328125 12.785156 -29.460938 C 12.472656 -29.328125 10.660156 -25.566406 10.21875 -24.640625 C 11.28125 -27.117188 12.519531 -29.503906 14.109375 -31.671875 C 13.976562 -31.449219 13.800781 -31.140625 13.84375 -31.140625 C 13.976562 -31.097656 15.128906 -32.601562 15.039062 -32.644531 C 14.953125 -32.644531 14.863281 -32.601562 14.820312 -32.558594 C 15.085938 -32.867188 15.347656 -32.953125 15.347656 -33.484375 C 15.304688 -34.195312 14.640625 -35.167969 13.976562 -35.433594 C 12.519531 -35.964844 11.546875 -34.0625 10.75 -33.441406 C 9.464844 -32.378906 8.890625 -30.921875 8.09375 -29.460938 C 7.917969 -29.0625 5.792969 -24.375 5.925781 -24.328125 L 5.617188 -23.355469 C 5.574219 -23.398438 5.75 -23.664062 5.660156 -23.710938 C 5.21875 -23.796875 4.113281 -19.863281 4.023438 -19.550781 C 3.894531 -18.667969 3.671875 -17.871094 3.40625 -16.984375 C 3.273438 -16.542969 3.097656 -16.058594 3.007812 -15.570312 C 2.964844 -15.527344 2.832031 -14.375 3.007812 -14.820312 C 3.007812 -14.6875 2.964844 -14.597656 2.964844 -14.507812 C 2.917969 -14.554688 2.917969 -14.597656 2.917969 -14.640625 C 2.785156 -14.597656 2.652344 -13.226562 2.609375 -13.050781 C 2.34375 -12.339844 2.078125 -11.679688 1.902344 -10.925781 C 1.460938 -9.113281 1.371094 -7.210938 1.28125 -5.351562 C 1.238281 -3.804688 0.882812 -1.679688 1.546875 -0.222656 C 2.125 1.195312 3.9375 2.125 5.175781 0.796875 L 5.308594 1.0625 C 5.617188 -0.707031 5.972656 -2.433594 6.503906 -4.15625 C 7.5625 -7.519531 9.023438 -10.617188 10.394531 -13.84375 C 10.835938 -14.90625 11.679688 -15.746094 12.296875 -16.765625 C 13.316406 -18.488281 14.332031 -20.171875 15.4375 -21.851562 C 17.339844 -24.816406 19.507812 -27.78125 22.027344 -30.257812 C 22.515625 -30.742188 23.445312 -31.894531 24.242188 -31.671875 C 25.433594 -31.363281 24.859375 -28.664062 24.285156 -27.335938 L 24.242188 -27.203125 L 24.195312 -27.160156 L 24.195312 -27.117188 C 23.84375 -26.144531 23.355469 -25.214844 22.871094 -24.285156 C 22.871094 -24.328125 23.222656 -25.125 23.222656 -25.125 C 23.003906 -25.167969 21.585938 -22.738281 21.367188 -22.425781 C 20.480469 -21.234375 19.550781 -20.082031 18.488281 -19.066406 C 17.515625 -18.09375 16.457031 -17.25 15.347656 -16.457031 C 14.6875 -16.058594 13.757812 -15.835938 13.183594 -15.394531 C 11.898438 -14.375 15.128906 -12.296875 16.277344 -12.605469 C 17.25 -12.871094 17.960938 -13.449219 19.066406 -13.316406 C 19.597656 -13.226562 20.082031 -13.050781 20.480469 -12.652344 C 20.523438 -12.652344 21.054688 -12.03125 21.1875 -11.8125 L 21.1875 -11.945312 C 21.410156 -11.457031 21.5 -10.96875 21.542969 -10.484375 C 21.5 -10.703125 21.320312 -11.015625 21.277344 -11.324219 C 21.277344 -10.835938 21.453125 -9.996094 21.542969 -9.953125 C 21.808594 -9.6875 21.277344 -7.917969 21.011719 -7.34375 C 20.480469 -6.191406 19.683594 -5.132812 18.84375 -4.15625 C 17.03125 -2.125 14.820312 -0.488281 12.472656 0.929688 C 9.996094 2.433594 7.296875 3.714844 4.46875 4.554688 C 3.273438 4.953125 2.035156 5.132812 0.753906 5.351562 C 0.222656 5.441406 -0.265625 5.398438 0.175781 5.925781 C 0.621094 6.546875 2.519531 6.722656 3.230469 6.8125 C 4.554688 7.078125 5.882812 6.988281 7.253906 6.722656 C 9.464844 6.28125 11.765625 5.484375 13.800781 4.554688 C 18.667969 2.390625 23.488281 -1.28125 25.167969 -6.503906 C 25.65625 -8.007812 25.964844 -9.777344 25.65625 -11.324219 C 24.992188 -14.464844 21.984375 -15.835938 19.019531 -15.570312 Z M 20.96875 -4.511719 C 20.65625 -3.671875 19.90625 -2.785156 19.242188 -2.210938 C 18.621094 -1.679688 17.960938 -1.414062 17.429688 -1.015625 L 18.933594 -2.609375 C 20.039062 -3.894531 20.878906 -5.085938 21.632812 -6.636719 L 21.851562 -7.167969 C 21.761719 -6.414062 21.277344 -5.21875 20.96875 -4.511719 Z M 26.453125 -23.355469 C 26.894531 -24.109375 27.558594 -25.082031 28 -26.054688 C 27.558594 -24.59375 27.027344 -23.398438 25.921875 -22.160156 C 25.523438 -21.761719 25.167969 -21.320312 24.773438 -20.878906 C 25.390625 -21.675781 25.964844 -22.472656 26.453125 -23.355469 Z M 3.183594 -9.644531 C 2.917969 -9.023438 2.785156 -8.050781 2.832031 -7.386719 C 2.742188 -8.359375 2.875 -9.6875 3.140625 -10.617188 C 3.273438 -11.015625 3.582031 -11.5 3.804688 -11.945312 C 3.804688 -11.722656 3.804688 -11.457031 3.761719 -11.191406 C 3.671875 -10.617188 3.40625 -10.128906 3.183594 -9.644531 Z M 9.421875 -22.691406 C 9.421875 -22.78125 9.464844 -22.871094 9.511719 -22.957031 Z M 17.914062 -28.398438 L 17.605469 -28.089844 Z M 10.128906 -24.460938 C 10.128906 -24.507812 10.175781 -24.59375 10.21875 -24.640625 Z M 10.128906 -24.460938 "/></g></g></g><g fill="#000000" fill-opacity="1"><g transform="translate(37.461137, 45.597714)"><g><path d="M 18.136719 -10.75 C 17.871094 -11.898438 16.808594 -10.351562 16.589844 -10.085938 L 14.15625 -6.8125 L 11.765625 -3.671875 L 10.484375 -2.035156 C 10.351562 -1.859375 9.378906 -0.621094 9.464844 -0.621094 C 9.554688 -0.707031 9.6875 -0.707031 9.820312 -0.839844 C 9.15625 -0.132812 6.722656 2.078125 6.28125 1.546875 C 5.925781 1.105469 6.902344 -0.753906 7.035156 -1.195312 C 7.519531 -2.476562 7.960938 -3.804688 8.492188 -5.042969 C 9.066406 -6.324219 9.730469 -7.609375 10.261719 -8.890625 C 10.792969 -10.261719 9.996094 -10.75 8.714844 -11.058594 C 8.140625 -11.191406 7.429688 -11.191406 6.769531 -11.28125 C 6.769531 -11.234375 6.8125 -11.234375 6.8125 -11.234375 C 7.386719 -11.148438 8.226562 -11.101562 8.933594 -10.882812 C 7.875 -11.191406 6.546875 -11.058594 5.707031 -11.28125 C 5.132812 -11.414062 4.777344 -11.414062 4.867188 -12.074219 C 4.953125 -12.960938 5.882812 -13.890625 6.191406 -14.730469 C 6.191406 -14.6875 5.882812 -13.890625 5.925781 -13.890625 C 6.148438 -13.800781 6.503906 -15.039062 6.503906 -15.21875 C 6.457031 -15.4375 5.925781 -16.101562 5.882812 -15.835938 L 5.972656 -15.703125 C 3.847656 -17.164062 1.328125 -14.15625 1.769531 -11.988281 C 1.859375 -11.679688 2.035156 -11.5 2.167969 -11.148438 C 2.257812 -10.882812 2.167969 -10.570312 2.433594 -10.21875 C 3.363281 -9.066406 5.042969 -9.023438 6.371094 -9.289062 C 6.148438 -8.980469 3.804688 -4.023438 3.9375 -3.980469 L 3.628906 -2.875 C 3.582031 -2.917969 3.761719 -3.273438 3.671875 -3.273438 C 3.363281 -3.316406 2.742188 -0.753906 2.699219 -0.53125 C 2.519531 0.53125 2.566406 1.460938 3.007812 2.433594 C 3.273438 3.050781 3.582031 3.582031 4.15625 3.9375 C 4.6875 4.289062 5.351562 4.46875 5.972656 4.335938 C 6.191406 4.246094 7.035156 3.671875 6.8125 3.714844 L 7.121094 3.582031 C 7.078125 3.628906 7.035156 3.671875 7.035156 3.714844 C 7.167969 3.761719 9.199219 2.125 9.464844 1.945312 C 10.882812 0.753906 12.03125 -0.707031 13.09375 -2.167969 C 14.15625 -3.671875 15.261719 -5.175781 16.277344 -6.679688 C 16.765625 -7.386719 17.207031 -8.09375 17.5625 -8.847656 C 17.828125 -9.378906 18.269531 -10.128906 18.136719 -10.75 Z M 4.910156 -5.441406 C 5.21875 -6.238281 5.574219 -6.988281 5.972656 -7.742188 C 6.058594 -7.875 6.679688 -9.464844 6.988281 -9.554688 C 6.769531 -9.421875 5.839844 -7.253906 5.617188 -6.855469 L 4.777344 -4.910156 C 4.335938 -3.847656 3.847656 -2.742188 3.539062 -1.59375 C 3.847656 -2.917969 4.378906 -4.203125 4.910156 -5.441406 Z M 3.847656 3.050781 C 4.113281 3.40625 4.46875 3.761719 4.953125 3.9375 C 4.554688 3.804688 4.203125 3.582031 3.9375 3.316406 C 3.980469 3.316406 3.980469 3.363281 3.980469 3.40625 C 3.714844 3.050781 3.363281 2.300781 3.316406 2.167969 C 3.183594 1.636719 3.140625 1.015625 3.183594 0.488281 C 3.183594 0.0429688 3.230469 -0.308594 3.316406 -0.707031 L 3.316406 -0.664062 C 3.230469 -0.0898438 3.183594 0.488281 3.230469 1.105469 L 3.230469 1.328125 C 3.183594 1.28125 3.183594 1.238281 3.183594 1.238281 C 3.183594 1.238281 3.183594 1.28125 3.230469 1.371094 L 3.230469 1.414062 L 3.40625 2.34375 L 3.273438 1.769531 C 3.363281 2.035156 3.582031 2.519531 3.804688 3.007812 L 3.761719 2.964844 C 3.761719 3.007812 3.804688 3.050781 3.847656 3.097656 Z M 5.085938 -11.546875 C 5.308594 -11.367188 5.707031 -11.324219 6.105469 -11.28125 C 5.75 -11.324219 5.441406 -11.414062 5.21875 -11.589844 C 5.21875 -11.589844 4.953125 -11.8125 4.910156 -11.898438 C 4.910156 -11.8125 5 -11.589844 5.085938 -11.546875 Z M 9.730469 -8.09375 L 8.804688 -6.148438 L 9.730469 -8.140625 Z M 3.363281 -0.839844 C 3.363281 -0.796875 3.316406 -0.753906 3.316406 -0.707031 L 3.316406 -0.753906 C 3.316406 -0.796875 3.363281 -0.796875 3.363281 -0.839844 Z M 9.777344 -8.226562 L 9.777344 -8.183594 L 9.730469 -8.183594 Z M 9.777344 -8.226562 L 9.777344 -8.183594 L 9.730469 -8.183594 Z M 3.40625 -1.414062 C 3.40625 -1.460938 3.449219 -1.503906 3.449219 -1.59375 C 3.449219 -1.503906 3.40625 -1.460938 3.40625 -1.414062 Z M 3.582031 2.652344 C 3.582031 2.652344 3.628906 2.699219 3.628906 2.742188 C 3.628906 2.699219 3.582031 2.699219 3.582031 2.652344 Z M 4.953125 -11.988281 C 4.910156 -11.988281 4.910156 -11.945312 4.910156 -11.945312 Z M 4.953125 -11.988281 "/></g></g></g><g fill="#000000" fill-opacity="1"><g transform="translate(52.365498, 45.597714)"><g><path d="M 11.589844 -10.882812 C 11.5 -11.457031 10.882812 -11.28125 10.570312 -11.058594 C 10.175781 -10.792969 7.960938 -7.875 8.140625 -7.652344 C 8.273438 -7.652344 8.359375 -7.652344 8.449219 -7.742188 C 7.828125 -6.988281 6.679688 -6.148438 5.839844 -5.484375 C 5.351562 -5.085938 4.15625 -3.980469 3.449219 -4.335938 C 1.945312 -5.085938 5 -10.394531 4.867188 -10.441406 C 4.734375 -10.484375 3.628906 -8.007812 3.40625 -7.429688 C 3.9375 -8.980469 4.644531 -10.527344 5.484375 -11.898438 C 5.441406 -11.765625 5.308594 -11.546875 5.398438 -11.546875 C 5.484375 -11.5 6.148438 -12.429688 6.015625 -12.519531 C 5.972656 -12.519531 5.882812 -12.519531 5.839844 -12.472656 C 5.972656 -12.605469 6.191406 -12.652344 6.191406 -12.917969 C 6.191406 -13.359375 5.175781 -13.800781 4.820312 -13.933594 C 3.980469 -14.289062 3.140625 -14.375 2.476562 -13.933594 C 1.59375 -13.402344 1.414062 -12.339844 1.0625 -11.414062 C 0.972656 -11.148438 0.132812 -8.007812 0.308594 -7.960938 C 0.398438 -8.007812 0.398438 -8.050781 0.441406 -8.140625 L 0.308594 -7.34375 C 0.265625 -7.34375 0.355469 -7.5625 0.265625 -7.5625 C -0.0898438 -7.5625 0 -5.972656 0.0429688 -5.75 C 0.222656 -4.953125 0.839844 -4.378906 1.328125 -3.714844 C 1.59375 -3.316406 1.859375 -2.917969 2.257812 -2.652344 C 2.785156 -2.257812 2.433594 -2.652344 2.785156 -2.476562 L 2.699219 -2.476562 C 2.652344 -2.210938 4.335938 -1.769531 4.6875 -1.8125 C 6.238281 -2.167969 7.34375 -4.070312 8.226562 -5.265625 C 9.066406 -6.324219 9.777344 -7.386719 10.527344 -8.492188 C 10.96875 -9.066406 11.765625 -10.042969 11.589844 -10.882812 Z M 3.847656 -16.457031 C 3.9375 -16.324219 3.804688 -16.144531 4.113281 -15.96875 C 4.421875 -15.835938 4.601562 -16.011719 4.867188 -16.101562 C 5.398438 -16.324219 5.792969 -16.898438 6.191406 -17.25 C 6.324219 -17.339844 6.058594 -17.296875 6.058594 -17.296875 C 6.636719 -17.828125 6.148438 -17.207031 6.679688 -17.515625 C 7.210938 -17.871094 7.296875 -18.445312 7.742188 -18.933594 C 7.210938 -18.710938 6.8125 -18.402344 6.457031 -17.960938 C 6.015625 -17.382812 5.707031 -17.117188 5.21875 -16.808594 C 5.75 -17.207031 6.015625 -17.605469 6.457031 -18.3125 C 6.589844 -18.445312 6.722656 -18.535156 6.902344 -18.621094 C 6.769531 -18.753906 6.769531 -18.886719 6.945312 -19.019531 C 7.078125 -19.242188 7.34375 -19.332031 7.476562 -19.550781 C 7.695312 -19.863281 7.652344 -20.257812 7.917969 -20.570312 C 8.140625 -20.746094 8.449219 -20.878906 8.625 -21.054688 C 9.023438 -21.410156 9.464844 -22.074219 9.289062 -22.648438 C 9.113281 -23.179688 8.671875 -23.84375 8.183594 -24.152344 C 7.609375 -24.460938 6.8125 -24.59375 6.191406 -24.328125 C 6.058594 -24.285156 5.53125 -24.152344 5.707031 -23.976562 C 5.75 -23.886719 5.792969 -23.886719 5.882812 -23.886719 C 5.484375 -23.578125 4.820312 -23.046875 5.75 -22.691406 C 5.660156 -22.605469 5.75 -22.207031 5.75 -22.160156 C 5.707031 -21.851562 5.085938 -20.214844 4.6875 -19.417969 L 5.21875 -20.214844 C 4.910156 -19.550781 4.554688 -18.933594 4.15625 -18.402344 C 4.421875 -18.976562 3.894531 -18.3125 3.894531 -18.179688 C 3.40625 -18.402344 3.539062 -17.03125 3.582031 -16.898438 C 3.582031 -16.855469 3.847656 -16.457031 3.847656 -16.457031 Z M 3.007812 -5.925781 L 3.007812 -5.882812 L 2.917969 -5.617188 L 3.007812 -5.972656 C 3.050781 -6.015625 3.050781 -6.015625 3.007812 -5.925781 Z M 4.46875 -19.066406 C 4.46875 -19.066406 4.554688 -19.152344 4.644531 -19.332031 Z M 4.023438 -18.226562 C 4.023438 -18.179688 4.023438 -18.179688 3.980469 -18.136719 C 3.980469 -18.136719 3.980469 -18.179688 3.9375 -18.179688 C 3.980469 -18.179688 3.980469 -18.179688 4.023438 -18.226562 Z M 4.023438 -18.226562 "/></g></g></g><g fill="#000000" fill-opacity="1"><g transform="translate(60.724319, 45.597714)"><g><path d="M 22.515625 -10.660156 C 22.472656 -11.632812 21.675781 -10.792969 21.410156 -10.441406 C 20.835938 -9.597656 20.304688 -8.714844 19.773438 -7.875 C 18.578125 -6.058594 17.382812 -4.246094 16.011719 -2.519531 C 11.457031 3.097656 14.640625 -6.902344 14.289062 -6.8125 C 14.109375 -6.769531 13.976562 -6.105469 13.933594 -5.972656 C 14.289062 -7.5625 14.953125 -9.464844 15.792969 -11.015625 C 16.277344 -11.988281 16.855469 -12.785156 15.96875 -13.84375 C 14.332031 -15.835938 12.429688 -14.023438 11.367188 -12.652344 C 10.925781 -14.332031 10.042969 -16.808594 7.875 -16.808594 C 6.902344 -16.808594 6.324219 -16.324219 5.660156 -15.746094 C 5.265625 -15.480469 4.953125 -15.4375 4.601562 -15.128906 C 4.023438 -14.730469 3.628906 -14.109375 3.230469 -13.582031 C 1.726562 -11.367188 0.664062 -8.582031 0.175781 -6.015625 C -0.0429688 -4.777344 -0.132812 -3.40625 0.222656 -2.167969 C 0.441406 -1.460938 1.238281 0.132812 2.257812 0 C 2.300781 0 2.210938 -0.0429688 2.078125 -0.132812 C 2.699219 0.0429688 3.40625 -0.0429688 3.9375 -0.398438 C 3.980469 -0.308594 3.449219 -0.0898438 3.449219 -0.0898438 C 3.9375 0.664062 7.5625 -3.714844 7.828125 -4.113281 C 8.40625 -4.910156 8.804688 -5.75 9.332031 -6.589844 C 9.730469 -7.210938 10.351562 -8.007812 10.792969 -8.671875 C 10.75 -8.359375 10.75 -7.960938 10.75 -7.960938 C 9.953125 -5.441406 9.199219 -2.699219 10.261719 -0.0898438 C 10.75 1.238281 11.945312 2.476562 13.449219 2.210938 C 14.773438 1.992188 15.878906 0.707031 16.675781 -0.308594 C 17.648438 -1.460938 18.488281 -2.742188 19.332031 -4.070312 C 20.039062 -5.265625 20.703125 -6.457031 21.277344 -7.785156 C 21.632812 -8.625 22.605469 -9.644531 22.515625 -10.660156 Z M 9.820312 -10.351562 C 9.597656 -10.042969 9.378906 -9.730469 9.199219 -9.421875 L 8.050781 -7.785156 C 7.296875 -6.679688 6.503906 -5.617188 5.660156 -4.601562 C 5.441406 -4.289062 4.378906 -2.917969 3.9375 -3.050781 C 3.273438 -3.273438 3.980469 -5.574219 4.070312 -5.925781 C 4.203125 -6.546875 6.546875 -13.359375 7.167969 -13.492188 C 6.371094 -13.535156 3.804688 -5.53125 3.671875 -4.867188 C 4.023438 -7.035156 4.820312 -9.15625 5.707031 -11.148438 C 6.191406 -12.164062 7.296875 -14.863281 8.757812 -14.863281 C 9.554688 -14.863281 9.730469 -13.226562 9.863281 -12.695312 C 9.820312 -12.785156 9.421875 -14.066406 9.378906 -14.023438 C 9.15625 -13.84375 10.042969 -11.414062 10.042969 -11.058594 C 10.042969 -10.703125 10.042969 -10.703125 9.820312 -10.351562 Z M 10.835938 -8.183594 C 10.835938 -8.183594 10.96875 -8.804688 11.015625 -8.933594 L 11.234375 -9.246094 Z M 10.175781 -10.925781 L 10.175781 -11.367188 C 10.308594 -11.191406 10.308594 -11.058594 10.175781 -10.925781 Z M 10.175781 -10.925781 "/></g></g></g><g fill="#000000" fill-opacity="1"><g transform="translate(80.007108, 45.597714)"><g><path d="M 18.3125 -10.527344 C 18.09375 -11.589844 17.472656 -10.882812 17.207031 -10.484375 C 16.589844 -9.730469 15.613281 -9.023438 14.863281 -8.316406 C 13.84375 -7.429688 12.828125 -6.503906 11.765625 -5.660156 C 11.234375 -5.21875 10.570312 -4.601562 9.910156 -4.378906 C 9.820312 -4.335938 9.511719 -4.289062 9.511719 -4.246094 L 9.464844 -4.289062 C 9.464844 -4.289062 9.421875 -5 9.464844 -5.042969 C 9.511719 -5.617188 9.6875 -6.191406 9.863281 -6.722656 C 9.910156 -6.8125 10.394531 -8.316406 10.308594 -8.316406 L 10.085938 -8.050781 C 10.351562 -8.582031 10.703125 -9.113281 11.015625 -9.6875 C 10.308594 -9.023438 9.820312 -8.273438 9.464844 -7.34375 C 9.289062 -6.902344 8.804688 -6.105469 8.714844 -5.441406 C 8.804688 -6.414062 9.464844 -7.695312 9.777344 -8.273438 C 10.21875 -9.199219 10.703125 -10.261719 11.28125 -11.148438 C 12.339844 -12.738281 14.640625 -14.199219 13.933594 -16.410156 C 13.316406 -18.488281 11.679688 -18.535156 10.394531 -17.339844 C 9.777344 -16.765625 4.511719 -10.042969 4.644531 -9.953125 C 4.644531 -9.953125 5.085938 -10.484375 5.660156 -11.234375 L 3.050781 -7.429688 C 3.007812 -7.429688 3.496094 -8.183594 3.449219 -8.226562 C 3.40625 -8.273438 3.097656 -7.960938 3.050781 -7.785156 C 3.140625 -8.714844 3.449219 -9.644531 3.539062 -10.570312 C 3.582031 -10.925781 3.539062 -11.191406 3.628906 -11.546875 C 3.804688 -12.121094 3.980469 -12.738281 4.246094 -13.226562 C 4.421875 -13.582031 4.777344 -13.890625 4.867188 -14.242188 C 5.042969 -14.820312 5 -15.039062 5.398438 -15.527344 C 5.75 -15.96875 6.28125 -16.410156 6.589844 -16.808594 C 7.34375 -17.914062 6.058594 -18.667969 5.351562 -18.800781 C 4.777344 -18.886719 4.203125 -18.933594 3.671875 -18.621094 C 3.097656 -18.269531 3.230469 -17.960938 3.097656 -17.472656 C 2.964844 -16.855469 2.519531 -16.144531 2.300781 -15.570312 C 1.945312 -14.640625 1.636719 -13.710938 1.328125 -12.785156 C 0.972656 -11.855469 0.621094 -10.96875 0.355469 -10.042969 C 0.132812 -9.289062 0.175781 -8.582031 0.0898438 -7.875 C 0 -7.078125 -0.132812 -6.546875 0.265625 -5.839844 C 0.707031 -5.085938 1.902344 -3.9375 2.699219 -4.910156 L 2.875 -4.554688 C 3.628906 -6.191406 4.777344 -7.652344 5.707031 -9.246094 C 6.105469 -9.953125 6.8125 -10.441406 7.386719 -11.191406 C 8.183594 -12.253906 8.890625 -13.316406 9.777344 -14.332031 C 9.644531 -14.109375 9.066406 -13.09375 9.113281 -13.050781 C 9.199219 -13.09375 9.246094 -13.183594 9.332031 -13.269531 L 8.714844 -12.03125 C 8.671875 -12.074219 8.890625 -12.386719 8.804688 -12.386719 C 8.492188 -12.472656 7.5625 -9.996094 7.476562 -9.777344 C 7.167969 -8.804688 7.121094 -7.917969 7.035156 -6.902344 C 6.988281 -6.414062 6.902344 -5.925781 6.902344 -5.441406 C 6.902344 -4.953125 6.945312 -4.46875 7.167969 -3.980469 C 7.296875 -3.714844 7.476562 -3.363281 7.695312 -3.140625 C 7.742188 -3.140625 8.226562 -2.699219 8.007812 -3.050781 L 8.273438 -2.785156 L 8.140625 -2.875 C 8.09375 -2.652344 9.730469 -1.769531 9.996094 -1.679688 C 11.234375 -1.28125 12.5625 -2.699219 13.359375 -3.539062 C 14.421875 -4.6875 15.304688 -6.015625 16.277344 -7.253906 C 16.808594 -7.960938 18.488281 -9.464844 18.3125 -10.527344 Z M 18.3125 -10.527344 "/></g></g></g><g fill="#000000" fill-opacity="1"><g transform="translate(95.088372, 45.597714)"><g/></g></g><g fill="#000000" fill-opacity="1"><g transform="translate(107.471817, 45.597714)"><g><path d="M 28.175781 1.503906 C 27.515625 2.34375 26.1875 3.316406 25.035156 3.449219 C 24.59375 3.496094 24.152344 3.363281 23.710938 3.230469 C 23.53125 3.140625 21.894531 2.390625 21.894531 2.476562 L 22.117188 2.742188 C 21.320312 2.210938 20.390625 1.195312 19.640625 0.441406 C 18.535156 -0.664062 17.382812 -1.679688 16.234375 -2.742188 C 15.878906 -3.183594 12.695312 -6.988281 11.28125 -8.847656 C 11.722656 -8.09375 12.429688 -7.121094 12.785156 -6.589844 C 11.589844 -8.050781 10.617188 -9.597656 9.644531 -11.191406 C 11.988281 -12.339844 14.289062 -13.933594 16.191406 -15.660156 C 16.855469 -16.277344 17.339844 -16.984375 18.046875 -17.5625 C 19.066406 -18.445312 19.996094 -19.464844 21.011719 -20.347656 C 21.5 -20.789062 22.117188 -21.277344 22.515625 -21.808594 C 22.914062 -22.339844 23.089844 -22.824219 23.578125 -23.3125 C 24.550781 -24.328125 25.347656 -25.347656 26.230469 -26.363281 C 27.46875 -27.824219 28.441406 -29.238281 28.132812 -31.140625 L 28.132812 -31.230469 C 27.957031 -32.070312 27.203125 -33.839844 26.277344 -34.0625 C 25.613281 -34.195312 25.746094 -33.664062 25.613281 -33.21875 C 24.859375 -30.609375 22.648438 -28.132812 20.96875 -26.011719 C 19.152344 -23.796875 17.074219 -22.027344 15.171875 -19.949219 C 13.269531 -18.003906 11.28125 -16.324219 9.113281 -14.640625 C 9.464844 -16.011719 10.261719 -17.296875 10.527344 -18.667969 C 10.617188 -19.417969 10.75 -20.039062 11.058594 -20.746094 L 11.855469 -22.738281 C 12.296875 -24.019531 12.738281 -25.257812 13.226562 -26.496094 C 13.535156 -27.382812 14.023438 -28.308594 14.289062 -29.238281 C 14.421875 -29.769531 14.332031 -30.078125 14.507812 -30.523438 C 15.039062 -31.761719 16.367188 -32.734375 14.820312 -33.796875 C 14.066406 -34.371094 12.386719 -34.855469 11.8125 -33.839844 C 11.8125 -33.796875 11.855469 -33.707031 11.898438 -33.664062 L 11.589844 -32.910156 C 11.28125 -32.292969 11.015625 -31.671875 10.835938 -31.097656 C 9.597656 -28.132812 8.625 -25.125 7.609375 -22.160156 C 6.546875 -18.800781 5.308594 -15.480469 4.335938 -12.121094 C 4.023438 -10.792969 3.847656 -9.511719 3.363281 -8.226562 C 2.785156 -6.589844 2.300781 -4.953125 1.902344 -3.273438 C 1.414062 -1.371094 0.574219 0.707031 1.902344 2.476562 C 2.34375 3.140625 3.761719 4.820312 4.378906 3.671875 C 4.6875 3.140625 4.644531 2.210938 4.777344 1.636719 L 5.308594 -0.664062 C 5.75 -2.519531 6.191406 -4.378906 6.769531 -6.28125 C 7.210938 -7.5625 7.253906 -8.847656 7.652344 -10.128906 L 8.449219 -8.582031 C 8.625 -8.492188 8.757812 -8.359375 8.804688 -8.183594 C 8.671875 -8.140625 8.625 -8.007812 8.671875 -7.875 C 8.890625 -7.035156 9.511719 -6.238281 9.953125 -5.53125 C 10.21875 -5.132812 12.828125 -0.972656 12.917969 -1.105469 L 12.917969 -1.195312 L 13.492188 -0.488281 C 13.402344 -0.398438 13.269531 -0.664062 13.226562 -0.621094 C 12.917969 -0.308594 14.996094 2.125 15.21875 2.300781 C 15.746094 2.785156 16.234375 3.273438 16.722656 3.847656 C 16.941406 4.15625 17.207031 4.46875 17.5625 4.734375 C 17.648438 4.777344 18.226562 5.132812 18.09375 5 C 18.136719 5 18.226562 5.042969 18.3125 5.132812 C 18.226562 5.085938 18.179688 5.085938 18.136719 5.085938 C 18.136719 5.265625 20.480469 6.988281 20.65625 7.121094 C 21.453125 7.5625 22.339844 7.785156 23.3125 7.609375 C 25.789062 7.167969 27.558594 4.820312 28.796875 2.875 C 29.0625 2.433594 29.195312 2.078125 29.152344 1.546875 C 28.972656 0.355469 28.574219 1.015625 28.175781 1.503906 Z M 5.972656 -13.09375 C 5.925781 -13.050781 5.925781 -13.003906 5.925781 -12.960938 C 5.484375 -11.148438 5.132812 -9.289062 4.601562 -7.429688 C 4.15625 -6.015625 3.582031 -4.644531 3.183594 -3.273438 C 4.023438 -6.855469 5.175781 -10.484375 6.191406 -14.066406 Z M 14.242188 -4.820312 L 14.996094 -3.894531 C 14.640625 -4.289062 14.242188 -4.6875 13.933594 -5.132812 Z M 10.792969 -9.421875 L 10.570312 -9.820312 C 10.570312 -9.777344 10.660156 -9.644531 10.792969 -9.421875 Z M 11.015625 -9.113281 L 10.835938 -9.332031 Z M 11.015625 -9.113281 "/></g></g></g><g fill="#000000" fill-opacity="1"><g transform="translate(132.813646, 45.597714)"><g><path d="M 16.941406 -10.925781 C 16.941406 -10.882812 16.941406 -10.882812 16.898438 -10.925781 L 16.898438 -10.96875 C 16.191406 -12.164062 15.261719 -10.527344 14.863281 -9.953125 C 14.109375 -8.933594 13.402344 -7.960938 12.605469 -7.035156 C 11.945312 -6.238281 11.234375 -5.441406 10.703125 -4.601562 C 10.703125 -4.511719 10.617188 -4.289062 10.617188 -4.289062 C 10.441406 -4.023438 10.175781 -3.804688 9.953125 -3.539062 C 9.554688 -3.140625 9.15625 -2.699219 8.714844 -2.300781 C 8.050781 -1.679688 4.335938 1.8125 3.847656 -0.441406 C 3.582031 -1.546875 3.9375 -2.917969 4.15625 -3.980469 C 4.289062 -4.554688 4.421875 -5.085938 4.511719 -5.660156 C 4.601562 -6.105469 4.46875 -6.546875 4.6875 -6.988281 C 4.820312 -7.253906 4.867188 -7.210938 5.175781 -7.296875 L 5.925781 -7.5625 C 6.414062 -7.742188 6.902344 -7.917969 7.34375 -8.183594 C 8.007812 -8.582031 8.625 -9.066406 9.199219 -9.554688 C 10.570312 -10.703125 12.03125 -12.074219 12.605469 -13.800781 C 12.917969 -14.773438 12.960938 -15.835938 12.339844 -16.675781 C 11.765625 -17.429688 10.792969 -17.828125 9.910156 -18.003906 C 7.519531 -18.445312 5.707031 -17.074219 4.335938 -15.261719 C 2.652344 -13.183594 1.460938 -10.617188 0.882812 -8.007812 C 0.574219 -6.722656 0.398438 -5.441406 0.175781 -4.113281 C -0.0429688 -2.785156 -0.175781 -1.546875 0.53125 -0.308594 C 0.488281 -0.753906 0.398438 -1.148438 0.398438 -1.546875 C 0.398438 -1.769531 0.488281 -1.992188 0.488281 -2.167969 C 0.488281 -2.257812 0.398438 -2.519531 0.398438 -2.652344 C 0.398438 -3.050781 0.488281 -3.363281 0.574219 -3.761719 C 0.621094 -4.15625 0.574219 -4.554688 0.621094 -4.953125 C 0.664062 -5.398438 0.839844 -5.75 1.015625 -6.148438 C 1.148438 -6.503906 1.195312 -6.8125 1.328125 -7.167969 C 1.460938 -7.476562 1.546875 -7.828125 1.679688 -8.183594 C 1.726562 -8.40625 1.945312 -8.671875 2.078125 -8.933594 C 1.945312 -8.539062 1.679688 -8.183594 1.59375 -7.828125 C 1.460938 -7.296875 1.546875 -6.722656 1.503906 -6.191406 C 1.414062 -5.617188 1.238281 -5.042969 1.148438 -4.421875 C 1.0625 -3.847656 0.796875 -3.316406 0.707031 -2.742188 C 0.621094 -2.210938 0.441406 -1.8125 0.488281 -1.28125 C 0.488281 -0.972656 0.53125 -0.664062 0.574219 -0.398438 C 0.621094 -0.0429688 0.839844 0.175781 1.0625 0.441406 C 1.8125 1.328125 2.832031 2.035156 3.980469 2.34375 C 4.777344 2.566406 5.484375 2.519531 6.238281 2.125 C 7.296875 1.546875 8.226562 0.664062 9.023438 -0.175781 C 9.777344 -1.015625 10.351562 -1.945312 11.015625 -2.832031 C 11.632812 -3.628906 12.386719 -4.378906 13.003906 -5.175781 L 15.394531 -8.273438 L 16.765625 -10.085938 C 16.984375 -10.351562 17.117188 -10.570312 16.941406 -10.925781 Z M 5.972656 -10.441406 C 6.015625 -10.527344 6.015625 -10.570312 6.015625 -10.570312 C 6.679688 -11.988281 7.167969 -13.492188 8.09375 -14.863281 L 8.890625 -15.925781 C 9.066406 -16.144531 9.378906 -16.542969 9.6875 -16.632812 C 10.351562 -16.765625 10.527344 -15.613281 10.484375 -15.171875 L 10.308594 -14.242188 C 10.261719 -13.976562 10.351562 -13.800781 10.308594 -13.582031 C 10.21875 -13.316406 9.996094 -13.183594 9.863281 -12.960938 L 9.113281 -11.988281 C 8.09375 -10.792969 6.8125 -9.777344 5.398438 -9.023438 C 5.617188 -9.511719 5.75 -9.996094 5.972656 -10.441406 Z M 5.972656 -10.441406 "/></g></g></g><g fill="#000000" fill-opacity="1"><g transform="translate(146.568115, 45.597714)"><g><path d="M 17.960938 -23.003906 C 17.914062 -23.621094 17.25 -23.136719 16.898438 -23.136719 C 15.128906 -23.046875 13.359375 -23.046875 11.632812 -22.957031 C 11.632812 -23.003906 11.722656 -23.179688 11.855469 -23.445312 C 11.679688 -23.136719 11.546875 -22.957031 11.414062 -22.957031 C 12.738281 -25.65625 14.15625 -28.355469 15.835938 -30.832031 C 15.792969 -30.742188 15.128906 -29.636719 15.171875 -29.636719 C 15.304688 -29.59375 16.941406 -31.847656 16.984375 -32.160156 C 16.984375 -32.335938 16.589844 -31.894531 16.589844 -31.9375 C 16.855469 -32.203125 17.296875 -32.425781 17.429688 -32.777344 C 17.738281 -33.664062 16.808594 -34.0625 16.144531 -34.195312 C 14.773438 -34.460938 13.226562 -34.28125 12.339844 -33.132812 C 11.5 -32.113281 10.882812 -30.921875 10.351562 -29.726562 C 10.085938 -29.195312 9.730469 -29.0625 9.378906 -28.574219 C 8.847656 -27.824219 8.492188 -26.9375 8.09375 -26.097656 C 7.742188 -25.347656 7.386719 -24.550781 7.078125 -23.753906 C 6.902344 -23.355469 6.902344 -23.046875 6.503906 -22.914062 C 6.105469 -22.738281 5.351562 -22.871094 4.910156 -22.824219 C 3.183594 -22.605469 1.503906 -22.691406 -0.222656 -22.515625 C -1.105469 -22.472656 -1.992188 -22.472656 -2.832031 -22.160156 C -3.007812 -22.117188 -3.980469 -21.894531 -4.070312 -21.761719 C -4.335938 -21.277344 -3.273438 -21.234375 -3.050781 -21.1875 C -1.371094 -20.96875 0.753906 -20.789062 2.433594 -21.101562 C 3.582031 -21.320312 4.777344 -21.234375 6.015625 -21.320312 C 5.398438 -19.996094 4.910156 -18.578125 4.421875 -17.164062 L 3.894531 -15.613281 C 3.714844 -15.128906 3.140625 -14.199219 3.140625 -13.667969 C 3.140625 -13.582031 3.273438 -13.800781 3.363281 -14.023438 C 3.140625 -13.359375 2.875 -12.695312 2.699219 -12.03125 C 2.699219 -12.074219 2.832031 -12.605469 2.785156 -12.605469 C 2.566406 -12.605469 1.679688 -9.910156 1.59375 -9.6875 C 1.148438 -8.359375 0.664062 -7.035156 0.441406 -5.617188 C 0.175781 -4.203125 -0.175781 -2.832031 -0.488281 -1.460938 C -0.664062 -0.753906 -0.839844 -0.0898438 -0.929688 0.621094 C -1.015625 0.972656 -1.105469 1.371094 -1.105469 1.726562 C -1.105469 1.8125 -1.105469 2.390625 -1.015625 2.210938 L -1.105469 3.097656 L -1.105469 2.433594 C -1.371094 2.742188 -1.105469 4.15625 -1.0625 4.421875 C -0.882812 5.308594 -0.441406 6.105469 0.355469 6.636719 C 1.0625 7.167969 2.167969 7.652344 3.007812 7.253906 C 4.113281 6.722656 5.042969 5.484375 5.75 4.601562 C 7.296875 2.785156 8.714844 0.882812 10.128906 -1.015625 C 11.414062 -2.785156 12.738281 -4.511719 13.84375 -6.371094 C 14.464844 -7.429688 15.660156 -8.40625 16.058594 -9.597656 C 16.277344 -10.175781 16.144531 -10.882812 15.4375 -10.75 C 14.863281 -10.617188 14.066406 -9.066406 13.710938 -8.625 C 12.121094 -6.636719 10.617188 -4.601562 9.023438 -2.609375 L 6.457031 0.53125 C 6.058594 0.972656 5.660156 1.460938 5.21875 1.902344 C 5.042969 2.125 3.9375 3.007812 3.980469 3.273438 C 3.980469 3.363281 4.46875 2.964844 4.644531 2.832031 C 4.421875 3.097656 4.15625 3.316406 3.9375 3.539062 C 3.980469 3.496094 3.050781 4.023438 2.917969 3.9375 C 2.078125 3.582031 2.832031 1.015625 2.964844 0.398438 C 3.761719 -3.183594 4.953125 -6.8125 6.148438 -10.261719 C 6.855469 -12.164062 7.5625 -13.976562 8.359375 -15.835938 C 8.757812 -16.765625 9.15625 -17.738281 9.597656 -18.667969 L 10.21875 -20.347656 L 9.730469 -19.375 C 10.042969 -20.171875 10.484375 -21.367188 10.75 -21.410156 L 10.617188 -21.144531 C 10.703125 -21.277344 10.792969 -21.367188 10.882812 -21.410156 C 11.367188 -21.71875 12.605469 -21.410156 13.183594 -21.410156 C 13.582031 -21.410156 14.066406 -21.367188 14.464844 -21.5 C 14.730469 -21.585938 14.640625 -21.71875 14.953125 -21.808594 C 15.480469 -21.894531 16.144531 -21.542969 16.722656 -21.71875 C 17.25 -21.851562 18.003906 -22.339844 17.960938 -22.957031 Z M 9.554688 -20.4375 C 7.5625 -16.234375 6.058594 -11.722656 4.46875 -7.34375 C 3.714844 -5.351562 3.007812 -3.273438 2.519531 -1.195312 L 2.300781 -0.355469 C 2.609375 -1.945312 2.964844 -3.496094 3.40625 -5.042969 C 4.378906 -8.449219 5.617188 -11.8125 7.078125 -15.039062 C 9.554688 -20.570312 11.765625 -26.496094 15.304688 -31.496094 C 12.917969 -28.089844 11.324219 -24.195312 9.554688 -20.4375 Z M 12.472656 -24.816406 L 13.535156 -26.851562 C 13.316406 -26.804688 12.917969 -25.832031 12.472656 -24.816406 Z M 7.917969 -15.171875 C 7.609375 -14.332031 7.253906 -13.535156 6.902344 -12.738281 C 7.253906 -13.582031 7.5625 -14.464844 7.960938 -15.347656 C 7.917969 -15.261719 7.917969 -15.21875 7.917969 -15.171875 Z M 11.898438 -23.53125 L 12.339844 -24.507812 C 12.207031 -24.152344 12.03125 -23.796875 11.898438 -23.53125 Z M 2.257812 4.335938 C 2.210938 4.335938 2.167969 4.289062 2.125 4.246094 Z M 2.257812 4.335938 "/></g></g></g><g fill="#000000" fill-opacity="1"><g transform="translate(160.145671, 45.597714)"><g><path d="M 16.941406 -10.925781 C 16.941406 -10.882812 16.941406 -10.882812 16.898438 -10.925781 L 16.898438 -10.96875 C 16.191406 -12.164062 15.261719 -10.527344 14.863281 -9.953125 C 14.109375 -8.933594 13.402344 -7.960938 12.605469 -7.035156 C 11.945312 -6.238281 11.234375 -5.441406 10.703125 -4.601562 C 10.703125 -4.511719 10.617188 -4.289062 10.617188 -4.289062 C 10.441406 -4.023438 10.175781 -3.804688 9.953125 -3.539062 C 9.554688 -3.140625 9.15625 -2.699219 8.714844 -2.300781 C 8.050781 -1.679688 4.335938 1.8125 3.847656 -0.441406 C 3.582031 -1.546875 3.9375 -2.917969 4.15625 -3.980469 C 4.289062 -4.554688 4.421875 -5.085938 4.511719 -5.660156 C 4.601562 -6.105469 4.46875 -6.546875 4.6875 -6.988281 C 4.820312 -7.253906 4.867188 -7.210938 5.175781 -7.296875 L 5.925781 -7.5625 C 6.414062 -7.742188 6.902344 -7.917969 7.34375 -8.183594 C 8.007812 -8.582031 8.625 -9.066406 9.199219 -9.554688 C 10.570312 -10.703125 12.03125 -12.074219 12.605469 -13.800781 C 12.917969 -14.773438 12.960938 -15.835938 12.339844 -16.675781 C 11.765625 -17.429688 10.792969 -17.828125 9.910156 -18.003906 C 7.519531 -18.445312 5.707031 -17.074219 4.335938 -15.261719 C 2.652344 -13.183594 1.460938 -10.617188 0.882812 -8.007812 C 0.574219 -6.722656 0.398438 -5.441406 0.175781 -4.113281 C -0.0429688 -2.785156 -0.175781 -1.546875 0.53125 -0.308594 C 0.488281 -0.753906 0.398438 -1.148438 0.398438 -1.546875 C 0.398438 -1.769531 0.488281 -1.992188 0.488281 -2.167969 C 0.488281 -2.257812 0.398438 -2.519531 0.398438 -2.652344 C 0.398438 -3.050781 0.488281 -3.363281 0.574219 -3.761719 C 0.621094 -4.15625 0.574219 -4.554688 0.621094 -4.953125 C 0.664062 -5.398438 0.839844 -5.75 1.015625 -6.148438 C 1.148438 -6.503906 1.195312 -6.8125 1.328125 -7.167969 C 1.460938 -7.476562 1.546875 -7.828125 1.679688 -8.183594 C 1.726562 -8.40625 1.945312 -8.671875 2.078125 -8.933594 C 1.945312 -8.539062 1.679688 -8.183594 1.59375 -7.828125 C 1.460938 -7.296875 1.546875 -6.722656 1.503906 -6.191406 C 1.414062 -5.617188 1.238281 -5.042969 1.148438 -4.421875 C 1.0625 -3.847656 0.796875 -3.316406 0.707031 -2.742188 C 0.621094 -2.210938 0.441406 -1.8125 0.488281 -1.28125 C 0.488281 -0.972656 0.53125 -0.664062 0.574219 -0.398438 C 0.621094 -0.0429688 0.839844 0.175781 1.0625 0.441406 C 1.8125 1.328125 2.832031 2.035156 3.980469 2.34375 C 4.777344 2.566406 5.484375 2.519531 6.238281 2.125 C 7.296875 1.546875 8.226562 0.664062 9.023438 -0.175781 C 9.777344 -1.015625 10.351562 -1.945312 11.015625 -2.832031 C 11.632812 -3.628906 12.386719 -4.378906 13.003906 -5.175781 L 15.394531 -8.273438 L 16.765625 -10.085938 C 16.984375 -10.351562 17.117188 -10.570312 16.941406 -10.925781 Z M 5.972656 -10.441406 C 6.015625 -10.527344 6.015625 -10.570312 6.015625 -10.570312 C 6.679688 -11.988281 7.167969 -13.492188 8.09375 -14.863281 L 8.890625 -15.925781 C 9.066406 -16.144531 9.378906 -16.542969 9.6875 -16.632812 C 10.351562 -16.765625 10.527344 -15.613281 10.484375 -15.171875 L 10.308594 -14.242188 C 10.261719 -13.976562 10.351562 -13.800781 10.308594 -13.582031 C 10.21875 -13.316406 9.996094 -13.183594 9.863281 -12.960938 L 9.113281 -11.988281 C 8.09375 -10.792969 6.8125 -9.777344 5.398438 -9.023438 C 5.617188 -9.511719 5.75 -9.996094 5.972656 -10.441406 Z M 5.972656 -10.441406 "/></g></g></g><g fill="#000000" fill-opacity="1"><g transform="translate(173.90014, 45.597714)"><g><path d="M 17.695312 -11.28125 C 17.074219 -10.617188 16.675781 -9.511719 16.191406 -8.714844 C 15.4375 -7.429688 14.6875 -6.191406 13.890625 -4.953125 C 12.386719 -2.566406 10.882812 -0.132812 9.066406 2.035156 C 8.316406 2.964844 6.722656 5.21875 5.21875 5.042969 C 4.113281 4.867188 4.113281 2.964844 4.113281 2.125 C 4.113281 1.414062 4.15625 0.707031 4.246094 0.0429688 C 4.289062 -0.355469 4.644531 -1.679688 4.421875 -2.035156 L 4.070312 -0.707031 C 4.113281 -1.238281 4.203125 -1.8125 4.335938 -2.34375 C 4.289062 -2.433594 4.6875 -3.671875 4.777344 -4.070312 C 5 -4.953125 5.21875 -5.839844 5.484375 -6.722656 C 5.707031 -7.609375 5.925781 -8.449219 6.191406 -9.289062 C 6.414062 -10.085938 6.722656 -10.484375 7.210938 -11.101562 C 9.199219 -13.582031 11.015625 -16.277344 12.695312 -18.976562 C 13.316406 -19.996094 13.710938 -20.878906 14.464844 -21.71875 C 15.570312 -22.871094 16.324219 -24.59375 17.03125 -26.011719 C 18.226562 -28.308594 19.816406 -31.496094 19.550781 -34.195312 L 19.550781 -34.414062 L 19.507812 -34.460938 C 19.242188 -36.183594 17.648438 -38.21875 15.703125 -37.601562 C 14.6875 -37.289062 13.933594 -36.226562 13.316406 -35.476562 L 12.296875 -34.105469 C 12.074219 -33.839844 11.765625 -33.175781 11.546875 -32.824219 L 11.589844 -32.867188 L 10.175781 -30.433594 L 10.527344 -31.1875 C 10.308594 -31.230469 9.332031 -29.328125 9.199219 -29.105469 C 8.714844 -28.265625 8.273438 -27.425781 7.875 -26.585938 C 6.988281 -24.816406 6.105469 -23.003906 5.53125 -21.101562 C 4.910156 -19.199219 4.203125 -17.339844 3.539062 -15.4375 C 3.183594 -14.421875 2.832031 -13.359375 2.519531 -12.339844 C 2.257812 -11.5 1.636719 -10.128906 1.769531 -9.246094 L 1.902344 -9.246094 C 1.769531 -8.933594 1.679688 -8.625 1.59375 -8.316406 C 1.636719 -8.582031 1.636719 -8.890625 1.679688 -8.980469 C 1.460938 -8.671875 1.503906 -7.609375 1.460938 -7.519531 C 0.882812 -5.132812 0.222656 -2.742188 0.0429688 -0.265625 C -0.0898438 2.078125 -0.0898438 5.175781 1.769531 6.902344 C 3.847656 8.804688 6.238281 7.519531 7.960938 5.882812 C 9.996094 3.894531 11.722656 1.546875 13.316406 -0.753906 C 14.773438 -2.875 15.925781 -5.132812 17.25 -7.253906 C 17.78125 -8.140625 18.359375 -9.023438 18.621094 -9.996094 C 18.800781 -10.703125 18.710938 -12.339844 17.695312 -11.28125 Z M 12.164062 -27.117188 C 13.050781 -29.238281 13.933594 -31.40625 15.171875 -33.398438 C 15.480469 -33.882812 17.472656 -36.539062 17.382812 -34.195312 L 17.382812 -34.148438 C 17.296875 -31.671875 15.703125 -29.0625 14.640625 -26.9375 L 12.785156 -23.488281 C 12.164062 -22.425781 11.101562 -21.101562 10.75 -19.949219 C 11.015625 -20.65625 11.8125 -21.675781 12.207031 -22.339844 C 12.871094 -23.445312 13.449219 -24.550781 14.066406 -25.65625 C 15.085938 -27.601562 16.191406 -29.636719 16.941406 -31.761719 C 14.953125 -25.832031 11.234375 -20.304688 7.960938 -15.039062 C 9.246094 -18.933594 10.527344 -23.179688 12.164062 -27.117188 Z M 10.75 -30.210938 C 11.191406 -31.054688 11.988281 -31.761719 12.429688 -32.558594 C 11.5 -30.699219 10.351562 -29.019531 9.378906 -27.25 C 9.378906 -27.292969 9.378906 -27.382812 9.421875 -27.425781 C 9.820312 -28.398438 10.261719 -29.285156 10.75 -30.210938 Z M 2.390625 -7.34375 C 2.34375 -7.253906 2.34375 -7.210938 2.34375 -7.210938 C 1.8125 -5.972656 1.769531 -4.289062 1.503906 -2.964844 C 1.460938 -2.652344 1.371094 -2.390625 1.371094 -2.078125 L 1.371094 -2.210938 L 1.238281 -0.796875 C 1.328125 -2.390625 1.503906 -4.023438 1.8125 -5.574219 L 1.8125 -5.53125 C 1.945312 -6.546875 2.167969 -7.476562 2.34375 -7.476562 C 2.433594 -7.519531 2.433594 -7.386719 2.390625 -7.34375 Z M 2.390625 -7.34375 "/></g></g></g><g fill="#000000" fill-opacity="1"><g transform="translate(189.556354, 45.597714)"><g><path d="M 17.5625 -10.394531 C 17.429688 -11.015625 17.074219 -11.101562 16.632812 -10.925781 C 15.792969 -10.527344 14.953125 -9.644531 14.15625 -9.113281 C 12.339844 -7.960938 10.527344 -7.035156 8.582031 -6.058594 C 8.582031 -6.105469 8.539062 -6.191406 8.492188 -6.324219 C 8.539062 -6.105469 8.492188 -6.015625 8.449219 -5.972656 C 8.007812 -7.875 7.5625 -9.777344 7.210938 -11.722656 C 7.386719 -10.882812 7.785156 -9.464844 8.09375 -8.273438 C 7.695312 -10.128906 7.210938 -12.429688 7.253906 -12.429688 C 7.167969 -12.386719 7.167969 -12.296875 7.167969 -12.207031 C 7.078125 -12.738281 6.945312 -13.402344 7.035156 -13.976562 C 7.078125 -14.640625 7.429688 -15.21875 7.652344 -15.835938 C 7.609375 -15.527344 7.519531 -15.128906 7.519531 -15.128906 C 7.785156 -15.085938 7.960938 -16.722656 7.960938 -16.898438 C 7.917969 -17.164062 7.34375 -18.003906 7.34375 -17.78125 C 6.148438 -18.886719 3.804688 -16.457031 3.449219 -15.394531 C 3.183594 -14.6875 3.183594 -13.933594 3.230469 -13.183594 C 3.273438 -12.429688 3.496094 -11.765625 3.714844 -11.058594 C 3.847656 -10.527344 3.671875 -10.175781 3.714844 -9.597656 C 3.804688 -8.714844 4.113281 -7.828125 4.289062 -6.988281 C 4.46875 -6.324219 5.042969 -5 4.910156 -4.378906 C 4.820312 -3.761719 3.496094 -3.230469 2.917969 -2.875 C 2.167969 -2.390625 1.414062 -1.8125 0.664062 -1.238281 C -0.664062 -0.222656 -2.078125 1.0625 -2.609375 2.699219 C -2.699219 2.917969 -3.007812 3.894531 -2.699219 4.070312 C -2.652344 4.113281 -2.519531 3.363281 -2.476562 3.273438 C -3.050781 6.191406 -0.175781 7.609375 2.519531 7.652344 C 5.574219 7.742188 7.695312 5.972656 8.757812 3.230469 C 9.199219 2.035156 9.332031 0.796875 9.289062 -0.441406 C 9.289062 -1.28125 9.199219 -2.078125 9.066406 -2.875 C 8.980469 -3.582031 8.890625 -3.539062 9.378906 -3.9375 C 9.730469 -4.203125 10.261719 -4.378906 10.617188 -4.554688 C 12.03125 -5.308594 13.316406 -6.191406 14.597656 -7.121094 C 15.527344 -7.785156 17.738281 -8.933594 17.5625 -10.351562 Z M -0.308594 4.820312 C -1.460938 4.46875 -0.308594 2.652344 0.0898438 2.078125 C 0.753906 1.195312 1.726562 0.53125 2.609375 -0.0898438 L 3.9375 -0.972656 C 4.070312 -1.0625 4.910156 -1.726562 4.644531 -1.636719 L 5.175781 -1.945312 L 4.867188 -1.679688 C 4.953125 -1.726562 5.085938 -1.769531 5.175781 -1.859375 C 5.21875 -0.796875 5.21875 0.265625 4.910156 1.328125 C 4.867188 1.503906 4.023438 3.273438 3.671875 3.628906 L 3.894531 3.449219 C 3.496094 3.9375 3.050781 4.335938 2.519531 4.644531 C 2.519531 4.601562 2.917969 4.335938 2.875 4.289062 L 1.636719 4.777344 C 1.015625 4.910156 0.308594 5.042969 -0.308594 4.820312 Z M 5.265625 6.105469 C 4.113281 6.589844 3.007812 6.8125 1.8125 6.855469 C 3.980469 6.722656 6.238281 5.660156 7.519531 3.847656 C 7.035156 4.820312 6.414062 5.574219 5.265625 6.105469 Z M 8.492188 -6.457031 C 8.449219 -6.769531 8.359375 -7.210938 8.226562 -7.695312 C 8.316406 -7.210938 8.40625 -6.722656 8.492188 -6.457031 Z M 9.066406 -1.859375 C 9.023438 -1.902344 9.023438 -1.992188 9.023438 -2.078125 C 9.023438 -1.992188 9.066406 -1.902344 9.066406 -1.859375 Z M 9.066406 -1.859375 "/></g></g></g><g fill="#000000" fill-opacity="1"><g transform="translate(203.885775, 45.597714)"><g><path d="M 16.941406 -10.925781 C 16.941406 -10.882812 16.941406 -10.882812 16.898438 -10.925781 L 16.898438 -10.96875 C 16.191406 -12.164062 15.261719 -10.527344 14.863281 -9.953125 C 14.109375 -8.933594 13.402344 -7.960938 12.605469 -7.035156 C 11.945312 -6.238281 11.234375 -5.441406 10.703125 -4.601562 C 10.703125 -4.511719 10.617188 -4.289062 10.617188 -4.289062 C 10.441406 -4.023438 10.175781 -3.804688 9.953125 -3.539062 C 9.554688 -3.140625 9.15625 -2.699219 8.714844 -2.300781 C 8.050781 -1.679688 4.335938 1.8125 3.847656 -0.441406 C 3.582031 -1.546875 3.9375 -2.917969 4.15625 -3.980469 C 4.289062 -4.554688 4.421875 -5.085938 4.511719 -5.660156 C 4.601562 -6.105469 4.46875 -6.546875 4.6875 -6.988281 C 4.820312 -7.253906 4.867188 -7.210938 5.175781 -7.296875 L 5.925781 -7.5625 C 6.414062 -7.742188 6.902344 -7.917969 7.34375 -8.183594 C 8.007812 -8.582031 8.625 -9.066406 9.199219 -9.554688 C 10.570312 -10.703125 12.03125 -12.074219 12.605469 -13.800781 C 12.917969 -14.773438 12.960938 -15.835938 12.339844 -16.675781 C 11.765625 -17.429688 10.792969 -17.828125 9.910156 -18.003906 C 7.519531 -18.445312 5.707031 -17.074219 4.335938 -15.261719 C 2.652344 -13.183594 1.460938 -10.617188 0.882812 -8.007812 C 0.574219 -6.722656 0.398438 -5.441406 0.175781 -4.113281 C -0.0429688 -2.785156 -0.175781 -1.546875 0.53125 -0.308594 C 0.488281 -0.753906 0.398438 -1.148438 0.398438 -1.546875 C 0.398438 -1.769531 0.488281 -1.992188 0.488281 -2.167969 C 0.488281 -2.257812 0.398438 -2.519531 0.398438 -2.652344 C 0.398438 -3.050781 0.488281 -3.363281 0.574219 -3.761719 C 0.621094 -4.15625 0.574219 -4.554688 0.621094 -4.953125 C 0.664062 -5.398438 0.839844 -5.75 1.015625 -6.148438 C 1.148438 -6.503906 1.195312 -6.8125 1.328125 -7.167969 C 1.460938 -7.476562 1.546875 -7.828125 1.679688 -8.183594 C 1.726562 -8.40625 1.945312 -8.671875 2.078125 -8.933594 C 1.945312 -8.539062 1.679688 -8.183594 1.59375 -7.828125 C 1.460938 -7.296875 1.546875 -6.722656 1.503906 -6.191406 C 1.414062 -5.617188 1.238281 -5.042969 1.148438 -4.421875 C 1.0625 -3.847656 0.796875 -3.316406 0.707031 -2.742188 C 0.621094 -2.210938 0.441406 -1.8125 0.488281 -1.28125 C 0.488281 -0.972656 0.53125 -0.664062 0.574219 -0.398438 C 0.621094 -0.0429688 0.839844 0.175781 1.0625 0.441406 C 1.8125 1.328125 2.832031 2.035156 3.980469 2.34375 C 4.777344 2.566406 5.484375 2.519531 6.238281 2.125 C 7.296875 1.546875 8.226562 0.664062 9.023438 -0.175781 C 9.777344 -1.015625 10.351562 -1.945312 11.015625 -2.832031 C 11.632812 -3.628906 12.386719 -4.378906 13.003906 -5.175781 L 15.394531 -8.273438 L 16.765625 -10.085938 C 16.984375 -10.351562 17.117188 -10.570312 16.941406 -10.925781 Z M 5.972656 -10.441406 C 6.015625 -10.527344 6.015625 -10.570312 6.015625 -10.570312 C 6.679688 -11.988281 7.167969 -13.492188 8.09375 -14.863281 L 8.890625 -15.925781 C 9.066406 -16.144531 9.378906 -16.542969 9.6875 -16.632812 C 10.351562 -16.765625 10.527344 -15.613281 10.484375 -15.171875 L 10.308594 -14.242188 C 10.261719 -13.976562 10.351562 -13.800781 10.308594 -13.582031 C 10.21875 -13.316406 9.996094 -13.183594 9.863281 -12.960938 L 9.113281 -11.988281 C 8.09375 -10.792969 6.8125 -9.777344 5.398438 -9.023438 C 5.617188 -9.511719 5.75 -9.996094 5.972656 -10.441406 Z M 5.972656 -10.441406 "/></g></g></g><g fill="#000000" fill-opacity="1"><g transform="translate(217.640244, 45.597714)"><g><path d="M 18.3125 -10.527344 C 18.09375 -11.589844 17.472656 -10.882812 17.207031 -10.484375 C 16.589844 -9.730469 15.613281 -9.023438 14.863281 -8.316406 C 13.84375 -7.429688 12.828125 -6.503906 11.765625 -5.660156 C 11.234375 -5.21875 10.570312 -4.601562 9.910156 -4.378906 C 9.820312 -4.335938 9.511719 -4.289062 9.511719 -4.246094 L 9.464844 -4.289062 C 9.464844 -4.289062 9.421875 -5 9.464844 -5.042969 C 9.511719 -5.617188 9.6875 -6.191406 9.863281 -6.722656 C 9.910156 -6.8125 10.394531 -8.316406 10.308594 -8.316406 L 10.085938 -8.050781 C 10.351562 -8.582031 10.703125 -9.113281 11.015625 -9.6875 C 10.308594 -9.023438 9.820312 -8.273438 9.464844 -7.34375 C 9.289062 -6.902344 8.804688 -6.105469 8.714844 -5.441406 C 8.804688 -6.414062 9.464844 -7.695312 9.777344 -8.273438 C 10.21875 -9.199219 10.703125 -10.261719 11.28125 -11.148438 C 12.339844 -12.738281 14.640625 -14.199219 13.933594 -16.410156 C 13.316406 -18.488281 11.679688 -18.535156 10.394531 -17.339844 C 9.777344 -16.765625 4.511719 -10.042969 4.644531 -9.953125 C 4.644531 -9.953125 5.085938 -10.484375 5.660156 -11.234375 L 3.050781 -7.429688 C 3.007812 -7.429688 3.496094 -8.183594 3.449219 -8.226562 C 3.40625 -8.273438 3.097656 -7.960938 3.050781 -7.785156 C 3.140625 -8.714844 3.449219 -9.644531 3.539062 -10.570312 C 3.582031 -10.925781 3.539062 -11.191406 3.628906 -11.546875 C 3.804688 -12.121094 3.980469 -12.738281 4.246094 -13.226562 C 4.421875 -13.582031 4.777344 -13.890625 4.867188 -14.242188 C 5.042969 -14.820312 5 -15.039062 5.398438 -15.527344 C 5.75 -15.96875 6.28125 -16.410156 6.589844 -16.808594 C 7.34375 -17.914062 6.058594 -18.667969 5.351562 -18.800781 C 4.777344 -18.886719 4.203125 -18.933594 3.671875 -18.621094 C 3.097656 -18.269531 3.230469 -17.960938 3.097656 -17.472656 C 2.964844 -16.855469 2.519531 -16.144531 2.300781 -15.570312 C 1.945312 -14.640625 1.636719 -13.710938 1.328125 -12.785156 C 0.972656 -11.855469 0.621094 -10.96875 0.355469 -10.042969 C 0.132812 -9.289062 0.175781 -8.582031 0.0898438 -7.875 C 0 -7.078125 -0.132812 -6.546875 0.265625 -5.839844 C 0.707031 -5.085938 1.902344 -3.9375 2.699219 -4.910156 L 2.875 -4.554688 C 3.628906 -6.191406 4.777344 -7.652344 5.707031 -9.246094 C 6.105469 -9.953125 6.8125 -10.441406 7.386719 -11.191406 C 8.183594 -12.253906 8.890625 -13.316406 9.777344 -14.332031 C 9.644531 -14.109375 9.066406 -13.09375 9.113281 -13.050781 C 9.199219 -13.09375 9.246094 -13.183594 9.332031 -13.269531 L 8.714844 -12.03125 C 8.671875 -12.074219 8.890625 -12.386719 8.804688 -12.386719 C 8.492188 -12.472656 7.5625 -9.996094 7.476562 -9.777344 C 7.167969 -8.804688 7.121094 -7.917969 7.035156 -6.902344 C 6.988281 -6.414062 6.902344 -5.925781 6.902344 -5.441406 C 6.902344 -4.953125 6.945312 -4.46875 7.167969 -3.980469 C 7.296875 -3.714844 7.476562 -3.363281 7.695312 -3.140625 C 7.742188 -3.140625 8.226562 -2.699219 8.007812 -3.050781 L 8.273438 -2.785156 L 8.140625 -2.875 C 8.09375 -2.652344 9.730469 -1.769531 9.996094 -1.679688 C 11.234375 -1.28125 12.5625 -2.699219 13.359375 -3.539062 C 14.421875 -4.6875 15.304688 -6.015625 16.277344 -7.253906 C 16.808594 -7.960938 18.488281 -9.464844 18.3125 -10.527344 Z M 18.3125 -10.527344 "/></g></g></g></svg>