<svg xmlns="http://www.w3.org/2000/svg" xmlns:xlink="http://www.w3.org/1999/xlink" width="500" zoomAndPan="magnify" viewBox="0 0 375 299.999988" height="400" preserveAspectRatio="xMidYMid meet" version="1.0"><defs><g/></defs><g fill="#ff00ff" fill-opacity="1"><g transform="translate(2.062456, 113.749716)"><g><path d="M 90.746094 -44.988281 C 86.566406 -50.15625 80.847656 -53.457031 73.917969 -54.996094 C 74.6875 -55.878906 75.347656 -56.757812 76.007812 -57.527344 C 83.046875 -66.988281 93.164062 -84.695312 82.167969 -97.894531 C 74.90625 -106.695312 60.058594 -110.433594 45.097656 -108.234375 C 45.097656 -108.453125 45.207031 -108.566406 45.207031 -108.785156 C 45.429688 -109.886719 44.65625 -110.984375 43.449219 -111.203125 C 42.347656 -111.425781 41.25 -110.65625 41.027344 -109.445312 C 40.917969 -108.785156 40.808594 -108.125 40.699219 -107.464844 C 36.410156 -106.476562 32.230469 -105.046875 28.160156 -103.066406 C 10.121094 -94.265625 2.308594 -77.988281 6.601562 -58.296875 C 6.820312 -57.199219 8.03125 -56.425781 9.128906 -56.757812 C 10.230469 -56.976562 11 -58.078125 10.78125 -59.289062 C 6.820312 -76.777344 13.859375 -91.40625 30.027344 -99.324219 C 33.21875 -100.867188 36.410156 -101.964844 39.816406 -102.84375 C 37.617188 -91.625 34.429688 -75.785156 30.796875 -57.96875 C 29.257812 -50.269531 27.828125 -43.117188 26.398438 -36.410156 C 24.96875 -34.097656 23.867188 -31.570312 23.207031 -28.929688 C 22.660156 -26.839844 23.429688 -25.628906 24.089844 -24.96875 C 7.480469 58.078125 8.359375 62.148438 11.878906 63.246094 C 12.097656 63.355469 12.429688 63.355469 12.648438 63.355469 C 14.738281 63.355469 16.277344 60.605469 18.589844 54.996094 C 19.027344 53.898438 18.480469 52.6875 17.378906 52.246094 C 16.277344 51.808594 15.070312 52.246094 14.628906 53.347656 C 14.519531 53.789062 14.300781 54.117188 14.1875 54.449219 C 15.398438 41.136719 21.890625 7.808594 28.269531 -24.089844 C 37.507812 -25.1875 58.078125 -38.386719 70.617188 -51.257812 C 77.65625 -50.378906 83.375 -47.40625 87.445312 -42.347656 C 95.035156 -32.886719 95.695312 -17.597656 89.097656 -2.53125 C 78.976562 20.679688 55.878906 35.75 27.167969 37.839844 C 25.957031 37.949219 25.078125 38.9375 25.1875 40.148438 C 25.300781 41.25 26.179688 42.128906 27.277344 42.128906 C 27.390625 42.128906 27.390625 42.128906 27.5 42.128906 C 57.746094 39.929688 82.277344 23.867188 93.054688 -0.878906 C 100.207031 -17.378906 99.324219 -34.320312 90.746094 -44.988281 Z M 29.148438 -28.488281 C 29.589844 -30.6875 30.027344 -32.777344 30.46875 -34.976562 C 36.078125 -43.777344 46.636719 -48.726562 55.988281 -50.597656 C 59.175781 -51.148438 62.148438 -51.476562 65.007812 -51.585938 C 52.46875 -39.597656 35.636719 -30.25 29.148438 -28.488281 Z M 68.96875 -55.65625 C 64.675781 -55.988281 60.058594 -55.65625 55.109375 -54.667969 C 45.867188 -52.90625 37.949219 -48.949219 32.117188 -43.449219 C 33.109375 -48.179688 34.097656 -52.796875 34.976562 -57.085938 C 38.828125 -75.898438 42.128906 -92.503906 44.328125 -103.835938 C 58.1875 -106.144531 72.375 -103.066406 78.867188 -95.253906 C 85.6875 -87.007812 83.375 -74.578125 72.597656 -60.058594 C 71.496094 -58.628906 70.285156 -57.085938 68.96875 -55.65625 Z M 68.96875 -55.65625 "/></g></g></g><g fill="#ff00ff" fill-opacity="1"><g transform="translate(109.744816, 113.749716)"><g><path d="M 48.289062 -24.859375 C 47.1875 -25.410156 45.867188 -24.96875 45.429688 -23.867188 C 32.777344 2.75 20.789062 16.390625 18.148438 15.949219 C 17.929688 15.839844 14.078125 12.097656 26.507812 -26.070312 C 26.839844 -27.058594 27.609375 -29.367188 25.847656 -30.578125 C 24.199219 -31.898438 22.328125 -30.6875 19.25 -28.597656 C 15.949219 -26.507812 11.441406 -23.539062 7.917969 -23.980469 C 19.140625 -43.339844 18.039062 -47.628906 15.507812 -49.277344 C 11.550781 -51.585938 5.828125 -44.878906 3.191406 -41.027344 C -2.199219 -32.667969 -2.089844 -25.078125 3.628906 -21.230469 C 9.460938 -17.160156 17.050781 -22.109375 21.558594 -25.078125 C 21.667969 -25.1875 21.667969 -25.1875 21.777344 -25.300781 C 17.488281 -11.769531 14.738281 -1.101562 13.75 6.269531 C 12.539062 14.410156 13.417969 18.699219 16.5 19.910156 C 17.050781 20.019531 17.488281 20.128906 18.039062 20.128906 C 26.839844 20.128906 42.128906 -6.929688 49.277344 -22 C 49.71875 -23.097656 49.277344 -24.417969 48.289062 -24.859375 Z M 3.851562 -32.449219 C 5.390625 -38.386719 10.558594 -43.886719 12.871094 -45.207031 C 12.648438 -43.449219 11.441406 -38.5 4.398438 -26.289062 C 3.628906 -27.5 3.078125 -29.367188 3.851562 -32.449219 Z M 3.851562 -32.449219 "/></g></g></g><g fill="#ff00ff" fill-opacity="1"><g transform="translate(153.631703, 113.749716)"><g><path d="M 32.117188 -24.96875 C 31.128906 -25.628906 29.917969 -25.300781 29.257812 -24.308594 C 21.890625 -12.429688 9.570312 -1.210938 5.828125 -2.75 C 5.390625 -2.96875 1.871094 -5.058594 6.710938 -23.648438 C 6.929688 -24.859375 6.269531 -25.957031 5.167969 -26.289062 C 3.960938 -26.507812 2.859375 -25.847656 2.53125 -24.75 C -1.429688 -9.238281 -0.878906 -0.988281 4.070312 1.101562 C 4.839844 1.429688 5.609375 1.539062 6.378906 1.539062 C 14.628906 1.539062 27.277344 -13.199219 32.886719 -22.109375 C 33.4375 -23.097656 33.109375 -24.417969 32.117188 -24.96875 Z M 6.160156 -33.878906 C 11.769531 -33.546875 11.660156 -40.589844 7.148438 -39.046875 C 4.839844 -38.386719 1.871094 -34.097656 6.160156 -33.878906 Z M 6.160156 -33.878906 "/></g></g></g><g fill="#ff00ff" fill-opacity="1"><g transform="translate(181.459726, 113.749716)"><g><path d="M 45.976562 -24.417969 C 44.988281 -24.859375 43.667969 -24.417969 43.226562 -23.429688 C 34.867188 -6.378906 28.597656 -0.988281 25.628906 -1.539062 C 24.417969 -1.761719 20.460938 -4.070312 19.46875 -23.320312 C 19.46875 -24.199219 18.808594 -24.96875 18.039062 -25.1875 C 17.160156 -25.410156 16.167969 -25.1875 15.730469 -24.417969 C 15.070312 -23.648438 14.410156 -22.769531 13.75 -21.777344 C 11 -18.039062 7.371094 -12.980469 2.96875 -8.25 C 2.308594 -7.480469 1.761719 -7.039062 1.429688 -6.820312 C 0.660156 -10.667969 4.730469 -25.410156 11.21875 -30.027344 C 13.089844 -31.347656 15.621094 -32.339844 19.027344 -28.378906 C 19.800781 -27.5 21.117188 -27.390625 22 -28.160156 C 22.878906 -28.820312 22.988281 -30.25 22.328125 -31.128906 C 18.148438 -35.96875 14.1875 -35.859375 11.550781 -34.976562 C 3.078125 -32.007812 -2.640625 -15.730469 -2.859375 -8.25 C -2.96875 -5.167969 -2.089844 -3.191406 -0.328125 -2.53125 C 2.417969 -1.429688 5.167969 -4.398438 6.050781 -5.390625 C 9.789062 -9.460938 13.199219 -13.859375 15.621094 -17.269531 C 16.828125 -4.730469 19.800781 1.539062 24.75 2.640625 C 25.1875 2.640625 25.628906 2.75 26.070312 2.75 C 33.546875 2.75 41.578125 -10.339844 46.96875 -21.558594 C 47.519531 -22.660156 47.078125 -23.867188 45.976562 -24.417969 Z M 45.976562 -24.417969 "/></g></g></g><g fill="#ff00ff" fill-opacity="1"><g transform="translate(222.376814, 113.749716)"><g><path d="M 44.21875 -24.527344 C 43.226562 -25.078125 41.90625 -24.75 41.359375 -23.648438 C 38.71875 -19.140625 31.789062 -6.929688 27.828125 -7.371094 C 27.058594 -7.480469 24.859375 -8.578125 22.660156 -16.277344 C 21.117188 -21.667969 19.027344 -26.730469 14.960938 -26.949219 C 11.988281 -27.167969 8.691406 -24.859375 3.628906 -15.398438 C 4.949219 -20.128906 6.378906 -24.859375 7.480469 -28.707031 C 7.917969 -30.136719 8.25 -31.347656 8.578125 -32.558594 C 8.910156 -33.660156 8.25 -34.867188 7.148438 -35.199219 C 6.050781 -35.527344 4.839844 -34.867188 4.511719 -33.660156 C 4.179688 -32.558594 3.851562 -31.238281 3.410156 -29.917969 C 0.550781 -20.128906 -3.738281 -5.28125 -4.839844 3.738281 C -4.949219 4.730469 -4.289062 5.71875 -3.300781 5.941406 C -3.078125 6.050781 -2.96875 6.050781 -2.75 6.050781 C -1.871094 6.050781 -1.101562 5.5 -0.769531 4.730469 C 9.570312 -21.007812 13.75 -22.769531 14.738281 -22.769531 C 14.960938 -22.769531 16.5 -22.328125 18.589844 -15.070312 C 20.789062 -7.480469 23.648438 -3.628906 27.390625 -3.191406 C 33 -2.53125 38.058594 -9.460938 44.988281 -21.558594 C 45.648438 -22.660156 45.207031 -23.867188 44.21875 -24.527344 Z M 44.21875 -24.527344 "/></g></g></g><g fill="#00ffff" fill-opacity="1"><g transform="translate(-2.062441, 113.749716)"><g><path d="M 90.746094 -44.988281 C 86.566406 -50.15625 80.847656 -53.457031 73.917969 -54.996094 C 74.6875 -55.878906 75.347656 -56.757812 76.007812 -57.527344 C 83.046875 -66.988281 93.164062 -84.695312 82.167969 -97.894531 C 74.90625 -106.695312 60.058594 -110.433594 45.097656 -108.234375 C 45.097656 -108.453125 45.207031 -108.566406 45.207031 -108.785156 C 45.429688 -109.886719 44.65625 -110.984375 43.449219 -111.203125 C 42.347656 -111.425781 41.25 -110.65625 41.027344 -109.445312 C 40.917969 -108.785156 40.808594 -108.125 40.699219 -107.464844 C 36.410156 -106.476562 32.230469 -105.046875 28.160156 -103.066406 C 10.121094 -94.265625 2.308594 -77.988281 6.601562 -58.296875 C 6.820312 -57.199219 8.03125 -56.425781 9.128906 -56.757812 C 10.230469 -56.976562 11 -58.078125 10.78125 -59.289062 C 6.820312 -76.777344 13.859375 -91.40625 30.027344 -99.324219 C 33.21875 -100.867188 36.410156 -101.964844 39.816406 -102.84375 C 37.617188 -91.625 34.429688 -75.785156 30.796875 -57.96875 C 29.257812 -50.269531 27.828125 -43.117188 26.398438 -36.410156 C 24.96875 -34.097656 23.867188 -31.570312 23.207031 -28.929688 C 22.660156 -26.839844 23.429688 -25.628906 24.089844 -24.96875 C 7.480469 58.078125 8.359375 62.148438 11.878906 63.246094 C 12.097656 63.355469 12.429688 63.355469 12.648438 63.355469 C 14.738281 63.355469 16.277344 60.605469 18.589844 54.996094 C 19.027344 53.898438 18.480469 52.6875 17.378906 52.246094 C 16.277344 51.808594 15.070312 52.246094 14.628906 53.347656 C 14.519531 53.789062 14.300781 54.117188 14.1875 54.449219 C 15.398438 41.136719 21.890625 7.808594 28.269531 -24.089844 C 37.507812 -25.1875 58.078125 -38.386719 70.617188 -51.257812 C 77.65625 -50.378906 83.375 -47.40625 87.445312 -42.347656 C 95.035156 -32.886719 95.695312 -17.597656 89.097656 -2.53125 C 78.976562 20.679688 55.878906 35.75 27.167969 37.839844 C 25.957031 37.949219 25.078125 38.9375 25.1875 40.148438 C 25.300781 41.25 26.179688 42.128906 27.277344 42.128906 C 27.390625 42.128906 27.390625 42.128906 27.5 42.128906 C 57.746094 39.929688 82.277344 23.867188 93.054688 -0.878906 C 100.207031 -17.378906 99.324219 -34.320312 90.746094 -44.988281 Z M 29.148438 -28.488281 C 29.589844 -30.6875 30.027344 -32.777344 30.46875 -34.976562 C 36.078125 -43.777344 46.636719 -48.726562 55.988281 -50.597656 C 59.175781 -51.148438 62.148438 -51.476562 65.007812 -51.585938 C 52.46875 -39.597656 35.636719 -30.25 29.148438 -28.488281 Z M 68.96875 -55.65625 C 64.675781 -55.988281 60.058594 -55.65625 55.109375 -54.667969 C 45.867188 -52.90625 37.949219 -48.949219 32.117188 -43.449219 C 33.109375 -48.179688 34.097656 -52.796875 34.976562 -57.085938 C 38.828125 -75.898438 42.128906 -92.503906 44.328125 -103.835938 C 58.1875 -106.144531 72.375 -103.066406 78.867188 -95.253906 C 85.6875 -87.007812 83.375 -74.578125 72.597656 -60.058594 C 71.496094 -58.628906 70.285156 -57.085938 68.96875 -55.65625 Z M 68.96875 -55.65625 "/></g></g></g><g fill="#00ffff" fill-opacity="1"><g transform="translate(105.619919, 113.749716)"><g><path d="M 48.289062 -24.859375 C 47.1875 -25.410156 45.867188 -24.96875 45.429688 -23.867188 C 32.777344 2.75 20.789062 16.390625 18.148438 15.949219 C 17.929688 15.839844 14.078125 12.097656 26.507812 -26.070312 C 26.839844 -27.058594 27.609375 -29.367188 25.847656 -30.578125 C 24.199219 -31.898438 22.328125 -30.6875 19.25 -28.597656 C 15.949219 -26.507812 11.441406 -23.539062 7.917969 -23.980469 C 19.140625 -43.339844 18.039062 -47.628906 15.507812 -49.277344 C 11.550781 -51.585938 5.828125 -44.878906 3.191406 -41.027344 C -2.199219 -32.667969 -2.089844 -25.078125 3.628906 -21.230469 C 9.460938 -17.160156 17.050781 -22.109375 21.558594 -25.078125 C 21.667969 -25.1875 21.667969 -25.1875 21.777344 -25.300781 C 17.488281 -11.769531 14.738281 -1.101562 13.75 6.269531 C 12.539062 14.410156 13.417969 18.699219 16.5 19.910156 C 17.050781 20.019531 17.488281 20.128906 18.039062 20.128906 C 26.839844 20.128906 42.128906 -6.929688 49.277344 -22 C 49.71875 -23.097656 49.277344 -24.417969 48.289062 -24.859375 Z M 3.851562 -32.449219 C 5.390625 -38.386719 10.558594 -43.886719 12.871094 -45.207031 C 12.648438 -43.449219 11.441406 -38.5 4.398438 -26.289062 C 3.628906 -27.5 3.078125 -29.367188 3.851562 -32.449219 Z M 3.851562 -32.449219 "/></g></g></g><g fill="#00ffff" fill-opacity="1"><g transform="translate(149.506806, 113.749716)"><g><path d="M 32.117188 -24.96875 C 31.128906 -25.628906 29.917969 -25.300781 29.257812 -24.308594 C 21.890625 -12.429688 9.570312 -1.210938 5.828125 -2.75 C 5.390625 -2.96875 1.871094 -5.058594 6.710938 -23.648438 C 6.929688 -24.859375 6.269531 -25.957031 5.167969 -26.289062 C 3.960938 -26.507812 2.859375 -25.847656 2.53125 -24.75 C -1.429688 -9.238281 -0.878906 -0.988281 4.070312 1.101562 C 4.839844 1.429688 5.609375 1.539062 6.378906 1.539062 C 14.628906 1.539062 27.277344 -13.199219 32.886719 -22.109375 C 33.4375 -23.097656 33.109375 -24.417969 32.117188 -24.96875 Z M 6.160156 -33.878906 C 11.769531 -33.546875 11.660156 -40.589844 7.148438 -39.046875 C 4.839844 -38.386719 1.871094 -34.097656 6.160156 -33.878906 Z M 6.160156 -33.878906 "/></g></g></g><g fill="#00ffff" fill-opacity="1"><g transform="translate(177.33483, 113.749716)"><g><path d="M 45.976562 -24.417969 C 44.988281 -24.859375 43.667969 -24.417969 43.226562 -23.429688 C 34.867188 -6.378906 28.597656 -0.988281 25.628906 -1.539062 C 24.417969 -1.761719 20.460938 -4.070312 19.46875 -23.320312 C 19.46875 -24.199219 18.808594 -24.96875 18.039062 -25.1875 C 17.160156 -25.410156 16.167969 -25.1875 15.730469 -24.417969 C 15.070312 -23.648438 14.410156 -22.769531 13.75 -21.777344 C 11 -18.039062 7.371094 -12.980469 2.96875 -8.25 C 2.308594 -7.480469 1.761719 -7.039062 1.429688 -6.820312 C 0.660156 -10.667969 4.730469 -25.410156 11.21875 -30.027344 C 13.089844 -31.347656 15.621094 -32.339844 19.027344 -28.378906 C 19.800781 -27.5 21.117188 -27.390625 22 -28.160156 C 22.878906 -28.820312 22.988281 -30.25 22.328125 -31.128906 C 18.148438 -35.96875 14.1875 -35.859375 11.550781 -34.976562 C 3.078125 -32.007812 -2.640625 -15.730469 -2.859375 -8.25 C -2.96875 -5.167969 -2.089844 -3.191406 -0.328125 -2.53125 C 2.417969 -1.429688 5.167969 -4.398438 6.050781 -5.390625 C 9.789062 -9.460938 13.199219 -13.859375 15.621094 -17.269531 C 16.828125 -4.730469 19.800781 1.539062 24.75 2.640625 C 25.1875 2.640625 25.628906 2.75 26.070312 2.75 C 33.546875 2.75 41.578125 -10.339844 46.96875 -21.558594 C 47.519531 -22.660156 47.078125 -23.867188 45.976562 -24.417969 Z M 45.976562 -24.417969 "/></g></g></g><g fill="#00ffff" fill-opacity="1"><g transform="translate(218.251918, 113.749716)"><g><path d="M 44.21875 -24.527344 C 43.226562 -25.078125 41.90625 -24.75 41.359375 -23.648438 C 38.71875 -19.140625 31.789062 -6.929688 27.828125 -7.371094 C 27.058594 -7.480469 24.859375 -8.578125 22.660156 -16.277344 C 21.117188 -21.667969 19.027344 -26.730469 14.960938 -26.949219 C 11.988281 -27.167969 8.691406 -24.859375 3.628906 -15.398438 C 4.949219 -20.128906 6.378906 -24.859375 7.480469 -28.707031 C 7.917969 -30.136719 8.25 -31.347656 8.578125 -32.558594 C 8.910156 -33.660156 8.25 -34.867188 7.148438 -35.199219 C 6.050781 -35.527344 4.839844 -34.867188 4.511719 -33.660156 C 4.179688 -32.558594 3.851562 -31.238281 3.410156 -29.917969 C 0.550781 -20.128906 -3.738281 -5.28125 -4.839844 3.738281 C -4.949219 4.730469 -4.289062 5.71875 -3.300781 5.941406 C -3.078125 6.050781 -2.96875 6.050781 -2.75 6.050781 C -1.871094 6.050781 -1.101562 5.5 -0.769531 4.730469 C 9.570312 -21.007812 13.75 -22.769531 14.738281 -22.769531 C 14.960938 -22.769531 16.5 -22.328125 18.589844 -15.070312 C 20.789062 -7.480469 23.648438 -3.628906 27.390625 -3.191406 C 33 -2.53125 38.058594 -9.460938 44.988281 -21.558594 C 45.648438 -22.660156 45.207031 -23.867188 44.21875 -24.527344 Z M 44.21875 -24.527344 "/></g></g></g><g fill="#000000" fill-opacity="1"><g transform="translate(0.0000075, 113.749716)"><g><path d="M 90.746094 -44.988281 C 86.566406 -50.15625 80.847656 -53.457031 73.917969 -54.996094 C 74.6875 -55.878906 75.347656 -56.757812 76.007812 -57.527344 C 83.046875 -66.988281 93.164062 -84.695312 82.167969 -97.894531 C 74.90625 -106.695312 60.058594 -110.433594 45.097656 -108.234375 C 45.097656 -108.453125 45.207031 -108.566406 45.207031 -108.785156 C 45.429688 -109.886719 44.65625 -110.984375 43.449219 -111.203125 C 42.347656 -111.425781 41.25 -110.65625 41.027344 -109.445312 C 40.917969 -108.785156 40.808594 -108.125 40.699219 -107.464844 C 36.410156 -106.476562 32.230469 -105.046875 28.160156 -103.066406 C 10.121094 -94.265625 2.308594 -77.988281 6.601562 -58.296875 C 6.820312 -57.199219 8.03125 -56.425781 9.128906 -56.757812 C 10.230469 -56.976562 11 -58.078125 10.78125 -59.289062 C 6.820312 -76.777344 13.859375 -91.40625 30.027344 -99.324219 C 33.21875 -100.867188 36.410156 -101.964844 39.816406 -102.84375 C 37.617188 -91.625 34.429688 -75.785156 30.796875 -57.96875 C 29.257812 -50.269531 27.828125 -43.117188 26.398438 -36.410156 C 24.96875 -34.097656 23.867188 -31.570312 23.207031 -28.929688 C 22.660156 -26.839844 23.429688 -25.628906 24.089844 -24.96875 C 7.480469 58.078125 8.359375 62.148438 11.878906 63.246094 C 12.097656 63.355469 12.429688 63.355469 12.648438 63.355469 C 14.738281 63.355469 16.277344 60.605469 18.589844 54.996094 C 19.027344 53.898438 18.480469 52.6875 17.378906 52.246094 C 16.277344 51.808594 15.070312 52.246094 14.628906 53.347656 C 14.519531 53.789062 14.300781 54.117188 14.1875 54.449219 C 15.398438 41.136719 21.890625 7.808594 28.269531 -24.089844 C 37.507812 -25.1875 58.078125 -38.386719 70.617188 -51.257812 C 77.65625 -50.378906 83.375 -47.40625 87.445312 -42.347656 C 95.035156 -32.886719 95.695312 -17.597656 89.097656 -2.53125 C 78.976562 20.679688 55.878906 35.75 27.167969 37.839844 C 25.957031 37.949219 25.078125 38.9375 25.1875 40.148438 C 25.300781 41.25 26.179688 42.128906 27.277344 42.128906 C 27.390625 42.128906 27.390625 42.128906 27.5 42.128906 C 57.746094 39.929688 82.277344 23.867188 93.054688 -0.878906 C 100.207031 -17.378906 99.324219 -34.320312 90.746094 -44.988281 Z M 29.148438 -28.488281 C 29.589844 -30.6875 30.027344 -32.777344 30.46875 -34.976562 C 36.078125 -43.777344 46.636719 -48.726562 55.988281 -50.597656 C 59.175781 -51.148438 62.148438 -51.476562 65.007812 -51.585938 C 52.46875 -39.597656 35.636719 -30.25 29.148438 -28.488281 Z M 68.96875 -55.65625 C 64.675781 -55.988281 60.058594 -55.65625 55.109375 -54.667969 C 45.867188 -52.90625 37.949219 -48.949219 32.117188 -43.449219 C 33.109375 -48.179688 34.097656 -52.796875 34.976562 -57.085938 C 38.828125 -75.898438 42.128906 -92.503906 44.328125 -103.835938 C 58.1875 -106.144531 72.375 -103.066406 78.867188 -95.253906 C 85.6875 -87.007812 83.375 -74.578125 72.597656 -60.058594 C 71.496094 -58.628906 70.285156 -57.085938 68.96875 -55.65625 Z M 68.96875 -55.65625 "/></g></g></g><g fill="#000000" fill-opacity="1"><g transform="translate(107.682368, 113.749716)"><g><path d="M 48.289062 -24.859375 C 47.1875 -25.410156 45.867188 -24.96875 45.429688 -23.867188 C 32.777344 2.75 20.789062 16.390625 18.148438 15.949219 C 17.929688 15.839844 14.078125 12.097656 26.507812 -26.070312 C 26.839844 -27.058594 27.609375 -29.367188 25.847656 -30.578125 C 24.199219 -31.898438 22.328125 -30.6875 19.25 -28.597656 C 15.949219 -26.507812 11.441406 -23.539062 7.917969 -23.980469 C 19.140625 -43.339844 18.039062 -47.628906 15.507812 -49.277344 C 11.550781 -51.585938 5.828125 -44.878906 3.191406 -41.027344 C -2.199219 -32.667969 -2.089844 -25.078125 3.628906 -21.230469 C 9.460938 -17.160156 17.050781 -22.109375 21.558594 -25.078125 C 21.667969 -25.1875 21.667969 -25.1875 21.777344 -25.300781 C 17.488281 -11.769531 14.738281 -1.101562 13.75 6.269531 C 12.539062 14.410156 13.417969 18.699219 16.5 19.910156 C 17.050781 20.019531 17.488281 20.128906 18.039062 20.128906 C 26.839844 20.128906 42.128906 -6.929688 49.277344 -22 C 49.71875 -23.097656 49.277344 -24.417969 48.289062 -24.859375 Z M 3.851562 -32.449219 C 5.390625 -38.386719 10.558594 -43.886719 12.871094 -45.207031 C 12.648438 -43.449219 11.441406 -38.5 4.398438 -26.289062 C 3.628906 -27.5 3.078125 -29.367188 3.851562 -32.449219 Z M 3.851562 -32.449219 "/></g></g></g><g fill="#000000" fill-opacity="1"><g transform="translate(151.569255, 113.749716)"><g><path d="M 32.117188 -24.96875 C 31.128906 -25.628906 29.917969 -25.300781 29.257812 -24.308594 C 21.890625 -12.429688 9.570312 -1.210938 5.828125 -2.75 C 5.390625 -2.96875 1.871094 -5.058594 6.710938 -23.648438 C 6.929688 -24.859375 6.269531 -25.957031 5.167969 -26.289062 C 3.960938 -26.507812 2.859375 -25.847656 2.53125 -24.75 C -1.429688 -9.238281 -0.878906 -0.988281 4.070312 1.101562 C 4.839844 1.429688 5.609375 1.539062 6.378906 1.539062 C 14.628906 1.539062 27.277344 -13.199219 32.886719 -22.109375 C 33.4375 -23.097656 33.109375 -24.417969 32.117188 -24.96875 Z M 6.160156 -33.878906 C 11.769531 -33.546875 11.660156 -40.589844 7.148438 -39.046875 C 4.839844 -38.386719 1.871094 -34.097656 6.160156 -33.878906 Z M 6.160156 -33.878906 "/></g></g></g><g fill="#000000" fill-opacity="1"><g transform="translate(179.397278, 113.749716)"><g><path d="M 45.976562 -24.417969 C 44.988281 -24.859375 43.667969 -24.417969 43.226562 -23.429688 C 34.867188 -6.378906 28.597656 -0.988281 25.628906 -1.539062 C 24.417969 -1.761719 20.460938 -4.070312 19.46875 -23.320312 C 19.46875 -24.199219 18.808594 -24.96875 18.039062 -25.1875 C 17.160156 -25.410156 16.167969 -25.1875 15.730469 -24.417969 C 15.070312 -23.648438 14.410156 -22.769531 13.75 -21.777344 C 11 -18.039062 7.371094 -12.980469 2.96875 -8.25 C 2.308594 -7.480469 1.761719 -7.039062 1.429688 -6.820312 C 0.660156 -10.667969 4.730469 -25.410156 11.21875 -30.027344 C 13.089844 -31.347656 15.621094 -32.339844 19.027344 -28.378906 C 19.800781 -27.5 21.117188 -27.390625 22 -28.160156 C 22.878906 -28.820312 22.988281 -30.25 22.328125 -31.128906 C 18.148438 -35.96875 14.1875 -35.859375 11.550781 -34.976562 C 3.078125 -32.007812 -2.640625 -15.730469 -2.859375 -8.25 C -2.96875 -5.167969 -2.089844 -3.191406 -0.328125 -2.53125 C 2.417969 -1.429688 5.167969 -4.398438 6.050781 -5.390625 C 9.789062 -9.460938 13.199219 -13.859375 15.621094 -17.269531 C 16.828125 -4.730469 19.800781 1.539062 24.75 2.640625 C 25.1875 2.640625 25.628906 2.75 26.070312 2.75 C 33.546875 2.75 41.578125 -10.339844 46.96875 -21.558594 C 47.519531 -22.660156 47.078125 -23.867188 45.976562 -24.417969 Z M 45.976562 -24.417969 "/></g></g></g><g fill="#000000" fill-opacity="1"><g transform="translate(220.314366, 113.749716)"><g><path d="M 44.21875 -24.527344 C 43.226562 -25.078125 41.90625 -24.75 41.359375 -23.648438 C 38.71875 -19.140625 31.789062 -6.929688 27.828125 -7.371094 C 27.058594 -7.480469 24.859375 -8.578125 22.660156 -16.277344 C 21.117188 -21.667969 19.027344 -26.730469 14.960938 -26.949219 C 11.988281 -27.167969 8.691406 -24.859375 3.628906 -15.398438 C 4.949219 -20.128906 6.378906 -24.859375 7.480469 -28.707031 C 7.917969 -30.136719 8.25 -31.347656 8.578125 -32.558594 C 8.910156 -33.660156 8.25 -34.867188 7.148438 -35.199219 C 6.050781 -35.527344 4.839844 -34.867188 4.511719 -33.660156 C 4.179688 -32.558594 3.851562 -31.238281 3.410156 -29.917969 C 0.550781 -20.128906 -3.738281 -5.28125 -4.839844 3.738281 C -4.949219 4.730469 -4.289062 5.71875 -3.300781 5.941406 C -3.078125 6.050781 -2.96875 6.050781 -2.75 6.050781 C -1.871094 6.050781 -1.101562 5.5 -0.769531 4.730469 C 9.570312 -21.007812 13.75 -22.769531 14.738281 -22.769531 C 14.960938 -22.769531 16.5 -22.328125 18.589844 -15.070312 C 20.789062 -7.480469 23.648438 -3.628906 27.390625 -3.191406 C 33 -2.53125 38.058594 -9.460938 44.988281 -21.558594 C 45.648438 -22.660156 45.207031 -23.867188 44.21875 -24.527344 Z M 44.21875 -24.527344 "/></g></g></g><g fill="#ff00ff" fill-opacity="1"><g transform="translate(80.173391, 229.825529)"><g><path d="M 107.90625 -112.636719 C 108.234375 -113.734375 107.464844 -114.945312 106.363281 -115.164062 C 105.265625 -115.496094 104.054688 -114.835938 103.835938 -113.625 C 88.214844 -52.46875 59.289062 -31.347656 43.339844 -24.199219 C 38.9375 -22.21875 33.769531 -20.460938 28.820312 -19.578125 C 32.667969 -35.96875 36.519531 -52.136719 39.597656 -64.785156 C 42.789062 -77.875 45.429688 -89.207031 47.40625 -97.34375 C 47.628906 -98.445312 46.859375 -99.65625 45.757812 -99.875 C 44.65625 -100.09375 43.449219 -99.433594 43.226562 -98.335938 C 41.359375 -90.195312 38.609375 -78.867188 35.417969 -65.777344 C 32.230469 -52.46875 28.597656 -37.398438 25.078125 -22.4375 C 23.320312 -23.867188 21.558594 -24.96875 19.6875 -25.738281 C 13.199219 -28.597656 8.25 -28.707031 6.269531 -26.070312 C 5.058594 -24.527344 5.167969 -22.328125 6.710938 -20.347656 C 9.128906 -17.378906 13.96875 -15.289062 19.800781 -14.847656 C 20.898438 -14.847656 22.109375 -14.738281 23.320312 -14.847656 C 21.007812 -5.058594 18.808594 4.511719 16.9375 13.308594 C 13.96875 26.617188 11.988281 36.628906 10.78125 43.777344 C 8.800781 55.65625 9.238281 58.078125 11.550781 58.847656 C 11.769531 58.957031 12.097656 59.066406 12.429688 59.066406 C 14.519531 59.066406 16.167969 56.097656 18.917969 49.9375 C 19.359375 48.835938 18.917969 47.628906 17.820312 47.1875 C 16.71875 46.636719 15.507812 47.1875 15.070312 48.289062 C 14.628906 49.058594 14.300781 49.828125 13.96875 50.378906 C 15.398438 39.160156 21.230469 12.757812 27.5 -14.1875 C 33.4375 -7.371094 39.160156 2.417969 44.878906 12.097656 C 55.328125 29.699219 66.105469 47.957031 78.976562 50.707031 C 80.078125 51.039062 81.285156 51.148438 82.386719 51.148438 C 86.015625 51.148438 89.644531 49.9375 93.164062 47.519531 C 94.046875 46.859375 94.265625 45.539062 93.605469 44.546875 C 92.945312 43.558594 91.625 43.339844 90.746094 43.996094 C 87.007812 46.527344 83.484375 47.40625 79.855469 46.636719 C 68.746094 44.21875 58.515625 26.730469 48.507812 9.898438 C 42.898438 0.328125 37.398438 -8.910156 31.679688 -15.839844 C 35.96875 -16.71875 40.476562 -18.257812 45.097656 -20.347656 C 61.707031 -27.71875 91.957031 -49.609375 107.90625 -112.636719 Z M 11.660156 -21.558594 C 10.339844 -22.4375 9.789062 -23.207031 9.679688 -23.539062 C 10.339844 -23.867188 12.757812 -24.199219 18.039062 -21.890625 C 19.578125 -21.230469 21.117188 -20.238281 22.660156 -19.027344 C 18.480469 -18.917969 14.628906 -19.578125 11.660156 -21.558594 Z M 11.660156 -21.558594 "/></g></g></g><g fill="#ff00ff" fill-opacity="1"><g transform="translate(169.04709, 229.825529)"><g><path d="M 37.179688 -24.527344 C 36.1875 -25.1875 34.867188 -24.96875 34.207031 -23.980469 C 25.957031 -12.429688 19.25 -5.167969 12.648438 -0.441406 C 9.347656 1.871094 6.160156 2.308594 4.070312 0.769531 C 2.75 -0.21875 -1.320312 -4.621094 3.410156 -20.019531 C 14.078125 -28.820312 19.910156 -37.179688 18.371094 -41.578125 C 17.820312 -42.898438 16.5 -43.777344 15.070312 -43.777344 C 10.667969 -43.667969 3.960938 -36.078125 -0.441406 -21.890625 C -5.828125 -4.398438 -1.429688 1.980469 1.648438 4.179688 C 3.191406 5.390625 4.949219 5.941406 6.929688 5.941406 C 9.460938 5.941406 12.320312 4.949219 15.070312 2.96875 C 22.109375 -2.089844 29.039062 -9.570312 37.617188 -21.558594 C 38.277344 -22.550781 38.058594 -23.867188 37.179688 -24.527344 Z M 14.1875 -39.160156 C 13.75 -37.398438 11.878906 -33.878906 6.710938 -28.597656 C 9.570312 -34.976562 12.648438 -38.058594 14.1875 -39.160156 Z M 14.1875 -39.160156 "/></g></g></g><g fill="#ff00ff" fill-opacity="1"><g transform="translate(201.054816, 229.825529)"><g><path d="M 92.835938 -64.898438 C 91.40625 -66.878906 85.027344 -68.085938 16.71875 -66.546875 C 18.917969 -75.457031 20.898438 -83.484375 22.660156 -89.976562 C 22.988281 -91.1875 22.328125 -92.285156 21.230469 -92.617188 C 20.128906 -92.945312 18.917969 -92.285156 18.589844 -91.1875 C 16.71875 -84.257812 14.628906 -75.898438 12.320312 -66.4375 C 6.269531 -66.328125 -0.328125 -66.21875 -7.480469 -65.996094 C -17.269531 -65.777344 -24.96875 -65.558594 -27.9375 -65.558594 C -29.148438 -65.558594 -30.136719 -64.566406 -30.136719 -63.46875 C -30.136719 -62.257812 -29.148438 -61.265625 -27.9375 -61.265625 C -24.859375 -61.378906 -17.160156 -61.488281 -7.371094 -61.816406 C -2.199219 -61.925781 4.179688 -62.039062 11.328125 -62.257812 C 6.601562 -42.238281 1.210938 -18.257812 -3.628906 5.167969 C -7.148438 22.328125 -10.007812 37.179688 -11.878906 48.066406 C -12.871094 53.789062 -13.53125 58.296875 -13.859375 61.378906 C -14.300781 65.558594 -14.519531 67.976562 -12.429688 68.746094 C -12.097656 68.746094 -11.878906 68.855469 -11.550781 68.855469 C -9.679688 68.855469 -8.691406 66.21875 -7.808594 63.796875 C -7.371094 62.695312 -7.917969 61.488281 -9.019531 61.046875 C -9.238281 61.046875 -9.347656 60.9375 -9.570312 60.9375 C -8.46875 52.359375 -5.167969 33.109375 1.210938 2.75 C 5.941406 -20.238281 11.109375 -43.226562 15.730469 -62.367188 C 45.976562 -63.027344 85.246094 -63.578125 89.757812 -62.039062 C 90.527344 -61.378906 91.515625 -61.378906 92.394531 -61.925781 C 93.277344 -62.585938 93.496094 -63.90625 92.835938 -64.898438 Z M 92.835938 -64.898438 "/></g></g></g><g fill="#ff00ff" fill-opacity="1"><g transform="translate(215.683775, 229.825529)"><g><path d="M 37.179688 -24.527344 C 36.1875 -25.1875 34.867188 -24.96875 34.207031 -23.980469 C 25.957031 -12.429688 19.25 -5.167969 12.648438 -0.441406 C 9.347656 1.871094 6.160156 2.308594 4.070312 0.769531 C 2.75 -0.21875 -1.320312 -4.621094 3.410156 -20.019531 C 14.078125 -28.820312 19.910156 -37.179688 18.371094 -41.578125 C 17.820312 -42.898438 16.5 -43.777344 15.070312 -43.777344 C 10.667969 -43.667969 3.960938 -36.078125 -0.441406 -21.890625 C -5.828125 -4.398438 -1.429688 1.980469 1.648438 4.179688 C 3.191406 5.390625 4.949219 5.941406 6.929688 5.941406 C 9.460938 5.941406 12.320312 4.949219 15.070312 2.96875 C 22.109375 -2.089844 29.039062 -9.570312 37.617188 -21.558594 C 38.277344 -22.550781 38.058594 -23.867188 37.179688 -24.527344 Z M 14.1875 -39.160156 C 13.75 -37.398438 11.878906 -33.878906 6.710938 -28.597656 C 9.570312 -34.976562 12.648438 -38.058594 14.1875 -39.160156 Z M 14.1875 -39.160156 "/></g></g></g><g fill="#ff00ff" fill-opacity="1"><g transform="translate(247.6915, 229.825529)"><g><path d="M 32.339844 -103.066406 C 31.570312 -104.054688 30.46875 -104.496094 29.367188 -104.386719 C 23.097656 -103.285156 16.390625 -79.855469 14.519531 -72.707031 C 9.019531 -51.699219 2.089844 -21.890625 -3.519531 4.839844 C -6.160156 17.488281 -8.25 28.160156 -9.570312 35.859375 C -11.769531 48.835938 -11.441406 50.488281 -9.347656 51.039062 C -9.128906 51.148438 -8.910156 51.148438 -8.691406 51.148438 C -6.710938 51.148438 -5.71875 48.507812 -4.730469 45.648438 C -4.398438 44.546875 -4.949219 43.339844 -6.050781 43.007812 C -6.160156 42.898438 -6.269531 42.898438 -6.378906 42.898438 C -4.070312 27.058594 5.390625 -19.027344 15.070312 -57.636719 C 15.070312 -57.746094 15.179688 -57.855469 15.289062 -57.96875 C 29.589844 -80.625 35.199219 -98.664062 32.339844 -103.066406 Z M 18.808594 -72.488281 C 22.988281 -87.996094 26.730469 -95.476562 28.707031 -98.554688 C 28.269531 -94.484375 25.847656 -85.6875 18.808594 -72.488281 Z M 18.808594 -72.488281 "/></g></g></g><g fill="#ff00ff" fill-opacity="1"><g transform="translate(264.41031, 229.825529)"><g><path d="M 48.949219 -25.1875 C 48.066406 -25.957031 46.746094 -25.847656 45.976562 -24.96875 C 37.289062 -14.960938 23.648438 0.988281 21.449219 3.851562 C 20.789062 4.621094 20.128906 5.5 19.46875 6.378906 C 18.589844 4.179688 17.488281 2.089844 16.058594 -0.109375 C 10.78125 -8.25 6.050781 -15.949219 6.269531 -21.339844 C 6.488281 -25.628906 8.691406 -29.367188 12.320312 -31.570312 C 15.289062 -33.328125 18.589844 -33.660156 21.117188 -32.449219 C 22.109375 -32.007812 23.429688 -32.449219 23.867188 -33.546875 C 24.417969 -34.539062 23.980469 -35.859375 22.878906 -36.296875 C 19.140625 -38.058594 14.300781 -37.617188 10.121094 -35.199219 C 5.28125 -32.230469 2.417969 -27.277344 2.089844 -21.558594 C 1.761719 -14.847656 6.601562 -6.820312 12.539062 2.199219 C 14.410156 5.058594 15.621094 7.808594 16.390625 10.449219 C 7.808594 22.109375 -1.429688 37.066406 3.300781 41.6875 C 4.070312 42.457031 5.058594 42.789062 6.050781 42.789062 C 7.808594 42.789062 9.789062 41.90625 11.878906 40.257812 C 17.820312 35.308594 23.980469 24.089844 21.007812 11.328125 C 22.21875 9.789062 23.429688 8.140625 24.75 6.488281 C 26.949219 3.738281 40.589844 -12.210938 49.167969 -22.21875 C 49.9375 -23.097656 49.828125 -24.417969 48.949219 -25.1875 Z M 13.199219 32.339844 C 10.230469 36.738281 7.257812 38.5 6.269531 38.609375 C 5.828125 37.066406 7.257812 30.6875 17.488281 16.167969 C 17.929688 24.089844 14.628906 30.136719 13.199219 32.339844 Z M 13.199219 32.339844 "/></g></g></g><g fill="#ff00ff" fill-opacity="1"><g transform="translate(308.737154, 229.825529)"><g><path d="M 37.179688 -24.527344 C 36.1875 -25.1875 34.867188 -24.96875 34.207031 -23.980469 C 25.957031 -12.429688 19.25 -5.167969 12.648438 -0.441406 C 9.347656 1.871094 6.160156 2.308594 4.070312 0.769531 C 2.75 -0.21875 -1.320312 -4.621094 3.410156 -20.019531 C 14.078125 -28.820312 19.910156 -37.179688 18.371094 -41.578125 C 17.820312 -42.898438 16.5 -43.777344 15.070312 -43.777344 C 10.667969 -43.667969 3.960938 -36.078125 -0.441406 -21.890625 C -5.828125 -4.398438 -1.429688 1.980469 1.648438 4.179688 C 3.191406 5.390625 4.949219 5.941406 6.929688 5.941406 C 9.460938 5.941406 12.320312 4.949219 15.070312 2.96875 C 22.109375 -2.089844 29.039062 -9.570312 37.617188 -21.558594 C 38.277344 -22.550781 38.058594 -23.867188 37.179688 -24.527344 Z M 14.1875 -39.160156 C 13.75 -37.398438 11.878906 -33.878906 6.710938 -28.597656 C 9.570312 -34.976562 12.648438 -38.058594 14.1875 -39.160156 Z M 14.1875 -39.160156 "/></g></g></g><g fill="#ff00ff" fill-opacity="1"><g transform="translate(340.744879, 229.825529)"><g><path d="M 44.21875 -24.527344 C 43.226562 -25.078125 41.90625 -24.75 41.359375 -23.648438 C 38.71875 -19.140625 31.789062 -6.929688 27.828125 -7.371094 C 27.058594 -7.480469 24.859375 -8.578125 22.660156 -16.277344 C 21.117188 -21.667969 19.027344 -26.730469 14.960938 -26.949219 C 11.988281 -27.167969 8.691406 -24.859375 3.628906 -15.398438 C 4.949219 -20.128906 6.378906 -24.859375 7.480469 -28.707031 C 7.917969 -30.136719 8.25 -31.347656 8.578125 -32.558594 C 8.910156 -33.660156 8.25 -34.867188 7.148438 -35.199219 C 6.050781 -35.527344 4.839844 -34.867188 4.511719 -33.660156 C 4.179688 -32.558594 3.851562 -31.238281 3.410156 -29.917969 C 0.550781 -20.128906 -3.738281 -5.28125 -4.839844 3.738281 C -4.949219 4.730469 -4.289062 5.71875 -3.300781 5.941406 C -3.078125 6.050781 -2.96875 6.050781 -2.75 6.050781 C -1.871094 6.050781 -1.101562 5.5 -0.769531 4.730469 C 9.570312 -21.007812 13.75 -22.769531 14.738281 -22.769531 C 14.960938 -22.769531 16.5 -22.328125 18.589844 -15.070312 C 20.789062 -7.480469 23.648438 -3.628906 27.390625 -3.191406 C 33 -2.53125 38.058594 -9.460938 44.988281 -21.558594 C 45.648438 -22.660156 45.207031 -23.867188 44.21875 -24.527344 Z M 44.21875 -24.527344 "/></g></g></g><g fill="#00ffff" fill-opacity="1"><g transform="translate(76.048376, 229.825529)"><g><path d="M 107.90625 -112.636719 C 108.234375 -113.734375 107.464844 -114.945312 106.363281 -115.164062 C 105.265625 -115.496094 104.054688 -114.835938 103.835938 -113.625 C 88.214844 -52.46875 59.289062 -31.347656 43.339844 -24.199219 C 38.9375 -22.21875 33.769531 -20.460938 28.820312 -19.578125 C 32.667969 -35.96875 36.519531 -52.136719 39.597656 -64.785156 C 42.789062 -77.875 45.429688 -89.207031 47.40625 -97.34375 C 47.628906 -98.445312 46.859375 -99.65625 45.757812 -99.875 C 44.65625 -100.09375 43.449219 -99.433594 43.226562 -98.335938 C 41.359375 -90.195312 38.609375 -78.867188 35.417969 -65.777344 C 32.230469 -52.46875 28.597656 -37.398438 25.078125 -22.4375 C 23.320312 -23.867188 21.558594 -24.96875 19.6875 -25.738281 C 13.199219 -28.597656 8.25 -28.707031 6.269531 -26.070312 C 5.058594 -24.527344 5.167969 -22.328125 6.710938 -20.347656 C 9.128906 -17.378906 13.96875 -15.289062 19.800781 -14.847656 C 20.898438 -14.847656 22.109375 -14.738281 23.320312 -14.847656 C 21.007812 -5.058594 18.808594 4.511719 16.9375 13.308594 C 13.96875 26.617188 11.988281 36.628906 10.78125 43.777344 C 8.800781 55.65625 9.238281 58.078125 11.550781 58.847656 C 11.769531 58.957031 12.097656 59.066406 12.429688 59.066406 C 14.519531 59.066406 16.167969 56.097656 18.917969 49.9375 C 19.359375 48.835938 18.917969 47.628906 17.820312 47.1875 C 16.71875 46.636719 15.507812 47.1875 15.070312 48.289062 C 14.628906 49.058594 14.300781 49.828125 13.96875 50.378906 C 15.398438 39.160156 21.230469 12.757812 27.5 -14.1875 C 33.4375 -7.371094 39.160156 2.417969 44.878906 12.097656 C 55.328125 29.699219 66.105469 47.957031 78.976562 50.707031 C 80.078125 51.039062 81.285156 51.148438 82.386719 51.148438 C 86.015625 51.148438 89.644531 49.9375 93.164062 47.519531 C 94.046875 46.859375 94.265625 45.539062 93.605469 44.546875 C 92.945312 43.558594 91.625 43.339844 90.746094 43.996094 C 87.007812 46.527344 83.484375 47.40625 79.855469 46.636719 C 68.746094 44.21875 58.515625 26.730469 48.507812 9.898438 C 42.898438 0.328125 37.398438 -8.910156 31.679688 -15.839844 C 35.96875 -16.71875 40.476562 -18.257812 45.097656 -20.347656 C 61.707031 -27.71875 91.957031 -49.609375 107.90625 -112.636719 Z M 11.660156 -21.558594 C 10.339844 -22.4375 9.789062 -23.207031 9.679688 -23.539062 C 10.339844 -23.867188 12.757812 -24.199219 18.039062 -21.890625 C 19.578125 -21.230469 21.117188 -20.238281 22.660156 -19.027344 C 18.480469 -18.917969 14.628906 -19.578125 11.660156 -21.558594 Z M 11.660156 -21.558594 "/></g></g></g><g fill="#00ffff" fill-opacity="1"><g transform="translate(164.922076, 229.825529)"><g><path d="M 37.179688 -24.527344 C 36.1875 -25.1875 34.867188 -24.96875 34.207031 -23.980469 C 25.957031 -12.429688 19.25 -5.167969 12.648438 -0.441406 C 9.347656 1.871094 6.160156 2.308594 4.070312 0.769531 C 2.75 -0.21875 -1.320312 -4.621094 3.410156 -20.019531 C 14.078125 -28.820312 19.910156 -37.179688 18.371094 -41.578125 C 17.820312 -42.898438 16.5 -43.777344 15.070312 -43.777344 C 10.667969 -43.667969 3.960938 -36.078125 -0.441406 -21.890625 C -5.828125 -4.398438 -1.429688 1.980469 1.648438 4.179688 C 3.191406 5.390625 4.949219 5.941406 6.929688 5.941406 C 9.460938 5.941406 12.320312 4.949219 15.070312 2.96875 C 22.109375 -2.089844 29.039062 -9.570312 37.617188 -21.558594 C 38.277344 -22.550781 38.058594 -23.867188 37.179688 -24.527344 Z M 14.1875 -39.160156 C 13.75 -37.398438 11.878906 -33.878906 6.710938 -28.597656 C 9.570312 -34.976562 12.648438 -38.058594 14.1875 -39.160156 Z M 14.1875 -39.160156 "/></g></g></g><g fill="#00ffff" fill-opacity="1"><g transform="translate(196.929802, 229.825529)"><g><path d="M 92.835938 -64.898438 C 91.40625 -66.878906 85.027344 -68.085938 16.71875 -66.546875 C 18.917969 -75.457031 20.898438 -83.484375 22.660156 -89.976562 C 22.988281 -91.1875 22.328125 -92.285156 21.230469 -92.617188 C 20.128906 -92.945312 18.917969 -92.285156 18.589844 -91.1875 C 16.71875 -84.257812 14.628906 -75.898438 12.320312 -66.4375 C 6.269531 -66.328125 -0.328125 -66.21875 -7.480469 -65.996094 C -17.269531 -65.777344 -24.96875 -65.558594 -27.9375 -65.558594 C -29.148438 -65.558594 -30.136719 -64.566406 -30.136719 -63.46875 C -30.136719 -62.257812 -29.148438 -61.265625 -27.9375 -61.265625 C -24.859375 -61.378906 -17.160156 -61.488281 -7.371094 -61.816406 C -2.199219 -61.925781 4.179688 -62.039062 11.328125 -62.257812 C 6.601562 -42.238281 1.210938 -18.257812 -3.628906 5.167969 C -7.148438 22.328125 -10.007812 37.179688 -11.878906 48.066406 C -12.871094 53.789062 -13.53125 58.296875 -13.859375 61.378906 C -14.300781 65.558594 -14.519531 67.976562 -12.429688 68.746094 C -12.097656 68.746094 -11.878906 68.855469 -11.550781 68.855469 C -9.679688 68.855469 -8.691406 66.21875 -7.808594 63.796875 C -7.371094 62.695312 -7.917969 61.488281 -9.019531 61.046875 C -9.238281 61.046875 -9.347656 60.9375 -9.570312 60.9375 C -8.46875 52.359375 -5.167969 33.109375 1.210938 2.75 C 5.941406 -20.238281 11.109375 -43.226562 15.730469 -62.367188 C 45.976562 -63.027344 85.246094 -63.578125 89.757812 -62.039062 C 90.527344 -61.378906 91.515625 -61.378906 92.394531 -61.925781 C 93.277344 -62.585938 93.496094 -63.90625 92.835938 -64.898438 Z M 92.835938 -64.898438 "/></g></g></g><g fill="#00ffff" fill-opacity="1"><g transform="translate(211.558761, 229.825529)"><g><path d="M 37.179688 -24.527344 C 36.1875 -25.1875 34.867188 -24.96875 34.207031 -23.980469 C 25.957031 -12.429688 19.25 -5.167969 12.648438 -0.441406 C 9.347656 1.871094 6.160156 2.308594 4.070312 0.769531 C 2.75 -0.21875 -1.320312 -4.621094 3.410156 -20.019531 C 14.078125 -28.820312 19.910156 -37.179688 18.371094 -41.578125 C 17.820312 -42.898438 16.5 -43.777344 15.070312 -43.777344 C 10.667969 -43.667969 3.960938 -36.078125 -0.441406 -21.890625 C -5.828125 -4.398438 -1.429688 1.980469 1.648438 4.179688 C 3.191406 5.390625 4.949219 5.941406 6.929688 5.941406 C 9.460938 5.941406 12.320312 4.949219 15.070312 2.96875 C 22.109375 -2.089844 29.039062 -9.570312 37.617188 -21.558594 C 38.277344 -22.550781 38.058594 -23.867188 37.179688 -24.527344 Z M 14.1875 -39.160156 C 13.75 -37.398438 11.878906 -33.878906 6.710938 -28.597656 C 9.570312 -34.976562 12.648438 -38.058594 14.1875 -39.160156 Z M 14.1875 -39.160156 "/></g></g></g><g fill="#00ffff" fill-opacity="1"><g transform="translate(243.566486, 229.825529)"><g><path d="M 32.339844 -103.066406 C 31.570312 -104.054688 30.46875 -104.496094 29.367188 -104.386719 C 23.097656 -103.285156 16.390625 -79.855469 14.519531 -72.707031 C 9.019531 -51.699219 2.089844 -21.890625 -3.519531 4.839844 C -6.160156 17.488281 -8.25 28.160156 -9.570312 35.859375 C -11.769531 48.835938 -11.441406 50.488281 -9.347656 51.039062 C -9.128906 51.148438 -8.910156 51.148438 -8.691406 51.148438 C -6.710938 51.148438 -5.71875 48.507812 -4.730469 45.648438 C -4.398438 44.546875 -4.949219 43.339844 -6.050781 43.007812 C -6.160156 42.898438 -6.269531 42.898438 -6.378906 42.898438 C -4.070312 27.058594 5.390625 -19.027344 15.070312 -57.636719 C 15.070312 -57.746094 15.179688 -57.855469 15.289062 -57.96875 C 29.589844 -80.625 35.199219 -98.664062 32.339844 -103.066406 Z M 18.808594 -72.488281 C 22.988281 -87.996094 26.730469 -95.476562 28.707031 -98.554688 C 28.269531 -94.484375 25.847656 -85.6875 18.808594 -72.488281 Z M 18.808594 -72.488281 "/></g></g></g><g fill="#00ffff" fill-opacity="1"><g transform="translate(260.285296, 229.825529)"><g><path d="M 48.949219 -25.1875 C 48.066406 -25.957031 46.746094 -25.847656 45.976562 -24.96875 C 37.289062 -14.960938 23.648438 0.988281 21.449219 3.851562 C 20.789062 4.621094 20.128906 5.5 19.46875 6.378906 C 18.589844 4.179688 17.488281 2.089844 16.058594 -0.109375 C 10.78125 -8.25 6.050781 -15.949219 6.269531 -21.339844 C 6.488281 -25.628906 8.691406 -29.367188 12.320312 -31.570312 C 15.289062 -33.328125 18.589844 -33.660156 21.117188 -32.449219 C 22.109375 -32.007812 23.429688 -32.449219 23.867188 -33.546875 C 24.417969 -34.539062 23.980469 -35.859375 22.878906 -36.296875 C 19.140625 -38.058594 14.300781 -37.617188 10.121094 -35.199219 C 5.28125 -32.230469 2.417969 -27.277344 2.089844 -21.558594 C 1.761719 -14.847656 6.601562 -6.820312 12.539062 2.199219 C 14.410156 5.058594 15.621094 7.808594 16.390625 10.449219 C 7.808594 22.109375 -1.429688 37.066406 3.300781 41.6875 C 4.070312 42.457031 5.058594 42.789062 6.050781 42.789062 C 7.808594 42.789062 9.789062 41.90625 11.878906 40.257812 C 17.820312 35.308594 23.980469 24.089844 21.007812 11.328125 C 22.21875 9.789062 23.429688 8.140625 24.75 6.488281 C 26.949219 3.738281 40.589844 -12.210938 49.167969 -22.21875 C 49.9375 -23.097656 49.828125 -24.417969 48.949219 -25.1875 Z M 13.199219 32.339844 C 10.230469 36.738281 7.257812 38.5 6.269531 38.609375 C 5.828125 37.066406 7.257812 30.6875 17.488281 16.167969 C 17.929688 24.089844 14.628906 30.136719 13.199219 32.339844 Z M 13.199219 32.339844 "/></g></g></g><g fill="#00ffff" fill-opacity="1"><g transform="translate(304.61214, 229.825529)"><g><path d="M 37.179688 -24.527344 C 36.1875 -25.1875 34.867188 -24.96875 34.207031 -23.980469 C 25.957031 -12.429688 19.25 -5.167969 12.648438 -0.441406 C 9.347656 1.871094 6.160156 2.308594 4.070312 0.769531 C 2.75 -0.21875 -1.320312 -4.621094 3.410156 -20.019531 C 14.078125 -28.820312 19.910156 -37.179688 18.371094 -41.578125 C 17.820312 -42.898438 16.5 -43.777344 15.070312 -43.777344 C 10.667969 -43.667969 3.960938 -36.078125 -0.441406 -21.890625 C -5.828125 -4.398438 -1.429688 1.980469 1.648438 4.179688 C 3.191406 5.390625 4.949219 5.941406 6.929688 5.941406 C 9.460938 5.941406 12.320312 4.949219 15.070312 2.96875 C 22.109375 -2.089844 29.039062 -9.570312 37.617188 -21.558594 C 38.277344 -22.550781 38.058594 -23.867188 37.179688 -24.527344 Z M 14.1875 -39.160156 C 13.75 -37.398438 11.878906 -33.878906 6.710938 -28.597656 C 9.570312 -34.976562 12.648438 -38.058594 14.1875 -39.160156 Z M 14.1875 -39.160156 "/></g></g></g><g fill="#00ffff" fill-opacity="1"><g transform="translate(336.619865, 229.825529)"><g><path d="M 44.21875 -24.527344 C 43.226562 -25.078125 41.90625 -24.75 41.359375 -23.648438 C 38.71875 -19.140625 31.789062 -6.929688 27.828125 -7.371094 C 27.058594 -7.480469 24.859375 -8.578125 22.660156 -16.277344 C 21.117188 -21.667969 19.027344 -26.730469 14.960938 -26.949219 C 11.988281 -27.167969 8.691406 -24.859375 3.628906 -15.398438 C 4.949219 -20.128906 6.378906 -24.859375 7.480469 -28.707031 C 7.917969 -30.136719 8.25 -31.347656 8.578125 -32.558594 C 8.910156 -33.660156 8.25 -34.867188 7.148438 -35.199219 C 6.050781 -35.527344 4.839844 -34.867188 4.511719 -33.660156 C 4.179688 -32.558594 3.851562 -31.238281 3.410156 -29.917969 C 0.550781 -20.128906 -3.738281 -5.28125 -4.839844 3.738281 C -4.949219 4.730469 -4.289062 5.71875 -3.300781 5.941406 C -3.078125 6.050781 -2.96875 6.050781 -2.75 6.050781 C -1.871094 6.050781 -1.101562 5.5 -0.769531 4.730469 C 9.570312 -21.007812 13.75 -22.769531 14.738281 -22.769531 C 14.960938 -22.769531 16.5 -22.328125 18.589844 -15.070312 C 20.789062 -7.480469 23.648438 -3.628906 27.390625 -3.191406 C 33 -2.53125 38.058594 -9.460938 44.988281 -21.558594 C 45.648438 -22.660156 45.207031 -23.867188 44.21875 -24.527344 Z M 44.21875 -24.527344 "/></g></g></g><g fill="#000000" fill-opacity="1"><g transform="translate(78.110884, 229.825529)"><g><path d="M 107.90625 -112.636719 C 108.234375 -113.734375 107.464844 -114.945312 106.363281 -115.164062 C 105.265625 -115.496094 104.054688 -114.835938 103.835938 -113.625 C 88.214844 -52.46875 59.289062 -31.347656 43.339844 -24.199219 C 38.9375 -22.21875 33.769531 -20.460938 28.820312 -19.578125 C 32.667969 -35.96875 36.519531 -52.136719 39.597656 -64.785156 C 42.789062 -77.875 45.429688 -89.207031 47.40625 -97.34375 C 47.628906 -98.445312 46.859375 -99.65625 45.757812 -99.875 C 44.65625 -100.09375 43.449219 -99.433594 43.226562 -98.335938 C 41.359375 -90.195312 38.609375 -78.867188 35.417969 -65.777344 C 32.230469 -52.46875 28.597656 -37.398438 25.078125 -22.4375 C 23.320312 -23.867188 21.558594 -24.96875 19.6875 -25.738281 C 13.199219 -28.597656 8.25 -28.707031 6.269531 -26.070312 C 5.058594 -24.527344 5.167969 -22.328125 6.710938 -20.347656 C 9.128906 -17.378906 13.96875 -15.289062 19.800781 -14.847656 C 20.898438 -14.847656 22.109375 -14.738281 23.320312 -14.847656 C 21.007812 -5.058594 18.808594 4.511719 16.9375 13.308594 C 13.96875 26.617188 11.988281 36.628906 10.78125 43.777344 C 8.800781 55.65625 9.238281 58.078125 11.550781 58.847656 C 11.769531 58.957031 12.097656 59.066406 12.429688 59.066406 C 14.519531 59.066406 16.167969 56.097656 18.917969 49.9375 C 19.359375 48.835938 18.917969 47.628906 17.820312 47.1875 C 16.71875 46.636719 15.507812 47.1875 15.070312 48.289062 C 14.628906 49.058594 14.300781 49.828125 13.96875 50.378906 C 15.398438 39.160156 21.230469 12.757812 27.5 -14.1875 C 33.4375 -7.371094 39.160156 2.417969 44.878906 12.097656 C 55.328125 29.699219 66.105469 47.957031 78.976562 50.707031 C 80.078125 51.039062 81.285156 51.148438 82.386719 51.148438 C 86.015625 51.148438 89.644531 49.9375 93.164062 47.519531 C 94.046875 46.859375 94.265625 45.539062 93.605469 44.546875 C 92.945312 43.558594 91.625 43.339844 90.746094 43.996094 C 87.007812 46.527344 83.484375 47.40625 79.855469 46.636719 C 68.746094 44.21875 58.515625 26.730469 48.507812 9.898438 C 42.898438 0.328125 37.398438 -8.910156 31.679688 -15.839844 C 35.96875 -16.71875 40.476562 -18.257812 45.097656 -20.347656 C 61.707031 -27.71875 91.957031 -49.609375 107.90625 -112.636719 Z M 11.660156 -21.558594 C 10.339844 -22.4375 9.789062 -23.207031 9.679688 -23.539062 C 10.339844 -23.867188 12.757812 -24.199219 18.039062 -21.890625 C 19.578125 -21.230469 21.117188 -20.238281 22.660156 -19.027344 C 18.480469 -18.917969 14.628906 -19.578125 11.660156 -21.558594 Z M 11.660156 -21.558594 "/></g></g></g><g fill="#000000" fill-opacity="1"><g transform="translate(166.984583, 229.825529)"><g><path d="M 37.179688 -24.527344 C 36.1875 -25.1875 34.867188 -24.96875 34.207031 -23.980469 C 25.957031 -12.429688 19.25 -5.167969 12.648438 -0.441406 C 9.347656 1.871094 6.160156 2.308594 4.070312 0.769531 C 2.75 -0.21875 -1.320312 -4.621094 3.410156 -20.019531 C 14.078125 -28.820312 19.910156 -37.179688 18.371094 -41.578125 C 17.820312 -42.898438 16.5 -43.777344 15.070312 -43.777344 C 10.667969 -43.667969 3.960938 -36.078125 -0.441406 -21.890625 C -5.828125 -4.398438 -1.429688 1.980469 1.648438 4.179688 C 3.191406 5.390625 4.949219 5.941406 6.929688 5.941406 C 9.460938 5.941406 12.320312 4.949219 15.070312 2.96875 C 22.109375 -2.089844 29.039062 -9.570312 37.617188 -21.558594 C 38.277344 -22.550781 38.058594 -23.867188 37.179688 -24.527344 Z M 14.1875 -39.160156 C 13.75 -37.398438 11.878906 -33.878906 6.710938 -28.597656 C 9.570312 -34.976562 12.648438 -38.058594 14.1875 -39.160156 Z M 14.1875 -39.160156 "/></g></g></g><g fill="#000000" fill-opacity="1"><g transform="translate(198.992309, 229.825529)"><g><path d="M 92.835938 -64.898438 C 91.40625 -66.878906 85.027344 -68.085938 16.71875 -66.546875 C 18.917969 -75.457031 20.898438 -83.484375 22.660156 -89.976562 C 22.988281 -91.1875 22.328125 -92.285156 21.230469 -92.617188 C 20.128906 -92.945312 18.917969 -92.285156 18.589844 -91.1875 C 16.71875 -84.257812 14.628906 -75.898438 12.320312 -66.4375 C 6.269531 -66.328125 -0.328125 -66.21875 -7.480469 -65.996094 C -17.269531 -65.777344 -24.96875 -65.558594 -27.9375 -65.558594 C -29.148438 -65.558594 -30.136719 -64.566406 -30.136719 -63.46875 C -30.136719 -62.257812 -29.148438 -61.265625 -27.9375 -61.265625 C -24.859375 -61.378906 -17.160156 -61.488281 -7.371094 -61.816406 C -2.199219 -61.925781 4.179688 -62.039062 11.328125 -62.257812 C 6.601562 -42.238281 1.210938 -18.257812 -3.628906 5.167969 C -7.148438 22.328125 -10.007812 37.179688 -11.878906 48.066406 C -12.871094 53.789062 -13.53125 58.296875 -13.859375 61.378906 C -14.300781 65.558594 -14.519531 67.976562 -12.429688 68.746094 C -12.097656 68.746094 -11.878906 68.855469 -11.550781 68.855469 C -9.679688 68.855469 -8.691406 66.21875 -7.808594 63.796875 C -7.371094 62.695312 -7.917969 61.488281 -9.019531 61.046875 C -9.238281 61.046875 -9.347656 60.9375 -9.570312 60.9375 C -8.46875 52.359375 -5.167969 33.109375 1.210938 2.75 C 5.941406 -20.238281 11.109375 -43.226562 15.730469 -62.367188 C 45.976562 -63.027344 85.246094 -63.578125 89.757812 -62.039062 C 90.527344 -61.378906 91.515625 -61.378906 92.394531 -61.925781 C 93.277344 -62.585938 93.496094 -63.90625 92.835938 -64.898438 Z M 92.835938 -64.898438 "/></g></g></g><g fill="#000000" fill-opacity="1"><g transform="translate(213.621268, 229.825529)"><g><path d="M 37.179688 -24.527344 C 36.1875 -25.1875 34.867188 -24.96875 34.207031 -23.980469 C 25.957031 -12.429688 19.25 -5.167969 12.648438 -0.441406 C 9.347656 1.871094 6.160156 2.308594 4.070312 0.769531 C 2.75 -0.21875 -1.320312 -4.621094 3.410156 -20.019531 C 14.078125 -28.820312 19.910156 -37.179688 18.371094 -41.578125 C 17.820312 -42.898438 16.5 -43.777344 15.070312 -43.777344 C 10.667969 -43.667969 3.960938 -36.078125 -0.441406 -21.890625 C -5.828125 -4.398438 -1.429688 1.980469 1.648438 4.179688 C 3.191406 5.390625 4.949219 5.941406 6.929688 5.941406 C 9.460938 5.941406 12.320312 4.949219 15.070312 2.96875 C 22.109375 -2.089844 29.039062 -9.570312 37.617188 -21.558594 C 38.277344 -22.550781 38.058594 -23.867188 37.179688 -24.527344 Z M 14.1875 -39.160156 C 13.75 -37.398438 11.878906 -33.878906 6.710938 -28.597656 C 9.570312 -34.976562 12.648438 -38.058594 14.1875 -39.160156 Z M 14.1875 -39.160156 "/></g></g></g><g fill="#000000" fill-opacity="1"><g transform="translate(245.628993, 229.825529)"><g><path d="M 32.339844 -103.066406 C 31.570312 -104.054688 30.46875 -104.496094 29.367188 -104.386719 C 23.097656 -103.285156 16.390625 -79.855469 14.519531 -72.707031 C 9.019531 -51.699219 2.089844 -21.890625 -3.519531 4.839844 C -6.160156 17.488281 -8.25 28.160156 -9.570312 35.859375 C -11.769531 48.835938 -11.441406 50.488281 -9.347656 51.039062 C -9.128906 51.148438 -8.910156 51.148438 -8.691406 51.148438 C -6.710938 51.148438 -5.71875 48.507812 -4.730469 45.648438 C -4.398438 44.546875 -4.949219 43.339844 -6.050781 43.007812 C -6.160156 42.898438 -6.269531 42.898438 -6.378906 42.898438 C -4.070312 27.058594 5.390625 -19.027344 15.070312 -57.636719 C 15.070312 -57.746094 15.179688 -57.855469 15.289062 -57.96875 C 29.589844 -80.625 35.199219 -98.664062 32.339844 -103.066406 Z M 18.808594 -72.488281 C 22.988281 -87.996094 26.730469 -95.476562 28.707031 -98.554688 C 28.269531 -94.484375 25.847656 -85.6875 18.808594 -72.488281 Z M 18.808594 -72.488281 "/></g></g></g><g fill="#000000" fill-opacity="1"><g transform="translate(262.347803, 229.825529)"><g><path d="M 48.949219 -25.1875 C 48.066406 -25.957031 46.746094 -25.847656 45.976562 -24.96875 C 37.289062 -14.960938 23.648438 0.988281 21.449219 3.851562 C 20.789062 4.621094 20.128906 5.5 19.46875 6.378906 C 18.589844 4.179688 17.488281 2.089844 16.058594 -0.109375 C 10.78125 -8.25 6.050781 -15.949219 6.269531 -21.339844 C 6.488281 -25.628906 8.691406 -29.367188 12.320312 -31.570312 C 15.289062 -33.328125 18.589844 -33.660156 21.117188 -32.449219 C 22.109375 -32.007812 23.429688 -32.449219 23.867188 -33.546875 C 24.417969 -34.539062 23.980469 -35.859375 22.878906 -36.296875 C 19.140625 -38.058594 14.300781 -37.617188 10.121094 -35.199219 C 5.28125 -32.230469 2.417969 -27.277344 2.089844 -21.558594 C 1.761719 -14.847656 6.601562 -6.820312 12.539062 2.199219 C 14.410156 5.058594 15.621094 7.808594 16.390625 10.449219 C 7.808594 22.109375 -1.429688 37.066406 3.300781 41.6875 C 4.070312 42.457031 5.058594 42.789062 6.050781 42.789062 C 7.808594 42.789062 9.789062 41.90625 11.878906 40.257812 C 17.820312 35.308594 23.980469 24.089844 21.007812 11.328125 C 22.21875 9.789062 23.429688 8.140625 24.75 6.488281 C 26.949219 3.738281 40.589844 -12.210938 49.167969 -22.21875 C 49.9375 -23.097656 49.828125 -24.417969 48.949219 -25.1875 Z M 13.199219 32.339844 C 10.230469 36.738281 7.257812 38.5 6.269531 38.609375 C 5.828125 37.066406 7.257812 30.6875 17.488281 16.167969 C 17.929688 24.089844 14.628906 30.136719 13.199219 32.339844 Z M 13.199219 32.339844 "/></g></g></g><g fill="#000000" fill-opacity="1"><g transform="translate(306.674647, 229.825529)"><g><path d="M 37.179688 -24.527344 C 36.1875 -25.1875 34.867188 -24.96875 34.207031 -23.980469 C 25.957031 -12.429688 19.25 -5.167969 12.648438 -0.441406 C 9.347656 1.871094 6.160156 2.308594 4.070312 0.769531 C 2.75 -0.21875 -1.320312 -4.621094 3.410156 -20.019531 C 14.078125 -28.820312 19.910156 -37.179688 18.371094 -41.578125 C 17.820312 -42.898438 16.5 -43.777344 15.070312 -43.777344 C 10.667969 -43.667969 3.960938 -36.078125 -0.441406 -21.890625 C -5.828125 -4.398438 -1.429688 1.980469 1.648438 4.179688 C 3.191406 5.390625 4.949219 5.941406 6.929688 5.941406 C 9.460938 5.941406 12.320312 4.949219 15.070312 2.96875 C 22.109375 -2.089844 29.039062 -9.570312 37.617188 -21.558594 C 38.277344 -22.550781 38.058594 -23.867188 37.179688 -24.527344 Z M 14.1875 -39.160156 C 13.75 -37.398438 11.878906 -33.878906 6.710938 -28.597656 C 9.570312 -34.976562 12.648438 -38.058594 14.1875 -39.160156 Z M 14.1875 -39.160156 "/></g></g></g><g fill="#000000" fill-opacity="1"><g transform="translate(338.682372, 229.825529)"><g><path d="M 44.21875 -24.527344 C 43.226562 -25.078125 41.90625 -24.75 41.359375 -23.648438 C 38.71875 -19.140625 31.789062 -6.929688 27.828125 -7.371094 C 27.058594 -7.480469 24.859375 -8.578125 22.660156 -16.277344 C 21.117188 -21.667969 19.027344 -26.730469 14.960938 -26.949219 C 11.988281 -27.167969 8.691406 -24.859375 3.628906 -15.398438 C 4.949219 -20.128906 6.378906 -24.859375 7.480469 -28.707031 C 7.917969 -30.136719 8.25 -31.347656 8.578125 -32.558594 C 8.910156 -33.660156 8.25 -34.867188 7.148438 -35.199219 C 6.050781 -35.527344 4.839844 -34.867188 4.511719 -33.660156 C 4.179688 -32.558594 3.851562 -31.238281 3.410156 -29.917969 C 0.550781 -20.128906 -3.738281 -5.28125 -4.839844 3.738281 C -4.949219 4.730469 -4.289062 5.71875 -3.300781 5.941406 C -3.078125 6.050781 -2.96875 6.050781 -2.75 6.050781 C -1.871094 6.050781 -1.101562 5.5 -0.769531 4.730469 C 9.570312 -21.007812 13.75 -22.769531 14.738281 -22.769531 C 14.960938 -22.769531 16.5 -22.328125 18.589844 -15.070312 C 20.789062 -7.480469 23.648438 -3.628906 27.390625 -3.191406 C 33 -2.53125 38.058594 -9.460938 44.988281 -21.558594 C 45.648438 -22.660156 45.207031 -23.867188 44.21875 -24.527344 Z M 44.21875 -24.527344 "/></g></g></g></svg>